<svg width="20" height="20" viewBox="0 0 20 20" fill="none" xmlns="http://www.w3.org/2000/svg">
<path d="M10 7.5C8.63167 7.5 7.5 8.6325 7.5 10C7.5 11.3683 8.63167 12.5 10 12.5C11.3675 12.5 12.5 11.3683 12.5 10C12.5 8.6325 11.3675 7.5 10 7.5Z" fill="#868EBE"/>
<path d="M9.99998 4.16675C3.63914 4.16675 1.72748 9.68092 1.70998 9.73675L1.62164 10.0001L1.70914 10.2634C1.72748 10.3192 3.63914 15.8334 9.99998 15.8334C16.3608 15.8334 18.2725 10.3192 18.29 10.2634L18.3783 10.0001L18.2908 9.73675C18.2725 9.68092 16.3608 4.16675 9.99998 4.16675ZM9.99998 14.1667C5.54081 14.1667 3.81331 10.9617 3.39498 10.0001C3.81498 9.03508 5.54331 5.83341 9.99998 5.83341C14.4591 5.83341 16.1866 9.03842 16.605 10.0001C16.185 10.9651 14.4566 14.1667 9.99998 14.1667Z" fill="#868EBE"/>
<path fill-rule="evenodd" clip-rule="evenodd" d="M5.5502 2.42847L4.13599 3.84268L5.56308 5.26978C2.69809 6.88205 1.72252 9.69716 1.71004 9.73698L1.6217 10.0003L1.7092 10.2636C1.72754 10.3195 3.6392 15.8336 10 15.8336C12.0249 15.8336 13.599 15.2748 14.8045 14.5112L16.1568 15.8635L17.571 14.4493L16.3623 13.2405C17.7585 11.801 18.2809 10.2927 18.29 10.2636L18.3784 10.0003L18.2909 9.73698C18.2725 9.68114 16.3609 4.16697 10 4.16697C9.10944 4.16697 8.30606 4.27507 7.58288 4.46115L5.5502 2.42847ZM6.79395 6.50064C4.65622 7.49257 3.69405 9.31328 3.39504 10.0003C3.81337 10.962 5.54087 14.167 10 14.167C11.4837 14.167 12.6651 13.8121 13.5964 13.3031L6.79395 6.50064ZM15.2003 12.0786L9.01072 5.88899C9.32449 5.85294 9.65404 5.83364 10 5.83364C14.4592 5.83364 16.1867 9.03864 16.605 10.0003C16.4226 10.4196 15.9931 11.261 15.2003 12.0786Z" fill="#868EBE"/>
<path d="M2.73431 5.26587L4.14853 3.85166L16.1693 15.8725L14.7551 17.2867L2.73431 5.26587Z" fill="#16163A"/>
</svg>
