<svg width="20" height="20" viewBox="0 0 20 20" fill="none" xmlns="http://www.w3.org/2000/svg">
<path d="M10 1.6665C5.40502 1.6665 1.66669 5.40484 1.66669 9.99984C1.66669 14.5948 5.40502 18.3332 10 18.3332C14.595 18.3332 18.3334 14.5948 18.3334 9.99984C18.3334 5.40484 14.595 1.6665 10 1.6665ZM3.33335 9.99984C3.33335 8.4615 3.86169 7.04817 4.74002 5.919L14.0809 15.2598C12.9525 16.1382 11.5384 16.6665 10 16.6665C6.32419 16.6665 3.33335 13.6757 3.33335 9.99984ZM15.26 14.0807L5.91919 4.73984C7.04835 3.8615 8.46169 3.33317 10 3.33317C13.6759 3.33317 16.6667 6.324 16.6667 9.99984C16.6667 11.5382 16.1375 12.9515 15.26 14.0807Z" fill="#868EBE"/>
</svg>
