<svg width="84" height="94" viewBox="0 0 84 94" fill="none" xmlns="http://www.w3.org/2000/svg">
<path fill-rule="evenodd" clip-rule="evenodd" d="M13.1469 48.8756L41.9353 14.2541L70.7238 48.8756L41.9353 83.4974L13.1469 48.8756Z" fill="white"/>
<path d="M7.73828 46.5339L7.7383 46.5339L36.527 11.9124L36.9114 12.2321L36.527 11.9124L41.5515 5.87017L41.9359 5.40786L42.3204 5.87017L47.3449 11.9124L46.9604 12.2321L47.3449 11.9124L76.1335 46.5339L77.8152 48.5559L78.0811 48.8756L77.8152 49.1953L76.1335 51.2178L47.3449 85.8394L42.3204 91.8821L41.9359 92.3444L41.5515 91.8821L36.527 85.8394L7.73829 51.2178L7.73825 51.2177L6.05703 49.1953L5.79131 48.8756L6.05706 48.556L7.73828 46.5339ZM63.3684 48.8756L41.9359 23.1013L20.5037 48.8756L41.9359 74.6506L63.3684 48.8756Z" fill="white" stroke="white"/>
<mask id="path-3-outside-1" maskUnits="userSpaceOnUse" x="-0.6875" y="-0.160572" width="85" height="92" fill="black">
<rect fill="white" x="-0.6875" y="-0.160572" width="85" height="92"/>
<path d="M26.697 60.7066L34.5596 69.6832L35.7551 71.0481L34.6049 72.4322L20.6392 89.24L19.6277 90.4577L17.6076 90.5777C16.1516 90.664 14.6257 90.5675 13.1653 90.3305C11.6933 90.0918 10.2425 89.6922 8.97066 89.182C7.6459 88.6505 6.43209 88.0035 5.34352 87.2402C4.28222 86.4961 3.32362 85.637 2.4798 84.6621L1.3125 83.3135L2.44945 81.9447L20.043 60.7697L23.3092 56.8388L26.697 60.7066ZM26.7554 71.1198L23.4761 67.3764L10.3932 83.1227C10.5354 83.2357 10.6813 83.3443 10.8305 83.4487C11.4554 83.8867 12.1213 84.2463 12.8205 84.5266C13.4106 84.7634 14.1384 84.9579 14.9239 85.0851C14.9912 85.0958 15.0585 85.1065 15.1257 85.1161L26.7554 71.1198ZM59.3355 56.7081L50.7987 66.7815L47.4867 70.6903L44.1444 66.8026C43.5371 66.0959 42.8554 65.2979 42.1058 64.4158C41.4052 65.2399 40.7703 65.9828 40.2052 66.6402L36.9473 70.4312L33.5964 66.6822L24.8372 56.882L23.6269 55.5277L24.7615 54.1332C27.1884 51.1518 27.8821 50.34 29.265 48.7397C22.8882 40.591 17.7395 33.3553 13.8586 27.1089C9.6776 20.3799 6.92775 14.7342 5.65657 10.2648L3.47659 2.59957L11.9921 7.71575C16.5399 10.4479 21.6132 14.344 27.2085 19.4011C31.8007 23.552 36.7654 28.4994 42.0996 34.2425C47.4735 28.4488 52.4624 23.4689 57.0654 19.3045C62.688 14.217 67.7861 10.2998 72.3578 7.55332L80.8734 2.43757L78.6938 10.1023C77.4267 14.5566 74.6582 20.2238 70.4362 27.011C66.5002 33.3397 61.3258 40.6083 54.9566 48.7406L54.9855 48.7739C56.2432 50.2248 56.7649 50.827 59.3659 54.0223L60.4663 55.3743L59.3355 56.7081ZM47.4552 60.1397L51.5341 55.3268C50.1069 53.5865 49.5076 52.8937 48.3984 51.6142C48.5238 51.7588 48.6504 51.9038 48.3495 51.5529L48.3465 51.5544L48.3635 51.574L48.3984 51.6142L47.4552 60.1397ZM45.4566 57.7551C46.2639 58.7212 46.9251 59.5099 47.4552 60.1397L45.4566 57.7551ZM38.7573 57.7551L42.1093 53.7479L45.4566 57.7551H38.7573ZM36.8111 60.0753C37.3194 59.4715 37.9695 58.6969 38.7573 57.7551L36.8111 60.0753ZM32.6281 55.3947L36.8111 60.0753L32.6281 55.3947ZM36.1236 51.2451C34.8994 52.6619 34.2716 53.3885 32.6281 55.3947L36.1236 51.2451ZM37.0445 50.1784L36.1236 51.2451L37.0445 50.1784ZM37.1202 47.5032L38.1872 48.8549L37.0445 50.1784L37.1202 47.5032ZM20.9826 24.9813C24.9984 31.4446 30.3927 38.9811 37.1202 47.5032L20.9826 24.9813ZM18.053 20.0192C18.9274 21.5902 19.9035 23.2449 20.9826 24.9813L18.053 20.0192ZM21.0846 22.6876C20.0524 21.7548 19.0422 20.865 18.053 20.0192L21.0846 22.6876ZM38.8275 40.683C32.3599 33.5317 26.4449 27.5321 21.0846 22.6876L38.8275 40.683ZM45.3758 40.683L42.1036 44.3057L38.8275 40.683H45.3758ZM63.2192 22.5699C57.8148 27.4591 51.8666 33.4979 45.3758 40.683L63.2192 22.5699ZM66.3192 19.8403C65.3084 20.7047 64.275 21.6143 63.2192 22.5699L66.3192 19.8403ZM63.3425 24.8835C64.4402 23.1192 65.4322 21.4375 66.3192 19.8403L63.3425 24.8835ZM47.0959 47.5099C53.9114 38.8854 59.3417 31.3147 63.3425 24.8835L47.0959 47.5099ZM47.1715 50.1853L46.0292 48.86L47.0959 47.5099L47.1715 50.1853ZM48.3495 51.5529L47.1715 50.1853L48.3495 51.5529ZM60.5237 67.6069L57.2445 71.3503L68.874 85.3466C68.9414 85.3371 69.0088 85.3264 69.0756 85.3157C69.8619 85.1884 70.5892 84.994 71.1793 84.7572C71.8787 84.4768 72.5442 84.1174 73.1695 83.6792C73.3182 83.5749 73.4646 83.4661 73.6066 83.3532L60.5237 67.6069ZM49.4402 69.9138L57.3028 60.9372L60.6911 57.0694L63.9569 61.0003L81.5503 82.1752L82.6875 83.5441L81.52 84.8925C80.6761 85.8676 79.718 86.7265 78.6561 87.4707C77.5676 88.2341 76.3539 88.8812 75.0291 89.4125C73.7572 89.9228 72.3068 90.3224 70.8345 90.561C69.3737 90.7983 67.848 90.8946 66.3921 90.8082L64.3728 90.6883L63.3607 89.4706L49.3949 72.6626L48.2452 71.2786L49.4402 69.9138"/>
</mask>
<path d="M26.697 60.7066L34.5596 69.6832L35.7551 71.0481L34.6049 72.4322L20.6392 89.24L19.6277 90.4577L17.6076 90.5777C16.1516 90.664 14.6257 90.5675 13.1653 90.3305C11.6933 90.0918 10.2425 89.6922 8.97066 89.182C7.6459 88.6505 6.43209 88.0035 5.34352 87.2402C4.28222 86.4961 3.32362 85.637 2.4798 84.6621L1.3125 83.3135L2.44945 81.9447L20.043 60.7697L23.3092 56.8388L26.697 60.7066ZM26.7554 71.1198L23.4761 67.3764L10.3932 83.1227C10.5354 83.2357 10.6813 83.3443 10.8305 83.4487C11.4554 83.8867 12.1213 84.2463 12.8205 84.5266C13.4106 84.7634 14.1384 84.9579 14.9239 85.0851C14.9912 85.0958 15.0585 85.1065 15.1257 85.1161L26.7554 71.1198ZM59.3355 56.7081L50.7987 66.7815L47.4867 70.6903L44.1444 66.8026C43.5371 66.0959 42.8554 65.2979 42.1058 64.4158C41.4052 65.2399 40.7703 65.9828 40.2052 66.6402L36.9473 70.4312L33.5964 66.6822L24.8372 56.882L23.6269 55.5277L24.7615 54.1332C27.1884 51.1518 27.8821 50.34 29.265 48.7397C22.8882 40.591 17.7395 33.3553 13.8586 27.1089C9.6776 20.3799 6.92775 14.7342 5.65657 10.2648L3.47659 2.59957L11.9921 7.71575C16.5399 10.4479 21.6132 14.344 27.2085 19.4011C31.8007 23.552 36.7654 28.4994 42.0996 34.2425C47.4735 28.4488 52.4624 23.4689 57.0654 19.3045C62.688 14.217 67.7861 10.2998 72.3578 7.55332L80.8734 2.43757L78.6938 10.1023C77.4267 14.5566 74.6582 20.2238 70.4362 27.011C66.5002 33.3397 61.3258 40.6083 54.9566 48.7406L54.9855 48.7739C56.2432 50.2248 56.7649 50.827 59.3659 54.0223L60.4663 55.3743L59.3355 56.7081ZM47.4552 60.1397L51.5341 55.3268C50.1069 53.5865 49.5076 52.8937 48.3984 51.6142C48.5238 51.7588 48.6504 51.9038 48.3495 51.5529L48.3465 51.5544L48.3635 51.574L48.3984 51.6142L47.4552 60.1397ZM45.4566 57.7551C46.2639 58.7212 46.9251 59.5099 47.4552 60.1397L45.4566 57.7551ZM38.7573 57.7551L42.1093 53.7479L45.4566 57.7551H38.7573ZM36.8111 60.0753C37.3194 59.4715 37.9695 58.6969 38.7573 57.7551L36.8111 60.0753ZM32.6281 55.3947L36.8111 60.0753L32.6281 55.3947ZM36.1236 51.2451C34.8994 52.6619 34.2716 53.3885 32.6281 55.3947L36.1236 51.2451ZM37.0445 50.1784L36.1236 51.2451L37.0445 50.1784ZM37.1202 47.5032L38.1872 48.8549L37.0445 50.1784L37.1202 47.5032ZM20.9826 24.9813C24.9984 31.4446 30.3927 38.9811 37.1202 47.5032L20.9826 24.9813ZM18.053 20.0192C18.9274 21.5902 19.9035 23.2449 20.9826 24.9813L18.053 20.0192ZM21.0846 22.6876C20.0524 21.7548 19.0422 20.865 18.053 20.0192L21.0846 22.6876ZM38.8275 40.683C32.3599 33.5317 26.4449 27.5321 21.0846 22.6876L38.8275 40.683ZM45.3758 40.683L42.1036 44.3057L38.8275 40.683H45.3758ZM63.2192 22.5699C57.8148 27.4591 51.8666 33.4979 45.3758 40.683L63.2192 22.5699ZM66.3192 19.8403C65.3084 20.7047 64.275 21.6143 63.2192 22.5699L66.3192 19.8403ZM63.3425 24.8835C64.4402 23.1192 65.4322 21.4375 66.3192 19.8403L63.3425 24.8835ZM47.0959 47.5099C53.9114 38.8854 59.3417 31.3147 63.3425 24.8835L47.0959 47.5099ZM47.1715 50.1853L46.0292 48.86L47.0959 47.5099L47.1715 50.1853ZM48.3495 51.5529L47.1715 50.1853L48.3495 51.5529ZM60.5237 67.6069L57.2445 71.3503L68.874 85.3466C68.9414 85.3371 69.0088 85.3264 69.0756 85.3157C69.8619 85.1884 70.5892 84.994 71.1793 84.7572C71.8787 84.4768 72.5442 84.1174 73.1695 83.6792C73.3182 83.5749 73.4646 83.4661 73.6066 83.3532L60.5237 67.6069ZM49.4402 69.9138L57.3028 60.9372L60.6911 57.0694L63.9569 61.0003L81.5503 82.1752L82.6875 83.5441L81.52 84.8925C80.6761 85.8676 79.718 86.7265 78.6561 87.4707C77.5676 88.2341 76.3539 88.8812 75.0291 89.4125C73.7572 89.9228 72.3068 90.3224 70.8345 90.561C69.3737 90.7983 67.848 90.8946 66.3921 90.8082L64.3728 90.6883L63.3607 89.4706L49.3949 72.6626L48.2452 71.2786L49.4402 69.9138" fill="white"/>
<path d="M26.697 60.7066L27.4492 60.0477L27.4493 60.0477L26.697 60.7066ZM34.5596 69.6832L33.8074 70.3421L33.8074 70.3421L34.5596 69.6832ZM35.7551 71.0481L36.5073 70.3892L37.0695 71.031L36.5242 71.6872L35.7551 71.0481ZM34.6049 72.4322L33.8358 71.7931L33.8358 71.7931L34.6049 72.4322ZM20.6392 89.24L19.8699 88.601L19.87 88.6009L20.6392 89.24ZM19.6277 90.4577L20.3969 91.0967L20.1199 91.4302L19.687 91.4559L19.6277 90.4577ZM17.6076 90.5777L17.6669 91.5759L17.6668 91.5759L17.6076 90.5777ZM13.1653 90.3305L13.3253 89.3434L13.3255 89.3434L13.1653 90.3305ZM8.97066 89.182L8.59835 90.1101L8.59832 90.1101L8.97066 89.182ZM5.34352 87.2402L5.91759 86.4214L5.91766 86.4214L5.34352 87.2402ZM2.4798 84.6621L3.23589 84.0076L3.23592 84.0076L2.4798 84.6621ZM1.3125 83.3135L0.556411 83.968L0.00145069 83.3269L0.543251 82.6746L1.3125 83.3135ZM2.44945 81.9447L1.6802 81.3058L1.68029 81.3057L2.44945 81.9447ZM20.043 60.7697L19.2738 60.1307L19.2738 60.1307L20.043 60.7697ZM23.3092 56.8388L22.54 56.1998L23.2891 55.2982L24.0614 56.18L23.3092 56.8388ZM26.7554 71.1198L27.5076 70.4609L28.0698 71.1026L27.5245 71.7589L26.7554 71.1198ZM23.4761 67.3764L22.707 66.7373L23.456 65.8358L24.2283 66.7174L23.4761 67.3764ZM10.3932 83.1227L9.77095 83.9055L8.97093 83.2696L9.62401 82.4836L10.3932 83.1227ZM10.8305 83.4487L11.4036 82.6292L11.4045 82.6298L10.8305 83.4487ZM12.8205 84.5266L13.1926 83.5984L13.1929 83.5986L12.8205 84.5266ZM14.9239 85.0851L14.7667 86.0727L14.764 86.0722L14.9239 85.0851ZM15.1257 85.1161L15.8948 85.7552L15.538 86.1846L14.9851 86.1061L15.1257 85.1161ZM59.3355 56.7081L58.5726 56.0616L58.5727 56.0615L59.3355 56.7081ZM50.7987 66.7815L50.0357 66.135L50.0358 66.1349L50.7987 66.7815ZM47.4867 70.6903L48.2497 71.3368L47.4922 72.2307L46.7284 71.3422L47.4867 70.6903ZM44.1444 66.8026L43.3861 67.4545L43.3861 67.4544L44.1444 66.8026ZM42.1058 64.4158L41.3439 63.768L42.106 62.8716L42.8678 63.7682L42.1058 64.4158ZM40.2052 66.6402L39.4468 65.9885L39.4469 65.9883L40.2052 66.6402ZM36.9473 70.4312L37.7058 71.083L36.9621 71.9483L36.2017 71.0976L36.9473 70.4312ZM33.5964 66.6822L32.8509 67.3486L32.8509 67.3486L33.5964 66.6822ZM24.8372 56.882L24.0916 57.5484L24.0915 57.5483L24.8372 56.882ZM23.6269 55.5277L22.8813 56.1941L22.313 55.5581L22.8512 54.8966L23.6269 55.5277ZM24.7615 54.1332L23.9858 53.5021L23.986 53.5019L24.7615 54.1332ZM29.265 48.7397L30.0525 48.1234L30.5594 48.7712L30.0216 49.3936L29.265 48.7397ZM13.8586 27.1089L14.7079 26.5812L14.708 26.5812L13.8586 27.1089ZM5.65657 10.2648L4.69472 10.5383L4.69471 10.5383L5.65657 10.2648ZM3.47659 2.59957L2.51473 2.87312L1.82253 0.439188L3.9916 1.74238L3.47659 2.59957ZM11.9921 7.71575L11.4771 8.57296L11.4771 8.57294L11.9921 7.71575ZM27.2085 19.4011L27.879 18.6592L27.8791 18.6592L27.2085 19.4011ZM42.0996 34.2425L42.8328 34.9226L42.1001 35.7125L41.3669 34.9231L42.0996 34.2425ZM57.0654 19.3045L57.7364 20.046L57.7363 20.046L57.0654 19.3045ZM72.3578 7.55332L71.8428 6.69612L71.8428 6.69611L72.3578 7.55332ZM80.8734 2.43757L80.3584 1.58036L82.5273 0.277401L81.8353 2.71109L80.8734 2.43757ZM78.6938 10.1023L79.6557 10.3759L79.6556 10.376L78.6938 10.1023ZM70.4362 27.011L69.587 26.4829L69.5871 26.4828L70.4362 27.011ZM54.9566 48.7406L54.2011 49.3957L53.6611 48.7729L54.1693 48.124L54.9566 48.7406ZM54.9855 48.7739L55.741 48.1188L55.7411 48.1189L54.9855 48.7739ZM59.3659 54.0223L60.1414 53.391L60.1415 53.391L59.3659 54.0223ZM60.4663 55.3743L61.2419 54.743L61.7663 55.3873L61.2291 56.0209L60.4663 55.3743ZM47.4552 60.1397L48.2181 60.7863L46.1012 63.2841L46.4613 60.0298L47.4552 60.1397ZM51.5341 55.3268L52.3073 54.6927L52.836 55.3373L52.297 55.9733L51.5341 55.3268ZM48.3984 51.6142L47.6428 52.2693L49.1536 50.9588L48.3984 51.6142ZM48.3495 51.5529L47.9123 50.6536L48.6062 50.3162L49.1085 50.9019L48.3495 51.5529ZM48.3465 51.5544L47.5919 52.2106L46.7354 51.2257L47.9092 50.6551L48.3465 51.5544ZM48.3635 51.574L49.1181 50.9178L49.1192 50.9191L48.3635 51.574ZM48.3984 51.6142L49.154 50.9593L49.4404 51.2897L49.3923 51.7242L48.3984 51.6142ZM45.4566 57.7551L44.6893 58.3963L46.2231 57.1128L45.4566 57.7551ZM47.4552 60.1397L48.2216 59.4974L46.6901 60.7836L47.4552 60.1397ZM38.7573 57.7551V58.7551H36.6171L37.9903 57.1135L38.7573 57.7551ZM42.1093 53.7479L41.3423 53.1063L42.1099 52.1887L42.8768 53.1068L42.1093 53.7479ZM45.4566 57.7551L46.2241 57.114L47.5949 58.7551H45.4566V57.7551ZM36.8111 60.0753L37.5762 60.7193L36.045 59.4327L36.8111 60.0753ZM38.7573 57.7551L37.9911 57.1125L39.5244 58.3967L38.7573 57.7551ZM36.1236 51.2451L35.367 50.5913L36.8884 51.8893L36.1236 51.2451ZM32.6281 55.3947L33.3929 56.0389L31.8546 54.761L32.6281 55.3947ZM37.1202 47.5032L36.1206 47.4749L36.1984 44.7216L37.9051 46.8836L37.1202 47.5032ZM38.1872 48.8549L38.9721 48.2353L39.4838 48.8834L38.9441 49.5084L38.1872 48.8549ZM37.0445 50.1784L37.8014 50.8319L35.9655 52.9582L36.0449 50.1501L37.0445 50.1784ZM20.9826 24.9813L20.1332 25.5091L21.7955 24.3989L20.9826 24.9813ZM37.1202 47.5032L37.933 46.9207L36.3353 48.1228L37.1202 47.5032ZM18.053 20.0192L17.1792 20.5055L18.9141 19.5108L18.053 20.0192ZM20.9826 24.9813L21.8438 24.4729L20.1333 25.5092L20.9826 24.9813ZM21.0846 22.6876L21.7551 21.9457L20.4239 23.4382L21.0846 22.6876ZM18.053 20.0192L17.3923 20.7698L18.7029 19.2591L18.053 20.0192ZM38.8275 40.683L39.5692 40.0123L38.1154 41.3851L38.8275 40.683ZM21.0846 22.6876L20.3725 23.3897L21.7551 21.9457L21.0846 22.6876ZM45.3758 40.683V39.683H47.6265L46.1179 41.3533L45.3758 40.683ZM42.1036 44.3057L42.8457 44.976L42.1041 45.7971L41.3619 44.9765L42.1036 44.3057ZM38.8275 40.683L38.0858 41.3538L36.5749 39.683H38.8275V40.683ZM63.2192 22.5699L62.5483 21.8283L63.9316 23.2716L63.2192 22.5699ZM45.3758 40.683L46.0882 41.3848L44.6337 40.0127L45.3758 40.683ZM66.3192 19.8403L65.6693 19.0803L66.9801 20.5908L66.3192 19.8403ZM63.2192 22.5699L63.8801 23.3204L62.5482 21.8284L63.2192 22.5699ZM63.3425 24.8835L64.1916 25.4117L62.4813 24.3752L63.3425 24.8835ZM66.3192 19.8403L65.4581 19.332L67.1935 20.3258L66.3192 19.8403ZM47.0959 47.5099L47.8805 48.13L46.2836 46.9267L47.0959 47.5099ZM63.3425 24.8835L62.5302 24.3002L64.1916 25.4117L63.3425 24.8835ZM47.1715 50.1853L48.1711 50.157L48.2506 52.9688L46.4141 50.8382L47.1715 50.1853ZM46.0292 48.86L45.2717 49.5129L44.7328 48.8876L45.2445 48.24L46.0292 48.86ZM47.0959 47.5099L46.3113 46.89L48.0177 44.7304L48.0955 47.4817L47.0959 47.5099ZM60.5237 67.6069L59.7715 66.948L60.5438 66.0664L61.2928 66.9679L60.5237 67.6069ZM57.2445 71.3503L56.4753 71.9894L55.93 71.3331L56.4923 70.6914L57.2445 71.3503ZM68.874 85.3466L69.0141 86.3368L68.4616 86.4149L68.1049 85.9857L68.874 85.3466ZM69.0756 85.3157L69.2354 86.3028L69.234 86.303L69.0756 85.3157ZM71.1793 84.7572L70.8069 83.8291L70.8073 83.829L71.1793 84.7572ZM73.1695 83.6792L73.7437 84.4979L73.7434 84.4982L73.1695 83.6792ZM73.6066 83.3532L74.3758 82.7142L75.0289 83.5003L74.2288 84.1361L73.6066 83.3532ZM57.3028 60.9372L56.5506 60.2783L56.5506 60.2782L57.3028 60.9372ZM60.6911 57.0694L59.9389 56.4105L60.7113 55.5288L61.4603 56.4304L60.6911 57.0694ZM63.9569 61.0003L63.1877 61.6394L63.1877 61.6393L63.9569 61.0003ZM81.5503 82.1752L82.3195 81.5362L82.3195 81.5362L81.5503 82.1752ZM82.6875 83.5441L83.4567 82.9051L83.9987 83.5575L83.4435 84.1987L82.6875 83.5441ZM81.52 84.8925L80.7638 84.2381L80.764 84.2379L81.52 84.8925ZM78.6561 87.4707L78.082 86.652L78.0822 86.6518L78.6561 87.4707ZM75.0291 89.4125L74.6568 88.4844L74.6569 88.4844L75.0291 89.4125ZM70.8345 90.561L70.6741 89.574L70.6745 89.5739L70.8345 90.561ZM66.3921 90.8082L66.3329 91.8065L66.3328 91.8065L66.3921 90.8082ZM64.3728 90.6883L64.3135 91.6865L63.8808 91.6608L63.6037 91.3274L64.3728 90.6883ZM63.3607 89.4706L62.5916 90.1097L62.5916 90.1096L63.3607 89.4706ZM49.3949 72.6626L48.6258 73.3017L48.6257 73.3016L49.3949 72.6626ZM48.2452 71.2786L47.476 71.9176L46.931 71.2616L47.4928 70.6199L48.2452 71.2786ZM27.4493 60.0477L35.3118 69.0243L33.8074 70.3421L25.9448 61.3655L27.4493 60.0477ZM35.3118 69.0243L36.5073 70.3892L35.0029 71.707L33.8074 70.3421L35.3118 69.0243ZM36.5242 71.6872L35.374 73.0713L33.8358 71.7931L34.986 70.4089L36.5242 71.6872ZM35.374 73.0713L21.4083 89.8791L19.87 88.6009L33.8358 71.7931L35.374 73.0713ZM21.4084 89.879L20.3969 91.0967L18.8585 89.8187L19.8699 88.601L21.4084 89.879ZM19.687 91.4559L17.6669 91.5759L17.5483 89.5794L19.5684 89.4595L19.687 91.4559ZM17.6668 91.5759C16.1288 91.6671 14.5289 91.5648 13.0052 91.3176L13.3255 89.3434C14.7226 89.5701 16.1745 89.6609 17.5484 89.5794L17.6668 91.5759ZM13.0053 91.3176C11.4652 91.0679 9.94284 90.6494 8.59835 90.1101L9.34297 88.2539C10.5422 88.735 11.9214 89.1158 13.3253 89.3434L13.0053 91.3176ZM8.59832 90.1101C7.20929 89.5528 5.92666 88.8705 4.76938 88.0589L5.91766 86.4214C6.93752 87.1366 8.08251 87.7482 9.343 88.2539L8.59832 90.1101ZM4.76945 88.059C3.6432 87.2694 2.62298 86.3555 1.72368 85.3165L3.23592 84.0076C4.02427 84.9185 4.92125 85.7228 5.91759 86.4214L4.76945 88.059ZM1.72371 85.3166L0.556411 83.968L2.06859 82.6591L3.23589 84.0076L1.72371 85.3166ZM0.543251 82.6746L1.6802 81.3058L3.2187 82.5837L2.08175 83.9525L0.543251 82.6746ZM1.68029 81.3057L19.2738 60.1307L20.8121 61.4088L3.2186 82.5838L1.68029 81.3057ZM19.2738 60.1307L22.54 56.1998L24.0783 57.4779L20.8121 61.4088L19.2738 60.1307ZM24.0614 56.18L27.4492 60.0477L25.9448 61.3655L22.5569 57.4977L24.0614 56.18ZM26.0032 71.7787L22.7239 68.0353L24.2283 66.7174L27.5076 70.4609L26.0032 71.7787ZM24.2453 68.0154L11.1623 83.7617L9.62401 82.4836L22.707 66.7373L24.2453 68.0154ZM11.0154 82.3398C11.1411 82.4397 11.2706 82.5361 11.4036 82.6292L10.2574 84.2681C10.0921 84.1525 9.92976 84.0317 9.77095 83.9055L11.0154 82.3398ZM11.4045 82.6298C11.9663 83.0236 12.5644 83.3466 13.1926 83.5984L12.4483 85.4548C11.6782 85.146 10.9445 84.7498 10.2565 84.2675L11.4045 82.6298ZM13.1929 83.5986C13.7013 83.8026 14.3555 83.98 15.0838 84.098L14.764 86.0722C13.9212 85.9357 13.1198 85.7243 12.448 85.4547L13.1929 83.5986ZM15.0811 84.0975C15.1498 84.1085 15.2088 84.1178 15.2663 84.126L14.9851 86.1061C14.9083 86.0952 14.8326 86.0832 14.7667 86.0727L15.0811 84.0975ZM14.3566 84.477L25.9862 70.4807L27.5245 71.7589L15.8948 85.7552L14.3566 84.477ZM60.0984 57.3547L51.5616 67.428L50.0358 66.1349L58.5726 56.0616L60.0984 57.3547ZM51.5616 67.4279L48.2497 71.3368L46.7237 70.0439L50.0357 66.135L51.5616 67.4279ZM46.7284 71.3422L43.3861 67.4545L44.9027 66.1507L48.245 70.0384L46.7284 71.3422ZM43.3861 67.4544C42.7772 66.746 42.0944 65.9466 41.3438 65.0633L42.8678 63.7682C43.6165 64.6492 44.2969 65.4458 44.9028 66.1507L43.3861 67.4544ZM42.8677 65.0635C42.1661 65.8887 41.53 66.6331 40.9635 67.2921L39.4469 65.9883C40.0106 65.3326 40.6443 64.5911 41.3439 63.768L42.8677 65.0635ZM40.9636 67.292L37.7058 71.083L36.1889 69.7795L39.4468 65.9885L40.9636 67.292ZM36.2017 71.0976L32.8509 67.3486L34.342 66.0158L37.6929 69.7648L36.2017 71.0976ZM32.8509 67.3486L24.0916 57.5484L25.5828 56.2156L34.342 66.0158L32.8509 67.3486ZM24.0915 57.5483L22.8813 56.1941L24.3726 54.8614L25.5828 56.2157L24.0915 57.5483ZM22.8512 54.8966L23.9858 53.5021L25.5372 54.7643L24.4026 56.1588L22.8512 54.8966ZM23.986 53.5019C26.4184 50.5137 27.1184 49.6943 28.5084 48.0859L30.0216 49.3936C28.6457 50.9857 27.9583 51.7899 25.5371 54.7645L23.986 53.5019ZM28.4775 49.356C22.0863 41.189 16.9148 33.9228 13.0091 27.6366L14.708 26.5812C18.5641 32.7878 23.6901 39.9931 30.0525 48.1234L28.4775 49.356ZM13.0092 27.6367C8.8085 20.8759 6.0031 15.1386 4.69472 10.5383L6.61842 9.99121C7.8524 14.3298 10.5467 19.8838 14.7079 26.5812L13.0092 27.6367ZM4.69471 10.5383L2.51473 2.87312L4.43845 2.32602L6.61843 9.99122L4.69471 10.5383ZM3.9916 1.74238L12.5071 6.85857L11.4771 8.57294L2.96159 3.45676L3.9916 1.74238ZM12.5071 6.85855C17.1281 9.63465 22.254 13.5752 27.879 18.6592L26.538 20.143C20.9724 15.1127 15.9517 11.2611 11.4771 8.57296L12.5071 6.85855ZM27.8791 18.6592C32.4976 22.834 37.4832 27.8028 42.8323 33.562L41.3669 34.9231C36.0477 29.1961 31.1038 24.2701 26.538 20.1429L27.8791 18.6592ZM41.3664 33.5625C46.7551 27.7528 51.7649 22.7514 56.3945 18.5629L57.7363 20.046C53.1598 24.1864 48.1919 29.1448 42.8328 34.9226L41.3664 33.5625ZM56.3945 18.563C62.0469 13.4485 67.1977 9.48668 71.8428 6.69612L72.8727 8.41053C68.3744 11.1129 63.3291 14.9855 57.7364 20.046L56.3945 18.563ZM71.8428 6.69611L80.3584 1.58036L81.3884 3.29478L72.8727 8.41053L71.8428 6.69611ZM81.8353 2.71109L79.6557 10.3759L77.7319 9.82883L79.9115 2.16405L81.8353 2.71109ZM79.6556 10.376C78.3511 14.962 75.5263 20.7214 71.2853 27.5392L69.5871 26.4828C73.79 19.7262 76.5024 14.1512 77.7319 9.82874L79.6556 10.376ZM71.2854 27.5392C67.3248 33.9073 62.1277 41.2062 55.7439 49.3572L54.1693 48.124C60.5238 40.0105 65.6755 32.7721 69.587 26.4829L71.2854 27.5392ZM55.7121 48.0855L55.741 48.1188L54.23 49.429L54.2011 49.3957L55.7121 48.0855ZM55.7411 48.1189C57.0066 49.5788 57.5351 50.1891 60.1414 53.391L58.5903 54.6536C55.9948 51.4649 55.4797 50.8708 54.2299 49.4289L55.7411 48.1189ZM60.1415 53.391L61.2419 54.743L59.6907 56.0055L58.5903 54.6535L60.1415 53.391ZM61.2291 56.0209L60.0983 57.3548L58.5727 56.0615L59.7035 54.7276L61.2291 56.0209ZM46.6923 59.4932L50.7712 54.6803L52.297 55.9733L48.2181 60.7863L46.6923 59.4932ZM50.7608 55.9609C49.3415 54.2302 48.7486 53.5448 47.6428 52.2693L49.154 50.9592C50.2666 52.2426 50.8723 52.9429 52.3073 54.6927L50.7608 55.9609ZM49.1536 50.9588C49.2268 51.0431 49.2719 51.0946 49.2664 51.0887C49.2643 51.0864 49.2591 51.0808 49.2522 51.0738C49.2488 51.0702 49.2428 51.0641 49.2352 51.0567C49.2296 51.0512 49.2134 51.0353 49.1915 51.0162C49.181 51.0071 49.1588 50.9881 49.129 50.9661C49.1196 50.9591 49.0278 50.8885 48.8929 50.8368C48.8017 50.8068 48.5308 50.7707 48.3536 50.7873C48.079 50.8807 47.6721 51.2654 47.567 51.52C47.5394 51.6779 47.5471 51.925 47.5643 52.0106C47.5781 52.0606 47.6064 52.1413 47.6194 52.1724C47.6445 52.2297 47.6696 52.2718 47.6782 52.286C47.6899 52.3055 47.7 52.3207 47.7059 52.3295C47.7176 52.3469 47.7274 52.3602 47.7317 52.366C47.7409 52.3784 47.7483 52.3877 47.7505 52.3905C47.7537 52.3946 47.7562 52.3977 47.7575 52.3993C47.7589 52.401 47.76 52.4023 47.7605 52.4029C47.7611 52.4036 47.7614 52.4041 47.7615 52.4041C47.7616 52.4043 47.7612 52.4038 47.7601 52.4025C47.7591 52.4013 47.7577 52.3996 47.7558 52.3973C47.7519 52.3928 47.7468 52.3867 47.7401 52.3789C47.713 52.347 47.6656 52.2916 47.5905 52.204L49.1085 50.9019C49.1838 50.9897 49.2335 51.0477 49.2634 51.0828C49.2775 51.0995 49.29 51.1143 49.2991 51.1251C49.3015 51.128 49.3051 51.1324 49.3091 51.1373C49.3095 51.1377 49.3229 51.1541 49.3381 51.1746C49.3424 51.1805 49.3524 51.1939 49.3642 51.2115C49.3701 51.2203 49.3802 51.2356 49.392 51.2551C49.4006 51.2694 49.4257 51.3115 49.4508 51.3688C49.4639 51.3999 49.4921 51.4807 49.5059 51.5306C49.5231 51.6163 49.5308 51.8634 49.5032 52.0213C49.3981 52.2759 48.9913 52.6606 48.7166 52.754C48.5394 52.7706 48.2685 52.7344 48.1773 52.7044C48.0424 52.6528 47.9506 52.5821 47.9411 52.5751C47.9113 52.5531 47.889 52.5341 47.8786 52.525C47.8565 52.5058 47.8402 52.4898 47.8344 52.4842C47.8267 52.4766 47.8205 52.4703 47.8169 52.4665C47.8097 52.4591 47.804 52.453 47.8013 52.45C47.7763 52.4232 47.6954 52.3299 47.6431 52.2697L49.1536 50.9588ZM48.7867 52.4523L48.7837 52.4538L47.9092 50.6551L47.9123 50.6536L48.7867 52.4523ZM49.101 50.8982L49.1181 50.9178L47.6089 52.2302L47.5919 52.2106L49.101 50.8982ZM49.1192 50.9191L49.154 50.9593L47.6427 52.2692L47.6079 52.229L49.1192 50.9191ZM49.3923 51.7242L48.4491 60.2497L46.4613 60.0298L47.4044 51.5043L49.3923 51.7242ZM46.224 57.1139C47.0308 58.0793 47.6912 58.8671 48.2203 59.4959L46.6901 60.7836C46.159 60.1526 45.4971 59.363 44.6893 58.3963L46.224 57.1139ZM46.6888 60.7821L44.6902 58.3974L46.2231 57.1128L48.2216 59.4974L46.6888 60.7821ZM37.9903 57.1135L41.3423 53.1063L42.8764 54.3895L39.5243 58.3967L37.9903 57.1135ZM42.8768 53.1068L46.2241 57.114L44.6892 58.3962L41.3419 54.389L42.8768 53.1068ZM45.4566 58.7551H38.7573V56.7551H45.4566V58.7551ZM36.0461 59.4313C36.5536 58.8284 37.203 58.0547 37.9903 57.1135L39.5244 58.3967C38.736 59.3392 38.0852 60.1146 37.5762 60.7193L36.0461 59.4313ZM39.5235 58.3977L37.5773 60.718L36.045 59.4327L37.9911 57.1125L39.5235 58.3977ZM33.3738 54.7283L37.5568 59.409L36.0655 60.7417L31.8825 56.0611L33.3738 54.7283ZM36.0655 60.7417L31.8825 56.0611L33.3738 54.7283L37.5568 59.409L36.0655 60.7417ZM36.8803 51.8989C35.6595 53.3118 35.0378 54.0312 33.4017 56.0284L31.8546 54.761C33.5055 52.7457 34.1394 52.012 35.367 50.5913L36.8803 51.8989ZM31.8633 54.7504L35.3588 50.6008L36.8884 51.8893L33.3929 56.0389L31.8633 54.7504ZM37.8015 50.8318L36.8806 51.8986L35.3667 50.5916L36.2876 49.5249L37.8015 50.8318ZM35.3667 50.5916L36.2876 49.5249L37.8015 50.8318L36.8806 51.8986L35.3667 50.5916ZM37.9051 46.8836L38.9721 48.2353L37.4023 49.4745L36.3353 48.1228L37.9051 46.8836ZM38.9441 49.5084L37.8014 50.8319L36.2876 49.5248L37.4303 48.2014L38.9441 49.5084ZM36.0449 50.1501L36.1206 47.4749L38.1198 47.5315L38.0441 50.2066L36.0449 50.1501ZM21.832 24.4536C25.8219 30.8752 31.1923 38.3801 37.9051 46.8836L36.3353 48.1228C29.5931 39.5822 24.1749 32.014 20.1332 25.5091L21.832 24.4536ZM36.3073 48.0856L20.1698 25.5638L21.7955 24.3989L37.933 46.9207L36.3073 48.0856ZM18.9268 19.5328C19.7925 21.0884 20.7604 22.7292 21.832 24.4535L20.1333 25.5092C19.0466 23.7606 18.0622 22.0921 17.1792 20.5055L18.9268 19.5328ZM20.1215 25.4897L17.1919 20.5276L18.9141 19.5108L21.8438 24.4729L20.1215 25.4897ZM20.4141 23.4295C19.388 22.5022 18.3847 21.6185 17.4031 20.7792L18.7029 19.2591C19.6997 20.1115 20.7168 21.0074 21.7551 21.9457L20.4141 23.4295ZM18.7137 19.2685L21.7453 21.9369L20.4239 23.4382L17.3923 20.7698L18.7137 19.2685ZM38.0858 41.3538C31.6338 34.2196 25.7428 28.2454 20.4141 23.4295L21.7551 21.9457C27.1469 26.8187 33.086 32.8437 39.5692 40.0123L38.0858 41.3538ZM21.7967 21.9855L39.5396 39.9809L38.1154 41.3851L20.3725 23.3897L21.7967 21.9855ZM46.1179 41.3533L42.8457 44.976L41.3615 43.6354L44.6337 40.0127L46.1179 41.3533ZM41.3619 44.9765L38.0858 41.3538L39.5692 40.0123L42.8453 43.635L41.3619 44.9765ZM38.8275 39.683H45.3758V41.683H38.8275V39.683ZM63.8901 23.3114C58.5172 28.1722 52.593 34.1856 46.1178 41.3534L44.6337 40.0127C51.1402 32.8102 57.1125 26.746 62.5483 21.8283L63.8901 23.3114ZM44.6634 39.9812L62.5068 21.8681L63.9316 23.2716L46.0882 41.3848L44.6634 39.9812ZM66.9692 20.6003C65.9658 21.4583 64.9395 22.3617 63.8903 23.3113L62.5482 21.8284C63.6106 20.8669 64.651 19.9511 65.6693 19.0803L66.9692 20.6003ZM62.5584 21.8193L65.6584 19.0897L66.9801 20.5908L63.8801 23.3204L62.5584 21.8193ZM62.4934 24.3552C63.5834 22.6033 64.5669 20.936 65.445 19.3548L67.1935 20.3258C66.2975 21.9391 65.297 23.635 64.1916 25.4117L62.4934 24.3552ZM67.1804 20.3486L64.2037 25.3918L62.4813 24.3752L65.4581 19.332L67.1804 20.3486ZM46.3113 46.8899C53.1126 38.2834 58.5187 30.7444 62.4934 24.3552L64.1916 25.4117C60.1646 31.885 54.7102 39.4874 47.8805 48.13L46.3113 46.8899ZM64.1548 25.4667L47.9082 48.0932L46.2836 46.9267L62.5302 24.3002L64.1548 25.4667ZM46.4141 50.8382L45.2717 49.5129L46.7866 48.2071L47.929 49.5324L46.4141 50.8382ZM45.2445 48.24L46.3113 46.89L47.8805 48.1299L46.8138 49.4799L45.2445 48.24ZM48.0955 47.4817L48.1711 50.157L46.1719 50.2135L46.0963 47.5382L48.0955 47.4817ZM47.5918 52.2055L46.4138 50.8379L47.9292 49.5327L49.1072 50.9003L47.5918 52.2055ZM47.9292 49.5327L49.1072 50.9003L47.5918 52.2055L46.4138 50.8379L47.9292 49.5327ZM61.2759 68.2659L57.9967 72.0092L56.4923 70.6914L59.7715 66.948L61.2759 68.2659ZM58.0136 70.7112L69.6432 84.7076L68.1049 85.9857L56.4753 71.9894L58.0136 70.7112ZM68.734 84.3565C68.7911 84.3484 68.8502 84.339 68.9172 84.3283L69.234 86.303C69.1674 86.3137 69.0917 86.3258 69.0141 86.3368L68.734 84.3565ZM68.9159 84.3285C69.6447 84.2106 70.2984 84.0332 70.8069 83.8291L71.5517 85.6852C70.88 85.9548 70.079 86.1663 69.2354 86.3028L68.9159 84.3285ZM70.8073 83.829C71.4356 83.5771 72.0333 83.2544 72.5956 82.8603L73.7434 84.4982C73.055 84.9805 72.3219 85.3765 71.5514 85.6854L70.8073 83.829ZM72.5953 82.8605C72.729 82.7667 72.8593 82.6698 72.9845 82.5703L74.2288 84.1361C74.0699 84.2624 73.9075 84.3831 73.7437 84.4979L72.5953 82.8605ZM72.8375 83.9923L59.7545 68.246L61.2928 66.9679L74.3758 82.7142L72.8375 83.9923ZM48.688 69.2549L56.5506 60.2783L58.055 61.5961L50.1924 70.5727L48.688 69.2549ZM56.5506 60.2782L59.9389 56.4105L61.4433 57.7284L58.055 61.5961L56.5506 60.2782ZM61.4603 56.4304L64.7261 60.3613L63.1877 61.6393L59.922 57.7084L61.4603 56.4304ZM64.726 60.3612L82.3195 81.5362L80.7812 82.8143L63.1877 61.6394L64.726 60.3612ZM82.3195 81.5362L83.4567 82.9051L81.9183 84.1831L80.7811 82.8143L82.3195 81.5362ZM83.4435 84.1987L82.276 85.5471L80.764 84.2379L81.9315 82.8895L83.4435 84.1987ZM82.2761 85.5469C81.3768 86.586 80.3571 87.4997 79.2301 88.2896L78.0822 86.6518C79.0789 85.9533 79.9753 85.1491 80.7638 84.2381L82.2761 85.5469ZM79.2303 88.2895C78.0731 89.101 76.7906 89.7835 75.4014 90.3407L74.6569 88.4844C75.9172 87.9789 77.062 87.3672 78.082 86.652L79.2303 88.2895ZM75.4014 90.3407C74.0569 90.88 72.5349 91.2985 70.9945 91.5481L70.6745 89.5739C72.0787 89.3463 73.4575 88.9655 74.6568 88.4844L75.4014 90.3407ZM70.9948 91.5481C69.4705 91.7957 67.8707 91.8977 66.3329 91.8065L66.4513 89.81C67.8253 89.8915 69.2769 89.8009 70.6741 89.574L70.9948 91.5481ZM66.3328 91.8065L64.3135 91.6865L64.4321 89.69L66.4514 89.81L66.3328 91.8065ZM63.6037 91.3274L62.5916 90.1097L64.1297 88.8314L65.1418 90.0491L63.6037 91.3274ZM62.5916 90.1096L48.6258 73.3017L50.1641 72.0235L64.1298 88.8315L62.5916 90.1096ZM48.6257 73.3016L47.476 71.9176L49.0144 70.6396L50.1641 72.0236L48.6257 73.3016ZM47.4928 70.6199L48.6878 69.255L50.1926 70.5725L48.9976 71.9374L47.4928 70.6199Z" fill="white" mask="url(#path-3-outside-1)"/>
<path fill-rule="evenodd" clip-rule="evenodd" d="M13.1469 48.8756L41.9353 14.2541L70.7238 48.8756L41.9353 83.4974L13.1469 48.8756Z" fill="white"/>
<path fill-rule="evenodd" clip-rule="evenodd" d="M46.9479 64.8156L56.0504 55.7825C35.2206 29.8356 21.6599 17.1399 9.40918 9.69279C11.9788 19.0147 21.1128 33.4398 36.8102 52.965C39.8184 56.7059 43.4572 60.6991 46.9479 64.8156Z" fill="white"/>
<path fill-rule="evenodd" clip-rule="evenodd" d="M51.9728 70.3806L64.235 66.6997L78.1996 83.5081C77.2816 84.8696 75.53 86.1066 73.7099 86.837C71.7009 87.6429 69.361 88.0848 66.7097 88.1176L51.9728 70.3806Z" fill="white"/>
<path d="M54.6429 68.8075L61.2644 64.0002L79.2315 82.8126C78.455 83.964 76.9742 85.0095 75.4357 85.6272C73.737 86.3086 71.7589 86.6822 69.5168 86.7101L54.6429 68.8075ZM48.6524 62.7644L56.223 55.6182C37.4164 32.1918 25.6018 19.5564 14.5409 12.8324C16.8608 21.2494 25.9618 34.7624 40.1113 52.3997C42.1893 54.9908 42.6399 55.605 44.1195 57.3704C44.5797 57.9194 47.9125 61.8977 48.6524 62.7644" fill="url(#paint0_linear)"/>
<path fill-rule="evenodd" clip-rule="evenodd" d="M49.7724 61.7071L52.7172 59.4635C46.7505 52.0314 35.1237 39.1061 31.5559 36.7225C32.8444 40.0474 41.6376 51.7419 46.1334 57.334C46.9946 58.4052 48.7728 60.5281 49.7724 61.7071" fill="#111135"/>
<path d="M57.6686 56.0242L49.1317 66.0977L47.4756 68.0522L45.8048 66.1082C34.8617 53.3747 26.1525 42.2406 19.774 32.8959C13.2811 23.3837 9.17608 15.686 7.5591 10.0019L6.46887 6.16911L10.7271 8.72741C16.0065 11.8991 22.0423 16.7027 28.8322 23.1377C35.5659 29.5195 43.0727 37.5341 51.3501 47.1796C51.7305 47.6234 52.632 48.6629 53.3254 49.4637C54.6201 50.9571 55.1572 51.5766 57.6837 54.6812L58.2339 55.3574L57.6686 56.0242ZM47.4569 62.7801L53.7682 55.333C51.8315 52.9598 51.2543 52.2937 50.0064 50.8538C49.7002 50.5003 49.3786 50.1303 48.031 48.5596C39.8253 38.998 32.3842 31.0535 25.7102 24.7282C21.0858 20.3452 16.8425 16.7521 12.9818 13.9491C15.0612 18.8003 18.5064 24.7607 23.2757 31.7479C29.2835 40.5497 37.3714 50.9474 47.4569 62.7801" fill="#111135"/>
<path fill-rule="evenodd" clip-rule="evenodd" d="M64.1541 84.9995C64.6762 85.7063 65.157 86.4366 65.157 86.4366C69.3669 84.9817 71.9702 83.6024 73.1869 82.6746C71.3929 82.821 68.3086 83.4705 64.1541 84.9995" fill="#111135"/>
<path fill-rule="evenodd" clip-rule="evenodd" d="M61.9615 82.4308C62.4837 83.1378 62.9651 83.8679 62.9651 83.8679C67.175 82.4132 69.7777 81.0337 70.9944 80.106C69.201 80.2526 66.1161 80.902 61.9615 82.4308" fill="#111135"/>
<path fill-rule="evenodd" clip-rule="evenodd" d="M59.7693 79.8624C60.2913 80.5694 60.7725 81.2995 60.7725 81.2995C64.9824 79.8448 67.5851 78.4653 68.8024 77.5375C67.0084 77.684 63.9241 78.3336 59.7693 79.8624" fill="#111135"/>
<path fill-rule="evenodd" clip-rule="evenodd" d="M57.5759 77.2941C58.0979 78.0011 58.5791 78.7313 58.5791 78.7313C62.7888 77.2765 65.3922 75.8971 66.6089 74.9693C64.8148 75.1158 61.73 75.7652 57.5759 77.2941" fill="#111135"/>
<path fill-rule="evenodd" clip-rule="evenodd" d="M55.3823 74.7256C55.9043 75.4326 56.3855 76.1627 56.3855 76.1627C60.5951 74.708 63.1984 73.3285 64.4151 72.4006C62.6216 72.5471 59.5367 73.1966 55.3823 74.7256" fill="#111135"/>
<path fill-rule="evenodd" clip-rule="evenodd" d="M53.191 72.1568C53.713 72.8638 54.1942 73.594 54.1942 73.594C58.404 72.1394 61.0071 70.7599 62.2242 69.832C60.4299 69.9785 57.3453 70.628 53.191 72.1568" fill="#111135"/>
<path d="M60.5662 64.9678L54.9951 71.328L67.84 86.7872C68.3943 86.7698 68.9602 86.7129 69.5157 86.6224C70.4737 86.4674 71.382 86.2216 72.1428 85.9168C72.997 85.574 73.8002 85.1426 74.5415 84.6225C75.0369 84.2754 75.502 83.8896 75.9349 83.4646L60.5662 64.9678ZM51.093 70.6095L58.9556 61.6329L60.6496 59.6993L62.2823 61.6647L79.8758 82.8397L80.4447 83.5242L79.8606 84.1983C79.0999 85.0775 78.2371 85.8509 77.2852 86.5184C76.3131 87.1999 75.2361 87.7752 74.0674 88.244C72.9654 88.686 71.6953 89.0344 70.3954 89.245C69.1265 89.451 67.806 89.5351 66.5517 89.4608L65.542 89.4008L65.0363 88.792L51.0705 71.984L50.4954 71.2919L51.093 70.6095" fill="#111135"/>
<path d="M9.79636 47.5276L38.5848 12.9062L41.9347 8.8776L45.2846 12.9062L74.0734 47.5276L75.1947 48.8756L74.0734 50.2239L45.2846 84.8455L41.9347 88.8741L38.5848 84.8455L9.79636 50.2239L8.67529 48.8756L9.79636 47.5276ZM41.9347 19.631L17.6168 48.8756L41.9347 78.1207L66.2523 48.8756L41.9347 19.631Z" fill="#111135"/>
<path fill-rule="evenodd" clip-rule="evenodd" d="M46.9463 64.8156C43.9218 61.3174 42.4097 59.5683 42.4097 59.5683C44.366 55.8046 47.3452 52.4806 51.3473 49.5967C54.4496 53.4289 56.0007 55.3448 56.0007 55.3448C49.9644 61.6589 46.9463 64.8156 46.9463 64.8156Z" fill="#111135"/>
<path fill-rule="evenodd" clip-rule="evenodd" d="M28.127 55.4555L36.8862 65.2559C58.8086 39.7473 71.7328 20.6782 74.8892 9.58179C64.5559 15.7894 51.1448 28.4978 34.6597 47.7074C31.501 51.3883 31.5121 51.2967 28.127 55.4555Z" fill="white"/>
<path fill-rule="evenodd" clip-rule="evenodd" d="M23.3914 62.103L31.2537 71.0793L17.2883 87.8874C15.132 88.0155 12.7149 87.5799 10.8944 86.8499C8.88545 86.0438 7.16508 84.8569 5.7981 83.2777L23.3914 62.103Z" fill="white"/>
<path d="M23.8296 66.3607L30.4772 73.95L18.6697 88.1605C16.8466 88.269 14.803 87.9006 13.2641 87.2831C11.5655 86.6019 10.111 85.5986 8.95532 84.2632L23.8296 66.3607ZM31.1149 56.4075L38.549 65.0596C58.3417 42.029 70.6906 24.2588 73.5399 14.2408C64.2107 19.8451 51.8966 32.0691 37.0134 49.4119C34.1615 52.7352 34.1714 52.6526 31.1149 56.4075Z" fill="url(#paint1_linear)"/>
<path d="M30.3773 55.4223L36.8518 62.6669C46.9562 50.8141 55.0588 40.3995 61.0747 31.5859C65.8442 24.5987 69.289 18.6379 71.3684 13.7866C67.5077 16.5896 63.2657 20.1828 58.6409 24.5649C51.9663 30.8911 44.5251 38.8355 36.3196 48.3971C35.5419 49.3033 34.9557 49.9815 34.4645 50.5499C33.0942 52.1356 32.4641 52.865 30.3773 55.4223V55.4223ZM35.2417 65.9668L26.4824 56.1665L25.877 55.4892L26.4443 54.792C28.9949 51.6583 29.6245 50.9298 31.1452 49.17C31.6366 48.6013 32.2229 47.9233 33.0003 47.0171C41.2782 37.3716 48.7847 29.3571 55.5189 22.9748C62.3088 16.5402 68.3443 11.7363 73.6233 8.56497L77.8817 6.00708L76.7913 9.83947C75.1745 15.5235 71.0691 23.2212 64.5759 32.7338C58.1979 42.0781 49.4886 53.2125 38.5456 65.9457L36.917 67.8412L35.2417 65.9668Z" fill="#111135"/>
<path fill-rule="evenodd" clip-rule="evenodd" d="M32.0048 57.7228L34.5137 60.53C40.7932 53.2232 51.0888 39.7636 52.2751 36.4248C48.7759 38.8625 38.5978 50.0014 33.8762 55.5032C32.9717 56.5574 32.9743 56.5317 32.0048 57.7228Z" fill="#111135"/>
<path fill-rule="evenodd" clip-rule="evenodd" d="M39.856 72.375C39.6264 63.07 32.8472 54.7953 21.588 50.4382C33.7667 65.0629 39.856 72.375 39.856 72.375Z" fill="#111135"/>
<path fill-rule="evenodd" clip-rule="evenodd" d="M44.1833 72.395C44.413 63.0899 51.1922 54.8152 62.4513 50.4582C50.2727 65.0829 44.1833 72.395 44.1833 72.395Z" fill="#111135"/>
<path fill-rule="evenodd" clip-rule="evenodd" d="M38.6045 28.6101L41.9364 24.603L45.2685 28.6101L41.9364 32.6171L38.6045 28.6101Z" fill="#111135"/>
<path d="M41.9325 84.2707L32.9087 72.853L41.942 81.6254L50.9559 72.853L41.9325 84.2707ZM41.9325 13.4715L32.9087 24.8894L41.942 16.1167L50.9559 24.8894L41.9325 13.4715ZM71.8382 48.8533L64.5265 40.9838L69.4473 48.8621L64.5265 56.7232L71.8382 48.8533ZM12.1442 48.8533L19.456 40.9838L14.5352 48.8621L19.456 56.7232L12.1442 48.8533" fill="url(#paint2_linear)"/>
<path d="M25.0437 61.4024L32.9063 70.379L33.5042 71.0614L32.9288 71.7535L18.9631 88.5615L18.4575 89.1703L17.4475 89.2303C16.1933 89.3046 14.8726 89.2205 13.604 89.0145C12.3044 88.8039 11.0339 88.4555 9.93228 88.0136C8.76313 87.5447 7.68638 86.9694 6.7145 86.2879C5.76231 85.6204 4.89975 84.8471 4.13871 83.9677L3.55505 83.2937L4.12353 82.6092L21.7171 61.4344L23.3501 59.4688L25.0437 61.4024ZM29.0043 71.0977L23.4331 64.7373L8.06468 83.234C8.49751 83.6591 8.96257 84.0449 9.45775 84.392C10.1994 84.9121 11.0019 85.3435 11.8569 85.6861C12.6174 85.9911 13.5258 86.2367 14.4834 86.3921C15.0391 86.4824 15.6047 86.5393 16.1594 86.5567L29.0043 71.0977" fill="#111135"/>
<path fill-rule="evenodd" clip-rule="evenodd" d="M8.40698 80.1806C7.78685 80.8482 7.11755 81.5029 7.11755 81.5029C11.0354 83.3088 14.0564 84.1857 15.8211 84.454C14.7415 83.4477 12.3896 81.9163 8.40698 80.1806" fill="#111135"/>
<path fill-rule="evenodd" clip-rule="evenodd" d="M10.5123 77.5769C9.89238 78.2445 9.2229 78.8992 9.2229 78.8992C13.1408 80.7051 16.1617 81.582 17.9265 81.8503C16.8469 80.844 14.4952 79.3125 10.5123 77.5769" fill="#111135"/>
<path fill-rule="evenodd" clip-rule="evenodd" d="M12.6162 74.973C11.9963 75.6406 11.3268 76.2952 11.3268 76.2952C15.2447 78.1012 18.2654 78.9781 20.0301 79.2464C18.9508 78.2401 16.5989 76.7087 12.6162 74.973Z" fill="#111135"/>
<path fill-rule="evenodd" clip-rule="evenodd" d="M14.7223 72.3693C14.1024 73.0368 13.4331 73.6914 13.4331 73.6914C17.351 75.4975 20.3715 76.3744 22.1362 76.6427C21.0568 75.6364 18.7049 74.1049 14.7223 72.3693" fill="#111135"/>
<path fill-rule="evenodd" clip-rule="evenodd" d="M16.8264 69.7655C16.2063 70.4332 15.537 71.0877 15.537 71.0877C19.4549 72.8937 22.4756 73.7706 24.2403 74.0389C23.1607 73.0327 20.8091 71.5012 16.8264 69.7655" fill="#111135"/>
<path fill-rule="evenodd" clip-rule="evenodd" d="M18.9305 67.1616C18.3104 67.8292 17.6411 68.4837 17.6411 68.4837C21.559 70.2898 24.5797 71.1667 26.3447 71.435C25.2649 70.4287 22.9132 68.8972 18.9305 67.1616Z" fill="#111135"/>
<path fill-rule="evenodd" clip-rule="evenodd" d="M18.8269 61.0836L31.671 76.53L31.6945 72.6117L24.0535 62.857L18.8269 61.0836" fill="#111135"/>
<defs>
<linearGradient id="paint0_linear" x1="14.5409" y1="49.7713" x2="79.2322" y2="49.7713" gradientUnits="userSpaceOnUse">
<stop stop-color="#B978FF"/>
<stop offset="1" stop-color="#346FFF"/>
</linearGradient>
<linearGradient id="paint1_linear" x1="-35.0634" y1="91.6059" x2="74.477" y2="-28.483" gradientUnits="userSpaceOnUse">
<stop stop-color="#2E6FFF"/>
<stop offset="0.34375" stop-color="#7574FF"/>
<stop offset="1" stop-color="#BD79FF"/>
</linearGradient>
<linearGradient id="paint2_linear" x1="41.1319" y1="69.7306" x2="41.9623" y2="27.9945" gradientUnits="userSpaceOnUse">
<stop stop-color="#2A6FFF"/>
<stop offset="1" stop-color="#BB79FF"/>
</linearGradient>
</defs>
</svg>
