<svg width="18" height="14" viewBox="0 0 18 14" fill="none" xmlns="http://www.w3.org/2000/svg">
<path d="M16.1499 3.48905C16.1613 3.64217 16.1613 3.79532 16.1613 3.94844C16.1613 8.61873 12.4494 14 5.66506 14C3.57494 14 1.63332 13.4203 6.10352e-05 12.4141C0.297027 12.4469 0.582532 12.4578 0.890924 12.4578C2.61552 12.4578 4.20311 11.9 5.47089 10.9485C3.84905 10.9156 2.48991 9.89845 2.02162 8.49844C2.25007 8.53123 2.47848 8.55311 2.71835 8.55311C3.04956 8.55311 3.3808 8.50934 3.68916 8.43282C1.99881 8.10467 0.730998 6.68281 0.730998 4.96562V4.92189C1.2221 5.18439 1.79321 5.34845 2.3985 5.3703C1.40484 4.73591 0.753849 3.65311 0.753849 2.4281C0.753849 1.77186 0.936557 1.1703 1.25637 0.645296C3.07238 2.78904 5.8021 4.18902 8.86299 4.34217C8.80589 4.07967 8.77162 3.80626 8.77162 3.53282C8.77162 1.58592 10.4163 2.46585e-08 12.4607 2.46585e-08C13.5229 2.46585e-08 14.4823 0.426561 15.1562 1.11562C15.9899 0.962507 16.7894 0.66718 17.4975 0.262502C17.2234 1.08283 16.6409 1.7719 15.8757 2.20937C16.6181 2.13284 17.3376 1.93592 18.0001 1.66251C17.4976 2.36248 16.8694 2.9859 16.1499 3.48905Z" fill="url(#paint0_linear)"/>
<path d="M16.1499 3.48905C16.1613 3.64217 16.1613 3.79532 16.1613 3.94844C16.1613 8.61873 12.4494 14 5.66506 14C3.57494 14 1.63332 13.4203 6.10352e-05 12.4141C0.297027 12.4469 0.582532 12.4578 0.890924 12.4578C2.61552 12.4578 4.20311 11.9 5.47089 10.9485C3.84905 10.9156 2.48991 9.89845 2.02162 8.49844C2.25007 8.53123 2.47848 8.55311 2.71835 8.55311C3.04956 8.55311 3.3808 8.50934 3.68916 8.43282C1.99881 8.10467 0.730998 6.68281 0.730998 4.96562V4.92189C1.2221 5.18439 1.79321 5.34845 2.3985 5.3703C1.40484 4.73591 0.753849 3.65311 0.753849 2.4281C0.753849 1.77186 0.936557 1.1703 1.25637 0.645296C3.07238 2.78904 5.8021 4.18902 8.86299 4.34217C8.80589 4.07967 8.77162 3.80626 8.77162 3.53282C8.77162 1.58592 10.4163 2.46585e-08 12.4607 2.46585e-08C13.5229 2.46585e-08 14.4823 0.426561 15.1562 1.11562C15.9899 0.962507 16.7894 0.66718 17.4975 0.262502C17.2234 1.08283 16.6409 1.7719 15.8757 2.20937C16.6181 2.13284 17.3376 1.93592 18.0001 1.66251C17.4976 2.36248 16.8694 2.9859 16.1499 3.48905Z" fill="white"/>
<path d="M16.1499 3.48905C16.1613 3.64217 16.1613 3.79532 16.1613 3.94844C16.1613 8.61873 12.4494 14 5.66506 14C3.57494 14 1.63332 13.4203 6.10352e-05 12.4141C0.297027 12.4469 0.582532 12.4578 0.890924 12.4578C2.61552 12.4578 4.20311 11.9 5.47089 10.9485C3.84905 10.9156 2.48991 9.89845 2.02162 8.49844C2.25007 8.53123 2.47848 8.55311 2.71835 8.55311C3.04956 8.55311 3.3808 8.50934 3.68916 8.43282C1.99881 8.10467 0.730998 6.68281 0.730998 4.96562V4.92189C1.2221 5.18439 1.79321 5.34845 2.3985 5.3703C1.40484 4.73591 0.753849 3.65311 0.753849 2.4281C0.753849 1.77186 0.936557 1.1703 1.25637 0.645296C3.07238 2.78904 5.8021 4.18902 8.86299 4.34217C8.80589 4.07967 8.77162 3.80626 8.77162 3.53282C8.77162 1.58592 10.4163 2.46585e-08 12.4607 2.46585e-08C13.5229 2.46585e-08 14.4823 0.426561 15.1562 1.11562C15.9899 0.962507 16.7894 0.66718 17.4975 0.262502C17.2234 1.08283 16.6409 1.7719 15.8757 2.20937C16.6181 2.13284 17.3376 1.93592 18.0001 1.66251C17.4976 2.36248 16.8694 2.9859 16.1499 3.48905Z" fill="#55ACEE"/>
<defs>
<linearGradient id="paint0_linear" x1="6.10352e-05" y1="0" x2="19.9314" y2="3.75863" gradientUnits="userSpaceOnUse">
<stop stop-color="#8F46FF"/>
<stop offset="1" stop-color="#0076FE"/>
</linearGradient>
</defs>
</svg>
