<svg width="70" height="19" viewBox="0 0 70 19" fill="none" xmlns="http://www.w3.org/2000/svg">
<path d="M22.3851 0.0069561H25.1206V17.7439C25.1108 18.4184 24.5476 18.9899 23.8653 19H23.8321H22.3577L18.0902 9.6933C17.3059 7.75784 16.695 6.22041 16.2573 5.08083L16.1752 5.13498C16.3941 7.30567 16.5035 9.48541 16.5035 11.674V17.7112V17.7439C16.4938 18.4184 15.9307 18.9899 15.2481 19H15.215H13.768V0.0069561H16.5308L20.9351 9.6933C21.2635 10.417 21.847 11.8097 22.686 13.8718L22.7679 13.8177C22.5127 11.6288 22.3851 9.49446 22.3851 7.41431V0.0069561ZM3.83828 8.58367L8.83884 -9.53674e-06H11.8638L6.54026 9.1384L12.2851 19H9.26014L3.83828 9.69312L3.5151 9.1384L3.83828 8.58367ZM1.50758 19H0V0.0069561H2.76289V17.7112V17.7439C2.75306 18.4186 2.19009 18.9898 1.50758 19ZM28.9504 0.0069561H31.7133V17.7439C31.7035 18.4184 31.1404 18.9899 30.458 19H30.4248H28.9504V0.0069561ZM43.2877 2.58455H38.2787V8.25529H44.0508V9.46486V9.49759C44.0413 10.1551 43.5059 10.7145 42.8467 10.7516H38.2787V17.7112V17.7439C38.269 18.4184 37.7057 18.9899 37.0234 19H36.9902H35.5158V0.0069561H44.5432V1.29575V1.32849C44.5335 2.00301 43.9704 2.57445 43.2877 2.58455ZM49.9048 16.4223H56.7985V17.7439C56.7886 18.4292 56.2072 19.0082 55.51 18.9999L47.1419 19V0.0069561H56.5248V1.53185C56.4186 2.11409 55.9021 2.57532 55.2895 2.58455H55.2565H49.9048V8.09249H55.5565V9.32714V9.35987C55.5466 10.0344 54.9835 10.6059 54.301 10.6159H54.268H49.9048V16.4223Z" fill="white"/>
<path d="M69.9999 18.9999H66.936L63.9268 11.9725L61.4465 17.713L61.4437 17.7111C61.1467 18.4069 60.6592 18.9999 59.8396 18.9999L59.8398 18.9999H57.8267L62.395 9.15075L58.1002 0.00694466H61.1367L63.9268 6.43734L66.1366 1.29452L66.1369 1.29469C66.4269 0.614603 66.8991 0.033062 67.6856 0.00694466H69.7263L65.4314 9.15075L69.9999 18.9999Z" fill="url(#paint0_linear)"/>
<path fill-rule="evenodd" clip-rule="evenodd" d="M9.27222 9.14906L10.4289 7.18209L11.5857 5.21512V13.0829L10.4289 11.1159L9.27222 9.14906Z" fill="url(#paint1_linear)"/>
<path fill-rule="evenodd" clip-rule="evenodd" d="M59.8475 9.14906L58.6909 7.18209L57.5342 5.21512V13.0829L58.6909 11.1159L59.8475 9.14906Z" fill="url(#paint2_linear)"/>
<defs>
<linearGradient id="paint0_linear" x1="72.3229" y1="18.9582" x2="55.6579" y2="-0.0863381" gradientUnits="userSpaceOnUse">
<stop stop-color="#C979FF"/>
<stop offset="1" stop-color="#166DFF"/>
</linearGradient>
<linearGradient id="paint1_linear" x1="7.69541" y1="13.4475" x2="15.2996" y2="10.6411" gradientUnits="userSpaceOnUse">
<stop stop-color="#2E6FFF"/>
<stop offset="0.34375" stop-color="#7574FF"/>
<stop offset="1" stop-color="#BD79FF"/>
</linearGradient>
<linearGradient id="paint2_linear" x1="55.9575" y1="13.4475" x2="63.5613" y2="10.6415" gradientUnits="userSpaceOnUse">
<stop stop-color="#2E6FFF"/>
<stop offset="0.34375" stop-color="#7574FF"/>
<stop offset="1" stop-color="#BD79FF"/>
</linearGradient>
</defs>
</svg>
