<svg width="23" height="30" viewBox="0 0 23 30" fill="none" xmlns="http://www.w3.org/2000/svg">
<ellipse rx="11.3318" ry="11.1294" transform="matrix(-1.17119e-08 -1 -1 1.21417e-08 11.8232 18.6561)" fill="white"/>
<path d="M14.8592 3.41031L14.6919 2.4244L14.8592 3.41031ZM12.8232 8.45821V7.0049H10.8232V8.45821H12.8232ZM15.4692 4.35892H19.0574V2.35892H15.4692V4.35892ZM15.0265 4.39621C15.1728 4.37139 15.3209 4.35892 15.4692 4.35892V2.35892C15.2087 2.35892 14.9487 2.38082 14.6919 2.4244L15.0265 4.39621ZM12.8232 7.0049C12.8232 5.71439 13.7542 4.61212 15.0265 4.39621L14.6919 2.4244C12.4579 2.80351 10.8232 4.73894 10.8232 7.0049H12.8232Z" fill="white"/>
<path d="M7.37109 17.5236V19.1895C7.37109 21.3986 9.16196 23.1895 11.3711 23.1895H12.9358" stroke="#252549" stroke-width="2" stroke-linecap="round" stroke-linejoin="round"/>
<ellipse cx="20.1699" cy="3.35824" rx="1.66941" ry="1.69976" fill="white"/>
<mask id="path-5-outside-1" maskUnits="userSpaceOnUse" x="17.5005" y="0.658478" width="6" height="6" fill="black">
<rect fill="white" x="17.5005" y="0.658478" width="6" height="6"/>
<path fill-rule="evenodd" clip-rule="evenodd" d="M20.1699 5.05801C21.0919 5.05801 21.8393 4.297 21.8393 3.35824C21.8393 2.41949 21.0919 1.65848 20.1699 1.65848C19.2479 1.65848 18.5005 2.41949 18.5005 3.35824C18.5005 4.297 19.2479 5.05801 20.1699 5.05801Z"/>
</mask>
<path d="M20.8393 3.35824C20.8393 3.76178 20.5227 4.05801 20.1699 4.05801V6.05801C21.6611 6.05801 22.8393 4.83222 22.8393 3.35824H20.8393ZM20.1699 2.65848C20.5227 2.65848 20.8393 2.95471 20.8393 3.35824H22.8393C22.8393 1.88427 21.6611 0.658478 20.1699 0.658478V2.65848ZM19.5005 3.35824C19.5005 2.95471 19.8171 2.65848 20.1699 2.65848V0.658478C18.6787 0.658478 17.5005 1.88427 17.5005 3.35824H19.5005ZM20.1699 4.05801C19.8171 4.05801 19.5005 3.76178 19.5005 3.35824H17.5005C17.5005 4.83222 18.6787 6.05801 20.1699 6.05801V4.05801Z" fill="white" mask="url(#path-5-outside-1)"/>
</svg>
