<svg width="52" height="56" viewBox="0 0 52 56" fill="none" xmlns="http://www.w3.org/2000/svg">
<path fill-rule="evenodd" clip-rule="evenodd" d="M7.27148 29.153L24.9602 7.88021L42.649 29.153L24.9602 50.426L7.27148 29.153Z" fill="#DBDB16" fill-opacity="0.03"/>
<path d="M4.18486 27.9101L21.8738 6.63733L24.961 2.92475L28.0483 6.63733L45.7371 27.9101L46.7704 29.1526L45.7371 30.3952L28.0483 51.6681L24.961 55.381L21.8738 51.6681L4.18486 30.3952L3.15186 29.1526L4.18486 27.9101ZM24.961 12.8353L11.3927 29.1526L24.961 45.4702L38.5295 29.1526L24.961 12.8353Z" fill="#DBDB16" fill-opacity="0.03"/>
<path d="M15.5972 36.4221L20.4283 41.9377L21.1629 42.7763L20.4562 43.6268L11.8751 53.9541L11.2536 54.7023L10.0123 54.7761C9.11774 54.8291 8.18017 54.7698 7.28285 54.6242C6.37836 54.4775 5.48697 54.232 4.70548 53.9185C3.89149 53.5919 3.14568 53.1944 2.47682 52.7254C1.82472 52.2682 1.23571 51.7403 0.717237 51.1413L0 50.3127L0.698585 49.4716L11.5087 36.4609L13.5156 34.0456L15.5972 36.4221ZM15.6331 42.8204L13.6182 40.5203L5.57952 50.1954C5.66693 50.2649 5.75657 50.3316 5.84822 50.3957C6.2322 50.6649 6.64136 50.8858 7.07096 51.0581C7.43352 51.2036 7.88073 51.323 8.36337 51.4012C8.40474 51.4078 8.44611 51.4144 8.48737 51.4202L15.6331 42.8204ZM35.6516 33.9653L30.4062 40.1547L28.3712 42.5565L26.3176 40.1677C25.9444 39.7335 25.5256 39.2432 25.065 38.7011C24.6345 39.2075 24.2444 39.664 23.8972 40.0679L21.8954 42.3973L19.8365 40.0938L14.4545 34.0721L13.7109 33.24L14.408 32.3831C15.8991 30.5513 16.3254 30.0525 17.1751 29.0692C13.2569 24.0623 10.0934 19.6164 7.70879 15.7784C5.13985 11.6438 3.45023 8.17485 2.66917 5.42866L1.3297 0.718853L6.56197 3.86244C9.35631 5.54116 12.4735 7.93507 15.9115 11.0424C18.7331 13.5929 21.7837 16.6327 25.0612 20.1615C28.3631 16.6016 31.4285 13.5418 34.2568 10.983C37.7115 7.85705 40.844 5.45017 43.653 3.76264L48.8853 0.619316L47.5461 5.32886C46.7676 8.06572 45.0665 11.5479 42.4723 15.7182C40.0539 19.6068 36.8745 24.0729 32.961 29.0697L32.9788 29.0902C33.7516 29.9817 34.0722 30.3517 35.6703 32.315L36.3464 33.1457L35.6516 33.9653ZM28.3519 36.0738L30.8581 33.1165C29.9812 32.0473 29.613 31.6216 28.9314 30.8354C29.0085 30.9242 29.0863 31.0133 28.9014 30.7977L28.8995 30.7986L28.91 30.8107L28.9314 30.8354L28.3519 36.0738ZM27.1239 34.6086C27.6199 35.2022 28.0262 35.6868 28.3519 36.0738L27.1239 34.6086ZM23.0076 34.6086L25.0672 32.1464L27.1239 34.6086H23.0076ZM21.8118 36.0342C22.1241 35.6632 22.5235 35.1873 23.0076 34.6086L21.8118 36.0342ZM19.2416 33.1583L21.8118 36.0342L19.2416 33.1583ZM21.3893 30.6086C20.6371 31.4791 20.2514 31.9255 19.2416 33.1583L21.3893 30.6086ZM21.9552 29.9531L21.3893 30.6086L21.9552 29.9531ZM22.0016 28.3094L22.6573 29.14L21.9552 29.9531L22.0016 28.3094ZM12.0861 14.4711C14.5536 18.4424 17.868 23.0731 22.0016 28.3094L12.0861 14.4711ZM10.286 11.4221C10.8233 12.3875 11.4231 13.4041 12.0861 14.4711L10.286 11.4221ZM12.1487 13.0617C11.5146 12.4886 10.8938 11.9419 10.286 11.4221L12.1487 13.0617ZM23.0507 24.1188C19.0767 19.7247 15.4423 16.0384 12.1487 13.0617L23.0507 24.1188ZM27.0742 24.1188L25.0637 26.3448L23.0507 24.1188H27.0742ZM38.0379 12.9894C34.7173 15.9935 31.0624 19.704 27.0742 24.1188L38.0379 12.9894ZM39.9427 11.3122C39.3216 11.8434 38.6867 12.4022 38.0379 12.9894L39.9427 11.3122ZM38.1137 14.411C38.7881 13.3269 39.3977 12.2936 39.9427 11.3122L38.1137 14.411ZM28.1311 28.3136C32.3188 23.0143 35.6554 18.3625 38.1137 14.411L28.1311 28.3136ZM28.1776 29.9574L27.4757 29.1431L28.1311 28.3136L28.1776 29.9574ZM28.9014 30.7977L28.1776 29.9574L28.9014 30.7977ZM36.3817 40.6619L34.3668 42.962L41.5125 51.5619C41.5539 51.556 41.5953 51.5495 41.6363 51.5429C42.1194 51.4647 42.5663 51.3452 42.9289 51.1997C43.3587 51.0275 43.7675 50.8066 44.1518 50.5374C44.2432 50.4733 44.3331 50.4064 44.4204 50.3371L36.3817 40.6619ZM29.5716 42.0794L34.4026 36.5638L36.4846 34.1873L38.4912 36.6026L49.3013 49.6133L50 50.4543L49.2826 51.2828C48.7641 51.882 48.1754 52.4097 47.523 52.867C46.8541 53.3361 46.1084 53.7337 45.2944 54.0602C44.5129 54.3737 43.6217 54.6192 42.717 54.7658C41.8195 54.9116 40.882 54.9708 39.9875 54.9177L38.7467 54.844L38.1248 54.0958L29.5437 43.7683L28.8373 42.918L29.5716 42.0794" fill="#DBDB16" fill-opacity="0.03"/>
<path fill-rule="evenodd" clip-rule="evenodd" d="M7.27148 29.153L24.9602 7.88021L42.649 29.153L24.9602 50.426L7.27148 29.153Z" fill="#DBDB16" fill-opacity="0.03"/>
<path fill-rule="evenodd" clip-rule="evenodd" d="M28.0399 38.9468L33.6328 33.3965C20.8341 17.4537 12.502 9.65294 4.97461 5.07716C6.55349 10.8049 12.1658 19.6682 21.8109 31.6653C23.6592 33.9639 25.895 36.4174 28.0399 38.9468Z" fill="#DBDB16" fill-opacity="0.03"/>
<path fill-rule="evenodd" clip-rule="evenodd" d="M31.1279 42.3656L38.6623 40.1039L47.2427 50.4316C46.6787 51.2682 45.6025 52.0282 44.4841 52.477C43.2497 52.9722 41.8119 53.2438 40.1829 53.2639L31.1279 42.3656Z" fill="#DBDB16" fill-opacity="0.03"/>
<path d="M32.7682 41.3989L36.8367 38.4451L47.8764 50.0042C47.3993 50.7116 46.4894 51.354 45.5441 51.7336C44.5003 52.1523 43.2849 52.3818 41.9073 52.3989L32.7682 41.3989ZM29.0874 37.6857L33.7391 33.2949C22.1836 18.9008 14.9242 11.1371 8.12793 7.0056C9.55337 12.1773 15.1454 20.4802 23.8394 31.3173C25.1162 32.9094 25.3931 33.2868 26.3022 34.3715C26.5849 34.7088 28.6327 37.1532 29.0874 37.6857" fill="#DBDB16" fill-opacity="0.03"/>
<path fill-rule="evenodd" clip-rule="evenodd" d="M29.776 37.0367L31.5853 35.6582C27.9192 31.0916 20.7752 23.1498 18.583 21.6852C19.3747 23.7282 24.7776 30.9137 27.54 34.3497C28.0691 35.0079 29.1617 36.3123 29.776 37.0367" fill="#DBDB16" fill-opacity="0.03"/>
<path d="M34.6271 33.5443L29.3817 39.7339L28.3641 40.9348L27.3375 39.7404C20.6137 31.9164 15.2624 25.0752 11.3432 19.3334C7.35365 13.4887 4.83138 8.75896 3.83785 5.26646L3.16797 2.91143L5.7844 4.48335C9.02829 6.43218 12.7369 9.38368 16.9089 13.3376C21.0463 17.2588 25.6588 22.1833 30.7447 28.1099C30.9785 28.3826 31.5324 29.0213 31.9585 29.5133C32.754 30.431 33.084 30.8116 34.6364 32.7192L34.9744 33.1347L34.6271 33.5443ZM28.3526 37.6954L32.2305 33.1197C31.0406 31.6615 30.6859 31.2522 29.9191 30.3675C29.731 30.1503 29.5334 29.9229 28.7054 28.9578C23.6635 23.0828 19.0913 18.2014 14.9906 14.3149C12.1492 11.6218 9.54194 9.41401 7.16974 7.69174C8.44742 10.6725 10.5643 14.3348 13.4948 18.6281C17.1862 24.0362 22.1557 30.425 28.3526 37.6954" fill="#DBDB16" fill-opacity="0.03"/>
<path fill-rule="evenodd" clip-rule="evenodd" d="M38.6128 51.3486C38.9336 51.7829 39.2291 52.2316 39.2291 52.2316C41.8158 51.3376 43.4154 50.4901 44.163 49.92C43.0606 50.01 41.1655 50.4091 38.6128 51.3486" fill="#DBDB16" fill-opacity="0.03"/>
<path fill-rule="evenodd" clip-rule="evenodd" d="M37.2651 49.7697C37.586 50.2041 37.8818 50.6527 37.8818 50.6527C40.4685 49.7589 42.0677 48.9113 42.8153 48.3413C41.7133 48.4313 39.8179 48.8304 37.2651 49.7697" fill="#DBDB16" fill-opacity="0.03"/>
<path fill-rule="evenodd" clip-rule="evenodd" d="M35.9185 48.1922C36.2392 48.6266 36.5349 49.0752 36.5349 49.0752C39.1216 48.1814 40.7208 47.3337 41.4688 46.7637C40.3664 46.8537 38.4714 47.2528 35.9185 48.1922" fill="#DBDB16" fill-opacity="0.03"/>
<path fill-rule="evenodd" clip-rule="evenodd" d="M34.5708 46.6145C34.8915 47.0489 35.1872 47.4976 35.1872 47.4976C37.7738 46.6037 39.3734 45.7561 40.121 45.186C39.0187 45.2761 37.1232 45.6751 34.5708 46.6145" fill="#DBDB16" fill-opacity="0.03"/>
<path fill-rule="evenodd" clip-rule="evenodd" d="M33.2227 45.0357C33.5434 45.4701 33.839 45.9187 33.839 45.9187C36.4256 45.0249 38.0252 44.1773 38.7727 43.6072C37.6708 43.6972 35.7753 44.0963 33.2227 45.0357" fill="#DBDB16" fill-opacity="0.03"/>
<path fill-rule="evenodd" clip-rule="evenodd" d="M31.876 43.4569C32.1967 43.8913 32.4924 44.34 32.4924 44.34C35.0791 43.4462 36.6785 42.5985 37.4263 42.0284C36.3238 42.1185 34.4285 42.5175 31.876 43.4569" fill="#DBDB16" fill-opacity="0.03"/>
<path d="M36.4076 39.0398L32.9845 42.9477L40.877 52.4465C41.2176 52.4358 41.5652 52.4008 41.9066 52.3452C42.4952 52.25 43.0533 52.099 43.5207 51.9116C44.0456 51.701 44.5392 51.4359 44.9946 51.1164C45.299 50.9031 45.5848 50.6661 45.8508 50.4049L36.4076 39.0398ZM30.587 42.5062L35.418 36.9907L36.4589 35.8026L37.4621 37.0102L48.2722 50.021L48.6218 50.4416L48.2629 50.8557C47.7955 51.3959 47.2654 51.8712 46.6804 52.2813C46.0832 52.7 45.4214 53.0535 44.7033 53.3416C44.0262 53.6132 43.2458 53.8273 42.4471 53.9567C41.6674 54.0832 40.8561 54.1349 40.0854 54.0892L39.465 54.0524L39.1542 53.6783L30.5731 43.3508L30.2197 42.9256L30.587 42.5062" fill="#DBDB16" fill-opacity="0.03"/>
<path d="M5.21275 28.324L22.9015 7.05119L24.9598 4.57588L27.0182 7.05119L44.7071 28.324L45.3961 29.1522L44.7071 29.9807L27.0182 51.2535L24.9598 53.7289L22.9015 51.2535L5.21275 29.9807L4.52393 29.1522L5.21275 28.324ZM24.9598 11.1832L10.0179 29.1522L24.9598 47.1215L39.9015 29.1522L24.9598 11.1832Z" fill="#DBDB16" fill-opacity="0.03"/>
<path fill-rule="evenodd" clip-rule="evenodd" d="M28.039 38.9468C26.1806 36.7974 25.2515 35.7226 25.2515 35.7226C26.4535 33.4101 28.2841 31.3677 30.7431 29.5957C32.6493 31.9503 33.6023 33.1276 33.6023 33.1276C29.8934 37.0072 28.039 38.9468 28.039 38.9468Z" fill="#DBDB16" fill-opacity="0.03"/>
<path fill-rule="evenodd" clip-rule="evenodd" d="M16.4756 33.1959L21.8576 39.2177C35.3276 23.5442 43.2687 11.8273 45.2082 5.00926C38.8589 8.82346 30.6187 16.632 20.4896 28.4352C18.5487 30.6968 18.5556 30.6405 16.4756 33.1959Z" fill="#DBDB16" fill-opacity="0.03"/>
<path fill-rule="evenodd" clip-rule="evenodd" d="M13.5664 37.2794L18.3973 42.7948L9.81636 53.1223C8.49149 53.201 7.00628 52.9334 5.88775 52.4848C4.65334 51.9895 3.59628 51.2603 2.75635 50.2899L13.5664 37.2794Z" fill="#DBDB16" fill-opacity="0.03"/>
<path d="M13.8356 39.896L17.9202 44.5591L10.6652 53.2907C9.54502 53.3573 8.28935 53.131 7.34375 52.7516C6.30009 52.333 5.40638 51.7165 4.69629 50.896L13.8356 39.896ZM18.312 33.7804L22.8798 39.0966C35.0412 24.9456 42.6289 14.0269 44.3796 7.87145C38.6474 11.315 31.0811 18.8259 21.9362 29.482C20.1839 31.5239 20.1901 31.4732 18.312 33.7804Z" fill="#DBDB16" fill-opacity="0.03"/>
<path d="M17.8585 33.1751L21.8367 37.6265C28.0452 30.3436 33.0238 23.9445 36.7201 18.5291C39.6507 14.2359 41.7673 10.5733 43.045 7.59252C40.6728 9.3148 38.0664 11.5226 35.2247 14.2151C31.1236 18.1022 26.5514 22.9836 21.5096 28.8586C21.0318 29.4154 20.6716 29.8321 20.3698 30.1813C19.5278 31.1557 19.1407 31.6038 17.8585 33.1751V33.1751ZM20.8473 39.6541L15.4653 33.6324L15.0933 33.2163L15.4418 32.7878C17.009 30.8624 17.3959 30.4147 18.3303 29.3335C18.6322 28.984 18.9924 28.5675 19.4701 28.0107C24.5564 22.0841 29.1687 17.1596 33.3065 13.2381C37.4784 9.28447 41.1869 6.33271 44.4305 4.38414L47.047 2.81247L46.3771 5.16725C45.3836 8.65975 42.8611 13.3895 38.8714 19.2344C34.9525 24.976 29.6012 31.8174 22.8774 39.6411L21.8767 40.8058L20.8473 39.6541Z" fill="#DBDB16" fill-opacity="0.03"/>
<path fill-rule="evenodd" clip-rule="evenodd" d="M18.8589 34.5888L20.4005 36.3136C24.2589 31.824 30.5849 23.5539 31.3138 21.5024C29.1637 23.0002 22.9099 29.8444 20.0088 33.2249C19.453 33.8727 19.4546 33.8569 18.8589 34.5888Z" fill="#DBDB16" fill-opacity="0.03"/>
<path fill-rule="evenodd" clip-rule="evenodd" d="M23.6826 43.5913C23.5415 37.8739 19.3761 32.7897 12.458 30.1125C19.9411 39.0985 23.6826 43.5913 23.6826 43.5913Z" fill="#DBDB16" fill-opacity="0.03"/>
<path fill-rule="evenodd" clip-rule="evenodd" d="M26.3418 43.6041C26.4829 37.8867 30.6483 32.8024 37.5663 30.1253C30.0833 39.1113 26.3418 43.6041 26.3418 43.6041Z" fill="#DBDB16" fill-opacity="0.03"/>
<path fill-rule="evenodd" clip-rule="evenodd" d="M22.9136 16.7L24.9608 14.2379L27.0082 16.7L24.9608 19.1621L22.9136 16.7Z" fill="#DBDB16" fill-opacity="0.03"/>
<path d="M22.0299 50.9004L17.3725 45.0074L22.0348 49.5351L26.6872 45.0074L22.0299 50.9004ZM22.0299 14.3589L17.3725 20.2519L22.0348 15.7241L26.6872 20.2519L22.0299 14.3589ZM37.4651 32.6204L33.6913 28.5588L36.2311 32.625L33.6913 36.6823L37.4651 32.6204ZM6.65527 32.6204L10.4291 28.5588L7.88937 32.625L10.4291 36.6823L6.65527 32.6204" fill="#DBDB16" fill-opacity="0.03"/>
<path d="M14.5809 36.8501L19.412 42.3656L19.7793 42.7849L19.4258 43.2102L10.8448 53.5377L10.5341 53.9117L9.91349 53.9486C9.14289 53.9943 8.33137 53.9426 7.55193 53.816C6.75339 53.6866 5.97275 53.4726 5.29586 53.201C4.57749 52.9129 3.91589 52.5594 3.31873 52.1407C2.73367 51.7305 2.20368 51.2554 1.73606 50.7151L1.37744 50.301L1.72673 49.8803L12.5369 36.8697L13.5403 35.662L14.5809 36.8501ZM17.0144 42.8072L13.5913 38.8991L4.14834 50.2643C4.41428 50.5254 4.70003 50.7625 5.00429 50.9757C5.45996 51.2953 5.95309 51.5604 6.47841 51.7709C6.94573 51.9584 7.50384 52.1092 8.09225 52.2047C8.43369 52.2602 8.78122 52.2951 9.12207 52.3059L17.0144 42.8072" fill="#DBDB16" fill-opacity="0.03"/>
<path fill-rule="evenodd" clip-rule="evenodd" d="M4.35917 48.3874C3.97814 48.7977 3.56689 49.2 3.56689 49.2C5.97419 50.3096 7.83039 50.8483 8.91472 51.0132C8.25137 50.3949 6.80627 49.4539 4.35917 48.3874" fill="#DBDB16" fill-opacity="0.03"/>
<path fill-rule="evenodd" clip-rule="evenodd" d="M5.65311 46.7877C5.2722 47.1979 4.86084 47.6002 4.86084 47.6002C7.26814 48.7098 9.12434 49.2486 10.2087 49.4135C9.54532 48.7952 8.10036 47.8542 5.65311 46.7877" fill="#DBDB16" fill-opacity="0.03"/>
<path fill-rule="evenodd" clip-rule="evenodd" d="M6.94559 45.188C6.56468 45.5982 6.15332 46.0004 6.15332 46.0004C8.56062 47.1101 10.4167 47.6489 11.501 47.8137C10.8378 47.1954 9.3927 46.2544 6.94559 45.188Z" fill="#DBDB16" fill-opacity="0.03"/>
<path fill-rule="evenodd" clip-rule="evenodd" d="M8.23939 43.5882C7.85851 43.9984 7.44727 44.4006 7.44727 44.4006C9.85456 45.5104 11.7105 46.0491 12.7948 46.214C12.1316 45.5957 10.6865 44.6547 8.23939 43.5882" fill="#DBDB16" fill-opacity="0.03"/>
<path fill-rule="evenodd" clip-rule="evenodd" d="M9.53202 41.9887C9.15099 42.3989 8.73975 42.8011 8.73975 42.8011C11.147 43.9108 13.0031 44.4495 14.0874 44.6144C13.4241 43.9961 11.9791 43.0551 9.53202 41.9887" fill="#DBDB16" fill-opacity="0.03"/>
<path fill-rule="evenodd" clip-rule="evenodd" d="M10.8255 40.3877C10.4444 40.7979 10.0332 41.2001 10.0332 41.2001C12.4405 42.3098 14.2966 42.8486 15.381 43.0134C14.7176 42.3951 13.2726 41.4541 10.8255 40.3877Z" fill="#DBDB16" fill-opacity="0.03"/>
<path fill-rule="evenodd" clip-rule="evenodd" d="M10.7612 36.6534L18.6532 46.1443L18.6676 43.7368L13.9726 37.7431L10.7612 36.6534" fill="#DBDB16" fill-opacity="0.03"/>
<g filter="url(#filter0_f)">
<rect x="17" y="20" width="20" height="20" rx="10" fill="#DBDB16" fill-opacity="0.5"/>
</g>
<defs>
<filter id="filter0_f" x="2" y="5" width="50" height="50" filterUnits="userSpaceOnUse" color-interpolation-filters="sRGB">
<feFlood flood-opacity="0" result="BackgroundImageFix"/>
<feBlend mode="normal" in="SourceGraphic" in2="BackgroundImageFix" result="shape"/>
<feGaussianBlur stdDeviation="7.5" result="effect1_foregroundBlur"/>
</filter>
</defs>
</svg>
