<svg width="16" height="16" viewBox="0 0 16 16" fill="none" xmlns="http://www.w3.org/2000/svg">
<path d="M21.9994 0.0327148H-6.00024V16.0327H21.9994V0.0327148Z" fill="white"/>
<path d="M12.9031 6L22 0.737496V0H21.3725L11 6H12.9031Z" fill="#BD0034"/>
<path d="M11 10L22 16V14.8007L13.1983 10H11Z" fill="#BD0034"/>
<path d="M-6 1.1324L2.10623 6H4L-6 0V1.1324Z" fill="#BD0034"/>
<path d="M4.01622 10L-6 15.8986V16H-4.19044L6 10H4.01622Z" fill="#BD0034"/>
<path d="M20 0H10V6L20 0Z" fill="#1A237B"/>
<path d="M6 0H-4L6 6V0Z" fill="#1A237B"/>
<path d="M22 6V2L15 6H22Z" fill="#1A237B"/>
<path d="M22 14V10H15L22 14Z" fill="#1A237B"/>
<path d="M-3 16H6V11L-3 16Z" fill="#1A237B"/>
<path d="M10 16H20L10 11V16Z" fill="#1A237B"/>
<path d="M-6 10V15L3 10H-6Z" fill="#1A237B"/>
<path d="M-6 6H1L-6 2V6Z" fill="#1A237B"/>
<path d="M7 0V6.98159H-6V8.98568L7 9V16H9V9L22 8.98568V6.98159L9 7V0H7Z" fill="#BD0034"/>
</svg>
