<svg width="24" height="22" viewBox="0 0 24 22" fill="none" xmlns="http://www.w3.org/2000/svg">
<path fill-rule="evenodd" clip-rule="evenodd" d="M11.9998 21.9999C14.7041 21.9999 17.1805 21.024 19.0961 19.4052C19.5283 19.0398 19.5096 18.3843 19.0938 18.0003C18.6972 17.6342 18.0854 17.6524 17.6662 17.9925C16.1191 19.2478 14.1473 19.9999 11.9998 19.9999C9.85124 19.9999 7.87856 19.2471 6.33113 17.9908C5.91199 17.6505 5.29998 17.6321 4.90333 17.9984C4.4876 18.3822 4.46882 19.0376 4.90088 19.403C6.81676 21.0232 9.29418 21.9999 11.9998 21.9999ZM4.90561 3.99962C4.4898 3.61569 4.4711 2.96012 4.90336 2.5948C6.81889 0.975888 9.29535 -6.05928e-05 11.9998 -6.0711e-05C14.7053 -6.08293e-05 17.1827 0.976696 19.0985 2.59681C19.5306 2.96218 19.5118 3.61758 19.0961 4.00144C18.6994 4.36768 18.0874 4.3493 17.6683 4.00902C16.1209 2.75277 14.1482 1.99994 11.9998 1.99994C9.85219 1.99994 7.88031 2.75213 6.33319 4.00742C5.91404 4.34751 5.30218 4.36579 4.90561 3.99962Z" fill="#3A3A5E"/>
<rect width="10" height="2" rx="1" transform="matrix(-4.37114e-08 -1 -1 4.37114e-08 12.9998 15.9999)" fill="#3A3A5E"/>
<path d="M22.9998 15.7868L22.9998 12.7304L22.9998 9.27192L22.9998 6.21549L17.2409 11.0011L22.9998 15.7868Z" stroke="#3A3A5E" stroke-width="2"/>
<path d="M0.999756 15.7868L0.999756 12.7304L0.999756 9.27192L0.999755 6.21549L6.75863 11.0011L0.999756 15.7868Z" stroke="#3A3A5E" stroke-width="2"/>
</svg>
