<svg width="18" height="14" viewBox="0 0 18 14" fill="none" xmlns="http://www.w3.org/2000/svg"><path d="M16.15 3.489c.011.153.011.306.011.46C16.161 8.618 12.45 14 5.665 14c-2.09 0-4.032-.58-5.665-1.586.297.033.583.044.89.044a7.599 7.599 0 004.58-1.51c-1.62-.032-2.98-1.05-3.448-2.45.228.033.456.055.696.055.332 0 .663-.044.971-.12C2 8.105.731 6.683.731 4.966v-.044a3.84 3.84 0 001.667.448C1.405 4.736.754 3.653.754 2.428c0-.656.183-1.258.502-1.783C3.072 2.79 5.802 4.19 8.863 4.342a3.826 3.826 0 01-.091-.81C8.772 1.587 10.416 0 12.46 0c1.062 0 2.021.427 2.695 1.116a7.46 7.46 0 002.341-.853 3.555 3.555 0 01-1.621 1.946A7.656 7.656 0 0018 1.663a7.757 7.757 0 01-1.85 1.826z" fill="url(#paint0_linear)"/><path d="M16.15 3.489c.011.153.011.306.011.46C16.161 8.618 12.45 14 5.665 14c-2.09 0-4.032-.58-5.665-1.586.297.033.583.044.89.044a7.599 7.599 0 004.58-1.51c-1.62-.032-2.98-1.05-3.448-2.45.228.033.456.055.696.055.332 0 .663-.044.971-.12C2 8.105.731 6.683.731 4.966v-.044a3.84 3.84 0 001.667.448C1.405 4.736.754 3.653.754 2.428c0-.656.183-1.258.502-1.783C3.072 2.79 5.802 4.19 8.863 4.342a3.826 3.826 0 01-.091-.81C8.772 1.587 10.416 0 12.46 0c1.062 0 2.021.427 2.695 1.116a7.46 7.46 0 002.341-.853 3.555 3.555 0 01-1.621 1.946A7.656 7.656 0 0018 1.663a7.757 7.757 0 01-1.85 1.826z" fill="#fff"/><path d="M16.15 3.489c.011.153.011.306.011.46C16.161 8.618 12.45 14 5.665 14c-2.09 0-4.032-.58-5.665-1.586.297.033.583.044.89.044a7.599 7.599 0 004.58-1.51c-1.62-.032-2.98-1.05-3.448-2.45.228.033.456.055.696.055.332 0 .663-.044.971-.12C2 8.105.731 6.683.731 4.966v-.044a3.84 3.84 0 001.667.448C1.405 4.736.754 3.653.754 2.428c0-.656.183-1.258.502-1.783C3.072 2.79 5.802 4.19 8.863 4.342a3.826 3.826 0 01-.091-.81C8.772 1.587 10.416 0 12.46 0c1.062 0 2.021.427 2.695 1.116a7.46 7.46 0 002.341-.853 3.555 3.555 0 01-1.621 1.946A7.656 7.656 0 0018 1.663a7.757 7.757 0 01-1.85 1.826z" fill="#55ACEE"/><defs><linearGradient id="paint0_linear" x1="0" y1="0" x2="19.931" y2="3.759" gradientUnits="userSpaceOnUse"><stop stop-color="#8F46FF"/><stop offset="1" stop-color="#0076FE"/></linearGradient></defs></svg>