<svg width="24" height="24" viewBox="0 0 24 24" fill="none" xmlns="http://www.w3.org/2000/svg"><path d="M23.453 5.95c.165-.548 0-.95-.793-.95h-2.624c-.669 0-.976.346-1.14.73 0 0-1.337 3.199-3.227 5.272-.61.6-.89.792-1.225.792-.165 0-.419-.192-.419-.739V5.949c0-.656-.187-.949-.74-.949H9.16c-.419 0-.668.306-.668.59 0 .622.944.766 1.042 2.516v3.798c0 .831-.151.984-.485.984-.891 0-3.057-3.211-4.34-6.886C4.451 5.289 4.197 5 3.524 5H.9c-.749 0-.9.346-.9.73 0 .683.891 4.074 4.148 8.554C6.318 17.342 9.374 19 12.154 19c1.671 0 1.876-.367 1.876-1.002 0-2.922-.151-3.198.686-3.198.388 0 1.056.192 2.615 1.667C19.113 18.217 19.408 19 20.406 19h2.624c.748 0 1.127-.367.909-1.094-.5-1.527-3.872-4.668-4.023-4.878-.388-.49-.277-.709 0-1.146.004-.005 3.207-4.432 3.537-5.933z" fill="#868EBE"/></svg>