<svg width="363" height="363" viewBox="0 0 363 363" fill="none" xmlns="http://www.w3.org/2000/svg">
<g clip-path="url(#clip0)">
<circle cx="181.428" cy="181.428" r="169.5" transform="rotate(46.8353 181.428 181.428)" stroke="#2E255B"/>
<mask id="mask0" mask-type="alpha" maskUnits="userSpaceOnUse" x="-75" y="-75" width="513" height="513">
<circle cx="181.428" cy="181.428" r="180.5" transform="rotate(46.8353 181.428 181.428)" fill="#F9F9F9" stroke="white"/>
</mask>
<g mask="url(#mask0)">
<path d="M12.9996 265.255C10.0552 259.294 7.42809 253.181 5.1293 246.943L166.267 188.535L12.9996 265.255Z" fill="#FF547C" stroke="#21134E" stroke-width="2"/>
<path d="M165.586 186.655L4.44869 245.063C2.21619 238.801 0.316467 232.424 -1.24254 225.961L165.586 186.655Z" fill="#39305E" stroke="#21134E" stroke-width="2"/>
<path d="M165.128 184.709L-1.7007 224.016C-3.19107 217.536 -4.33772 210.983 -5.13585 204.382L165.128 184.709Z" fill="#0A55F7" stroke="#21134E" stroke-width="2"/>
<path d="M164.899 182.722L-5.36513 202.395C-6.09322 195.787 -6.47128 189.144 -6.49776 182.496L164.899 182.722Z" fill="#39305E" stroke="#21134E" stroke-width="2"/>
<path d="M164.9 180.722L-6.49704 180.495C-6.45299 173.847 -6.05738 167.206 -5.31183 160.599L164.9 180.722Z" fill="#0A55F7" stroke="#21134E" stroke-width="2"/>
<path d="M165.135 178.736L-5.07607 158.613C-4.26049 152.015 -3.09651 145.464 -1.58902 138.989L165.135 178.736Z" fill="#39305E" stroke="#21134E" stroke-width="2"/>
<path d="M165.599 176.789L-1.12504 137.041C0.451047 130.582 2.36763 124.211 4.61666 117.955L165.599 176.789Z" fill="#FF547C" stroke="#21134E" stroke-width="2"/>
<path d="M166.286 174.91L5.30295 116.076C7.61822 109.844 10.2615 103.738 13.2217 97.7852L166.286 174.91Z" fill="#39305E" stroke="#21134E" stroke-width="2"/>
<path d="M167.187 173.125L14.1229 96.0002C17.146 90.0787 20.4802 84.3213 24.1115 78.752L167.187 173.125Z" fill="#FF547C" stroke="#21134E" stroke-width="2"/>
<path d="M168.287 171.456L25.212 77.0823C28.9022 71.5519 32.8822 66.2205 37.1355 61.1104L168.287 171.456Z" fill="#39305E" stroke="#21134E" stroke-width="2"/>
<path d="M169.575 169.926L38.4234 59.5811C42.7307 54.5164 47.3027 49.6831 52.1205 45.1014L169.575 169.926Z" fill="#FF547C" stroke="#21134E" stroke-width="2"/>
<path d="M171.031 168.556L53.5759 43.7314C58.442 39.2011 63.5443 34.9312 68.8614 30.9398L171.031 168.556Z" fill="#39305E" stroke="#21134E" stroke-width="2"/>
<path d="M172.636 167.364L70.467 29.7471C75.8261 25.8123 81.3896 22.1637 87.1341 18.8165L172.636 167.364Z" fill="#0A55F7" stroke="#21134E" stroke-width="2"/>
<path d="M174.37 166.365L88.8676 17.8181C94.6473 14.5321 100.597 11.554 106.691 8.89635L174.37 166.365Z" fill="#35C076" stroke="#21134E" stroke-width="2"/>
<path d="M176.209 165.576L108.531 8.10674C114.653 5.5139 120.908 3.24664 127.269 1.31448L176.209 165.576Z" fill="#0A55F7" stroke="#21134E" stroke-width="2"/>
<path d="M178.126 165.005L129.186 0.743381C135.568 -1.12119 142.044 -2.64696 148.586 -3.82753L178.126 165.005Z" fill="#39305E" stroke="#21134E" stroke-width="2"/>
<path d="M180.096 164.66L150.557 -4.1722C157.112 -5.2833 163.721 -6.04693 170.356 -6.45993L180.096 164.66Z" fill="#FF547C" stroke="#21134E" stroke-width="2"/>
<path d="M182.093 164.546L172.353 -6.57357C178.993 -6.91616 185.646 -6.90738 192.285 -6.54723L182.093 164.546Z" fill="#39305E" stroke="#21134E" stroke-width="2"/>
<path d="M184.089 164.665L194.281 -6.42832C200.916 -5.99778 207.523 -5.21664 214.075 -4.0882L184.089 164.665Z" fill="#FF547C" stroke="#21134E" stroke-width="2"/>
<path d="M186.059 165.015L216.044 -3.73829C222.584 -2.54044 229.056 -0.997547 235.433 0.883902L186.059 165.015Z" fill="#39305E" stroke="#21134E" stroke-width="2"/>
<path d="M237.348 1.46001C243.704 3.409 249.953 5.69278 256.069 8.30181L187.974 165.591L237.348 1.46001Z" fill="#FF547C" stroke="#21134E" stroke-width="2"/>
<path d="M189.809 166.386L257.904 9.09643C263.991 11.7702 269.933 14.764 275.704 18.0653L189.809 166.386Z" fill="#39305E" stroke="#21134E" stroke-width="2"/>
<path d="M191.54 167.388L277.434 19.0676C283.17 22.4299 288.724 26.0932 294.073 30.0422L191.54 167.388Z" fill="#0A55F7" stroke="#21134E" stroke-width="2"/>
<path d="M193.143 168.585L295.675 31.2387C300.982 35.2442 306.073 39.5275 310.927 44.0707L193.143 168.585Z" fill="#39305E" stroke="#21134E" stroke-width="2"/>
<path d="M194.595 169.959L312.38 45.4451C317.185 50.0395 321.745 54.8849 326.039 59.9609L194.595 169.959Z" fill="#0A55F7" stroke="#21134E" stroke-width="2"/>
<path d="M195.879 171.493L327.322 61.4947C331.562 66.616 335.528 71.9579 339.203 77.4981L195.879 171.493Z" fill="#39305E" stroke="#21134E" stroke-width="2"/>
<path d="M196.976 173.165L340.3 79.1705C343.917 84.7494 347.236 90.5156 350.243 96.445L196.976 173.165Z" fill="#FF547C" stroke="#21134E" stroke-width="2"/>
<path d="M351.139 98.2342C354.083 104.195 356.71 110.308 359.009 116.546L197.871 174.954L351.139 98.2342Z" fill="#39305E" stroke="#21134E" stroke-width="2"/>
<path d="M198.552 176.834L359.69 118.426C361.923 124.688 363.822 131.064 365.381 137.527L198.552 176.834Z" fill="#FF547C" stroke="#21134E" stroke-width="2"/>
<path d="M199.011 178.78L365.84 139.474C367.33 145.953 368.477 152.507 369.275 159.107L199.011 178.78Z" fill="#39305E" stroke="#21134E" stroke-width="2"/>
<path d="M199.239 180.769L369.503 161.096C370.231 167.704 370.609 174.347 370.636 180.995L199.239 180.769Z" fill="#FF547C" stroke="#21134E" stroke-width="2"/>
<path d="M199.237 182.767L370.633 182.994C370.589 189.642 370.194 196.283 369.448 202.89L199.237 182.767Z" fill="#39305E" stroke="#21134E" stroke-width="2"/>
<path d="M199.002 184.751L369.213 204.874C368.398 211.472 367.234 218.023 365.726 224.498L199.002 184.751Z" fill="#0A55F7" stroke="#21134E" stroke-width="2"/>
<path d="M365.263 226.446C363.686 232.905 361.77 239.276 359.521 245.533L198.538 186.699L365.263 226.446Z" fill="#39305E" stroke="#21134E" stroke-width="2"/>
<path d="M197.851 188.578L358.833 247.412C356.518 253.644 353.875 259.75 350.915 265.703L197.851 188.578Z" fill="#0A55F7" stroke="#21134E" stroke-width="2"/>
<path d="M196.953 190.364L350.017 267.489C346.994 273.41 343.66 279.168 340.028 284.737L196.953 190.364Z" fill="#39305E" stroke="#21134E" stroke-width="2"/>
<path d="M195.85 192.033L338.925 286.407C335.235 291.937 331.255 297.269 327.001 302.379L195.85 192.033Z" fill="#FF547C" stroke="#21134E" stroke-width="2"/>
<path d="M194.562 193.563L325.714 303.909C321.406 308.973 316.834 313.807 312.016 318.388L194.562 193.563Z" fill="#39305E" stroke="#21134E" stroke-width="2"/>
<path d="M193.107 194.935L310.562 319.76C305.695 324.29 300.593 328.56 295.276 332.551L193.107 194.935Z" fill="#FF547C" stroke="#21134E" stroke-width="2"/>
<path d="M191.501 196.126L293.67 333.743C288.311 337.678 282.747 341.326 277.003 344.673L191.501 196.126Z" fill="#39305E" stroke="#21134E" stroke-width="2"/>
<path d="M189.767 197.124L275.269 345.672C269.489 348.958 263.54 351.936 257.445 354.593L189.767 197.124Z" fill="#FF547C" stroke="#21134E" stroke-width="2"/>
<path d="M187.93 197.914L255.608 355.383C249.486 357.975 243.231 360.243 236.87 362.175L187.93 197.914Z" fill="#39305E" stroke="#21134E" stroke-width="2"/>
<path d="M186.012 198.485L234.952 362.747C228.57 364.611 222.095 366.137 215.552 367.318L186.012 198.485Z" fill="#FF547C" stroke="#21134E" stroke-width="2"/>
<path d="M184.042 198.829L213.581 367.661C207.026 368.772 200.417 369.536 193.781 369.949L184.042 198.829Z" fill="#39305E" stroke="#21134E" stroke-width="2"/>
<path d="M182.047 198.943L191.786 370.063C185.146 370.406 178.493 370.397 171.855 370.037L182.047 198.943Z" fill="#FF547C" stroke="#21134E" stroke-width="2"/>
<path d="M180.05 198.825L169.858 369.918C163.223 369.488 156.616 368.707 150.064 367.578L180.05 198.825Z" fill="#39305E" stroke="#21134E" stroke-width="2"/>
<path d="M146.145 366.859C140.917 365.845 135.735 364.61 130.612 363.156C129.566 362.86 128.962 361.754 129.282 360.692L178.081 198.474L148.444 365.261C148.25 366.352 147.213 367.067 146.145 366.859Z" fill="#FEC400" stroke="#21134E" stroke-width="2"/>
<path d="M178.081 198.474L148.095 367.227C141.555 366.029 135.083 364.486 128.706 362.605L178.081 198.474Z" fill="#0A55F7" stroke="#21134E" stroke-width="2"/>
<path d="M176.164 197.897L126.79 362.029C120.434 360.08 114.185 357.796 108.07 355.187L176.164 197.897Z" fill="#39305E" stroke="#21134E" stroke-width="2"/>
<path d="M174.33 197.104L106.235 354.394C100.148 351.72 94.2062 348.726 88.4352 345.425L174.33 197.104Z" fill="#0A55F7" stroke="#21134E" stroke-width="2"/>
<path d="M172.597 196.102L86.7027 344.423C80.967 341.061 75.4132 337.397 70.0645 333.448L172.597 196.102Z" fill="#39305E" stroke="#21134E" stroke-width="2"/>
<path d="M170.997 194.905L68.4646 332.251C63.1581 328.246 58.0671 323.963 53.213 319.419L170.997 194.905Z" fill="#FF547C" stroke="#21134E" stroke-width="2"/>
<path d="M169.544 193.531L51.7598 318.045C46.9542 313.451 42.3949 308.605 38.1011 303.529L169.544 193.531Z" fill="#39305E" stroke="#21134E" stroke-width="2"/>
<path d="M168.261 191.998L36.8176 301.996C32.5779 296.875 28.6119 291.533 24.9364 285.992L168.261 191.998Z" fill="#FF547C" stroke="#21134E" stroke-width="2"/>
<path d="M167.163 190.326L23.8391 284.32C20.2226 278.741 16.9036 272.975 13.8961 267.046L167.163 190.326Z" fill="#39305E" stroke="#21134E" stroke-width="2"/>
</g>
<path d="M351 181C351 274.888 274.888 351 181 351C87.1116 351 11 274.888 11 181C11 87.1116 87.1116 11 181 11C274.888 11 351 87.1116 351 181Z" fill="#16163A"/>
<g filter="url(#filter0_d)">
<circle cx="181.428" cy="181.427" r="145.5" stroke="#262649"/>
</g>
<circle cx="181.428" cy="181.427" r="101" fill="#1C1C40"/>
</g>
<defs>
<filter id="filter0_d" x="-64.5722" y="-64.5726" width="492" height="492" filterUnits="userSpaceOnUse" color-interpolation-filters="sRGB">
<feFlood flood-opacity="0" result="BackgroundImageFix"/>
<feColorMatrix in="SourceAlpha" type="matrix" values="0 0 0 0 0 0 0 0 0 0 0 0 0 0 0 0 0 0 127 0"/>
<feOffset/>
<feGaussianBlur stdDeviation="50"/>
<feColorMatrix type="matrix" values="0 0 0 0 0 0 0 0 0 0.462745 0 0 0 0 0.996078 0 0 0 1 0"/>
<feBlend mode="normal" in2="BackgroundImageFix" result="effect1_dropShadow"/>
<feBlend mode="normal" in="SourceGraphic" in2="effect1_dropShadow" result="shape"/>
</filter>
<clipPath id="clip0">
<rect width="363" height="363" fill="white"/>
</clipPath>
</defs>
</svg>
