<svg width="24" height="24" viewBox="0 0 24 24" fill="none" xmlns="http://www.w3.org/2000/svg">
<g clip-path="url(#clip0)">
<path fill-rule="evenodd" clip-rule="evenodd" d="M5.34603 4.18784C6.70776 2.84124 9.06645 2.0802 12.3222 2.81962L12.3223 4.93978L6.70161 10.5605L3.8867 10.9704C3.22894 7.80462 4.00542 5.51357 5.34603 4.18784ZM14.3222 2.02713L14.3223 5.76819L12.0778 8.01264L13.5569 9.49168L15.7875 7.26109C16.1982 6.8504 16.864 6.8504 17.2747 7.26109C17.6854 7.67179 17.6854 8.33765 17.2747 8.74834L15.0441 10.9789L16.5312 12.466L14.3004 14.6969L12.8133 13.2099L12.8131 13.2101L2.40247 23.6207C1.99175 24.0315 1.32583 24.0315 0.915103 23.6207C0.504375 23.21 0.504373 22.5441 0.915101 22.1334L11.3257 11.7227L11.326 11.7225L9.84697 10.2435L7.64655 12.4439L3.25244 13.0838C2.77319 13.1536 2.3092 12.8702 2.17893 12.4038C-0.124315 4.15707 5.36009 -1.28037 13.6317 1.09217C14.0454 1.21085 14.3222 1.5967 14.3222 2.02713ZM21.7106 12.2354C22.45 15.4912 21.689 17.8499 20.3424 19.2116C19.0166 20.5523 16.7256 21.3287 13.5598 20.671L13.9697 17.8561L19.5904 12.2354L21.7106 12.2354ZM18.762 10.2354L22.5031 10.2354C22.9335 10.2355 23.3194 10.5123 23.438 10.926C25.8106 19.1976 20.3731 24.682 12.1264 22.3788C11.66 22.2485 11.3766 21.7845 11.4464 21.3052L12.0863 16.9111L18.762 10.2354Z" fill="#3A3A5E"/>
</g>
<defs>
<clipPath id="clip0">
<rect width="24" height="24" fill="white"/>
</clipPath>
</defs>
</svg>
