<svg width="53" height="52" viewBox="0 0 53 52" fill="none" xmlns="http://www.w3.org/2000/svg"><path d="M52.027 25.97c0 14.368-11.649 26.03-26 26.03-14.35 0-26-11.662-26-26.03S11.677 0 26.027 0c14.351 0 26 11.602 26 25.97z" fill="url(#paint0_linear)"/><path d="M17.982 25.052c.18.12.42-.06.36-.24-.3-1.563-1.861-2.765-3.722-2.765-1.862 0-3.423 1.202-3.723 2.765-.06.18.18.36.36.24.96-.54 2.101-.841 3.363-.841 1.26 0 2.401.3 3.362.841z" fill="#111135"/><path d="M43.439 22.072a7.128 7.128 0 01-7.146 7.154 7.128 7.128 0 01-7.145-7.154 7.128 7.128 0 017.145-7.154c3.903 0 7.146 3.186 7.146 7.154z" fill="#fff"/><path d="M39.058 22.063a2.756 2.756 0 01-2.762 2.765 2.756 2.756 0 01-2.762-2.765 2.756 2.756 0 012.762-2.765c1.502 0 2.762 1.262 2.762 2.765zM14.679 32.587c-1.021-.481-2.042.66-1.502 1.623 2.763 4.448 7.446 7.393 12.85 7.393s10.088-2.945 12.85-7.393c.6-.962-.48-2.164-1.5-1.623-3.303 1.563-7.206 2.464-11.35 2.464-4.203 0-8.046-.901-11.348-2.464z" fill="#111135"/><path d="M26.027 36.363c-2.042 0-3.963-.24-5.824-.601V46.04c0 3.187 2.582 5.832 5.824 5.832a5.833 5.833 0 005.825-5.831v-10.34a26.2 26.2 0 01-5.825.66z" fill="#D63E39"/><defs><linearGradient id="paint0_linear" x1="26.027" y1="0" x2="26.027" y2="52" gradientUnits="userSpaceOnUse"><stop stop-color="#FFEE56"/><stop offset="1" stop-color="#FF8D03"/></linearGradient></defs></svg>