<svg width="13" height="18" viewBox="0 0 13 18" fill="none" xmlns="http://www.w3.org/2000/svg">
<ellipse rx="5.6" ry="5.5" transform="matrix(-1.17119e-08 -1 -1 1.21417e-08 5.5 12.4)" fill="#FF547C"/>
<path d="M7.00035 4.86524L6.83304 3.87933L7.00035 4.86524ZM6.5 7.35984V6.64164H4.5V7.35984H6.5ZM7.30179 5.83984H9.075V3.83984H7.30179V5.83984ZM7.16765 5.85114C7.21197 5.84362 7.25684 5.83984 7.30179 5.83984V3.83984C7.14471 3.83984 6.98791 3.85305 6.83304 3.87933L7.16765 5.85114ZM6.5 6.64164C6.5 6.25058 6.78211 5.91657 7.16765 5.85114L6.83304 3.87933C5.4858 4.10796 4.5 5.27513 4.5 6.64164H6.5Z" fill="#FF547C"/>
<path d="M3.2998 11.8398V11.8898C3.2998 13.4086 4.53102 14.6398 6.0498 14.6398V14.6398" stroke="#252549" stroke-width="2" stroke-linecap="round" stroke-linejoin="round"/>
<ellipse cx="9.6248" cy="4.84" rx="0.825" ry="0.84" fill="#FF547C"/>
<mask id="path-5-outside-1" maskUnits="userSpaceOnUse" x="5.7998" y="0" width="8" height="9" fill="black">
<rect fill="white" x="5.7998" width="8" height="9"/>
<path fill-rule="evenodd" clip-rule="evenodd" d="M9.6248 5.68C10.0804 5.68 10.4498 5.30392 10.4498 4.84C10.4498 4.37608 10.0804 4 9.6248 4C9.16917 4 8.7998 4.37608 8.7998 4.84C8.7998 5.30392 9.16917 5.68 9.6248 5.68ZM10.0013 4.75043L10.236 4.48135L9.88977 4.55376L9.77395 4.57798L9.739 4.47096L9.62512 4.12225L9.51087 4.47206L9.47628 4.57798L9.3689 4.55552L9.01425 4.48135L9.2539 4.75612L9.32745 4.84045L9.24893 4.93047L9.01425 5.19955L9.36046 5.12715L9.47628 5.10293L9.51123 5.20994L9.62512 5.55865L9.73936 5.20884L9.77395 5.10293L9.88133 5.12538L10.236 5.19955L9.99633 4.92478L9.92278 4.84045L10.0013 4.75043Z"/>
</mask>
<path d="M10.236 4.48135L10.9896 5.13866L12.9488 2.8924L10.0313 3.50253L10.236 4.48135ZM10.0013 4.75043L9.24767 4.09313L9.24767 4.09313L10.0013 4.75043ZM9.88977 4.55376L9.68508 3.57493L9.68508 3.57493L9.88977 4.55376ZM9.77395 4.57798L8.82336 4.88843L9.10155 5.74023L9.97865 5.5568L9.77395 4.57798ZM9.739 4.47096L8.78841 4.78141L9.739 4.47096ZM9.62512 4.12225L10.5757 3.8118L9.62512 0.901133L8.67453 3.8118L9.62512 4.12225ZM9.51087 4.47206L8.56028 4.16161L8.56028 4.16161L9.51087 4.47206ZM9.47628 4.57798L9.27158 5.5568L10.1487 5.74023L10.4269 4.88843L9.47628 4.57798ZM9.3689 4.55552L9.5736 3.5767L9.5736 3.5767L9.3689 4.55552ZM9.01425 4.48135L9.21894 3.50253L6.30145 2.8924L8.26062 5.13866L9.01425 4.48135ZM9.2539 4.75612L10.0075 4.09882L10.0075 4.09882L9.2539 4.75612ZM9.32745 4.84045L10.0811 5.49776L10.6544 4.84045L10.0811 4.18315L9.32745 4.84045ZM9.24893 4.93047L10.0026 5.58778L10.0026 5.58778L9.24893 4.93047ZM9.01425 5.19955L8.26062 4.54225L6.30145 6.7885L9.21894 6.17838L9.01425 5.19955ZM9.36046 5.12715L9.15576 4.14832L9.15576 4.14832L9.36046 5.12715ZM9.47628 5.10293L10.4269 4.79248L10.1487 3.94068L9.27158 4.1241L9.47628 5.10293ZM9.51123 5.20994L10.4618 4.89949V4.89949L9.51123 5.20994ZM9.62512 5.55865L8.67453 5.8691L9.62512 8.77977L10.5757 5.8691L9.62512 5.55865ZM9.73936 5.20884L8.78877 4.89839L8.78877 4.89839L9.73936 5.20884ZM9.77395 5.10293L9.97865 4.1241L9.10155 3.94068L8.82336 4.79248L9.77395 5.10293ZM9.88133 5.12538L10.086 4.14656L10.086 4.14656L9.88133 5.12538ZM10.236 5.19955L10.0313 6.17838L12.9488 6.7885L10.9896 4.54225L10.236 5.19955ZM9.99633 4.92478L9.24271 5.58208L9.24271 5.58208L9.99633 4.92478ZM9.92278 4.84045L9.16916 4.18315L8.59586 4.84045L9.16916 5.49776L9.92278 4.84045ZM9.4498 4.84C9.4498 4.7687 9.51124 4.68 9.6248 4.68V6.68C10.6496 6.68 11.4498 5.83914 11.4498 4.84H9.4498ZM9.6248 5C9.51124 5 9.4498 4.9113 9.4498 4.84H11.4498C11.4498 3.84086 10.6496 3 9.6248 3V5ZM9.7998 4.84C9.7998 4.9113 9.73836 5 9.6248 5V3C8.59997 3 7.7998 3.84086 7.7998 4.84H9.7998ZM9.6248 4.68C9.73836 4.68 9.7998 4.7687 9.7998 4.84H7.7998C7.7998 5.83914 8.59997 6.68 9.6248 6.68V4.68ZM9.48236 3.82405L9.24767 4.09313L10.7549 5.40774L10.9896 5.13866L9.48236 3.82405ZM10.0945 5.53258L10.4407 5.46018L10.0313 3.50253L9.68508 3.57493L10.0945 5.53258ZM9.97865 5.5568L10.0945 5.53258L9.68508 3.57493L9.56925 3.59915L9.97865 5.5568ZM8.78841 4.78141L8.82336 4.88843L10.7245 4.26753L10.6896 4.16051L8.78841 4.78141ZM8.67453 4.4327L8.78841 4.78141L10.6896 4.16051L10.5757 3.8118L8.67453 4.4327ZM10.4615 4.78251L10.5757 4.4327L8.67453 3.8118L8.56028 4.16161L10.4615 4.78251ZM10.4269 4.88843L10.4615 4.78251L8.56028 4.16161L8.52569 4.26753L10.4269 4.88843ZM9.1642 5.53435L9.27158 5.5568L9.68098 3.59915L9.5736 3.5767L9.1642 5.53435ZM8.80955 5.46018L9.1642 5.53435L9.5736 3.5767L9.21894 3.50253L8.80955 5.46018ZM10.0075 4.09882L9.76787 3.82405L8.26062 5.13866L8.50028 5.41343L10.0075 4.09882ZM10.0811 4.18315L10.0075 4.09882L8.50028 5.41343L8.57382 5.49776L10.0811 4.18315ZM10.0026 5.58778L10.0811 5.49776L8.57382 4.18315L8.49531 4.27317L10.0026 5.58778ZM9.76787 5.85686L10.0026 5.58778L8.49531 4.27317L8.26062 4.54225L9.76787 5.85686ZM9.15576 4.14832L8.80955 4.22073L9.21894 6.17838L9.56516 6.10597L9.15576 4.14832ZM9.27158 4.1241L9.15576 4.14832L9.56516 6.10597L9.68098 6.08175L9.27158 4.1241ZM10.4618 4.89949L10.4269 4.79248L8.52569 5.41338L8.56064 5.52039L10.4618 4.89949ZM10.5757 5.2482L10.4618 4.89949L8.56064 5.52039L8.67453 5.8691L10.5757 5.2482ZM8.78877 4.89839L8.67453 5.2482L10.5757 5.8691L10.6899 5.51929L8.78877 4.89839ZM8.82336 4.79248L8.78877 4.89839L10.6899 5.51929L10.7245 5.41338L8.82336 4.79248ZM10.086 4.14656L9.97865 4.1241L9.56925 6.08175L9.67664 6.10421L10.086 4.14656ZM10.4407 4.22073L10.086 4.14656L9.67664 6.10421L10.0313 6.17838L10.4407 4.22073ZM9.24271 5.58208L9.48236 5.85686L10.9896 4.54225L10.75 4.26747L9.24271 5.58208ZM9.16916 5.49776L9.24271 5.58208L10.75 4.26747L10.6764 4.18315L9.16916 5.49776ZM9.24767 4.09313L9.16916 4.18315L10.6764 5.49776L10.7549 5.40774L9.24767 4.09313Z" fill="#FF547C" mask="url(#path-5-outside-1)"/>
</svg>
