<svg width="16" height="16" viewBox="0 0 16 16" fill="none" xmlns="http://www.w3.org/2000/svg">
<path d="M8 0C12.4194 0 16 3.58065 16 8C16 12.4194 12.4194 16 8 16C3.58065 16 0 12.4194 0 8C0 3.58065 3.58065 0 8 0ZM5.41936 5.41935C4.84839 5.41935 4.3871 5.88064 4.3871 6.45161C4.3871 7.02258 4.84839 7.48387 5.41936 7.48387C5.99032 7.48387 6.45161 7.02258 6.45161 6.45161C6.45161 5.88064 5.99032 5.41935 5.41936 5.41935ZM10.5806 5.41935C10.0097 5.41935 9.54839 5.88064 9.54839 6.45161C9.54839 7.02258 10.0097 7.48387 10.5806 7.48387C11.1516 7.48387 11.6129 7.02258 11.6129 6.45161C11.6129 5.88064 11.1516 5.41935 10.5806 5.41935ZM4.29677 10.9097C5.21613 12.0129 6.56452 12.6452 8 12.6452C9.43548 12.6452 10.7839 12.0129 11.7032 10.9097C12.1419 10.3839 11.3484 9.72581 10.9097 10.2484C10.1871 11.1161 9.12903 11.6097 8 11.6097C6.87097 11.6097 5.8129 11.1129 5.09032 10.2484C4.65806 9.72581 3.86129 10.3839 4.29677 10.9097Z" fill="white"/>
</svg>
