<svg width="12" height="14" viewBox="0 0 12 14" fill="none" xmlns="http://www.w3.org/2000/svg">
<path d="M7 3.71875V0H0.75C0.334375 0 0 0.292578 0 0.65625V13.3438C0 13.7074 0.334375 14 0.75 14H11.25C11.6656 14 12 13.7074 12 13.3438V4.375H7.75C7.3375 4.375 7 4.07969 7 3.71875ZM9 10.1719C9 10.3523 8.83125 10.5 8.625 10.5H3.375C3.16875 10.5 3 10.3523 3 10.1719V9.95312C3 9.77266 3.16875 9.625 3.375 9.625H8.625C8.83125 9.625 9 9.77266 9 9.95312V10.1719ZM9 8.42188C9 8.60234 8.83125 8.75 8.625 8.75H3.375C3.16875 8.75 3 8.60234 3 8.42188V8.20312C3 8.02266 3.16875 7.875 3.375 7.875H8.625C8.83125 7.875 9 8.02266 9 8.20312V8.42188ZM9 6.45312V6.67188C9 6.85234 8.83125 7 8.625 7H3.375C3.16875 7 3 6.85234 3 6.67188V6.45312C3 6.27266 3.16875 6.125 3.375 6.125H8.625C8.83125 6.125 9 6.27266 9 6.45312ZM12 3.3332V3.5H8V0H8.19063C8.39063 0 8.58125 0.0683594 8.72188 0.191406L11.7812 2.87109C11.9219 2.99414 12 3.16094 12 3.3332Z" fill="#868EBE"/>
</svg>
