<svg width="10" height="10" viewBox="0 0 10 10" fill="none" xmlns="http://www.w3.org/2000/svg">
<path d="M2.84559 2.84515C3.49636 2.19436 3.49636 1.13888 2.84559 0.488092C2.19481 -0.162697 1.13935 -0.162697 0.488571 0.488092C-0.162206 1.13888 -0.162206 2.19436 0.488571 2.84515C1.13961 3.4962 2.19481 3.4962 2.84559 2.84515ZM9.51221 7.15485C8.86143 6.50406 7.80597 6.50406 7.15519 7.15485C6.50442 7.80564 6.50442 8.86112 7.15519 9.51191C7.80597 10.1627 8.86143 10.1627 9.51221 9.51191C10.1632 8.86112 10.1632 7.8059 9.51221 7.15485ZM9.46169 1.12794L8.87263 0.538874C8.54711 0.213349 8.01951 0.213349 7.69425 0.538874L0.539352 7.69392C0.213833 8.01944 0.213833 8.54705 0.539352 8.87232L1.12841 9.46139C1.45393 9.78691 1.98153 9.78691 2.30679 9.46139L9.46169 2.30635C9.78721 1.98108 9.78721 1.45347 9.46169 1.12794Z" fill="#868EBE"/>
</svg>
