<svg width="8" height="8" viewBox="0 0 8 8" fill="none" xmlns="http://www.w3.org/2000/svg">
<path d="M6.13672 7.23087L0.22733 1.32148C0.101798 1.19595 0.0969524 0.997286 0.216507 0.877732L0.75766 0.336578C0.877214 0.217024 1.07587 0.22187 1.20141 0.347402L7.1108 6.25679C7.23633 6.38233 7.24118 6.58099 7.12162 6.70054L6.58047 7.24169C6.46091 7.36125 6.26225 7.3564 6.13672 7.23087Z" fill="white"/>
<path d="M7.11075 1.32177L1.20136 7.23117C1.07583 7.3567 0.877169 7.36154 0.757614 7.24199L0.216461 6.70084C0.096907 6.58128 0.101752 6.38262 0.227284 6.25709L6.13668 0.347698C6.26221 0.222167 6.46087 0.217321 6.58042 0.336875L7.12158 0.878028C7.24113 0.997583 7.23628 1.19624 7.11075 1.32177Z" fill="white"/>
</svg>
