<svg width="12" height="12" viewBox="0 0 12 12" fill="none" xmlns="http://www.w3.org/2000/svg">
<path d="M8 0.750525V11.2494C8 11.9193 7.18928 12.2493 6.71966 11.7797L3.93934 8.99999H0.75C0.335781 8.99999 0 8.66421 0 8.24999V3.74999C0 3.33577 0.335781 2.99999 0.75 2.99999H3.93934L6.71969 0.220181C7.18875 -0.248881 8 0.079869 8 0.750525ZM12 5.99999C12 4.94633 11.4629 3.98905 10.5634 3.43924C10.0922 3.1513 9.47666 3.29977 9.18863 3.77099C8.90059 4.24221 9.04912 4.85771 9.52034 5.14574C9.82072 5.3293 10 5.64865 10 5.99999C9.9999 6.16179 9.96062 6.32115 9.88551 6.46445C9.81039 6.60775 9.70169 6.73073 9.56869 6.82286C9.11481 7.13752 9.00194 7.76055 9.31659 8.21443C9.63128 8.66833 10.2543 8.78117 10.7082 8.46652C11.5171 7.90571 12 6.98368 12 5.99999Z" fill="#868EBE"/>
</svg>
