<svg width="16" height="16" viewBox="0 0 16 16" fill="none" xmlns="http://www.w3.org/2000/svg">
<path d="M15.9537 7.99407C13.7672 7.96751 12.0016 6.1913 12.0016 3.99853C9.80876 3.99853 8.03283 2.23325 8.00596 0.0470401C7.15409 -0.0823324 6.28315 0.0564149 5.51472 0.447657L3.35442 1.54826C2.57674 1.94458 1.94454 2.57698 1.54849 3.35479L0.451618 5.50725C0.0543875 6.28703 -0.0858499 7.17252 0.0509954 8.03689L0.428493 10.4203C0.565203 11.2838 0.971693 12.0819 1.58974 12.7002L3.30129 14.4114C3.91738 15.0277 4.71278 15.4331 5.57347 15.5696L7.97064 15.9492C8.83033 16.0855 9.71126 15.9458 10.4872 15.5505L12.6475 14.4502C13.4251 14.0538 14.0573 13.4214 14.4534 12.6437L15.5503 10.4912C15.9428 9.72123 16.0819 8.84812 15.9537 7.99407ZM5.50003 11.4996C4.94785 11.4996 4.50004 11.0518 4.50004 10.4997C4.50004 9.94747 4.94785 9.49967 5.50003 9.49967C6.05222 9.49967 6.50003 9.94747 6.50003 10.4997C6.50003 11.0518 6.05222 11.4996 5.50003 11.4996ZM6.50003 6.49973C5.94784 6.49973 5.50003 6.05192 5.50003 5.49975C5.50003 4.94757 5.94784 4.49977 6.50003 4.49977C7.05221 4.49977 7.50002 4.94757 7.50002 5.49975C7.50002 6.05192 7.05221 6.49973 6.50003 6.49973ZM11.5 10.4997C10.9478 10.4997 10.5 10.0518 10.5 9.49967C10.5 8.94749 10.9478 8.49969 11.5 8.49969C12.0522 8.49969 12.5 8.94749 12.5 9.49967C12.5 10.0518 12.0522 10.4997 11.5 10.4997Z" fill="#868EBE"/>
</svg>
