<svg width="24" height="24" viewBox="0 0 24 24" fill="none" xmlns="http://www.w3.org/2000/svg">
<path d="M12 0C5.37097 0 0 5.37097 0 12C0 18.629 5.37097 24 12 24C18.629 24 24 18.629 24 12C24 5.37097 18.629 0 12 0ZM12 21.6774C6.65323 21.6774 2.32258 17.3468 2.32258 12C2.32258 6.65323 6.65323 2.32258 12 2.32258C17.3468 2.32258 21.6774 6.65323 21.6774 12C21.6774 17.3468 17.3468 21.6774 12 21.6774ZM14.9903 16.6258L10.8823 13.6403C10.7323 13.529 10.6452 13.3548 10.6452 13.171V5.22581C10.6452 4.90645 10.9065 4.64516 11.2258 4.64516H12.7742C13.0935 4.64516 13.3548 4.90645 13.3548 5.22581V12.0823L16.5871 14.4339C16.8484 14.6226 16.9016 14.9855 16.7129 15.2468L15.8032 16.5C15.6145 16.7565 15.2516 16.8145 14.9903 16.6258Z" fill="#868EBE"/>
</svg>
