<svg width="53" height="52" viewBox="0 0 53 52" fill="none" xmlns="http://www.w3.org/2000/svg">
<path d="M52.0273 25.9699C52.0273 40.3376 40.3784 52 26.0273 52C11.6763 52 0.0273438 40.3376 0.0273438 25.9699C0.0273438 11.6023 11.6763 0 26.0273 0C40.3784 0 52.0273 11.6023 52.0273 25.9699Z" fill="url(#paint0_linear)"/>
<path d="M17.9821 25.0524C18.1622 25.1726 18.4024 24.9922 18.3423 24.8119C18.0421 23.2491 16.4809 22.0469 14.6195 22.0469C12.758 22.0469 11.1968 23.2491 10.8966 24.8119C10.8366 24.9922 11.0768 25.1726 11.2569 25.0524C12.2176 24.5114 13.3585 24.2108 14.6195 24.2108C15.8804 24.2108 17.0213 24.5114 17.9821 25.0524Z" fill="#111135"/>
<path d="M43.4389 22.0717C43.4389 26.0394 40.2565 29.2255 36.2934 29.2255C32.3304 29.2255 29.1479 26.0394 29.1479 22.0717C29.1479 18.1041 32.3304 14.918 36.2934 14.918C40.1964 14.918 43.4389 18.1041 43.4389 22.0717Z" fill="white"/>
<path d="M39.0584 22.0629C39.0584 23.6257 37.7975 24.8279 36.2963 24.8279C34.7351 24.8279 33.5342 23.5656 33.5342 22.0629C33.5342 20.5 34.7951 19.2979 36.2963 19.2979C37.7975 19.2979 39.0584 20.5602 39.0584 22.0629Z" fill="#111135"/>
<path d="M14.6787 32.5867C13.6579 32.1058 12.6371 33.2479 13.1775 34.2096C15.9396 38.6577 20.6232 41.6031 26.0274 41.6031C31.4315 41.6031 36.1151 38.6577 38.8773 34.2096C39.4777 33.2479 38.3969 32.0457 37.3761 32.5867C34.0736 34.1495 30.1706 35.0512 26.0274 35.0512C21.8242 35.0512 17.9812 34.1495 14.6787 32.5867Z" fill="#111135"/>
<path d="M26.0271 36.3629C23.9855 36.3629 22.0641 36.1225 20.2026 35.7618V43.5167V44.7791V46.0415C20.2026 49.2277 22.7846 51.8728 26.0271 51.8728C29.2096 51.8728 31.8516 49.2878 31.8516 46.0415V44.7791V43.5167V35.7017C29.9902 36.1225 28.0687 36.3629 26.0271 36.3629Z" fill="#D63E39"/>
<defs>
<linearGradient id="paint0_linear" x1="26.0273" y1="0" x2="26.0273" y2="52" gradientUnits="userSpaceOnUse">
<stop stop-color="#FFEE56"/>
<stop offset="1" stop-color="#FF8D03"/>
</linearGradient>
</defs>
</svg>
