<svg width="23" height="23" viewBox="0 0 23 23" fill="none" xmlns="http://www.w3.org/2000/svg">
<circle r="4" transform="matrix(-1 8.74228e-08 8.74228e-08 1 11.5 11.9999)" stroke="#3A3A5E" stroke-width="2"/>
<path fill-rule="evenodd" clip-rule="evenodd" d="M15.7499 2.61158C16.0357 2.28924 16.5026 2.19123 16.8782 2.40214C20.2332 4.28614 22.5 7.87833 22.5 12C22.5 18.0751 17.5751 23 11.5 23C5.42487 23 0.500001 18.0751 0.500001 12C0.5 7.87737 2.7679 4.28447 6.12415 2.40082C6.4997 2.19005 6.96652 2.28809 7.25218 2.61036C7.69592 3.11096 7.50757 3.90398 6.93149 4.24404C4.27921 5.8097 2.5 8.69705 2.5 12C2.5 16.9705 6.52944 21 11.5 21C16.4706 21 20.5 16.9705 20.5 12C20.5 8.69783 18.7216 5.81105 16.0704 4.24514C15.4945 3.90499 15.3063 3.11211 15.7499 2.61158Z" fill="#3A3A5E"/>
<path d="M14.1755 -6.10068e-05L12.3652 -6.08485e-05L10.636 -6.06974e-05L8.82572 -6.05391e-05C8.53661 -6.05138e-05 8.39071 0.419367 8.59605 0.666471L11.2709 3.88533C11.3979 4.03814 11.6033 4.03814 11.7303 3.88533L14.4051 0.66647C14.6078 0.419366 14.4646 -6.10321e-05 14.1755 -6.10068e-05Z" fill="#3A3A5E"/>
</svg>
