<svg width="22" height="28" viewBox="0 0 22 28" fill="none" xmlns="http://www.w3.org/2000/svg">
<path d="M10.5 8.99993C5.52943 8.99993 1.5 13.0294 1.5 17.9999C1.5 22.9705 5.52944 26.9999 10.5 26.9999C15.4706 26.9999 19.5 22.9705 19.5 17.9999C19.5 13.0294 15.4706 8.99993 10.5 8.99993Z" stroke="#3A3A5E" stroke-width="2"/>
<path d="M13.233 4.54438L13.3974 5.53077L13.233 4.54438ZM11.5 8.99987L11.5 7.77057L9.5 7.77057L9.5 8.99987L11.5 8.99987ZM13.7707 5.49988L17 5.49988L17 3.49988L13.7707 3.49988L13.7707 5.49988ZM13.3974 5.53077C13.5208 5.51021 13.6456 5.49988 13.7707 5.49988L13.7707 3.49988C13.5355 3.49988 13.3006 3.51931 13.0686 3.55798L13.3974 5.53077ZM11.5 7.77057C11.5 6.66056 12.3025 5.71326 13.3974 5.53077L13.0686 3.55798C11.0093 3.9012 9.5 5.68289 9.5 7.77057L11.5 7.77057Z" fill="#3A3A5E"/>
<path d="M6.5 16.9999L6.5 17.9999C6.5 20.209 8.29086 21.9999 10.5 21.9999L11.5 21.9999" stroke="#3A3A5E" stroke-width="2" stroke-linecap="round" stroke-linejoin="round"/>
<ellipse cx="18" cy="4.49994" rx="1.5" ry="1.5" fill="#3A3A5E"/>
<mask id="path-5-outside-1" maskUnits="userSpaceOnUse" x="13.5" y="-6.15492e-05" width="9" height="9" fill="black">
<rect fill="white" x="13.5" y="-6.15492e-05" width="9" height="9"/>
<path fill-rule="evenodd" clip-rule="evenodd" d="M18 5.99993C18.8284 5.99993 19.5 5.32836 19.5 4.49993C19.5 3.67151 18.8284 2.99994 18 2.99994C17.1716 2.99994 16.5 3.67151 16.5 4.49994C16.5 5.32836 17.1716 5.99993 18 5.99993ZM18.6775 4.34652L18.5413 4.49996L18.6775 4.6534L19.1107 5.14121L18.4717 5.00995L18.2707 4.96866L18.2059 5.16339L18.0001 5.78245L17.7942 5.16339L17.7294 4.96866L17.5284 5.00995L16.8894 5.14121L17.3226 4.6534L17.4588 4.49996L17.3226 4.34652L16.8894 3.85871L17.5284 3.98997L17.7294 4.03126L17.7942 3.83653L18.0001 3.21747L18.2059 3.83653L18.2707 4.03126L18.4717 3.98997L19.1107 3.85871L18.6775 4.34652Z"/>
</mask>
<path d="M18.5413 4.49996L17.7935 3.83595L17.2039 4.49996L17.7936 5.16397L18.5413 4.49996ZM18.6775 4.34652L17.9298 3.6825L17.9298 3.6825L18.6775 4.34652ZM18.6775 4.6534L19.4253 3.98939L19.4253 3.98939L18.6775 4.6534ZM19.1107 5.14121L18.9095 6.12076L21.8553 6.7258L19.8585 4.47719L19.1107 5.14121ZM18.4717 5.00995L18.6729 4.0304L18.6729 4.0304L18.4717 5.00995ZM18.2707 4.96866L18.4719 3.98911L17.602 3.81044L17.3218 4.65312L18.2707 4.96866ZM18.2059 5.16339L17.257 4.84785L17.257 4.84785L18.2059 5.16339ZM18.0001 5.78245L17.0511 6.09799L18.0001 8.95164L18.949 6.09799L18.0001 5.78245ZM17.7942 5.16339L18.7431 4.84785L18.7431 4.84785L17.7942 5.16339ZM17.7294 4.96866L18.6784 4.65312L18.3981 3.81044L17.5283 3.98911L17.7294 4.96866ZM17.5284 5.00995L17.3272 4.0304L17.3272 4.0304L17.5284 5.00995ZM16.8894 5.14121L16.1417 4.47719L14.1448 6.7258L17.0906 6.12076L16.8894 5.14121ZM17.3226 4.6534L18.0703 5.31742L18.0703 5.31742L17.3226 4.6534ZM17.4588 4.49996L18.2066 5.16397L18.7962 4.49996L18.2066 3.83595L17.4588 4.49996ZM17.3226 4.34652L16.5749 5.01053L17.3226 4.34652ZM16.8894 3.85871L17.0906 2.87916L14.1448 2.27412L16.1417 4.52273L16.8894 3.85871ZM17.5284 3.98997L17.3272 4.96952L17.3272 4.96952L17.5284 3.98997ZM17.7294 4.03126L17.5283 5.01081L18.3981 5.18948L18.6784 4.3468L17.7294 4.03126ZM17.7942 3.83653L18.7431 4.15207L18.7431 4.15207L17.7942 3.83653ZM18.0001 3.21747L18.949 2.90193L18.0001 0.0482837L17.0511 2.90193L18.0001 3.21747ZM18.2059 3.83653L19.1548 3.52099L19.1548 3.52099L18.2059 3.83653ZM18.2707 4.03126L17.3218 4.3468L17.602 5.18948L18.4719 5.01081L18.2707 4.03126ZM18.4717 3.98997L18.2705 3.01042L18.4717 3.98997ZM19.1107 3.85871L19.8585 4.52273L21.8553 2.27412L18.9095 2.87916L19.1107 3.85871ZM18.5 4.49993C18.5 4.77607 18.2761 4.99993 18 4.99993L18 6.99993C19.3807 6.99993 20.5 5.88065 20.5 4.49993L18.5 4.49993ZM18 3.99994C18.2761 3.99994 18.5 4.2238 18.5 4.49993L20.5 4.49993C20.5 3.11922 19.3807 1.99994 18 1.99994L18 3.99994ZM17.5 4.49994C17.5 4.2238 17.7239 3.99994 18 3.99994L18 1.99994C16.6193 1.99994 15.5 3.11922 15.5 4.49994L17.5 4.49994ZM18 4.99993C17.7239 4.99993 17.5 4.77607 17.5 4.49994L15.5 4.49994C15.5 5.88065 16.6193 6.99993 18 6.99993L18 4.99993ZM19.289 5.16397L19.4253 5.01053L17.9298 3.6825L17.7935 3.83595L19.289 5.16397ZM19.4253 3.98939L19.289 3.83595L17.7936 5.16397L17.9298 5.31742L19.4253 3.98939ZM19.8585 4.47719L19.4253 3.98939L17.9298 5.31742L18.363 5.80522L19.8585 4.47719ZM18.2705 5.9895L18.9095 6.12076L19.3119 4.16165L18.6729 4.0304L18.2705 5.9895ZM18.0695 5.94822L18.2705 5.9895L18.6729 4.0304L18.4719 3.98911L18.0695 5.94822ZM19.1548 5.47893L19.2196 5.2842L17.3218 4.65312L17.257 4.84785L19.1548 5.47893ZM18.949 6.09799L19.1548 5.47893L17.257 4.84785L17.0511 5.46691L18.949 6.09799ZM16.8453 5.47893L17.0511 6.09799L18.949 5.46691L18.7431 4.84785L16.8453 5.47893ZM16.7805 5.2842L16.8453 5.47893L18.7431 4.84785L18.6784 4.65312L16.7805 5.2842ZM17.7296 5.9895L17.9306 5.94822L17.5283 3.98911L17.3272 4.0304L17.7296 5.9895ZM17.0906 6.12076L17.7296 5.9895L17.3272 4.0304L16.6882 4.16165L17.0906 6.12076ZM16.5749 3.98939L16.1417 4.47719L17.6371 5.80522L18.0703 5.31742L16.5749 3.98939ZM16.7111 3.83595L16.5749 3.98939L18.0703 5.31742L18.2066 5.16397L16.7111 3.83595ZM16.5749 5.01053L16.7111 5.16397L18.2066 3.83595L18.0703 3.6825L16.5749 5.01053ZM16.1417 4.52273L16.5749 5.01053L18.0703 3.6825L17.6371 3.1947L16.1417 4.52273ZM17.7296 3.01042L17.0906 2.87916L16.6882 4.83827L17.3272 4.96952L17.7296 3.01042ZM17.9306 3.0517L17.7296 3.01042L17.3272 4.96952L17.5283 5.01081L17.9306 3.0517ZM16.8453 3.52099L16.7805 3.71572L18.6784 4.3468L18.7431 4.15207L16.8453 3.52099ZM17.0511 2.90193L16.8453 3.52099L18.7431 4.15207L18.949 3.53301L17.0511 2.90193ZM19.1548 3.52099L18.949 2.90193L17.0511 3.53301L17.257 4.15207L19.1548 3.52099ZM19.2196 3.71572L19.1548 3.52099L17.257 4.15207L17.3218 4.3468L19.2196 3.71572ZM18.2705 3.01042L18.0695 3.0517L18.4719 5.01081L18.6729 4.96952L18.2705 3.01042ZM18.9095 2.87916L18.2705 3.01042L18.6729 4.96952L19.3119 4.83827L18.9095 2.87916ZM19.4253 5.01053L19.8585 4.52273L18.363 3.1947L17.9298 3.6825L19.4253 5.01053Z" fill="#3A3A5E" mask="url(#path-5-outside-1)"/>
</svg>
