<svg width="25" height="20" viewBox="0 0 25 20" fill="none" xmlns="http://www.w3.org/2000/svg">
<path fill-rule="evenodd" clip-rule="evenodd" d="M5.74433 9.99994C5.74433 8.36836 4.54205 7.0176 2.9751 6.78525L2.9751 2.99994C2.9751 2.44765 3.42281 1.99994 3.9751 1.99994L14.9751 1.99994L14.9751 4.97497C14.9751 5.52726 15.4228 5.97497 15.9751 5.97497C16.5274 5.97497 16.9751 5.52726 16.9751 4.97497L16.9751 1.99994L21.9751 1.99994C22.5274 1.99994 22.9751 2.44765 22.9751 2.99994L22.9751 6.78525C21.4081 7.0176 20.2059 8.36837 20.2059 9.99994C20.2059 11.6315 21.4081 12.9823 22.9751 13.2146L22.9751 16.9999C22.9751 17.5522 22.5274 17.9999 21.9751 17.9999L16.9748 17.9999C16.975 17.9916 16.9751 17.9833 16.9751 17.975L16.9751 14.975C16.9751 14.4227 16.5274 13.975 15.9751 13.975C15.4228 13.975 14.9751 14.4227 14.9751 14.975L14.9751 17.975C14.9751 17.9833 14.9752 17.9916 14.9754 17.9999L3.9751 17.9999C3.42281 17.9999 2.9751 17.5522 2.9751 16.9999L2.9751 13.2146C4.54205 12.9823 5.74433 11.6315 5.74433 9.99994ZM0.975098 2.99994L0.975098 7.36532C0.975098 8.13003 1.59501 8.74994 2.35971 8.74994L2.49433 8.74994C3.18469 8.74994 3.74433 9.30958 3.74433 9.99994C3.74433 10.6903 3.18469 11.2499 2.49433 11.2499L2.35971 11.2499C1.59501 11.2499 0.975099 11.8699 0.975099 12.6346L0.975099 16.9999C0.975099 18.6568 2.31825 19.9999 3.9751 19.9999L21.9751 19.9999C23.632 19.9999 24.9751 18.6568 24.9751 16.9999L24.9751 12.6346C24.9751 11.8698 24.3552 11.2499 23.5905 11.2499L23.4559 11.2499C22.7655 11.2499 22.2059 10.6903 22.2059 9.99994C22.2059 9.30958 22.7655 8.74994 23.4559 8.74994L23.5905 8.74994C24.3552 8.74994 24.9751 8.13002 24.9751 7.36532L24.9751 2.99994C24.9751 1.34308 23.632 -6.30159e-05 21.9751 -6.2871e-05L3.9751 -6.12974e-05C2.31824 -6.11526e-05 0.975098 1.34308 0.975098 2.99994ZM15.9751 11.9999C15.4228 11.9999 14.9751 11.5522 14.9751 10.9999L14.9751 8.99994C14.9751 8.44765 15.4228 7.99994 15.9751 7.99994C16.5274 7.99994 16.9751 8.44765 16.9751 8.99994L16.9751 10.9999C16.9751 11.5522 16.5274 11.9999 15.9751 11.9999Z" fill="#3A3A5E"/>
</svg>
