<svg width="16" height="11" viewBox="0 0 16 11" fill="none" xmlns="http://www.w3.org/2000/svg">
<path d="M4.8 5.5C6.3475 5.5 7.6 4.26987 7.6 2.75C7.6 1.23013 6.3475 0 4.8 0C3.2525 0 2 1.23013 2 2.75C2 4.26987 3.2525 5.5 4.8 5.5ZM6.72 6.28571H6.5125C5.9925 6.53125 5.415 6.67857 4.8 6.67857C4.185 6.67857 3.61 6.53125 3.0875 6.28571H2.88C1.29 6.28571 0 7.55268 0 9.11429V9.82143C0 10.4721 0.5375 11 1.2 11H8.4C9.0625 11 9.6 10.4721 9.6 9.82143V9.11429C9.6 7.55268 8.31 6.28571 6.72 6.28571ZM12 5.5C13.325 5.5 14.4 4.4442 14.4 3.14286C14.4 1.84152 13.325 0.785714 12 0.785714C10.675 0.785714 9.6 1.84152 9.6 3.14286C9.6 4.4442 10.675 5.5 12 5.5ZM13.2 6.28571H13.105C12.7575 6.40357 12.39 6.48214 12 6.48214C11.61 6.48214 11.2425 6.40357 10.895 6.28571H10.8C10.29 6.28571 9.82 6.43058 9.4075 6.66384C10.0175 7.3096 10.4 8.16652 10.4 9.11429V10.0571C10.4 10.1112 10.3875 10.1627 10.385 10.2143H14.8C15.4625 10.2143 16 9.68638 16 9.03571C16 7.51585 14.7475 6.28571 13.2 6.28571Z" fill="#868EBE"/>
</svg>
