<svg width="14" height="14" viewBox="0 0 14 14" fill="none" xmlns="http://www.w3.org/2000/svg">
<path fill-rule="evenodd" clip-rule="evenodd" d="M1.75 6.25C1.75 3.76825 3.76825 1.75 6.25 1.75C8.73175 1.75 10.75 3.76825 10.75 6.25C10.75 8.73175 8.73175 10.75 6.25 10.75C3.76825 10.75 1.75 8.73175 1.75 6.25M13.5303 12.4697L10.984 9.92275C11.7738 8.90725 12.25 7.6345 12.25 6.25C12.25 2.94175 9.55825 0.25 6.25 0.25C2.94175 0.25 0.25 2.94175 0.25 6.25C0.25 9.55825 2.94175 12.25 6.25 12.25C7.6345 12.25 8.90725 11.7738 9.92275 10.984L12.4697 13.5303C12.616 13.6765 12.808 13.75 13 13.75C13.192 13.75 13.384 13.6765 13.5303 13.5303C13.8235 13.237 13.8235 12.763 13.5303 12.4697" fill="#868EBE"/>
</svg>
