<svg width="16" height="16" viewBox="0 0 16 16" fill="none" xmlns="http://www.w3.org/2000/svg">
<circle cx="8" cy="8" r="8" fill="#3B498B"/>
<circle cx="8" cy="8" r="8" fill="#868EBE"/>
<path d="M7.40141 4.53584L7.79779 4.12915C7.96563 3.95695 8.23703 3.95695 8.40308 4.12915L11.8741 7.68857C12.042 7.86077 12.042 8.13923 11.8741 8.30959L8.40308 11.8708C8.23524 12.043 7.96384 12.043 7.79779 11.8708L7.40141 11.4642C7.23178 11.2901 7.23535 11.0062 7.40855 10.8358L9.56009 8.73277H4.42852C4.19105 8.73277 4 8.53675 4 8.29311V7.70689C4 7.46325 4.19105 7.26723 4.42852 7.26723H9.56009L7.40855 5.16419C7.23357 4.99382 7.23 4.70987 7.40141 4.53584Z" fill="white"/>
</svg>
