<svg width="16" height="16" viewBox="0 0 16 16" fill="none" xmlns="http://www.w3.org/2000/svg">
<path d="M16 4C16 10.9151 11.4689 14.7701 8.61537 15.8846C8.42037 15.9608 8.21122 16 7.99998 16C7.78874 16 7.57959 15.9608 7.3846 15.8846C3.8165 14.491 0 10.2027 0 4C-5.48432e-07 3.70386 0.093502 3.41435 0.268724 3.16795C0.443946 2.92154 0.693047 2.72928 0.984633 2.61538L7.38463 0.115384C7.57963 0.0392155 7.78878 0 8.00002 0C8.21126 0 8.42041 0.0392155 8.6154 0.115384L15.0154 2.61538C15.307 2.72928 15.5561 2.92155 15.7313 3.16795C15.9065 3.41436 16 3.70387 16 4ZM8 13.9473L8.0022 13.9483C11.1267 12.4893 13.7521 9.06372 13.8628 4.33182L8 2.04166V13.9473Z" fill="#868EBE"/>
</svg>
