<svg width="16" height="16" viewBox="0 0 16 16" fill="none" xmlns="http://www.w3.org/2000/svg">
<path d="M15.7656 5.37334L14.6344 4.23553C14.3219 3.92147 13.8153 3.92147 13.5031 4.23553L6 11.7817L2.49688 8.25863C2.18438 7.94426 1.67781 7.94426 1.36563 8.25863L0.234375 9.39644C-0.078125 9.7105 -0.078125 10.2202 0.234375 10.5342L5.43437 15.7642C5.74687 16.0786 6.25344 16.0786 6.56563 15.7642L15.7656 6.51146C16.0781 6.19708 16.0781 5.68771 15.7656 5.37334ZM5.20531 8.83457C5.41906 9.05394 5.77344 9.05394 5.99312 8.84019L12.6203 2.26929C12.8397 2.05554 12.8397 1.70117 12.6259 1.48148L11.315 0.16524C11.1012 -0.0541335 10.7469 -0.0541335 10.5272 0.159615L5.61594 5.03709L3.48375 2.88804C3.27 2.66866 2.91562 2.66866 2.69625 2.88241L1.37969 4.18772C1.16031 4.40147 1.16031 4.75584 1.37406 4.97521L5.20531 8.83457Z" fill="#3B498B"/>
<path d="M15.7656 5.37334L14.6344 4.23553C14.3219 3.92147 13.8153 3.92147 13.5031 4.23553L6 11.7817L2.49688 8.25863C2.18438 7.94426 1.67781 7.94426 1.36563 8.25863L0.234375 9.39644C-0.078125 9.7105 -0.078125 10.2202 0.234375 10.5342L5.43437 15.7642C5.74687 16.0786 6.25344 16.0786 6.56563 15.7642L15.7656 6.51146C16.0781 6.19708 16.0781 5.68771 15.7656 5.37334ZM5.20531 8.83457C5.41906 9.05394 5.77344 9.05394 5.99312 8.84019L12.6203 2.26929C12.8397 2.05554 12.8397 1.70117 12.6259 1.48148L11.315 0.16524C11.1012 -0.0541335 10.7469 -0.0541335 10.5272 0.159615L5.61594 5.03709L3.48375 2.88804C3.27 2.66866 2.91562 2.66866 2.69625 2.88241L1.37969 4.18772C1.16031 4.40147 1.16031 4.75584 1.37406 4.97521L5.20531 8.83457Z" fill="url(#paint0_linear)"/>
<defs>
<linearGradient id="paint0_linear" x1="0" y1="0" x2="17.9604" y2="2.6343" gradientUnits="userSpaceOnUse">
<stop stop-color="#8F46FF"/>
<stop offset="1" stop-color="#0076FE"/>
</linearGradient>
</defs>
</svg>
