<svg width="24" height="16" viewBox="0 0 24 16" fill="none" xmlns="http://www.w3.org/2000/svg">
<path d="M9.73483 8.62263L2.40132 15.7432C2.04775 16.0865 1.4742 16.0865 1.12064 15.7432L0.26522 14.9126C-0.087966 14.5696 -0.0883427 14.0142 0.263711 13.6705L6.07581 8.00085L0.264088 2.33086C-0.0883436 1.98718 -0.0875883 1.43173 0.265597 1.08878L1.12102 0.258157C1.47458 -0.0851574 2.04813 -0.0851574 2.40169 0.258157L9.73483 7.37908C10.0884 7.72239 10.0884 8.27932 9.73483 8.62263Z" fill="#FFAF7A"/>
<path d="M14.2652 8.62246L21.5987 15.7431C21.9524 16.0865 22.5258 16.0865 22.8794 15.7431L23.7347 14.9126C24.0878 14.5698 24.0885 14.0141 23.7363 13.6705L17.9244 8.00065L23.7363 2.33086C24.0885 1.98722 24.0878 1.43158 23.7347 1.08875L22.8794 0.258238C22.5257 -0.0851842 21.9523 -0.0851842 21.5987 0.258238L14.2653 7.37888C13.9116 7.72227 13.9116 8.27904 14.2652 8.62246Z" fill="#7A9EFF"/>
</svg>
