<svg width="20" height="20" viewBox="0 0 20 20" fill="none" xmlns="http://www.w3.org/2000/svg">
<path d="M16.6667 3.3335H3.33335C2.41419 3.3335 1.66669 4.081 1.66669 5.00016V15.0002C1.66669 15.9193 2.41419 16.6668 3.33335 16.6668H16.6667C17.5859 16.6668 18.3334 15.9193 18.3334 15.0002V5.00016C18.3334 4.081 17.5859 3.3335 16.6667 3.3335ZM4.16669 7.0835C4.16669 6.8535 4.35335 6.66683 4.58335 6.66683H7.08335C7.31335 6.66683 7.50002 6.8535 7.50002 7.0835V8.75016C7.50002 8.98016 7.31335 9.16683 7.08335 9.16683H4.58335C4.35335 9.16683 4.16669 8.98016 4.16669 8.75016V7.0835ZM9.16669 13.3335H4.16669V11.6668H9.16669V13.3335ZM15.8334 13.3335H10.8334V11.6668H15.8334V13.3335Z" fill="#868EBE"/>
</svg>
