<svg width="20" height="20" viewBox="0 0 20 20" fill="none" xmlns="http://www.w3.org/2000/svg">
<path d="M13.0884 13.0885L14.9992 11.1777L16.9109 13.0893L18.0892 11.911L16.1784 10.0002L18.0892 8.08933L16.9109 6.911L15 8.82183L13.0892 6.911L11.9109 8.08933L13.8209 9.99933L11.91 11.9102L13.0884 13.0885ZM10 6.66683C10 4.76683 8.56669 3.3335 6.66669 3.3335C4.76669 3.3335 3.33335 4.76683 3.33335 6.66683C3.33335 8.56683 4.76669 10.0002 6.66669 10.0002C8.56669 10.0002 10 8.56683 10 6.66683ZM5.00002 6.66683C5.00002 5.68516 5.68502 5.00016 6.66669 5.00016C7.64835 5.00016 8.33335 5.68516 8.33335 6.66683C8.33335 7.6485 7.64835 8.3335 6.66669 8.3335C5.68502 8.3335 5.00002 7.6485 5.00002 6.66683ZM3.33335 15.0002C3.33335 13.6218 4.45502 12.5002 5.83335 12.5002H7.50002C8.87835 12.5002 10 13.6218 10 15.0002V15.8335H11.6667V15.0002C11.6667 12.7027 9.79752 10.8335 7.50002 10.8335H5.83335C3.53585 10.8335 1.66669 12.7027 1.66669 15.0002V15.8335H3.33335V15.0002Z" fill="#868EBE"/>
</svg>
