<svg width="20" height="20" viewBox="0 0 20 20" fill="none" xmlns="http://www.w3.org/2000/svg">
<path d="M10 7.5C8.63167 7.5 7.5 8.6325 7.5 10C7.5 11.3683 8.63167 12.5 10 12.5C11.3675 12.5 12.5 11.3683 12.5 10C12.5 8.6325 11.3675 7.5 10 7.5Z" fill="#868EBE"/>
<path d="M9.99998 4.16675C3.63914 4.16675 1.72748 9.68092 1.70998 9.73675L1.62164 10.0001L1.70914 10.2634C1.72748 10.3192 3.63914 15.8334 9.99998 15.8334C16.3608 15.8334 18.2725 10.3192 18.29 10.2634L18.3783 10.0001L18.2908 9.73675C18.2725 9.68092 16.3608 4.16675 9.99998 4.16675ZM9.99998 14.1667C5.54081 14.1667 3.81331 10.9617 3.39498 10.0001C3.81498 9.03508 5.54331 5.83341 9.99998 5.83341C14.4591 5.83341 16.1866 9.03842 16.605 10.0001C16.185 10.9651 14.4566 14.1667 9.99998 14.1667Z" fill="#868EBE"/>
</svg>
