<svg width="24" height="16" viewBox="0 0 24 16" fill="none" xmlns="http://www.w3.org/2000/svg"><rect x="17" y="3.001" width="10" height="3" rx="1.5" transform="rotate(90 17 3)" fill="#AF7AFF"/><rect x="24" y=".001" width="16" height="3" rx="1.5" transform="rotate(90 24 0)" fill="#AF7AFF"/><path d="M9.735 8.623L2.4 15.743a.925.925 0 01-1.28 0l-.856-.83a.861.861 0 01-.001-1.242L6.076 8 .264 2.33a.861.861 0 01.001-1.242l.856-.83a.925.925 0 011.28 0l7.334 7.12c.353.343.353.9 0 1.244z" fill="#fff"/></svg>