<svg width="24" height="24" viewBox="0 0 24 24" fill="none" xmlns="http://www.w3.org/2000/svg"><g clip-path="url(#clip0)"><path d="M.68 1.43l2.703 5.674c.362.76 1.767.987 2.483.544a15.77 15.77 0 012.265-1.151c.754-.306 1.212-1.416.74-2.078l-2.858-4A1 1 0 005.2 0H1.584A1 1 0 00.68 1.43zm22.64 0l-2.703 5.674c-.362.76-1.767.987-2.483.544a15.767 15.767 0 00-2.266-1.151c-.753-.306-1.211-1.416-.739-2.078l2.858-4A1 1 0 0118.8 0h3.616a1 1 0 01.903 1.43z" fill="#CCC"/><circle cx="12" cy="16" r="7" stroke="#CCC" stroke-width="2"/><path d="M11.57 12.278l-.032.07A4.15 4.15 0 018.41 14.68c-.392.059-.55.563-.265.853a4.443 4.443 0 011.215 3.834l-.008.048c-.068.41.347.719.694.526a4.06 4.06 0 013.908 0c.347.191.761-.115.694-.526l-.008-.048a4.444 4.444 0 011.215-3.834c.284-.29.127-.794-.265-.853a4.15 4.15 0 01-3.128-2.332l-.033-.07a.47.47 0 00-.858 0z" fill="#CCC"/></g><defs><clipPath id="clip0"><path fill="#fff" d="M0 0h24v24H0z"/></clipPath></defs></svg>