<svg width="16" height="16" viewBox="0 0 16 16" fill="none" xmlns="http://www.w3.org/2000/svg"><path d="M22 .033H-6v16h28v-16z" fill="#fff"/><path d="M12.903 6L22 .737V0h-.628L11 6h1.903zM11 10l11 6v-1.2L13.198 10H11zM-6 1.132L2.106 6H4L-6 0v1.132zM4.016 10L-6 15.899V16h1.81L6 10H4.016z" fill="#BD0034"/><path d="M20 0H10v6l10-6zM6 0H-4L6 6V0zm16 6V2l-7 4h7zm0 8v-4h-7l7 4zm-25 2h9v-5l-9 5zm13 0h10l-10-5v5zm-16-6v5l9-5h-9zm0-4h7l-7-4v4z" fill="#1A237B"/><path d="M7 0v6.982H-6v2.004L7 9v7h2V9l13-.014V6.982L9 7V0H7z" fill="#BD0034"/></svg>