<svg width="8" height="10" viewBox="0 0 8 10" fill="none" xmlns="http://www.w3.org/2000/svg">
<path d="M4 5C5.2625 5 6.28571 3.88086 6.28571 2.5C6.28571 1.11914 5.2625 0 4 0C2.7375 0 1.71429 1.11914 1.71429 2.5C1.71429 3.88086 2.7375 5 4 5ZM5.6 5.625H5.30179C4.90536 5.82422 4.46429 5.9375 4 5.9375C3.53571 5.9375 3.09643 5.82422 2.69821 5.625H2.4C1.075 5.625 0 6.80078 0 8.25V9.0625C0 9.58008 0.383929 10 0.857143 10H7.14286C7.61607 10 8 9.58008 8 9.0625V8.25C8 6.80078 6.925 5.625 5.6 5.625Z" fill="#5171FF"/>
</svg>
