<svg width="14" height="14" viewBox="0 0 14 14" fill="none" xmlns="http://www.w3.org/2000/svg">
<path fill-rule="evenodd" clip-rule="evenodd" d="M13.2275 8.06932C12.833 7.94407 12.4115 8.16232 12.2855 8.55682C11.5827 10.7663 9.51424 12.2498 7.13824 12.2498C4.16674 12.2498 1.75024 9.89482 1.75024 6.99982C1.75024 4.10557 4.16674 1.74982 7.13824 1.74982C8.43424 1.74982 9.65674 2.20132 10.622 3.00232L8.99749 2.73457C8.58499 2.65957 8.20249 2.94382 8.13499 3.35182C8.06749 3.76057 8.34424 4.14682 8.75299 4.21357L11.9375 4.74007C11.9787 4.74682 12.0207 4.74982 12.0605 4.74982C12.1497 4.74982 12.2367 4.73407 12.3177 4.70407C12.3455 4.69357 12.368 4.67407 12.395 4.65982C12.4445 4.63432 12.4962 4.61182 12.539 4.57582C12.566 4.55407 12.5832 4.52257 12.6065 4.49707C12.6417 4.46032 12.6792 4.42507 12.7055 4.38007C12.7242 4.34782 12.7317 4.30957 12.746 4.27357C12.764 4.22932 12.788 4.18807 12.797 4.13932L13.3625 1.13932C13.439 0.732067 13.1712 0.339067 12.764 0.263317C12.3582 0.189817 11.9645 0.454567 11.888 0.861067L11.684 1.94182C10.436 0.861067 8.83624 0.249817 7.13824 0.249817C3.34024 0.249817 0.250244 3.27757 0.250244 6.99982C0.250244 10.7221 3.34024 13.7498 7.13824 13.7498C10.1697 13.7498 12.8127 11.8456 13.715 9.01132C13.8402 8.61682 13.622 8.19532 13.2275 8.06932Z" fill="#868EBE"/>
</svg>
