<svg width="14" height="14" viewBox="0 0 14 14" fill="none" xmlns="http://www.w3.org/2000/svg">
<path d="M0.948019 1.52736L3.55881 5.73365C3.96546 6.3888 5.13545 6.60529 5.81174 6.23486C6.53306 5.83977 7.05141 4.54431 6.53061 3.90778L3.63341 0.366762C3.44348 0.134627 3.15939 0 2.85945 0H1.79766C1.01362 0 0.534544 0.86121 0.948019 1.52736Z" fill="#868EBE"/>
<path d="M13.052 1.52736L10.4412 5.73365C10.0345 6.3888 8.86455 6.60529 8.18826 6.23486C7.46694 5.83977 6.94859 4.54431 7.46939 3.90778L10.3666 0.366762C10.5565 0.134627 10.8406 0 11.1405 0H12.2023C12.9864 0 13.4655 0.86121 13.052 1.52736Z" fill="#868EBE"/>
<path d="M10.6667 9.33333C10.6667 11.3584 9.02504 13 7 13C4.97495 13 3.33333 11.3584 3.33333 9.33333C3.33333 7.30829 4.97495 5.66666 7 5.66666C9.02504 5.66666 10.6667 7.30829 10.6667 9.33333Z" stroke="#868EBE" stroke-width="2"/>
<path d="M6.74966 7.16234L6.18007 8.36896L4.90567 8.56307C4.67714 8.5977 4.58555 8.89207 4.75128 9.06067L5.67327 9.99935L5.45521 11.3254C5.41595 11.565 5.65757 11.7446 5.85994 11.6325L7 11.0064L8.14006 11.6325C8.34243 11.7437 8.58405 11.565 8.5448 11.3254L8.32673 9.99935L9.24872 9.06067C9.41445 8.89207 9.32286 8.5977 9.09433 8.56307L7.81994 8.36896L7.25034 7.16234C7.14829 6.94726 6.85259 6.94452 6.74966 7.16234Z" fill="#868EBE"/>
</svg>
