<svg width="18" height="16" viewBox="0 0 18 16" fill="none" xmlns="http://www.w3.org/2000/svg">
    <path d="M1.125 14.8571C1.125 15.4893 1.62773 16 2.25 16H7.875V10.2857H1.125V14.8571ZM16.875 4.57142H15.3949C15.6129 4.13928 15.75 3.66071 15.75 3.14285C15.75 1.41071 14.3613 0 12.6562 0C11.1938 0 10.248 0.760713 9.03516 2.43928C7.82227 0.760713 6.87656 0 5.41406 0C3.70898 0 2.32031 1.41071 2.32031 3.14285C2.32031 3.66071 2.45391 4.13928 2.67539 4.57142H1.125C0.502734 4.57142 0 5.08214 0 5.71428V8.57142C0 8.8857 0.253125 9.14285 0.5625 9.14285H17.4375C17.7469 9.14285 18 8.8857 18 8.57142V5.71428C18 5.08214 17.4973 4.57142 16.875 4.57142ZM5.41055 4.57142C4.63359 4.57142 4.0043 3.93214 4.0043 3.14285C4.0043 2.35357 4.63359 1.71428 5.41055 1.71428C6.11016 1.71428 6.62695 1.83214 8.4375 4.57142H5.41055ZM12.6562 4.57142H9.6293C11.4363 1.83928 11.9391 1.71428 12.6562 1.71428C13.4332 1.71428 14.0625 2.35357 14.0625 3.14285C14.0625 3.93214 13.4332 4.57142 12.6562 4.57142ZM10.125 16H15.75C16.3723 16 16.875 15.4893 16.875 14.8571V10.2857H10.125V16Z" fill="#868EBE"/>
</svg>
