<svg width="16" height="16" viewBox="0 0 16 16" fill="none" xmlns="http://www.w3.org/2000/svg">
<circle cx="8" cy="8" r="8" fill="#3B498B"/>
<circle cx="8" cy="8" r="8" fill="#DC143C"/>
<path fill-rule="evenodd" clip-rule="evenodd" d="M8.00022 8.82555L10.0912 10.9163C10.1976 11.0227 10.3659 11.0268 10.4673 10.9255L10.9259 10.4669C11.0273 10.3656 11.0231 10.1972 10.9167 10.0908L8.82581 8.00001L10.917 5.90896C11.0234 5.80257 11.0275 5.63421 10.9262 5.53289L10.4675 5.07425C10.3662 4.97293 10.1978 4.97704 10.0914 5.08343L8.00022 7.17448L5.90816 5.08256C5.80176 4.97617 5.63338 4.97206 5.53205 5.07339L5.07339 5.53202C4.97206 5.63334 4.97617 5.8017 5.08256 5.90809L7.17463 8.00001L5.08283 10.0917C4.97643 10.1981 4.97232 10.3664 5.07365 10.4677L5.53231 10.9264C5.63364 11.0277 5.80202 11.0236 5.90842 10.9172L8.00022 8.82555Z" fill="white"/>
</svg>
