<svg width="16" height="5" viewBox="0 0 16 5" fill="none" xmlns="http://www.w3.org/2000/svg">
<path d="M10.3226 2.5C10.3226 3.88194 9.28387 5 8 5C6.71613 5 5.67742 3.88194 5.67742 2.5C5.67742 1.11806 6.71613 0 8 0C9.28387 0 10.3226 1.11806 10.3226 2.5ZM13.6774 0C12.3935 0 11.3548 1.11806 11.3548 2.5C11.3548 3.88194 12.3935 5 13.6774 5C14.9613 5 16 3.88194 16 2.5C16 1.11806 14.9613 0 13.6774 0ZM2.32258 0C1.03871 0 0 1.11806 0 2.5C0 3.88194 1.03871 5 2.32258 5C3.60645 5 4.64516 3.88194 4.64516 2.5C4.64516 1.11806 3.60645 0 2.32258 0Z" fill="#868EBE"/>
</svg>
