<svg width="15" height="18" viewBox="0 0 15 18" fill="none" xmlns="http://www.w3.org/2000/svg">
<path fill-rule="evenodd" clip-rule="evenodd" d="M8.10699 0.776178C8.18054 1.10229 8.57079 1.46112 8.23695 1.7954C8.11121 1.97476 8.02462 2.16638 8.06363 2.40696C8.64881 2.78612 8.80064 1.7017 9.49416 2.08073C9.65456 1.95034 9.81496 1.82391 10.0577 1.87696C10.0058 2.50488 10.7514 2.17456 11.0983 2.3254C11.4363 2.26021 12.0216 2.50488 12.052 1.9993C12.1213 2.01962 12.1863 2.05222 12.2688 2.04008C12.3078 2.21125 12.1343 2.3906 12.3988 2.44774C12.6979 2.37845 13.0837 2.61904 13.1357 2.24385C13.2311 2.22352 13.3221 2.29281 13.3525 2.3254L13.2658 2.40696C13.5129 2.63118 13.7601 2.48852 14.0895 2.5293C14.2933 2.4641 14.0331 2.11333 14.3497 2.20307C14.4407 2.35391 14.3323 2.57826 14.523 2.69229C14.4711 2.74534 14.3929 2.74534 14.3497 2.81463C14.3539 2.97774 14.5707 2.99819 14.6965 3.0593H14.9566C14.9436 3.09599 14.9783 3.11632 15 3.14086C14.2499 3.39768 12.9971 2.86359 12.7456 3.91541C12.5678 3.86248 12.4812 4.06638 12.3988 4.16008C12.2341 4.13566 12.13 3.98073 11.9652 3.95619C11.9349 4.63307 12.2991 5.25677 12.6589 5.83164C12.5636 5.94171 12.4464 6.011 12.3121 6.03554C11.8612 5.46885 11.6834 4.79606 11.4017 4.16008C11.1936 4.2906 11.4363 4.51482 11.3583 4.73086C11.393 4.86944 11.3151 4.93066 11.1849 4.93476L10.3613 4.77164C9.94069 4.98359 9.78899 5.72567 9.19076 5.54632C9.11696 5.58709 9.08243 5.71352 8.97396 5.66865L8.9306 5.62787C8.63576 5.73794 8.32367 5.92138 7.97678 5.79099C7.79911 5.83164 7.56502 5.75418 7.45659 5.95398C7.38291 6.33723 7.4306 6.76534 7.32654 7.13632C7.12277 7.08339 6.91905 7.20151 6.89301 7.38099C6.85836 7.66632 6.94938 7.89872 6.97976 8.15554L7.32654 8.07411C7.53896 8.47768 7.98126 8.79164 8.23695 9.17482C8.51873 9.50511 8.96961 9.83939 8.97396 10.3164C8.86997 10.3408 8.80064 10.4509 8.71392 10.5202C8.70522 10.8628 9.10826 11.0462 9.23399 11.3357C9.62425 11.7434 9.76738 12.2449 10.1878 12.6403C10.0274 13.68 10.6516 14.4139 10.4913 15.4535C10.3959 16.22 11.0852 16.6848 11.3151 17.3289V17.8589C10.513 18.2789 9.84527 17.6633 9.23399 17.2882C8.73975 16.9417 8.99992 16.4524 8.9306 15.9428C8.5924 15.005 8.38008 14.0143 8.10699 13.048C7.82508 12.5792 7.17049 12.249 6.97976 11.7434C6.52021 11.2623 6.17337 10.5243 5.46239 10.3572C5.29764 10.4062 5.43638 10.5692 5.33238 10.6426C4.81215 11.5844 4.42195 12.5752 4.16181 13.6188C3.78032 14.2467 3.52454 14.9235 3.20808 15.5758C2.78756 15.6737 2.263 15.5432 1.86416 15.6981C1.89448 16.0651 2.18063 16.432 1.95085 16.799C1.54768 16.7704 1.03178 17.2352 0.736985 16.7174C0.164747 16.4891 0.24712 15.7919 0 15.3312C0.147389 14.6992 0.750007 14.2426 1.12717 13.7004C1.4003 13.5373 1.7948 13.5577 1.95085 13.2111C2.24132 11.7597 2.72254 10.3858 3.20808 9.0118C3.24273 8.59184 2.76157 8.22483 3.12139 7.82944C3.06927 7.76015 2.96966 7.79684 2.90458 7.74788C3.2818 6.45138 3.58957 5.13456 3.64162 3.71164C4.08813 3.14891 4.49562 2.50067 5.11559 2.08073C5.18926 2.06858 5.28898 2.11333 5.33238 2.04008C5.26299 1.33878 5.34104 0.519235 6.11267 0.16462C6.81501 -0.20239 7.78172 0.0627342 8.10699 0.776178" fill="#141414"/>
</svg>
