<svg width="16" height="16" viewBox="0 0 16 16" fill="none" xmlns="http://www.w3.org/2000/svg">
<path d="M14.3616 9.13226L15.7977 9.92577C15.9617 10.0164 16.0378 10.2038 15.9816 10.3769C15.6086 11.5266 14.9717 12.5653 14.1388 13.4281C14.0764 13.4926 13.993 13.535 13.9022 13.5482C13.8113 13.5615 13.7185 13.5447 13.639 13.5008L12.204 12.7074C11.6002 13.2026 10.9061 13.5868 10.1566 13.8406V15.4271C10.1566 15.5151 10.1253 15.6005 10.0679 15.6692C10.0104 15.7379 9.93029 15.7858 9.84061 15.8051C8.66269 16.0583 7.39759 16.0714 6.16023 15.8053C5.97523 15.7656 5.84338 15.6087 5.84338 15.4272V13.8406C5.09383 13.5868 4.39971 13.2026 3.79597 12.7074L2.361 13.5008C2.28144 13.5447 2.18862 13.5615 2.0978 13.5482C2.00697 13.535 1.92354 13.4926 1.86121 13.4281C1.02828 12.5653 0.391366 11.5266 0.0183381 10.3769C-0.0378352 10.2038 0.0382868 10.0164 0.202291 9.92577L1.63837 9.13226C1.49413 8.38374 1.49413 7.61629 1.63837 6.86778L0.202325 6.07426C0.0383206 5.98365 -0.0378016 5.79626 0.0183717 5.62314C0.3914 4.4734 1.02828 3.43469 1.86124 2.57198C1.92358 2.50738 2.00701 2.465 2.09783 2.45179C2.18865 2.43857 2.28147 2.45532 2.36104 2.49927L3.796 3.29266C4.39975 2.79745 5.09387 2.41326 5.84341 2.15943V0.57289C5.84341 0.484898 5.8747 0.399527 5.93213 0.330825C5.98956 0.262122 6.06971 0.214181 6.15939 0.19489C7.33731 -0.0583347 8.60241 -0.0714315 9.83977 0.194665C10.0248 0.234439 10.1566 0.391309 10.1566 0.572825V2.1594C10.9062 2.41321 11.6003 2.7974 12.204 3.29262L13.639 2.49924C13.7186 2.45529 13.8114 2.43854 13.9022 2.45175C13.993 2.46497 14.0765 2.50735 14.1388 2.57195C14.9717 3.43466 15.6086 4.47336 15.9817 5.6231C16.0378 5.7962 15.9617 5.98359 15.7977 6.07423L14.3616 6.86774C14.5059 7.61627 14.5059 8.38373 14.3616 9.13226ZM10.6958 8C10.6958 6.57704 9.48645 5.41936 8 5.41936C6.51355 5.41936 5.30422 6.57704 5.30422 8C5.30422 9.42296 6.51355 10.5806 8 10.5806C9.48645 10.5806 10.6958 9.42296 10.6958 8Z" fill="#868EBE"/>
</svg>
