<svg width="16" height="12" viewBox="0 0 16 12" fill="none" xmlns="http://www.w3.org/2000/svg">
<path d="M11.5556 4.28571C11.5556 1.91786 8.96944 0 5.77778 0C2.58611 0 0 1.91786 0 4.28571C0 5.20446 0.391667 6.05089 1.05556 6.75C0.683333 7.55893 0.0694444 8.20179 0.0611111 8.20982C0 8.27143 -0.0166667 8.3625 0.0194444 8.44286C0.0555556 8.52321 0.133333 8.57143 0.222222 8.57143C1.23889 8.57143 2.08056 8.24196 2.68611 7.90179C3.58056 8.32232 4.63889 8.57143 5.77778 8.57143C8.96944 8.57143 11.5556 6.65357 11.5556 4.28571ZM14.9444 10.1786C15.6083 9.48214 16 8.63304 16 7.71429C16 5.92232 14.5139 4.3875 12.4083 3.74732C12.4333 3.92411 12.4444 4.10357 12.4444 4.28571C12.4444 7.12232 9.45278 9.42857 5.77778 9.42857C5.47778 9.42857 5.18611 9.40714 4.89722 9.37768C5.77222 10.9179 7.82778 12 10.2222 12C11.3611 12 12.4194 11.7536 13.3139 11.3304C13.9194 11.6705 14.7611 12 15.7778 12C15.8667 12 15.9472 11.9491 15.9806 11.8714C16.0167 11.7938 16 11.7027 15.9389 11.6384C15.9306 11.6304 15.3167 10.9902 14.9444 10.1786Z" fill="#868EBE"/>
</svg>
