<svg width="46" height="51" viewBox="0 0 46 51" fill="none" xmlns="http://www.w3.org/2000/svg">
<path fill-rule="evenodd" clip-rule="evenodd" d="M8.10815 26.9681L22.9667 9.09892L37.8253 26.9681L22.9667 44.8374L8.10815 26.9681Z" fill="white"/>
<path d="M5.13072 25.6048L5.13074 25.6047L19.9894 7.73559L20.3626 8.04594L19.9894 7.73558L22.5827 4.61702L22.9672 4.1547L23.3516 4.61702L25.9449 7.73558L25.5604 8.05527L25.9449 7.73559L40.8035 25.6047L40.8035 25.6047L41.6715 26.6484L41.9374 26.9681L41.6715 27.2878L40.8035 28.3316L25.9449 46.2008L23.3516 49.3196L22.9672 49.782L22.5827 49.3196L19.9894 46.2008L5.13073 28.3316L5.13069 28.3315L4.26296 27.2877L3.99724 26.9681L4.26299 26.6484L5.13072 25.6048ZM33.7144 26.9681L22.9672 14.0436L12.22 26.9681L22.9672 39.8929L33.7144 26.9681Z" fill="white" stroke="white"/>
<mask id="path-3-outside-1" maskUnits="userSpaceOnUse" x="0" y="0.62677" width="46" height="49" fill="black">
<rect fill="white" y="0.62677" width="46" height="49"/>
<path d="M15.1017 33.0744L19.1598 37.7074L19.7768 38.4119L19.1832 39.1263L11.9751 47.8013L11.453 48.4297L10.4104 48.4917C9.6589 48.5362 8.87134 48.4864 8.11759 48.3641C7.35782 48.2409 6.60905 48.0347 5.9526 47.7713C5.26885 47.497 4.64237 47.1631 4.08053 46.7691C3.53276 46.3851 3.038 45.9417 2.60248 45.4385L2 44.7424L2.58681 44.036L11.6673 33.1069L13.3531 31.0781L15.1017 33.0744ZM15.1318 38.4489L13.4393 36.5168L6.6868 44.6439C6.76022 44.7023 6.83552 44.7583 6.91251 44.8122C7.23505 45.0383 7.57874 45.2239 7.9396 45.3685C8.24416 45.4908 8.61981 45.5911 9.02523 45.6568C9.05998 45.6623 9.09473 45.6679 9.12939 45.6728L15.1318 38.4489ZM31.9474 31.0106L27.5412 36.2098L25.8318 38.2272L24.1068 36.2206C23.7933 35.8559 23.4415 35.4441 23.0546 34.9887C22.693 35.4141 22.3653 35.7976 22.0736 36.1369L20.3922 38.0935L18.6627 36.1585L14.1418 31.1004L13.5171 30.4014L14.1027 29.6816C15.3553 28.1428 15.7133 27.7239 16.4271 26.8979C13.1358 22.6921 10.4784 18.9576 8.47538 15.7336C6.31747 12.2605 4.89819 9.34666 4.2421 7.03986L3.11695 3.08362L7.51206 5.72423C9.8593 7.13436 12.4778 9.14524 15.3657 11.7554C17.7358 13.8978 20.2983 16.4513 23.0514 19.4155C25.825 16.4252 28.3999 13.8549 30.7757 11.7055C33.6777 9.0797 36.3089 7.05793 38.6685 5.6404L43.0637 3.00001L41.9387 6.95602C41.2848 9.25499 39.8558 12.18 37.6767 15.6831C35.6452 18.9495 32.9746 22.7011 29.6873 26.8983L29.7022 26.9155C30.3513 27.6644 30.6206 27.9752 31.963 29.6244L32.531 30.3222L31.9474 31.0106ZM25.8156 32.7818L27.9208 30.2977C27.1842 29.3995 26.8749 29.0419 26.3024 28.3815C26.3671 28.4561 26.4325 28.531 26.2772 28.3499L26.2756 28.3506L26.2844 28.3608L26.3024 28.3815L25.8156 32.7818ZM24.7841 31.551C25.2007 32.0496 25.542 32.4567 25.8156 32.7818L24.7841 31.551ZM21.3264 31.551L23.0564 29.4827L24.7841 31.551H21.3264ZM20.3219 32.7485C20.5842 32.4369 20.9197 32.0371 21.3264 31.551L20.3219 32.7485ZM18.1629 30.3327L20.3219 32.7485L18.1629 30.3327ZM19.967 28.191C19.3352 28.9222 19.0112 29.2972 18.1629 30.3327L19.967 28.191ZM20.4423 27.6404L19.967 28.191L20.4423 27.6404ZM20.4814 26.2597L21.0321 26.9573L20.4423 27.6404L20.4814 26.2597ZM12.1523 14.6355C14.225 17.9714 17.0091 21.8612 20.4814 26.2597L12.1523 14.6355ZM10.6402 12.0744C11.0915 12.8853 11.5954 13.7393 12.1523 14.6355L10.6402 12.0744ZM12.2049 13.4516C11.6722 12.9702 11.1508 12.511 10.6402 12.0744L12.2049 13.4516ZM21.3626 22.7396C18.0245 19.0486 14.9715 15.952 12.2049 13.4516L21.3626 22.7396ZM24.7423 22.7396L23.0535 24.6094L21.3626 22.7396H24.7423ZM33.9519 13.3909C31.1625 15.9143 28.0924 19.0312 24.7423 22.7396L33.9519 13.3909ZM35.5519 11.982C35.0301 12.4282 34.4968 12.8977 33.9519 13.3909L35.5519 11.982ZM34.0155 14.585C34.582 13.6744 35.0941 12.8064 35.5519 11.982L34.0155 14.585ZM25.6301 26.2632C29.1478 21.8118 31.9505 17.9043 34.0155 14.585L25.6301 26.2632ZM25.6692 27.644L25.0796 26.96L25.6301 26.2632L25.6692 27.644ZM26.2772 28.3499L25.6692 27.644L26.2772 28.3499ZM32.5606 36.6358L30.8681 38.5679L36.8705 45.7918C36.9053 45.7869 36.94 45.7813 36.9745 45.7758C37.3803 45.7101 37.7557 45.6098 38.0603 45.4875C38.4213 45.3429 38.7647 45.1574 39.0875 44.9312C39.1643 44.8773 39.2398 44.8212 39.3131 44.7629L32.5606 36.6358ZM26.8401 37.8264L30.8982 33.1934L32.647 31.1971L34.3326 33.2259L43.4131 44.1549L44 44.8614L43.3974 45.5574C42.9618 46.0607 42.4674 46.504 41.9193 46.8881C41.3575 47.2821 40.731 47.6161 40.0473 47.8903C39.3908 48.1537 38.6422 48.3599 37.8823 48.4831C37.1284 48.6056 36.3409 48.6552 35.5895 48.6107L34.5472 48.5487L34.0249 47.9203L26.8167 39.2452L26.2233 38.5309L26.8401 37.8264Z"/>
</mask>
<path d="M15.1017 33.0744L19.1598 37.7074L19.7768 38.4119L19.1832 39.1263L11.9751 47.8013L11.453 48.4297L10.4104 48.4917C9.6589 48.5362 8.87134 48.4864 8.11759 48.3641C7.35782 48.2409 6.60905 48.0347 5.9526 47.7713C5.26885 47.497 4.64237 47.1631 4.08053 46.7691C3.53276 46.3851 3.038 45.9417 2.60248 45.4385L2 44.7424L2.58681 44.036L11.6673 33.1069L13.3531 31.0781L15.1017 33.0744ZM15.1318 38.4489L13.4393 36.5168L6.6868 44.6439C6.76022 44.7023 6.83552 44.7583 6.91251 44.8122C7.23505 45.0383 7.57874 45.2239 7.9396 45.3685C8.24416 45.4908 8.61981 45.5911 9.02523 45.6568C9.05998 45.6623 9.09473 45.6679 9.12939 45.6728L15.1318 38.4489ZM31.9474 31.0106L27.5412 36.2098L25.8318 38.2272L24.1068 36.2206C23.7933 35.8559 23.4415 35.4441 23.0546 34.9887C22.693 35.4141 22.3653 35.7976 22.0736 36.1369L20.3922 38.0935L18.6627 36.1585L14.1418 31.1004L13.5171 30.4014L14.1027 29.6816C15.3553 28.1428 15.7133 27.7239 16.4271 26.8979C13.1358 22.6921 10.4784 18.9576 8.47538 15.7336C6.31747 12.2605 4.89819 9.34666 4.2421 7.03986L3.11695 3.08362L7.51206 5.72423C9.8593 7.13436 12.4778 9.14524 15.3657 11.7554C17.7358 13.8978 20.2983 16.4513 23.0514 19.4155C25.825 16.4252 28.3999 13.8549 30.7757 11.7055C33.6777 9.0797 36.3089 7.05793 38.6685 5.6404L43.0637 3.00001L41.9387 6.95602C41.2848 9.25499 39.8558 12.18 37.6767 15.6831C35.6452 18.9495 32.9746 22.7011 29.6873 26.8983L29.7022 26.9155C30.3513 27.6644 30.6206 27.9752 31.963 29.6244L32.531 30.3222L31.9474 31.0106ZM25.8156 32.7818L27.9208 30.2977C27.1842 29.3995 26.8749 29.0419 26.3024 28.3815C26.3671 28.4561 26.4325 28.531 26.2772 28.3499L26.2756 28.3506L26.2844 28.3608L26.3024 28.3815L25.8156 32.7818ZM24.7841 31.551C25.2007 32.0496 25.542 32.4567 25.8156 32.7818L24.7841 31.551ZM21.3264 31.551L23.0564 29.4827L24.7841 31.551H21.3264ZM20.3219 32.7485C20.5842 32.4369 20.9197 32.0371 21.3264 31.551L20.3219 32.7485ZM18.1629 30.3327L20.3219 32.7485L18.1629 30.3327ZM19.967 28.191C19.3352 28.9222 19.0112 29.2972 18.1629 30.3327L19.967 28.191ZM20.4423 27.6404L19.967 28.191L20.4423 27.6404ZM20.4814 26.2597L21.0321 26.9573L20.4423 27.6404L20.4814 26.2597ZM12.1523 14.6355C14.225 17.9714 17.0091 21.8612 20.4814 26.2597L12.1523 14.6355ZM10.6402 12.0744C11.0915 12.8853 11.5954 13.7393 12.1523 14.6355L10.6402 12.0744ZM12.2049 13.4516C11.6722 12.9702 11.1508 12.511 10.6402 12.0744L12.2049 13.4516ZM21.3626 22.7396C18.0245 19.0486 14.9715 15.952 12.2049 13.4516L21.3626 22.7396ZM24.7423 22.7396L23.0535 24.6094L21.3626 22.7396H24.7423ZM33.9519 13.3909C31.1625 15.9143 28.0924 19.0312 24.7423 22.7396L33.9519 13.3909ZM35.5519 11.982C35.0301 12.4282 34.4968 12.8977 33.9519 13.3909L35.5519 11.982ZM34.0155 14.585C34.582 13.6744 35.0941 12.8064 35.5519 11.982L34.0155 14.585ZM25.6301 26.2632C29.1478 21.8118 31.9505 17.9043 34.0155 14.585L25.6301 26.2632ZM25.6692 27.644L25.0796 26.96L25.6301 26.2632L25.6692 27.644ZM26.2772 28.3499L25.6692 27.644L26.2772 28.3499ZM32.5606 36.6358L30.8681 38.5679L36.8705 45.7918C36.9053 45.7869 36.94 45.7813 36.9745 45.7758C37.3803 45.7101 37.7557 45.6098 38.0603 45.4875C38.4213 45.3429 38.7647 45.1574 39.0875 44.9312C39.1643 44.8773 39.2398 44.8212 39.3131 44.7629L32.5606 36.6358ZM26.8401 37.8264L30.8982 33.1934L32.647 31.1971L34.3326 33.2259L43.4131 44.1549L44 44.8614L43.3974 45.5574C42.9618 46.0607 42.4674 46.504 41.9193 46.8881C41.3575 47.2821 40.731 47.6161 40.0473 47.8903C39.3908 48.1537 38.6422 48.3599 37.8823 48.4831C37.1284 48.6056 36.3409 48.6552 35.5895 48.6107L34.5472 48.5487L34.0249 47.9203L26.8167 39.2452L26.2233 38.5309L26.8401 37.8264Z" fill="white"/>
<path d="M15.1017 33.0744L15.8539 32.4155L15.8539 32.4155L15.1017 33.0744ZM19.1598 37.7074L18.4076 38.3663L18.4076 38.3663L19.1598 37.7074ZM19.7768 38.4119L20.5291 37.753L21.0912 38.3948L20.5459 39.051L19.7768 38.4119ZM19.1832 39.1263L18.414 38.4872L18.4141 38.4872L19.1832 39.1263ZM11.9751 47.8013L11.2058 47.1623L11.2059 47.1622L11.9751 47.8013ZM11.453 48.4297L12.2222 49.0687L11.9452 49.4023L11.5123 49.428L11.453 48.4297ZM10.4104 48.4917L10.4697 49.4899L10.4696 49.4899L10.4104 48.4917ZM8.11759 48.3641L8.27761 47.377L8.27776 47.377L8.11759 48.3641ZM5.9526 47.7713L5.58029 48.6994L5.58026 48.6994L5.9526 47.7713ZM4.08053 46.7691L4.65459 45.9503L4.65467 45.9503L4.08053 46.7691ZM2.60248 45.4385L3.35857 44.784L3.3586 44.784L2.60248 45.4385ZM2 44.7424L1.24391 45.3969L0.688951 44.7558L1.23075 44.1035L2 44.7424ZM2.58681 44.036L1.81756 43.397L1.81766 43.3969L2.58681 44.036ZM11.6673 33.1069L10.8982 32.4679L10.8982 32.4679L11.6673 33.1069ZM13.3531 31.0781L12.584 30.439L13.333 29.5375L14.1053 30.4192L13.3531 31.0781ZM15.1318 38.4489L15.884 37.79L16.4462 38.4317L15.9009 39.088L15.1318 38.4489ZM13.4393 36.5168L12.6701 35.8777L13.4192 34.9762L14.1915 35.8579L13.4393 36.5168ZM6.6868 44.6439L6.06457 45.4268L5.26456 44.7909L5.91764 44.0049L6.6868 44.6439ZM6.91251 44.8122L7.48564 43.9927L7.4865 43.9933L6.91251 44.8122ZM7.9396 45.3685L8.31176 44.4404L8.31204 44.4405L7.9396 45.3685ZM9.02523 45.6568L8.86806 46.6444L8.86533 46.6439L9.02523 45.6568ZM9.12939 45.6728L9.89853 46.3119L9.54166 46.7414L8.98881 46.6628L9.12939 45.6728ZM31.9474 31.0106L31.1845 30.3641L31.1846 30.364L31.9474 31.0106ZM27.5412 36.2098L26.7783 35.5633L26.7784 35.5632L27.5412 36.2098ZM25.8318 38.2272L26.5948 38.8737L25.8374 39.7676L25.0735 38.8791L25.8318 38.2272ZM24.1068 36.2206L23.3485 36.8726L23.3484 36.8725L24.1068 36.2206ZM23.0546 34.9887L22.2927 34.341L23.0548 33.4446L23.8166 34.3412L23.0546 34.9887ZM22.0736 36.1369L21.3152 35.4851L21.3153 35.485L22.0736 36.1369ZM20.3922 38.0935L21.1506 38.7453L20.4069 39.6106L19.6466 38.7599L20.3922 38.0935ZM18.6627 36.1585L17.9171 36.825L17.9171 36.8249L18.6627 36.1585ZM14.1418 31.1004L13.3962 31.7668L13.3961 31.7667L14.1418 31.1004ZM13.5171 30.4014L12.7715 31.0677L12.2032 30.4318L12.7414 29.7703L13.5171 30.4014ZM14.1027 29.6816L13.327 29.0505L13.3272 29.0503L14.1027 29.6816ZM16.4271 26.8979L17.2146 26.2816L17.7215 26.9294L17.1837 27.5517L16.4271 26.8979ZM8.47538 15.7336L9.32478 15.2058L9.32479 15.2059L8.47538 15.7336ZM4.2421 7.03986L3.28025 7.31342L3.28024 7.3134L4.2421 7.03986ZM3.11695 3.08362L2.15509 3.35717L1.46288 0.923241L3.63195 2.22643L3.11695 3.08362ZM7.51206 5.72423L6.99708 6.58144L6.99705 6.58142L7.51206 5.72423ZM15.3657 11.7554L16.0362 11.0135L16.0363 11.0135L15.3657 11.7554ZM23.0514 19.4155L23.7846 20.0955L23.0519 20.8854L22.3187 20.096L23.0514 19.4155ZM30.7757 11.7055L31.4466 12.447L31.4466 12.4471L30.7757 11.7055ZM38.6685 5.6404L38.1536 4.78319L38.6685 5.6404ZM43.0637 3.00001L42.5487 2.1428L44.7176 0.83984L44.0256 3.27353L43.0637 3.00001ZM41.9387 6.95602L42.9006 7.22955L42.9006 7.22963L41.9387 6.95602ZM37.6767 15.6831L36.8276 15.155L36.8276 15.1549L37.6767 15.6831ZM29.6873 26.8983L28.9317 27.5534L28.3918 26.9307L28.9 26.2817L29.6873 26.8983ZM29.7022 26.9155L30.4577 26.2604L30.4578 26.2605L29.7022 26.9155ZM31.963 29.6244L32.7386 28.9931L32.7386 28.9931L31.963 29.6244ZM32.531 30.3222L33.3066 29.6909L33.831 30.3352L33.2938 30.9688L32.531 30.3222ZM25.8156 32.7818L26.5785 33.4283L24.4616 35.9261L24.8216 32.6718L25.8156 32.7818ZM27.9208 30.2977L28.694 29.6636L29.2227 30.3082L28.6837 30.9442L27.9208 30.2977ZM26.3024 28.3815L25.5468 29.0366L27.0576 27.7261L26.3024 28.3815ZM26.2772 28.3499L25.8399 27.4505L26.5338 27.1132L27.0362 27.6988L26.2772 28.3499ZM26.2756 28.3506L25.521 29.0068L24.6645 28.022L25.8384 27.4513L26.2756 28.3506ZM26.2844 28.3608L27.039 27.7046L27.0401 27.7058L26.2844 28.3608ZM26.3024 28.3815L27.058 27.7266L27.3444 28.0569L27.2963 28.4915L26.3024 28.3815ZM24.7841 31.551L24.0167 32.1922L25.5505 30.9087L24.7841 31.551ZM25.8156 32.7818L26.582 32.1394L25.0505 33.4257L25.8156 32.7818ZM21.3264 31.551V32.551H19.1861L20.5593 30.9094L21.3264 31.551ZM23.0564 29.4827L22.2894 28.8411L23.057 27.9235L23.8239 28.8417L23.0564 29.4827ZM24.7841 31.551L25.5515 30.9099L26.9224 32.551H24.7841V31.551ZM20.3219 32.7485L21.0869 33.3925L19.5557 32.1059L20.3219 32.7485ZM21.3264 31.551L20.5602 30.9083L22.0934 32.1926L21.3264 31.551ZM19.967 28.191L19.2104 27.5372L20.7318 28.8352L19.967 28.191ZM18.1629 30.3327L18.9277 30.977L17.3893 29.699L18.1629 30.3327ZM20.4814 26.2597L19.4818 26.2314L19.5596 23.4781L21.2663 25.6401L20.4814 26.2597ZM21.0321 26.9573L21.817 26.3377L22.3287 26.9859L21.789 27.6109L21.0321 26.9573ZM20.4423 27.6404L21.1992 28.2939L19.3633 30.4203L19.4427 27.6121L20.4423 27.6404ZM12.1523 14.6355L11.3029 15.1633L12.9652 14.0531L12.1523 14.6355ZM20.4814 26.2597L21.2943 25.6772L19.6965 26.8793L20.4814 26.2597ZM10.6402 12.0744L9.76646 12.5607L11.5014 11.566L10.6402 12.0744ZM12.1523 14.6355L13.0134 14.1271L11.303 15.1633L12.1523 14.6355ZM12.2049 13.4516L12.8754 12.7097L11.5442 14.2023L12.2049 13.4516ZM10.6402 12.0744L9.97953 12.825L11.2901 11.3144L10.6402 12.0744ZM21.3626 22.7396L22.1042 22.0688L20.6505 23.4417L21.3626 22.7396ZM12.2049 13.4516L11.4929 14.1537L12.8754 12.7097L12.2049 13.4516ZM24.7423 22.7396V21.7396H26.9931L25.4844 23.4099L24.7423 22.7396ZM23.0535 24.6094L23.7956 25.2797L23.0539 26.1008L22.3118 25.2801L23.0535 24.6094ZM21.3626 22.7396L20.6209 23.4103L19.11 21.7396H21.3626V22.7396ZM33.9519 13.3909L33.281 12.6493L34.6642 14.0927L33.9519 13.3909ZM24.7423 22.7396L25.4547 23.4414L24.0003 22.0692L24.7423 22.7396ZM35.5519 11.982L34.902 11.222L36.2127 12.7326L35.5519 11.982ZM33.9519 13.3909L34.6127 14.1414L33.2808 12.6494L33.9519 13.3909ZM34.0155 14.585L34.8646 15.1133L33.1543 14.0767L34.0155 14.585ZM35.5519 11.982L34.6907 11.4737L36.4261 12.4675L35.5519 11.982ZM25.6301 26.2632L26.4147 26.8832L24.8178 25.6799L25.6301 26.2632ZM34.0155 14.585L33.2032 14.0017L34.8646 15.1132L34.0155 14.585ZM25.6692 27.644L26.6688 27.6157L26.7483 30.4275L24.9117 28.2969L25.6692 27.644ZM25.0796 26.96L24.3221 27.6129L23.7832 26.9876L24.2949 26.34L25.0796 26.96ZM25.6301 26.2632L24.8455 25.6432L26.5519 23.4836L26.6297 26.2349L25.6301 26.2632ZM32.5606 36.6358L31.8084 35.9769L32.5807 35.0952L33.3298 35.9967L32.5606 36.6358ZM30.8681 38.5679L30.099 39.2069L29.5537 38.5507L30.1159 37.9089L30.8681 38.5679ZM36.8705 45.7918L37.0106 46.7819L36.458 46.8601L36.1013 46.4309L36.8705 45.7918ZM36.9745 45.7758L37.1343 46.763L37.1329 46.7632L36.9745 45.7758ZM38.0603 45.4875L37.6879 44.5595L37.6883 44.5593L38.0603 45.4875ZM39.0875 44.9312L39.6617 45.7499L39.6614 45.7501L39.0875 44.9312ZM39.3131 44.7629L40.0823 44.1239L40.7354 44.91L39.9352 45.5458L39.3131 44.7629ZM30.8982 33.1934L30.146 32.5345L30.146 32.5344L30.8982 33.1934ZM32.647 31.1971L31.8948 30.5381L32.6672 29.6565L33.4162 30.5581L32.647 31.1971ZM34.3326 33.2259L33.5634 33.865L33.5634 33.865L34.3326 33.2259ZM43.4131 44.1549L44.1822 43.5159L44.1823 43.5159L43.4131 44.1549ZM44 44.8614L44.7692 44.2224L45.3112 44.8748L44.756 45.516L44 44.8614ZM43.3974 45.5574L42.6413 44.903L42.6414 44.9028L43.3974 45.5574ZM41.9193 46.8881L41.3452 46.0693L41.3454 46.0692L41.9193 46.8881ZM40.0473 47.8903L39.675 46.9622L39.6751 46.9622L40.0473 47.8903ZM37.8823 48.4831L37.722 47.496L37.7223 47.496L37.8823 48.4831ZM35.5895 48.6107L35.5303 49.6089L35.5302 49.6089L35.5895 48.6107ZM34.5472 48.5487L34.4879 49.547L34.0552 49.5213L33.7782 49.1879L34.5472 48.5487ZM34.0249 47.9203L33.2558 48.5594L33.2557 48.5593L34.0249 47.9203ZM26.8167 39.2452L26.0476 39.8843L26.0475 39.8842L26.8167 39.2452ZM26.2233 38.5309L25.4541 39.1699L24.9091 38.5138L25.471 37.8721L26.2233 38.5309ZM15.8539 32.4155L19.912 37.0486L18.4076 38.3663L14.3494 33.7332L15.8539 32.4155ZM19.912 37.0485L20.5291 37.753L19.0246 39.0708L18.4076 38.3663L19.912 37.0485ZM20.5459 39.051L19.9523 39.7654L18.4141 38.4872L19.0077 37.7728L20.5459 39.051ZM19.9523 39.7654L12.7442 48.4403L11.2059 47.1622L18.414 38.4872L19.9523 39.7654ZM12.7443 48.4402L12.2222 49.0687L10.6838 47.7908L11.2058 47.1623L12.7443 48.4402ZM11.5123 49.428L10.4697 49.4899L10.3511 47.4934L11.3937 47.4315L11.5123 49.428ZM10.4696 49.4899C9.63607 49.5394 8.77449 49.4838 7.95742 49.3512L8.27776 47.377C8.96819 47.489 9.68174 47.5331 10.3512 47.4934L10.4696 49.4899ZM7.95757 49.3512C7.12973 49.217 6.30935 48.9919 5.58029 48.6994L6.32491 46.8432C6.90875 47.0774 7.58591 47.2648 8.27761 47.377L7.95757 49.3512ZM5.58026 48.6994C4.83224 48.3993 4.13694 48.03 3.50638 47.5878L4.65467 45.9503C5.1478 46.2961 5.70547 46.5947 6.32494 46.8432L5.58026 48.6994ZM3.50646 47.5879C2.89373 47.1583 2.33735 46.6602 1.84636 46.0929L3.3586 44.784C3.73865 45.2231 4.17179 45.6118 4.65459 45.9503L3.50646 47.5879ZM1.84639 46.0929L1.24391 45.3969L2.75609 44.088L3.35857 44.784L1.84639 46.0929ZM1.23075 44.1035L1.81756 43.397L3.35606 44.6749L2.76925 45.3814L1.23075 44.1035ZM1.81766 43.3969L10.8982 32.4679L12.4365 33.746L3.35597 44.675L1.81766 43.3969ZM10.8982 32.4679L12.584 30.439L14.1223 31.7172L12.4365 33.746L10.8982 32.4679ZM14.1053 30.4192L15.8539 32.4155L14.3494 33.7333L12.6009 31.737L14.1053 30.4192ZM14.3796 39.1078L12.6871 37.1757L14.1915 35.8579L15.884 37.79L14.3796 39.1078ZM14.2084 37.1559L7.45595 45.283L5.91764 44.0049L12.6701 35.8777L14.2084 37.1559ZM7.30902 43.8611C7.36588 43.9063 7.42477 43.9501 7.48564 43.9927L6.33937 45.6316C6.24626 45.5665 6.15456 45.4983 6.06457 45.4268L7.30902 43.8611ZM7.4865 43.9933C7.74591 44.1752 8.02184 44.3241 8.31176 44.4404L7.56744 46.2967C7.13564 46.1236 6.72419 45.9014 6.33852 45.631L7.4865 43.9933ZM8.31204 44.4405C8.53492 44.5299 8.83695 44.6133 9.18513 44.6697L8.86533 46.6439C8.40267 46.569 7.9534 46.4516 7.56716 46.2966L8.31204 44.4405ZM9.18241 44.6692C9.21857 44.675 9.24502 44.6792 9.26997 44.6827L8.98881 46.6628C8.94445 46.6566 8.9014 46.6497 8.86806 46.6444L9.18241 44.6692ZM8.36025 45.0337L14.3627 37.8098L15.9009 39.088L9.89853 46.3119L8.36025 45.0337ZM32.7103 31.6572L28.3041 36.8563L26.7784 35.5632L31.1845 30.3641L32.7103 31.6572ZM28.3042 36.8562L26.5948 38.8737L25.0689 37.5808L26.7783 35.5633L28.3042 36.8562ZM25.0735 38.8791L23.3485 36.8726L24.8651 35.5687L26.5901 37.5753L25.0735 38.8791ZM23.3484 36.8725C23.0335 36.5061 22.6805 36.0927 22.2926 35.6363L23.8166 34.3412C24.2026 34.7954 24.5532 35.2058 24.8652 35.5688L23.3484 36.8725ZM23.8165 35.6364C23.4539 36.063 23.125 36.4478 22.832 36.7887L21.3153 35.485C21.6056 35.1473 21.9321 34.7653 22.2927 34.341L23.8165 35.6364ZM22.8321 36.7886L21.1506 38.7453L19.6337 37.4417L21.3152 35.4851L22.8321 36.7886ZM19.6466 38.7599L17.9171 36.825L19.4083 35.4921L21.1378 37.4271L19.6466 38.7599ZM17.9171 36.8249L13.3962 31.7668L14.8874 30.434L19.4083 35.4921L17.9171 36.8249ZM13.3961 31.7667L12.7715 31.0677L14.2628 29.735L14.8874 30.434L13.3961 31.7667ZM12.7414 29.7703L13.327 29.0505L14.8784 30.3127L14.2928 31.0325L12.7414 29.7703ZM13.3272 29.0503C14.5853 27.5047 14.9497 27.0781 15.6705 26.244L17.1837 27.5517C16.477 28.3696 16.1253 28.781 14.8783 30.3129L13.3272 29.0503ZM15.6396 27.5142C12.3339 23.29 9.65374 19.5251 7.62598 16.2613L9.32479 15.2059C11.3031 18.39 13.9377 22.0942 17.2146 26.2816L15.6396 27.5142ZM7.62599 16.2614C5.44837 12.7566 3.97354 9.75103 3.28025 7.31342L5.20395 6.76629C5.82284 8.9423 7.18658 11.7645 9.32478 15.2058L7.62599 16.2614ZM3.28024 7.3134L2.15509 3.35717L4.07881 2.81007L5.20396 6.7663L3.28024 7.3134ZM3.63195 2.22643L8.02706 4.86705L6.99705 6.58142L2.60195 3.94081L3.63195 2.22643ZM8.02703 4.86703C10.4475 6.32114 13.1186 8.37652 16.0362 11.0135L14.6952 12.4973C11.8369 9.91397 9.2711 7.94758 6.99708 6.58144L8.02703 4.86703ZM16.0363 11.0135C18.4327 13.1797 21.0161 15.7547 23.7841 18.7349L22.3187 20.096C19.5805 17.1479 17.0389 14.6158 14.6951 12.4972L16.0363 11.0135ZM22.3182 18.7354C25.1066 15.7292 27.7025 13.1374 30.1048 10.964L31.4466 12.4471C29.0974 14.5724 26.5434 17.1211 23.7846 20.0955L22.3182 18.7354ZM30.1048 10.964C33.0365 8.31123 35.7206 6.24482 38.1536 4.78319L39.1835 6.4976C36.8973 7.87104 34.3188 9.84818 31.4466 12.447L30.1048 10.964ZM38.1536 4.78319L42.5487 2.1428L43.5787 3.85722L39.1835 6.49761L38.1536 4.78319ZM44.0256 3.27353L42.9006 7.22955L40.9769 6.6825L42.1018 2.72649L44.0256 3.27353ZM42.9006 7.22963C42.2091 9.6604 40.724 12.6776 38.5259 16.2113L36.8276 15.1549C38.9877 11.6824 40.3604 8.84958 40.9769 6.68241L42.9006 7.22963ZM38.5259 16.2112C36.4699 19.5171 33.7765 23.2989 30.4746 27.5149L28.9 26.2817C32.1727 22.1032 34.8206 18.3819 36.8276 15.155L38.5259 16.2112ZM30.4428 26.2432L30.4577 26.2604L28.9467 27.5706L28.9317 27.5534L30.4428 26.2432ZM30.4578 26.2605C31.1148 27.0184 31.3908 27.3373 32.7386 28.9931L31.1875 30.2557C29.8505 28.6131 29.5879 28.3104 28.9466 27.5705L30.4578 26.2605ZM32.7386 28.9931L33.3066 29.6909L31.7554 30.9534L31.1875 30.2556L32.7386 28.9931ZM33.2938 30.9688L32.7102 31.6573L31.1846 30.364L31.7682 29.6755L33.2938 30.9688ZM25.0527 32.1352L27.1579 29.6511L28.6837 30.9442L26.5785 33.4283L25.0527 32.1352ZM27.1476 30.9318C26.4188 30.0431 26.1159 29.693 25.5468 29.0366L27.058 27.7265C27.6339 28.3908 27.9496 28.7558 28.694 29.6636L27.1476 30.9318ZM27.0576 27.7261C27.1004 27.7754 27.1151 27.7919 27.1049 27.7809C27.1026 27.7785 27.0973 27.7728 27.0904 27.7656C27.0869 27.762 27.0809 27.7559 27.0732 27.7484C27.0676 27.7428 27.0513 27.7269 27.0294 27.7078C27.0189 27.6988 26.9967 27.6797 26.9669 27.6577C26.9574 27.6507 26.8656 27.5801 26.7307 27.5284C26.6396 27.4984 26.3686 27.4622 26.1914 27.4789C25.9168 27.5723 25.51 27.957 25.4049 28.2116C25.3773 28.3695 25.3849 28.6166 25.4022 28.7022C25.4159 28.7522 25.4442 28.8329 25.4572 28.864C25.4824 28.9213 25.5075 28.9634 25.516 28.9777C25.5278 28.9972 25.5378 29.0124 25.5437 29.0211C25.5555 29.0386 25.5654 29.052 25.5696 29.0577C25.5789 29.0702 25.5864 29.0797 25.5888 29.0827C25.5921 29.0869 25.5948 29.0902 25.5962 29.092C25.5991 29.0955 25.6012 29.0981 25.6017 29.0987C25.603 29.1003 25.6015 29.0985 25.5941 29.0897C25.5808 29.0741 25.5569 29.0461 25.5182 29.001L27.0362 27.6988C27.0751 27.7442 27.1013 27.7748 27.1174 27.7937C27.1246 27.8022 27.1327 27.8117 27.1392 27.8196C27.141 27.8218 27.1442 27.8255 27.1479 27.8301C27.1497 27.8323 27.1527 27.836 27.1563 27.8406C27.1589 27.8439 27.1666 27.8536 27.176 27.8663C27.1804 27.8722 27.1903 27.8856 27.2021 27.9032C27.208 27.912 27.2181 27.9272 27.2299 27.9467C27.2384 27.961 27.2635 28.0031 27.2887 28.0604C27.3017 28.0915 27.33 28.1723 27.3437 28.2222C27.361 28.3079 27.3687 28.555 27.3411 28.7129C27.2359 28.9675 26.8291 29.3521 26.5545 29.4456C26.3773 29.4622 26.1063 29.426 26.0152 29.396C25.8803 29.3444 25.7885 29.2737 25.779 29.2667C25.7492 29.2447 25.7269 29.2257 25.7165 29.2166C25.6945 29.1974 25.6781 29.1815 25.6724 29.1759C25.6647 29.1683 25.6586 29.1621 25.655 29.1584C25.6479 29.151 25.6423 29.145 25.6397 29.1423C25.6195 29.1205 25.5691 29.0622 25.5471 29.0369L27.0576 27.7261ZM26.7144 29.2492L26.7128 29.25L25.8384 27.4513L25.8399 27.4505L26.7144 29.2492ZM27.0302 27.6944L27.039 27.7046L25.5298 29.017L25.521 29.0068L27.0302 27.6944ZM27.0401 27.7058L27.058 27.7266L25.5467 29.0365L25.5287 29.0157L27.0401 27.7058ZM27.2963 28.4915L26.8095 32.8917L24.8216 32.6718L25.3084 28.2716L27.2963 28.4915ZM25.5514 30.9098C25.9676 31.4078 26.3081 31.8139 26.5807 32.1379L25.0505 33.4257C24.7759 33.0994 24.4339 32.6914 24.0167 32.1922L25.5514 30.9098ZM25.0492 33.4241L24.0176 32.1933L25.5505 30.9087L26.582 32.1394L25.0492 33.4241ZM20.5593 30.9094L22.2894 28.8411L23.8235 30.1244L22.0934 32.1926L20.5593 30.9094ZM23.8239 28.8417L25.5515 30.9099L24.0166 32.1921L22.289 30.1238L23.8239 28.8417ZM24.7841 32.551H21.3264V30.551H24.7841V32.551ZM19.5568 32.1045C19.8184 31.7938 20.1533 31.3948 20.5593 30.9094L22.0934 32.1926C21.6862 32.6794 21.35 33.0799 21.0869 33.3925L19.5568 32.1045ZM22.0925 32.1936L21.088 33.3912L19.5557 32.1059L20.5602 30.9083L22.0925 32.1936ZM18.9085 29.6664L21.0675 32.0822L19.5763 33.4149L17.4173 30.9991L18.9085 29.6664ZM19.5763 33.4149L17.4173 30.9991L18.9085 29.6664L21.0675 32.0822L19.5763 33.4149ZM20.7237 28.8448C20.0952 29.5721 19.7773 29.94 18.9365 30.9664L17.3893 29.699C18.245 28.6545 18.5751 28.2723 19.2104 27.5372L20.7237 28.8448ZM17.3981 29.6885L19.2022 27.5467L20.7318 28.8352L18.9277 30.977L17.3981 29.6885ZM21.1993 28.2939L20.724 28.8445L19.2101 27.5375L19.6854 26.9869L21.1993 28.2939ZM19.2101 27.5375L19.6854 26.9869L21.1993 28.2939L20.724 28.8445L19.2101 27.5375ZM21.2663 25.6401L21.817 26.3377L20.2472 27.5769L19.6965 26.8793L21.2663 25.6401ZM21.789 27.6109L21.1992 28.2939L19.6854 26.9869L20.2752 26.3038L21.789 27.6109ZM19.4427 27.6121L19.4818 26.2314L21.481 26.288L21.4419 27.6687L19.4427 27.6121ZM13.0017 14.1077C15.0485 17.402 17.8087 21.2602 21.2663 25.6401L19.6965 26.8793C16.2095 22.4622 13.4015 18.5408 11.3029 15.1633L13.0017 14.1077ZM19.6685 26.8421L11.3395 15.2179L12.9652 14.0531L21.2943 25.6772L19.6685 26.8421ZM11.514 11.5881C11.9567 12.3834 12.4523 13.2236 13.0017 14.1077L11.303 15.1633C10.7385 14.255 10.2264 13.3871 9.76646 12.5607L11.514 11.5881ZM11.2912 15.1439L9.77913 12.5828L11.5014 11.566L13.0134 14.1271L11.2912 15.1439ZM11.5344 14.1935C11.0078 13.7176 10.4933 13.2645 9.99035 12.8344L11.2901 11.3144C11.8083 11.7574 12.3366 12.2228 12.8754 12.7097L11.5344 14.1935ZM11.301 11.3237L12.8657 12.701L11.5442 14.2023L9.97953 12.825L11.301 11.3237ZM20.6209 23.4104C17.2984 19.7365 14.2695 16.6654 11.5344 14.1935L12.8754 12.7097C15.6736 15.2386 18.7506 18.3606 22.1042 22.0688L20.6209 23.4104ZM12.917 12.7495L22.0747 22.0375L20.6505 23.4417L11.4929 14.1537L12.917 12.7495ZM25.4844 23.4099L23.7956 25.2797L22.3114 23.9391L24.0002 22.0693L25.4844 23.4099ZM22.3118 25.2801L20.6209 23.4103L22.1043 22.0689L23.7952 23.9386L22.3118 25.2801ZM21.3626 21.7396H24.7423V23.7396H21.3626V21.7396ZM34.6227 14.1324C31.8649 16.6274 28.8188 19.7188 25.4844 23.4099L24.0003 22.0692C27.366 18.3435 30.4601 15.2012 33.281 12.6493L34.6227 14.1324ZM24.0299 22.0378L33.2395 12.6891L34.6642 14.0927L25.4547 23.4414L24.0299 22.0378ZM36.2018 12.7421C35.6875 13.1818 35.1612 13.6451 34.6229 14.1323L33.2808 12.6494C33.8323 12.1503 34.3727 11.6746 34.902 11.222L36.2018 12.7421ZM33.291 12.6403L34.891 11.2315L36.2127 12.7326L34.6127 14.1414L33.291 12.6403ZM33.1664 14.0567C33.7252 13.1585 34.2287 12.3049 34.6776 11.4965L36.4261 12.4675C35.9594 13.308 35.4388 14.1902 34.8646 15.1133L33.1664 14.0567ZM36.413 12.4904L34.8766 15.0933L33.1543 14.0767L34.6907 11.4737L36.413 12.4904ZM24.8456 25.6431C28.349 21.2098 31.1276 17.334 33.1664 14.0568L34.8646 15.1132C32.7735 18.4746 29.9466 22.4138 26.4147 26.8832L24.8456 25.6431ZM34.8278 15.1682L26.4424 26.8464L24.8178 25.6799L33.2032 14.0017L34.8278 15.1682ZM24.9117 28.2969L24.3221 27.6129L25.837 26.3071L26.4266 26.9911L24.9117 28.2969ZM24.2949 26.34L24.8455 25.6432L26.4148 26.8831L25.8642 27.5799L24.2949 26.34ZM26.6297 26.2349L26.6688 27.6157L24.6696 27.6722L24.6305 26.2914L26.6297 26.2349ZM25.5195 29.0025L24.9115 28.2966L26.4269 26.9914L27.0349 27.6973L25.5195 29.0025ZM26.4269 26.9914L27.0349 27.6973L25.5195 29.0025L24.9115 28.2966L26.4269 26.9914ZM33.3128 37.2947L31.6203 39.2268L30.1159 37.9089L31.8084 35.9769L33.3128 37.2947ZM31.6372 37.9288L37.6396 45.1527L36.1013 46.4309L30.099 39.2069L31.6372 37.9288ZM36.7304 44.8016C36.755 44.7982 36.7815 44.794 36.8161 44.7884L37.1329 46.7632C37.0986 46.7687 37.0556 46.7756 37.0106 46.7819L36.7304 44.8016ZM36.8148 44.7886C37.1631 44.7323 37.4649 44.649 37.6879 44.5595L38.4327 46.4156C38.0465 46.5706 37.5975 46.688 37.1343 46.763L36.8148 44.7886ZM37.6883 44.5593C37.9781 44.4431 38.2538 44.2943 38.5136 44.1122L39.6614 45.7501C39.2756 46.0204 38.8644 46.2426 38.4324 46.4158L37.6883 44.5593ZM38.5133 44.1125C38.575 44.0692 38.6345 44.0249 38.691 43.98L39.9352 45.5458C39.8451 45.6175 39.7535 45.6855 39.6617 45.7499L38.5133 44.1125ZM38.5439 45.402L31.7915 37.2749L33.3298 35.9967L40.0823 44.1239L38.5439 45.402ZM26.0879 37.1676L30.146 32.5345L31.6505 33.8522L27.5923 38.4853L26.0879 37.1676ZM30.146 32.5344L31.8948 30.5381L33.3992 31.856L31.6504 33.8523L30.146 32.5344ZM33.4162 30.5581L35.1018 32.5869L33.5634 33.865L31.8779 31.8361L33.4162 30.5581ZM35.1017 32.5869L44.1822 43.5159L42.6439 44.794L33.5634 33.865L35.1017 32.5869ZM44.1823 43.5159L44.7692 44.2224L43.2308 45.5004L42.6439 44.7939L44.1823 43.5159ZM44.756 45.516L44.1534 46.212L42.6414 44.9028L43.244 44.2069L44.756 45.516ZM44.1536 46.2118C43.6626 46.7791 43.1065 47.2772 42.4932 47.707L41.3454 46.0692C41.8283 45.7307 42.2611 45.3422 42.6413 44.903L44.1536 46.2118ZM42.4934 47.7068C41.863 48.149 41.1677 48.5184 40.4195 48.8185L39.6751 46.9622C40.2944 46.7138 40.8519 46.4152 41.3452 46.0693L42.4934 47.7068ZM40.4196 48.8184C39.6905 49.1109 38.8703 49.336 38.0423 49.4702L37.7223 47.496C38.4141 47.3838 39.0911 47.1964 39.675 46.9622L40.4196 48.8184ZM38.0427 49.4701C37.2251 49.603 36.3636 49.6583 35.5303 49.6089L35.6487 47.6124C36.3182 47.6521 37.0316 47.6082 37.722 47.496L38.0427 49.4701ZM35.5302 49.6089L34.4879 49.547L34.6065 47.5505L35.6488 47.6124L35.5302 49.6089ZM33.7782 49.1879L33.2558 48.5594L34.7939 47.2811L35.3163 47.9096L33.7782 49.1879ZM33.2557 48.5593L26.0476 39.8843L27.5859 38.6061L34.794 47.2812L33.2557 48.5593ZM26.0475 39.8842L25.4541 39.1699L26.9925 37.8919L27.5859 38.6062L26.0475 39.8842ZM25.471 37.8721L26.0877 37.1677L27.5925 38.4852L26.9757 39.1896L25.471 37.8721Z" fill="white" mask="url(#path-3-outside-1)"/>
<path fill-rule="evenodd" clip-rule="evenodd" d="M8.10815 26.9681L22.9667 9.09892L37.8253 26.9681L22.9667 44.8374L8.10815 26.9681Z" fill="white"/>
<path fill-rule="evenodd" clip-rule="evenodd" d="M25.5535 35.1952L30.2516 30.533C19.5007 17.141 12.5017 10.5884 6.17871 6.74471C7.50497 11.556 12.2193 19.0012 20.3212 29.0787C21.8738 31.0095 23.7519 33.0706 25.5535 35.1952Z" fill="white"/>
<path fill-rule="evenodd" clip-rule="evenodd" d="M28.1475 38.0674L34.4764 36.1676L41.6839 44.8429C41.2101 45.5457 40.3061 46.1841 39.3666 46.5611C38.3297 46.977 37.122 47.2051 35.7536 47.222L28.1475 38.0674Z" fill="white"/>
<path d="M29.5254 37.2555L32.943 34.7743L42.2163 44.4839C41.8156 45.0782 41.0513 45.6178 40.2572 45.9366C39.3804 46.2883 38.3595 46.4811 37.2023 46.4955L29.5254 37.2555ZM26.4336 34.1364L30.341 30.4481C20.6344 18.357 14.5365 11.8355 8.82764 8.36509C10.025 12.7094 14.7223 19.6838 22.0253 28.7869C23.0978 30.1243 23.3303 30.4413 24.094 31.3524C24.3315 31.6358 26.0517 33.6891 26.4336 34.1364Z" fill="url(#paint0_linear)"/>
<path fill-rule="evenodd" clip-rule="evenodd" d="M27.0117 33.5908L28.5316 32.4328C25.452 28.5969 19.4511 21.9258 17.6096 20.6955C18.2746 22.4115 22.8131 28.4474 25.1335 31.3337C25.578 31.8865 26.4958 32.9822 27.0117 33.5908Z" fill="#111135"/>
<path d="M31.0868 30.6576L26.6806 35.8568L25.8259 36.8656L24.9635 35.8623C19.3155 29.2902 14.8204 23.5435 11.5283 18.7204C8.17711 13.8109 6.0584 9.83788 5.22383 6.90418L4.66113 4.92596L6.85894 6.24637C9.5838 7.88339 12.699 10.3626 16.2035 13.6839C19.6789 16.9778 23.5534 21.1143 27.8256 26.0927C28.022 26.3217 28.4872 26.8583 28.8451 27.2715C29.5134 28.0424 29.7906 28.3621 31.0946 29.9645L31.3786 30.3135L31.0868 30.6576ZM25.8162 34.1445L29.0737 30.3009C28.0741 29.076 27.7762 28.7322 27.1321 27.989C26.9741 27.8066 26.8081 27.6156 26.1126 26.8049C21.8773 21.8699 18.0368 17.7695 14.5921 14.5048C12.2054 12.2427 10.0153 10.3881 8.02262 8.94142C9.09587 11.4453 10.8741 14.5216 13.3356 18.1279C16.4364 22.6708 20.6108 28.0374 25.8162 34.1445Z" fill="#111135"/>
<path fill-rule="evenodd" clip-rule="evenodd" d="M34.4346 45.6127C34.7041 45.9775 34.9522 46.3544 34.9522 46.3544C37.1251 45.6035 38.4687 44.8916 39.0967 44.4127C38.1707 44.4883 36.5789 44.8235 34.4346 45.6127Z" fill="#111135"/>
<path fill-rule="evenodd" clip-rule="evenodd" d="M33.3027 44.2869C33.5722 44.6518 33.8207 45.0286 33.8207 45.0286C35.9935 44.2778 37.3369 43.5657 37.9649 43.087C37.0392 43.1626 35.447 43.4978 33.3027 44.2869Z" fill="#111135"/>
<path fill-rule="evenodd" clip-rule="evenodd" d="M32.1714 42.9613C32.4408 43.3262 32.6892 43.703 32.6892 43.703C34.862 42.9522 36.2054 42.2402 36.8337 41.7613C35.9077 41.8369 34.3158 42.1722 32.1714 42.9613Z" fill="#111135"/>
<path fill-rule="evenodd" clip-rule="evenodd" d="M31.0393 41.6357C31.3087 42.0005 31.5571 42.3774 31.5571 42.3774C33.7298 41.6266 35.0735 40.9146 35.7015 40.4358C34.7755 40.5114 33.1833 40.8466 31.0393 41.6357Z" fill="#111135"/>
<path fill-rule="evenodd" clip-rule="evenodd" d="M29.907 40.31C30.1764 40.6749 30.4247 41.0517 30.4247 41.0517C32.5974 40.3009 33.9411 39.5889 34.5691 39.11C33.6434 39.1856 32.0512 39.5209 29.907 40.31Z" fill="#111135"/>
<path fill-rule="evenodd" clip-rule="evenodd" d="M28.7759 38.9842C29.0453 39.3491 29.2936 39.726 29.2936 39.726C31.4665 38.9752 32.81 38.2632 33.4382 37.7843C32.512 37.8599 30.92 38.1951 28.7759 38.9842Z" fill="#111135"/>
<path d="M32.5824 35.2737L29.7069 38.5564L36.3366 46.5353C36.6227 46.5263 36.9147 46.4969 37.2015 46.4503C37.696 46.3702 38.1647 46.2434 38.5574 46.086C38.9983 45.9091 39.4128 45.6865 39.7955 45.418C40.0512 45.2389 40.2912 45.0398 40.5146 44.8204L32.5824 35.2737ZM27.693 38.1855L31.7511 33.5524L32.6254 32.5545L33.4681 33.5689L42.5486 44.4979L42.8422 44.8512L42.5408 45.1991C42.1481 45.6529 41.7029 46.052 41.2115 46.3966C40.7098 46.7483 40.1539 47.0452 39.5507 47.2872C38.982 47.5153 38.3264 47.6952 37.6555 47.8039C37.0006 47.9102 36.3191 47.9536 35.6717 47.9152L35.1505 47.8842L34.8895 47.57L27.6814 38.895L27.3845 38.5377L27.693 38.1855Z" fill="#111135"/>
<path d="M6.37866 26.2723L21.2372 8.40316L22.9662 6.3239L24.6952 8.40316L39.5539 26.2723L40.1327 26.968L39.5539 27.664L24.6952 45.5331L22.9662 47.6124L21.2372 45.5331L6.37866 27.664L5.80005 26.968L6.37866 26.2723ZM22.9662 11.874L10.415 26.968L22.9662 42.0623L35.5172 26.968L22.9662 11.874Z" fill="#111135"/>
<path fill-rule="evenodd" clip-rule="evenodd" d="M25.5527 35.1952C23.9916 33.3897 23.2112 32.4869 23.2112 32.4869C24.2209 30.5443 25.7586 28.8287 27.8242 27.3403C29.4254 29.3182 30.2259 30.307 30.2259 30.307C27.1104 33.5659 25.5527 35.1952 25.5527 35.1952Z" fill="#111135"/>
<path fill-rule="evenodd" clip-rule="evenodd" d="M15.8396 30.3642L20.3605 35.4224C31.6753 22.2567 38.3458 12.4145 39.975 6.68738C34.6416 9.8913 27.7198 16.4505 19.2114 26.3651C17.5811 28.2649 17.5868 28.2176 15.8396 30.3642Z" fill="white"/>
<path fill-rule="evenodd" clip-rule="evenodd" d="M13.3956 33.7951L17.4536 38.428L10.2456 47.1032C9.13271 47.1692 7.88513 46.9444 6.94556 46.5676C5.90866 46.1516 5.02073 45.539 4.31519 44.7239L13.3956 33.7951Z" fill="white"/>
<path d="M13.6218 35.9926L17.0529 39.9097L10.9587 47.2442C10.0178 47.3001 8.963 47.11 8.16869 46.7913C7.29201 46.4397 6.5413 45.9219 5.94482 45.2327L13.6218 35.9926ZM17.382 30.8555L21.219 35.3211C31.4346 23.4343 37.8082 14.2626 39.2788 9.09204C34.4637 11.9846 28.108 18.2938 20.4264 27.2449C18.9544 28.9601 18.9596 28.9175 17.382 30.8555Z" fill="url(#paint1_linear)"/>
<path d="M17.0012 30.347L20.3429 34.0861C25.5581 27.9685 29.7401 22.5932 32.845 18.0443C35.3067 14.438 37.0847 11.3614 38.1579 8.85757C36.1653 10.3043 33.9759 12.1588 31.5889 14.4206C28.1439 17.6857 24.3033 21.7861 20.0682 26.7211C19.6668 27.1888 19.3643 27.5388 19.1108 27.8322C18.4035 28.6506 18.0783 29.0271 17.0012 30.347ZM19.5119 35.7893L14.991 30.7311L14.6785 30.3815L14.9713 30.0216C16.2877 28.4043 16.6127 28.0282 17.3976 27.12C17.6512 26.8265 17.9538 26.4765 18.355 26.0088C22.6275 21.0305 26.5018 16.8939 29.9775 13.5999C33.482 10.2788 36.5971 7.79933 39.3218 6.16253L41.5196 4.84233L40.9569 6.82034C40.1224 9.75404 38.0035 13.727 34.6521 18.6368C31.3602 23.4597 26.8651 29.2064 21.2171 35.7784L20.3766 36.7567L19.5119 35.7893Z" fill="#111135"/>
<path fill-rule="evenodd" clip-rule="evenodd" d="M17.8413 31.5344L19.1362 32.9833C22.3773 29.212 27.6912 22.2651 28.3034 20.5419C26.4974 21.8 21.2442 27.5492 18.8072 30.3888C18.3404 30.9329 18.3417 30.9196 17.8413 31.5344Z" fill="#111135"/>
<path fill-rule="evenodd" clip-rule="evenodd" d="M21.8933 39.0968C21.7747 34.2942 18.2758 30.0234 12.4646 27.7746C18.7504 35.3228 21.8933 39.0968 21.8933 39.0968Z" fill="#111135"/>
<path fill-rule="evenodd" clip-rule="evenodd" d="M24.127 39.1071C24.2455 34.3045 27.7444 30.0336 33.5556 27.7849C27.2698 35.3331 24.127 39.1071 24.127 39.1071Z" fill="#111135"/>
<path fill-rule="evenodd" clip-rule="evenodd" d="M21.2476 16.5084L22.9672 14.4402L24.687 16.5084L22.9672 18.5765L21.2476 16.5084Z" fill="#111135"/>
<path d="M22.9652 45.2365L18.3078 39.3435L22.9701 43.8712L27.6225 39.3435L22.9652 45.2365ZM22.9652 8.69497L18.3078 14.5881L22.9701 10.0602L27.6225 14.5881L22.9652 8.69497ZM38.4004 26.9565L34.6266 22.8949L37.1664 26.9611L34.6266 31.0184L38.4004 26.9565ZM7.59058 26.9565L11.3644 22.8949L8.82467 26.9611L11.3644 31.0184L7.59058 26.9565Z" fill="url(#paint2_linear)"/>
<path d="M14.2481 33.4335L18.3063 38.0666L18.6148 38.4188L18.3179 38.7761L11.1098 47.4511L10.8488 47.7653L10.3275 47.7963C9.6802 47.8347 8.99852 47.7913 8.34379 47.685C7.67302 47.5763 7.01729 47.3964 6.4487 47.1683C5.84527 46.9263 5.28952 46.6294 4.78791 46.2777C4.29646 45.9331 3.85126 45.534 3.45847 45.0802L3.15723 44.7323L3.45063 44.379L12.5312 33.45L13.374 32.4356L14.2481 33.4335ZM16.2923 38.4375L13.4169 35.1548L5.48478 44.7015C5.70817 44.9209 5.9482 45.12 6.20378 45.2991C6.58654 45.5675 7.00077 45.7902 7.44204 45.9671C7.83459 46.1245 8.3034 46.2512 8.79766 46.3314C9.08448 46.3781 9.3764 46.4074 9.66272 46.4164L16.2923 38.4375Z" fill="#111135"/>
<path fill-rule="evenodd" clip-rule="evenodd" d="M5.66185 43.1254C5.34178 43.47 4.99634 43.8079 4.99634 43.8079C7.01847 44.74 8.57767 45.1926 9.48851 45.3311C8.9313 44.8117 7.71741 44.0213 5.66185 43.1254Z" fill="#111135"/>
<path fill-rule="evenodd" clip-rule="evenodd" d="M6.74852 41.7816C6.42855 42.1262 6.08301 42.4641 6.08301 42.4641C8.10514 43.3962 9.66434 43.8488 10.5752 43.9872C10.018 43.4679 8.80421 42.6774 6.74852 41.7816Z" fill="#111135"/>
<path fill-rule="evenodd" clip-rule="evenodd" d="M7.83421 40.4377C7.51424 40.7822 7.1687 41.1201 7.1687 41.1201C9.19083 42.0522 10.7499 42.5048 11.6607 42.6433C11.1037 42.1239 9.88978 41.3335 7.83421 40.4377Z" fill="#111135"/>
<path fill-rule="evenodd" clip-rule="evenodd" d="M8.921 39.0938C8.60106 39.4384 8.25562 39.7762 8.25562 39.7762C10.2777 40.7084 11.8367 41.161 12.7475 41.2994C12.1905 40.7801 10.9766 39.9896 8.921 39.0938Z" fill="#111135"/>
<path fill-rule="evenodd" clip-rule="evenodd" d="M10.0071 37.75C9.687 38.0945 9.34155 38.4324 9.34155 38.4324C11.3637 39.3645 12.9228 39.8171 13.8336 39.9556C13.2764 39.4362 12.0626 38.6458 10.0071 37.75Z" fill="#111135"/>
<path fill-rule="evenodd" clip-rule="evenodd" d="M11.0932 36.406C10.7732 36.7505 10.4277 37.0884 10.4277 37.0884C12.4499 38.0205 14.0089 38.4731 14.9199 38.6116C14.3626 38.0922 13.1488 37.3018 11.0932 36.406Z" fill="#111135"/>
<path fill-rule="evenodd" clip-rule="evenodd" d="M11.0396 33.2689L17.6688 41.2413L17.6809 39.219L13.7371 34.1842L11.0396 33.2689Z" fill="#111135"/>
<defs>
<linearGradient id="paint0_linear" x1="8.82764" y1="27.4303" x2="42.2167" y2="27.4303" gradientUnits="userSpaceOnUse">
<stop stop-color="#B978FF"/>
<stop offset="1" stop-color="#346FFF"/>
</linearGradient>
<linearGradient id="paint1_linear" x1="-16.7745" y1="49.0225" x2="39.7625" y2="-12.9589" gradientUnits="userSpaceOnUse">
<stop stop-color="#2E6FFF"/>
<stop offset="0.34375" stop-color="#7574FF"/>
<stop offset="1" stop-color="#BD79FF"/>
</linearGradient>
<linearGradient id="paint2_linear" x1="22.552" y1="37.7319" x2="22.9806" y2="16.1907" gradientUnits="userSpaceOnUse">
<stop stop-color="#2A6FFF"/>
<stop offset="1" stop-color="#BB79FF"/>
</linearGradient>
</defs>
</svg>
