<svg width="24" height="16" viewBox="0 0 24 16" fill="none" xmlns="http://www.w3.org/2000/svg"><path d="M9.735 8.623L2.4 15.743a.925.925 0 01-1.28 0l-.856-.83a.861.861 0 01-.001-1.242L6.076 8 .264 2.33a.861.861 0 01.002-1.242l.855-.83a.925.925 0 011.28 0l7.334 7.12c.353.343.353.9 0 1.244z" fill="#FFAF7A"/><path d="M14.265 8.622l7.334 7.121a.925.925 0 001.28 0l.856-.83a.861.861 0 00.001-1.242L17.924 8l5.812-5.67a.861.861 0 00-.001-1.242l-.856-.83a.925.925 0 00-1.28 0l-7.334 7.12a.861.861 0 000 1.243z" fill="#7A9EFF"/></svg>