<svg width="24" height="16" viewBox="0 0 24 16" fill="none" xmlns="http://www.w3.org/2000/svg">
<rect x="16.9999" y="3.00067" width="10" height="3" rx="1.5" transform="rotate(90 16.9999 3.00067)" fill="#AF7AFF"/>
<rect x="23.9999" y="0.000671387" width="16" height="3" rx="1.5" transform="rotate(90 23.9999 0.000671387)" fill="#AF7AFF"/>
<path d="M9.73471 8.62263L2.40119 15.7432C2.04763 16.0865 1.47408 16.0865 1.12052 15.7432L0.265098 14.9126C-0.0880879 14.5696 -0.0884646 14.0142 0.263589 13.6705L6.07569 8.00085L0.263967 2.33086C-0.0884645 1.98718 -0.0877091 1.43173 0.265477 1.08878L1.1209 0.258156C1.47446 -0.0851581 2.04801 -0.0851581 2.40157 0.258156L9.73471 7.37908C10.0883 7.72239 10.0883 8.27932 9.73471 8.62263Z" fill="white"/>
</svg>
