<svg width="20" height="20" viewBox="0 0 20 20" fill="none" xmlns="http://www.w3.org/2000/svg">
<path d="M16.6667 4.99984H14.1667V3.33317C14.1667 2.414 13.4192 1.6665 12.5 1.6665H7.50002C6.58085 1.6665 5.83335 2.414 5.83335 3.33317V4.99984H3.33335C2.41419 4.99984 1.66669 5.74734 1.66669 6.6665V9.99984H5.83335V8.33317H7.50002V9.99984H12.5V8.33317H14.1667V9.99984H18.3334V6.6665C18.3334 5.74734 17.5859 4.99984 16.6667 4.99984ZM7.50002 3.33317H12.5V4.99984H7.50002V3.33317ZM14.1667 12.4998H12.5V10.8332H7.50002V12.4998H5.83335V10.8332H1.66669V15.8332C1.66669 16.7523 2.41419 17.4998 3.33335 17.4998H16.6667C17.5859 17.4998 18.3334 16.7523 18.3334 15.8332V10.8332H14.1667V12.4998Z" fill="#868EBE"/>
</svg>
