<svg width="20" height="20" viewBox="0 0 20 20" fill="none" xmlns="http://www.w3.org/2000/svg">
<path d="M9.99998 8.33317C13.3133 8.33317 16.6666 7.18817 16.6666 4.99984C16.6666 2.8115 13.3133 1.6665 9.99998 1.6665C6.68665 1.6665 3.33331 2.8115 3.33331 4.99984C3.33331 7.18817 6.68665 8.33317 9.99998 8.33317Z" fill="#868EBE"/>
<path d="M3.33331 8.33317C3.33331 10.5215 6.68665 11.6665 9.99998 11.6665C13.3133 11.6665 16.6666 10.5215 16.6666 8.33317V6.6665C16.6666 8.85484 13.3133 9.99984 9.99998 9.99984C6.68665 9.99984 3.33331 8.85484 3.33331 6.6665V8.33317Z" fill="#868EBE"/>
<path d="M3.33331 11.6667C3.33331 13.855 6.68665 15 9.99998 15C13.3133 15 16.6666 13.855 16.6666 11.6667V10C16.6666 12.1883 13.3133 13.3333 9.99998 13.3333C6.68665 13.3333 3.33331 12.1883 3.33331 10V11.6667Z" fill="#868EBE"/>
<path d="M3.33331 15.0002C3.33331 17.1885 6.68665 18.3335 9.99998 18.3335C13.3133 18.3335 16.6666 17.1885 16.6666 15.0002V13.3335C16.6666 15.5218 13.3133 16.6668 9.99998 16.6668C6.68665 16.6668 3.33331 15.5218 3.33331 13.3335V15.0002Z" fill="#868EBE"/>
</svg>
