<svg width="20" height="20" viewBox="0 0 20 20" fill="none" xmlns="http://www.w3.org/2000/svg">
<path d="M12.5 9.1665H18.3333V10.8332H12.5V9.1665ZM13.3333 12.4998H18.3333V14.1665H13.3333V12.4998ZM11.6666 5.83317H18.3333V7.49984H11.6666V5.83317ZM3.33329 15.8332H9.99996H10.8333H11.6666V14.9998C11.6666 12.7023 9.79746 10.8332 7.49996 10.8332H5.83329C3.53579 10.8332 1.66663 12.7023 1.66663 14.9998V15.8332H2.49996H3.33329ZM6.66663 9.99984C8.32913 9.99984 9.58329 8.74567 9.58329 7.08317C9.58329 5.42067 8.32913 4.1665 6.66663 4.1665C5.00413 4.1665 3.74996 5.42067 3.74996 7.08317C3.74996 8.74567 5.00413 9.99984 6.66663 9.99984Z" fill="#868EBE"/>
</svg>
