<svg width="20" height="20" viewBox="0 0 20 20" fill="none" xmlns="http://www.w3.org/2000/svg">
<path d="M4.16669 9.99984H3.33335V16.6665C3.33335 17.5865 4.08002 18.3332 5.00002 18.3332H9.16669V9.99984H5.00002H4.16669ZM15 9.99984H10.8334V18.3332H15C15.92 18.3332 16.6667 17.5865 16.6667 16.6665V9.99984H15.8334H15ZM15.6592 5.83317C15.7684 5.49067 15.8334 5.07984 15.8334 4.58317C15.8334 2.97484 14.525 1.6665 12.9167 1.6665C11.565 1.6665 10.6625 2.9015 10.08 4.23734C9.50585 2.97484 8.55752 1.6665 7.08335 1.6665C5.47502 1.6665 4.16669 2.97484 4.16669 4.58317C4.16669 5.07984 4.23252 5.49067 4.34085 5.83317H1.66669V9.1665H9.16669V7.49984H10H10.8334V7.57567V9.1665H18.3334V5.83317H15.6592ZM5.83335 4.58317C5.83335 3.894 6.39419 3.33317 7.08335 3.33317C7.82335 3.33317 8.51169 4.604 8.91502 5.83317H6.66669C6.35502 5.83317 5.83335 5.83317 5.83335 4.58317ZM12.9167 3.33317C13.6059 3.33317 14.1667 3.894 14.1667 4.58317C14.1667 5.83317 13.645 5.83317 13.3334 5.83317H11.2692C11.6942 4.51984 12.3117 3.33317 12.9167 3.33317Z" fill="#868EBE"/>
</svg>
