<svg width="19" height="20" viewBox="0 0 19 20" fill="none" xmlns="http://www.w3.org/2000/svg">
<path d="M8.64854 9.16678H6.23271C6.23271 9.16428 6.23271 9.16178 6.23354 9.15928C6.28771 8.89345 6.36937 8.63095 6.47604 8.37845C6.58104 8.13095 6.71021 7.89262 6.86021 7.67012C7.00854 7.45012 7.18021 7.24262 7.36854 7.05345C7.55771 6.86512 7.76521 6.69345 7.98687 6.54428C8.20854 6.39428 8.44604 6.26595 8.69354 6.16095C8.94521 6.05428 9.20771 5.97262 9.47521 5.91845C10.0235 5.80595 10.606 5.80595 11.1569 5.91845C11.4219 5.97262 11.6852 6.05428 11.9377 6.16095C12.1844 6.26512 12.4219 6.39512 12.646 6.54512C12.8677 6.69428 13.0744 6.86512 13.261 7.05262L14.441 5.87595C14.1794 5.61262 13.8877 5.37262 13.5777 5.16345C13.2669 4.95345 12.9335 4.77178 12.5877 4.62512C12.2335 4.47512 11.8644 4.36095 11.4919 4.28512C10.7227 4.12762 9.90937 4.12762 9.14271 4.28512C8.76854 4.36178 8.39937 4.47595 8.04604 4.62595C7.69687 4.77262 7.36354 4.95345 7.05354 5.16345C6.74521 5.37095 6.45521 5.61095 6.19021 5.87512C5.92521 6.13928 5.68604 6.43012 5.47937 6.73762C5.26937 7.04845 5.08771 7.38178 4.94104 7.72928C4.79104 8.08262 4.67687 8.45178 4.60104 8.82512C4.57771 8.93762 4.56521 9.05262 4.54854 9.16678H1.98187L5.31521 12.5001L8.64854 9.16678ZM11.9819 10.8335H14.3977C14.3969 10.836 14.3977 10.8385 14.3969 10.8401C14.3419 11.1101 14.2602 11.3726 14.1535 11.6218C14.051 11.866 13.9219 12.1043 13.771 12.3285C13.6219 12.5485 13.4502 12.7568 13.2602 12.9468C13.0727 13.1343 12.866 13.3051 12.6444 13.4551C12.421 13.6051 12.1835 13.7343 11.9369 13.8393C11.6844 13.946 11.4219 14.0276 11.1552 14.0818C10.6077 14.1943 10.0244 14.1943 9.47437 14.0818C9.20854 14.0276 8.94604 13.946 8.69354 13.8393C8.44604 13.7343 8.20771 13.6051 7.98521 13.4551C7.76521 13.3068 7.55771 13.1351 7.36854 12.9468L6.19021 14.1251C6.45437 14.3893 6.74521 14.6293 7.05271 14.8368C7.36354 15.0468 7.69687 15.2285 8.04437 15.3751C8.39771 15.5251 8.76687 15.6393 9.14021 15.7151C9.52437 15.7935 9.91937 15.8335 10.3152 15.8335C10.711 15.8335 11.106 15.7935 11.4885 15.7151C11.8627 15.6393 12.2327 15.5243 12.586 15.3743C12.9319 15.2276 13.2652 15.0468 13.576 14.8368C13.886 14.6276 14.1777 14.3868 14.4385 14.1251C14.7027 13.861 14.9427 13.5701 15.151 13.261C15.3627 12.9468 15.5444 12.6135 15.6885 12.2718C15.8369 11.9218 15.951 11.5526 16.0285 11.1751C16.051 11.0626 16.0644 10.9476 16.081 10.8335H18.6485L15.3152 7.50012L11.9819 10.8335Z" fill="#868EBE"/>
</svg>
