<svg width="20" height="20" viewBox="0 0 20 20" fill="none" xmlns="http://www.w3.org/2000/svg">
<path d="M6.4965 10C6.4965 11.9327 8.0687 13.5049 10.0014 13.5049C11.9341 13.5049 13.5063 11.9327 13.5063 10C13.5063 8.0673 11.9341 6.4951 10.0014 6.4951C8.0687 6.4951 6.4965 8.0673 6.4965 10ZM9.3 14.9H10.7V17H9.3V14.9ZM9.3 3H10.7V5.1H9.3V3ZM3 9.3H5.1V10.7H3V9.3ZM14.9 9.3H17V10.7H14.9V9.3Z" fill="#868EBE"/>
<path d="M5.54599 15.4449L4.55606 14.455L6.04101 12.9701L7.03094 13.96L5.54599 15.4449Z" fill="#868EBE"/>
<path d="M12.9696 6.04048L14.455 4.55504L15.4449 5.54497L13.9595 7.03042L12.9696 6.04048Z" fill="#868EBE"/>
<path d="M6.04061 7.03098L4.55613 5.54561L5.54637 4.55596L7.03086 6.04132L6.04061 7.03098Z" fill="#868EBE"/>
<path d="M15.4444 14.4545L14.4545 15.4445L12.9691 13.9591L13.959 12.9691L15.4444 14.4545Z" fill="#868EBE"/>
</svg>
