<svg width="24" height="24" viewBox="0 0 24 24" fill="none" xmlns="http://www.w3.org/2000/svg">
<path d="M0.68092 1.42993L3.38285 7.10399C3.7448 7.86408 5.15044 8.09112 5.86637 7.64821C6.55632 7.22136 7.37429 6.80454 8.13148 6.49685C8.88501 6.19065 9.34331 5.08063 8.87054 4.41876L6.0134 0.418762C5.82569 0.155966 5.52262 0 5.19967 0H1.58378C0.848779 0 0.364918 0.766328 0.68092 1.42993Z" fill="#FFB3B3"/>
<path d="M23.3191 1.42993L20.6171 7.10399C20.2552 7.86408 18.8496 8.09112 18.1336 7.64821C17.4437 7.22136 16.6257 6.80454 15.8685 6.49685C15.115 6.19065 14.6567 5.08063 15.1295 4.41876L17.9866 0.418762C18.1743 0.155966 18.4774 0 18.8003 0H22.4162C23.1512 0 23.6351 0.766328 23.3191 1.42993Z" fill="#FFB3B3"/>
<circle cx="12" cy="16" r="7" stroke="#FFB3B3" stroke-width="2"/>
<path d="M11.5708 12.2783L11.5378 12.3484C10.948 13.5976 9.7754 14.4715 8.40973 14.6796C8.01795 14.7389 7.86094 15.2435 8.14505 15.5326C9.13843 16.5439 9.58963 17.9686 9.35959 19.3674L9.35178 19.4149C9.28449 19.8258 9.6987 20.1336 10.0456 19.9414C11.2628 19.273 12.7372 19.273 13.9544 19.9414C14.3013 20.132 14.7155 19.8258 14.6482 19.4149L14.6404 19.3674C14.4104 17.9686 14.8616 16.5439 15.8549 15.5326C16.1391 15.2435 15.982 14.7389 15.5903 14.6796C14.2246 14.4715 13.052 13.5976 12.4622 12.3484L12.4292 12.2783C12.2542 11.9096 11.7473 11.9049 11.5708 12.2783Z" fill="#FFB3B3"/>
</svg>
