<svg width="24" height="22" viewBox="0 0 24 22" fill="none" xmlns="http://www.w3.org/2000/svg"><path fill-rule="evenodd" clip-rule="evenodd" d="M12 22c2.704 0 5.18-.976 7.096-2.595.432-.365.414-1.02-.002-1.405-.397-.366-1.009-.348-1.428-.008A8.962 8.962 0 0112 20a8.963 8.963 0 01-5.669-2.01c-.419-.34-1.031-.358-1.428.008-.415.384-.434 1.04-.002 1.405A10.956 10.956 0 0012 22zM4.906 4c-.416-.384-.435-1.04-.003-1.405A10.956 10.956 0 0112 0c2.705 0 5.183.977 7.099 2.597.432.365.413 1.02-.003 1.404-.397.367-1.009.348-1.428.008A8.963 8.963 0 0012 1.999c-2.148 0-4.12.753-5.667 2.008-.419.34-1.03.359-1.427-.007z" fill="#3A3A5E"/><rect width="10" height="2" rx="1" transform="matrix(0 -1 -1 0 13 16)" fill="#3A3A5E"/><path d="M23 15.787V6.215l-5.76 4.786L23 15.787zm-22 0V6.215l5.759 4.786-5.76 4.786z" stroke="#3A3A5E" stroke-width="2"/></svg>