<svg width="22" height="28" viewBox="0 0 22 28" fill="none" xmlns="http://www.w3.org/2000/svg"><path d="M10.5 9a9 9 0 100 18 9 9 0 000-18z" stroke="#3A3A5E" stroke-width="2"/><path d="M13.233 4.544l.164.987-.164-.987zM11.5 9V7.77h-2V9h2zm2.27-3.5H17v-2h-3.23v2zm-.373.03c.124-.02.249-.03.374-.03v-2c-.236 0-.47.02-.702.058l.328 1.973zM11.5 7.77a2.27 2.27 0 011.897-2.24l-.328-1.972A4.27 4.27 0 009.5 7.771h2z" fill="#3A3A5E"/><path d="M6.5 17v1a4 4 0 004 4h1" stroke="#3A3A5E" stroke-width="2" stroke-linecap="round" stroke-linejoin="round"/><circle cx="18" cy="4.5" fill="#3A3A5E" r="1.5"/><mask id="path-5-outside-1" maskUnits="userSpaceOnUse" x="13.5" y="0" width="9" height="9" fill="#000"><path fill="#fff" d="M13.5 0h9v9h-9z"/><path fill-rule="evenodd" clip-rule="evenodd" d="M18 6a1.5 1.5 0 100-3 1.5 1.5 0 000 3zm.677-1.653l-.136.153.136.153.434.488-.64-.131-.2-.041-.065.194-.206.62-.206-.62-.065-.194-.2.04-.64.132.434-.488.136-.153-.136-.153-.434-.488.64.131.2.041.065-.194.206-.62.206.62.065.194.2-.041.64-.131-.434.488z"/></mask><path d="M18.541 4.5l-.747-.664-.59.664.59.664.747-.664zm.136-.153l-.747-.665.747.665zm0 .306l.748-.664-.748.664zm.434.488l-.201.98 2.945.605-1.997-2.249-.747.664zm-.64-.131l.202-.98-.201.98zm-.2-.041l.2-.98-.869-.179-.28.843.949.316zm-.065.194l-.949-.315.949.315zm-.206.62l-.949.315.95 2.854.948-2.854L18 5.782zm-.206-.62l.95-.315-.95.315zm-.065-.194l.95-.316-.28-.843-.87.18.2.979zm-.2.04l-.202-.979.201.98zm-.64.132l-.747-.664-1.997 2.249 2.946-.605-.202-.98zm.434-.488l.747.664-.747-.664zm.136-.153l.748.664.59-.664-.59-.664-.748.664zm-.136-.153l-.748.664.748-.664zm-.434-.488l.202-.98-2.946-.605 1.997 2.249.747-.664zm.64.131l-.202.98.201-.98zm.2.041l-.2.98.87.178.28-.842-.95-.316zm.065-.194l.95.315-.95-.315zm.206-.62l.949-.315L18 .048l-.949 2.854.95.315zm.206.62l.949-.316-.95.316zm.065.194l-.95.316.281.842.87-.178-.201-.98zm.2-.041l-.2-.98.2.98zm.64-.131l.747.664 1.997-2.249-2.945.605.2.98zm-.611.64a.5.5 0 01-.5.5v2a2.5 2.5 0 002.5-2.5h-2zM18 4a.5.5 0 01.5.5h2A2.5 2.5 0 0018 2v2zm-.5.5A.5.5 0 0118 4V2a2.5 2.5 0 00-2.5 2.5h2zm.5.5a.5.5 0 01-.5-.5h-2A2.5 2.5 0 0018 7V5zm1.289.165l.136-.153-1.495-1.329-.136.154 1.495 1.328zm.136-1.175l-.136-.153-1.495 1.328.136.153 1.495-1.328zm.433.488l-.433-.488-1.495 1.328.433.488 1.495-1.328zM18.27 5.99l.64.132.402-1.96-.64-.13-.402 1.958zm-.2-.04l.2.04.403-1.959-.201-.04-.402 1.958zm1.085-.47l.065-.195-1.898-.63-.065.194 1.898.63zm-.206.619l.206-.62-1.898-.63-.206.619 1.898.631zm-2.104-.62l.206.62 1.898-.631-.206-.62-1.898.632zm-.064-.194l.064.195 1.898-.631-.065-.195-1.898.631zm.949.705l.2-.04-.402-1.96-.2.041.402 1.96zm-.64.132l.64-.132-.403-1.959-.639.132.403 1.959zm-.515-2.132l-.433.488 1.495 1.328.433-.488-1.495-1.328zm.136-.153l-.136.153 1.495 1.328.137-.153-1.496-1.328zm-.136 1.175l.136.153 1.496-1.328-.137-.153-1.495 1.328zm-.433-.488l.433.488 1.495-1.329-.433-.487-1.495 1.328zM17.73 3.01l-.64-.13-.402 1.958.64.132.402-1.96zm.2.042l-.2-.042-.403 1.96.201.04.403-1.958zm-1.085.469l-.064.195 1.897.63.065-.194-1.898-.631zm.206-.62l-.206.62 1.898.631.206-.619-1.898-.631zm2.104.62l-.206-.62-1.898.632.206.62 1.898-.632zm.065.195l-.065-.195-1.898.631.065.195 1.898-.631zm-.95-.706l-.2.042.402 1.959.2-.041-.402-1.96zm.64-.13l-.64.13.403 1.96.639-.132-.402-1.959zm.515 2.13l.433-.487-1.495-1.328-.433.488 1.495 1.328z" fill="#3A3A5E" mask="url(#path-5-outside-1)"/></svg>