<svg width="25" height="20" viewBox="0 0 25 20" fill="none" xmlns="http://www.w3.org/2000/svg"><path fill-rule="evenodd" clip-rule="evenodd" d="M5.744 10a3.25 3.25 0 00-2.769-3.215V3a1 1 0 011-1h11v2.975a1 1 0 102 0V2h5a1 1 0 011 1v3.785a3.25 3.25 0 000 6.43V17a1 1 0 01-1 1h-5v-3.025a1 1 0 10-2 0V18h-11a1 1 0 01-1-1v-3.785A3.25 3.25 0 005.745 10zM.975 3v4.365c0 .765.62 1.385 1.385 1.385h.134a1.25 1.25 0 110 2.5H2.36c-.765 0-1.385.62-1.385 1.385V17a3 3 0 003 3h18a3 3 0 003-3v-4.365c0-.765-.62-1.385-1.385-1.385h-.134a1.25 1.25 0 110-2.5h.134c.765 0 1.385-.62 1.385-1.385V3a3 3 0 00-3-3h-18a3 3 0 00-3 3zm15 9a1 1 0 01-1-1V9a1 1 0 112 0v2a1 1 0 01-1 1z" fill="#3A3A5E"/></svg>