<svg width="24" height="24" viewBox="0 0 24 24" fill="none" xmlns="http://www.w3.org/2000/svg"><g clip-path="url(#clip0)"><path fill-rule="evenodd" clip-rule="evenodd" d="M5.346 4.188C6.708 2.84 9.066 2.08 12.322 2.82v2.12l-5.62 5.62-2.815.41c-.658-3.165.118-5.456 1.459-6.782zm8.976-2.16v3.74l-2.244 2.245 1.479 1.479 2.23-2.23a1.052 1.052 0 111.488 1.486l-2.23 2.23 1.486 1.488-2.23 2.23-1.488-1.486-10.41 10.41a1.052 1.052 0 11-1.488-1.487l10.41-10.41h.001l-1.479-1.48-2.2 2.2-4.395.64a.961.961 0 01-1.073-.68C-.124 4.158 5.36-1.28 13.632 1.094c.413.118.69.504.69.934zm7.389 10.207c.739 3.256-.022 5.615-1.369 6.977-1.325 1.34-3.616 2.117-6.782 1.459l.41-2.815 5.62-5.62h2.12zm-2.949-2h3.741c.43 0 .816.277.935.691 2.373 8.272-3.065 13.756-11.312 11.453a.961.961 0 01-.68-1.074l.64-4.394 6.676-6.676z" fill="#3A3A5E"/></g><defs><clipPath id="clip0"><path fill="#fff" d="M0 0h24v24H0z"/></clipPath></defs></svg>