<svg width="23" height="23" viewBox="0 0 23 23" fill="none" xmlns="http://www.w3.org/2000/svg"><circle r="4" transform="matrix(-1 0 0 1 11.5 12)" stroke="#3A3A5E" stroke-width="2"/><path fill-rule="evenodd" clip-rule="evenodd" d="M15.75 2.612a.913.913 0 011.128-.21A10.997 10.997 0 0122.5 12c0 6.075-4.925 11-11 11S.5 18.075.5 12c0-4.123 2.268-7.716 5.624-9.6a.913.913 0 011.128.21c.444.501.256 1.294-.32 1.634a9 9 0 109.139.001c-.576-.34-.765-1.133-.321-1.633z" fill="#3A3A5E"/><path d="M14.175 0H8.826c-.29 0-.435.42-.23.666l2.675 3.22a.287.287 0 00.46 0l2.674-3.22c.203-.247.06-.666-.23-.666z" fill="#3A3A5E"/></svg>