<svg width="270" height="270" viewBox="0 0 270 270" fill="none" xmlns="http://www.w3.org/2000/svg"><g clip-path="url(#clip0)"><circle cx="134.902" cy="134.904" r="127" transform="rotate(150 134.902 134.904)" stroke="#2E255B"/><mask id="mask0" maskUnits="userSpaceOnUse" x="-51" y="-51" width="372" height="372"><circle cx="134.903" cy="134.904" r="135.5" transform="rotate(150 134.903 134.904)" fill="#F9F9F9" stroke="#fff"/></mask><g mask="url(#mask0)"><circle cx="134.905" cy="134.902" r="135" transform="rotate(150 134.905 134.902)" fill="#fff"/><mask id="mask1" maskUnits="userSpaceOnUse" x="-50" y="-50" width="370" height="370"><circle cx="134.905" cy="134.903" r="135" transform="rotate(150 134.905 134.903)" fill="#fff"/></mask><g mask="url(#mask1)"><path d="M209.904 264.807a149.992 149.992 0 01-150 0l75-129.903 75 129.903z" fill="#4169E1"/><path d="M59.904 264.807a150.002 150.002 0 01-75-129.903h150l-75 129.903z" fill="#DBDB16"/><path d="M-15.096 134.904A150 150 0 0159.904 5l75 129.904h-150z" fill="#DB7916"/><path d="M59.904 5a150 150 0 01150 0l-75 129.904L59.904 5z" fill="#C71585"/><path d="M209.905 5a150.005 150.005 0 0175 129.904h-150L209.905 5z" fill="#8F46FF"/><path d="M284.904 134.904a150.001 150.001 0 01-75 129.904l-75-129.904h150z" fill="#DC143C"/></g></g><path d="M109.788 149.404c-8.008-13.871-3.256-31.607 10.615-39.615 13.87-8.008 31.606-3.256 39.615 10.615 8.008 13.87 3.255 31.606-10.615 39.615-13.871 8.008-31.607 3.255-39.615-10.615z" fill="#160B45"/><path d="M17.99 202.404C-19.29 137.834 2.833 55.269 67.403 17.99c64.569-37.279 147.134-15.156 184.413 49.414 37.28 64.569 15.156 147.134-49.413 184.413-64.57 37.279-147.134 15.156-184.413-49.413z" fill="url(#paint0_radial)"/><circle cx="134.902" cy="134.904" r="15" transform="rotate(60 134.902 134.904)" fill="url(#paint1_linear)" fill-opacity=".25"/><circle cx="134.904" cy="134.904" r="45.5" transform="rotate(150 134.904 134.904)" stroke="#1C1C40"/><path d="M234.47 79.025l-2.467 1.424 1.568 2.716-1.496.864-1.568-2.716-2.467 1.424-.816-1.413 2.467-1.424-1.568-2.716 1.496-.864 1.568 2.716 2.467-1.424.816 1.413zm-6.706 7.789a11.739 11.739 0 00-1.136 1.745 7.687 7.687 0 00-.761 2.01l-1.178.68-5.544-9.603 1.677-.968 4.248 7.358c.137-.338.342-.709.614-1.112.272-.403.549-.766.831-1.09l1.249.98zm-7.876 4.547a11.735 11.735 0 00-1.135 1.745 7.65 7.65 0 00-.761 2.01l-1.178.68-5.544-9.603 1.677-.968 4.248 7.358c.137-.338.342-.709.614-1.112.272-.404.549-.767.831-1.09l1.248.98zm-12.755-.322a3.955 3.955 0 01-.228-.33l-.128-.222a7.094 7.094 0 01-.747-1.934 8.533 8.533 0 01-.251-2.164l1.524-.4c.088.664.244 1.276.469 1.836a9.73 9.73 0 00.651 1.416c.064.111.148.247.254.408.096.166.172.288.23.366l-1.774 1.024zm-2.29 8.916c.067-.396.132-.816.196-1.26a22.162 22.162 0 00.173-2.742 16.07 16.07 0 00-.038-1.344l-2.563 1.48 2.232 3.866zm-.443 3.008l-3.424-5.93-1.081.624-.792-1.372 1.081-.624-1.328-2.3 1.635-.944 1.328 2.3 4.212-2.432.688 1.192c.05.513.074 1.12.074 1.823a36.691 36.691 0 01-.104 2.221c-.058.773-.146 1.55-.261 2.331a21.665 21.665 0 01-.435 2.191l-1.593.92zm-7.433 1.539c.067-.396.133-.816.197-1.26a22.595 22.595 0 00.172-2.741c.006-.459-.006-.908-.037-1.345l-2.564 1.48 2.232 3.866zm-.443 3.008l-3.424-5.93-1.081.624-.792-1.372 1.081-.624-1.328-2.3 1.635-.944 1.328 2.3 4.213-2.432.688 1.192c.049.513.074 1.12.073 1.823-.01.708-.044 1.448-.103 2.221-.059.773-.146 1.55-.262 2.331a21.4 21.4 0 01-.434 2.191l-1.594.92zm36.556 85.682l-2.467-1.424-1.568 2.716-1.496-.864 1.568-2.716-2.467-1.424.816-1.413 2.467 1.424 1.568-2.716 1.496.864-1.568 2.716 2.467 1.424-.816 1.413zm-10.098-1.913a11.727 11.727 0 00-2.08-.111 7.691 7.691 0 00-2.121.346l-1.178-.68 5.544-9.602 1.677.968-4.248 7.357c.361-.05.785-.058 1.27-.024.486.034.939.092 1.359.175l-.223 1.571zm-13.006-8.174c.192-.332.451-.62.776-.864a5.83 5.83 0 011.077-.616 8.998 8.998 0 011.238-.449c.437-.117.872-.23 1.303-.338.228-.053.49-.123.787-.21.297-.088.584-.18.863-.278.278-.098.531-.205.757-.32.222-.107.372-.217.45-.332l-4.268-2.464.816-1.413 6.111 3.528a2.408 2.408 0 01-.138.271l-.144.25c-.256.443-.56.809-.912 1.099a5.555 5.555 0 01-1.176.725c-.418.19-.852.345-1.304.466-.452.122-.901.238-1.347.35-.344.084-.677.169-.997.255a6.824 6.824 0 00-.871.292 3.615 3.615 0 00-.726.394 1.865 1.865 0 00-.515.571c-.277.48-.336.902-.176 1.265.16.364.438.66.836.889.258.15.52.251.784.305.264.054.514.081.748.081a3.89 3.89 0 00.627-.063c.188-.027.333-.054.435-.081l.152 1.658a5.26 5.26 0 01-1.87.103 4.805 4.805 0 01-1.891-.63c-1.025-.592-1.637-1.271-1.834-2.038-.213-.763-.076-1.565.409-2.406zm-.969-7.58c.072-.168.129-.289.172-.363l.128-.221a7.071 7.071 0 011.301-1.614 8.545 8.545 0 011.749-1.3l1.108 1.12a7.587 7.587 0 00-1.356 1.324c-.376.46-.676.884-.9 1.272-.064.111-.14.252-.226.424a4.277 4.277 0 00-.203.382l-1.773-1.024zm-8.866 2.474c.376-.14.772-.293 1.188-.459a22.775 22.775 0 002.461-1.221c.4-.225.782-.46 1.146-.706l-2.563-1.48-2.232 3.866zm-2.827 1.121l3.424-5.931-1.081-.624.792-1.372 1.081.624 1.328-2.3 1.635.944-1.328 2.3 4.212 2.432-.688 1.192c-.42.3-.934.625-1.542.976-.619.345-1.277.685-1.976 1.021-.698.335-1.415.648-2.149.939-.734.29-1.439.53-2.115.719l-1.593-.92zm-4.721-12.092c.23-.397.512-.727.848-.989a2.761 2.761 0 011.136-.527 3.365 3.365 0 011.375.018c.486.097.998.299 1.533.609.629.362 1.1.751 1.414 1.167.315.415.519.829.614 1.241.095.412.109.802.044 1.171a3.31 3.31 0 01-.359.975c-.16.277-.344.51-.551.698a2.942 2.942 0 01-.709.459 3.868 3.868 0 01-.791.282 4.756 4.756 0 01-.81.124c.254.541.389 1.044.404 1.508.001.468-.143.952-.431 1.451-.208.36-.475.662-.8.905-.34.247-.716.418-1.128.513a3.469 3.469 0 01-1.314.036 3.98 3.98 0 01-1.388-.506c-.545-.315-.962-.66-1.25-1.036-.297-.381-.494-.766-.59-1.154a2.607 2.607 0 01-.061-1.143c.065-.369.181-.696.346-.983a2.67 2.67 0 011.2-1.118 4.038 4.038 0 011.492-.376c-.375-.61-.579-1.184-.614-1.721-.044-.543.086-1.078.39-1.604zm4.94 2.741c.08-.139.137-.303.173-.492a1.317 1.317 0 00-.03-.589 1.925 1.925 0 00-.306-.621c-.156-.2-.386-.389-.69-.565a2.457 2.457 0 00-.785-.305 1.693 1.693 0 00-.667.003 1.521 1.521 0 00-.539.262c-.16.129-.289.276-.385.443a1.661 1.661 0 00-.239.767 1.63 1.63 0 00.155.754c.099.255.249.508.449.759.195.26.425.522.691.786.455-.02.873-.124 1.252-.311.374-.179.681-.476.921-.891zm-5.757 2.994a1.236 1.236 0 00-.141.436c-.039.175-.033.357.018.546.041.184.126.369.253.553.128.185.316.349.566.493.249.144.49.228.723.251.218.028.42.009.605-.057.181-.056.341-.142.482-.258.135-.106.243-.229.323-.367.203-.351.265-.758.188-1.222-.087-.469-.386-.974-.898-1.516a3.242 3.242 0 00-1.22.256c-.354.166-.654.461-.899.885zm-58.264 76.309v-2.848h-3.136v-1.728h3.136v-2.848h1.632v2.848h3.136v1.728h-3.136v2.848h-1.632zm-3.392-9.702a11.64 11.64 0 00-.944-1.856 7.638 7.638 0 00-1.36-1.664v-1.36h11.088v1.936h-8.496c.224.288.443.65.656 1.088.214.437.39.858.528 1.264l-1.472.592zm0-9.094a11.683 11.683 0 00-.944-1.856 7.662 7.662 0 00-1.36-1.664v-1.36h11.088v1.936h-8.496c.224.288.443.651.656 1.088.214.437.39.859.528 1.264l-1.472.592zm6.656-10.886c.182-.021.315-.032.4-.032h.256c.662 0 1.344.107 2.048.32a8.55 8.55 0 012 .864l-.416 1.52a7.584 7.584 0 00-1.824-.512 9.743 9.743 0 00-1.552-.144c-.128 0-.288.006-.48.016-.192 0-.336.006-.432.016v-2.048zm-6.576-6.441c.31.256.64.523.992.8a22.23 22.23 0 002.288 1.52c.395.235.79.448 1.184.64v-2.96H130.2zm-2.384-1.888h6.848v-1.248h1.584v1.248h2.656v1.888h-2.656v4.864h-1.376a18.877 18.877 0 01-1.616-.848 36.59 36.59 0 01-1.872-1.2 32.804 32.804 0 01-1.888-1.392 21.75 21.75 0 01-1.68-1.472v-1.84zm2.384-7.206c.31.256.64.523.992.8a22.23 22.23 0 002.288 1.52c.395.235.79.448 1.184.64v-2.96H130.2zm-2.384-1.888h6.848v-1.248h1.584v1.248h2.656v1.888h-2.656v4.864h-1.376a18.877 18.877 0 01-1.616-.848 35.272 35.272 0 01-3.76-2.592 21.54 21.54 0 01-1.68-1.472v-1.84zm-92.481-11.185l2.466-1.424-1.568-2.716 1.497-.864 1.568 2.716 2.466-1.424.816 1.413-2.466 1.424 1.568 2.716-1.497.864-1.568-2.716-2.466 1.424-.816-1.413zm6.706-7.788c.413-.522.792-1.104 1.135-1.746a7.66 7.66 0 00.761-2.01l1.178-.68 5.544 9.603-1.676.968-4.248-7.358a6.204 6.204 0 01-.615 1.112c-.272.403-.549.767-.83 1.089l-1.249-.978zm15.519-5.228c.933 1.616 1.355 3.029 1.265 4.239-.095 1.2-.665 2.102-1.708 2.705-1.044.602-2.11.645-3.197.127-1.093-.527-2.105-1.599-3.039-3.215-.464-.804-.8-1.558-1.01-2.262-.206-.719-.288-1.374-.247-1.964.05-.595.215-1.121.493-1.578a3.37 3.37 0 011.208-1.14c1.043-.603 2.112-.641 3.204-.114 1.087.518 2.098 1.585 3.031 3.202zm-1.732 1a12.76 12.76 0 00-.891-1.352 5.11 5.11 0 00-.925-.962c-.307-.254-.615-.415-.925-.482-.31-.068-.618-.013-.922.163-.305.176-.51.417-.616.725-.097.302-.117.652-.06 1.05.062.383.19.808.386 1.274.204.461.45.941.738 1.44.288.498.58.952.877 1.359.307.402.613.73.92.984.31.24.62.393.93.461.32.062.632.005.937-.171.304-.176.505-.415.602-.717.096-.302.114-.645.053-1.029a5.373 5.373 0 00-.38-1.296 12.72 12.72 0 00-.724-1.447zm6.844.002c.109.146.185.257.228.33l.128.222c.33.573.58 1.217.746 1.934.177.711.26 1.432.252 2.164l-1.524.4a7.577 7.577 0 00-.469-1.836 9.753 9.753 0 00-.651-1.416 8.814 8.814 0 00-.254-.408 4.349 4.349 0 00-.23-.366l1.774-1.024zm2.29-8.916c-.067.396-.133.816-.197 1.26a22.349 22.349 0 00-.172 2.741c-.006.459.007.908.038 1.345l2.563-1.48-2.232-3.866zm.443-3.008l3.424 5.93 1.08-.624.793 1.372-1.08.624 1.327 2.3-1.635.944-1.328-2.3-4.212 2.432-.688-1.191a18.959 18.959 0 01-.074-1.824c.01-.708.045-1.448.103-2.221.06-.773.146-1.55.262-2.331.115-.781.26-1.512.435-2.191l1.593-.92zm11.614-.313c.933 1.617 1.355 3.03 1.265 4.24-.096 1.2-.665 2.102-1.709 2.704-1.044.603-2.11.645-3.197.128-1.092-.527-2.105-1.599-3.038-3.216-.464-.803-.801-1.557-1.01-2.262-.206-.718-.288-1.373-.248-1.963.05-.596.215-1.122.494-1.578.287-.462.69-.842 1.207-1.141 1.044-.602 2.112-.64 3.205-.113 1.087.518 2.097 1.585 3.03 3.201zm-1.733 1a12.742 12.742 0 00-.89-1.351 5.145 5.145 0 00-.926-.963c-.307-.254-.615-.414-.925-.482-.31-.067-.617-.013-.922.163a1.32 1.32 0 00-.616.725c-.096.302-.116.652-.059 1.05.062.384.19.809.385 1.275.204.461.45.94.739 1.439.288.499.58.952.877 1.36.306.402.613.73.92.984.31.239.62.393.93.46.32.062.631.005.936-.171.305-.176.506-.415.602-.717.097-.302.114-.645.053-1.028a5.364 5.364 0 00-.379-1.296 12.812 12.812 0 00-.724-1.448zM36.725 76.614l2.467 1.424 1.568-2.716 1.496.864-1.568 2.716 2.466 1.424-.816 1.413-2.466-1.424-1.568 2.716-1.496-.864 1.568-2.716-2.467-1.424.816-1.413zm10.098 1.913a11.63 11.63 0 002.08.11 7.666 7.666 0 002.12-.345l1.178.68-5.544 9.603-1.676-.969 4.248-7.357c-.362.05-.785.058-1.27.024a11.049 11.049 0 01-1.36-.175l.224-1.57zm13.005 8.174a2.86 2.86 0 01-.776.864c-.32.234-.678.44-1.076.616a9.037 9.037 0 01-1.238.45c-.437.116-.872.229-1.304.337a17.26 17.26 0 00-1.65.489c-.277.098-.53.204-.757.32-.221.106-.371.216-.45.331l4.268 2.464-.816 1.413-6.11-3.528c.033-.079.079-.17.138-.27l.144-.25c.256-.444.56-.81.911-1.1a5.563 5.563 0 011.177-.725c.417-.19.852-.345 1.304-.466.451-.121.9-.238 1.347-.35.344-.084.677-.17.997-.255.32-.086.61-.183.87-.292.275-.112.517-.244.727-.394.215-.159.386-.35.514-.57.278-.481.336-.903.177-1.266-.16-.364-.439-.66-.836-.89a2.618 2.618 0 00-.784-.304 3.722 3.722 0 00-.748-.081 3.972 3.972 0 00-.628.063 3.943 3.943 0 00-.435.081l-.151-1.658a5.247 5.247 0 011.87-.102 4.78 4.78 0 011.89.63c1.026.591 1.637 1.27 1.835 2.038.212.763.076 1.564-.41 2.405zm.97 7.58a3.81 3.81 0 01-.172.363l-.128.221a7.042 7.042 0 01-1.302 1.614 8.527 8.527 0 01-1.748 1.3l-1.108-1.12a7.568 7.568 0 001.355-1.324c.377-.46.677-.884.9-1.272.065-.11.14-.252.227-.424a4.21 4.21 0 00.202-.382l1.774 1.024zm8.866-2.474c-.376.14-.773.293-1.189.459a22.575 22.575 0 00-2.46 1.221c-.4.225-.783.46-1.146.706l2.563 1.48 2.232-3.866zm2.827-1.12l-3.424 5.93 1.081.624-.792 1.372-1.08-.624-1.329 2.3-1.635-.944 1.328-2.3-4.212-2.432.688-1.192c.42-.3.933-.625 1.542-.976a36.14 36.14 0 011.975-1.02 32.953 32.953 0 012.15-.94 21.7 21.7 0 012.115-.719l1.593.92zm4.72 12.091a3.37 3.37 0 01-.848.989 2.758 2.758 0 01-1.135.527c-.421.089-.88.083-1.375-.018-.487-.096-.998-.299-1.534-.608-.628-.363-1.1-.752-1.413-1.168-.315-.415-.52-.829-.614-1.241a2.92 2.92 0 01-.044-1.171c.08-.373.199-.698.359-.975a2.9 2.9 0 01.55-.698 2.94 2.94 0 01.71-.46 3.92 3.92 0 01.79-.281 4.8 4.8 0 01.81-.124c-.253-.54-.388-1.043-.403-1.508 0-.468.143-.952.43-1.45.209-.36.475-.663.8-.906.34-.247.716-.418 1.128-.513a3.48 3.48 0 011.314-.036c.464.071.927.24 1.39.507.544.314.96.66 1.249 1.035.297.381.494.766.59 1.154.105.393.126.774.06 1.143-.065.369-.18.697-.345.983-.294.508-.694.88-1.2 1.118a4.042 4.042 0 01-1.492.376c.374.611.579 1.184.613 1.722.044.542-.086 1.077-.39 1.603zm-4.939-2.74c-.08.138-.138.302-.173.491-.035.189-.025.386.03.59.054.204.156.41.306.62.155.201.385.389.69.565.277.16.539.261.785.305.246.043.468.042.666-.003.205-.055.384-.142.54-.262a1.58 1.58 0 00.385-.442c.149-.259.229-.515.24-.767a1.64 1.64 0 00-.156-.755 2.94 2.94 0 00-.45-.758 7.207 7.207 0 00-.69-.787c-.456.02-.873.124-1.252.312-.374.178-.681.475-.921.891zm5.757-2.995a1.21 1.21 0 00.14-.436c.04-.175.034-.357-.017-.546a1.59 1.59 0 00-.254-.553 1.708 1.708 0 00-.565-.493 1.819 1.819 0 00-.723-.251 1.308 1.308 0 00-.606.057c-.18.056-.34.142-.481.258a1.287 1.287 0 00-.323.367c-.203.351-.266.759-.188 1.222.086.469.386.974.898 1.516.464-.015.871-.1 1.22-.256.354-.165.653-.46.899-.885zm58.263-76.308v2.848h3.136v1.728h-3.136v2.848h-1.632V25.31h-3.136v-1.728h3.136v-2.848h1.632zm3.392 9.701c.246.619.56 1.238.944 1.856.384.63.838 1.184 1.36 1.664v1.36H130.9V33.38h8.496a6.26 6.26 0 01-.656-1.088 11.172 11.172 0 01-.528-1.264l1.472-.592zm-3.232 16.054c-1.866 0-3.301-.341-4.304-1.024-.992-.683-1.488-1.627-1.488-2.832 0-1.205.496-2.15 1.488-2.832 1.003-.683 2.438-1.024 4.304-1.024.928 0 1.75.085 2.464.256.726.181 1.334.437 1.824.768.491.341.864.747 1.12 1.216a3.38 3.38 0 01.384 1.616c0 1.205-.501 2.15-1.504 2.832-.992.683-2.421 1.024-4.288 1.024zm0-2c.576 0 1.115-.032 1.616-.096.502-.064.934-.17 1.296-.32.374-.139.667-.325.88-.56.214-.235.32-.528.32-.88s-.106-.65-.32-.896c-.213-.235-.506-.427-.88-.576a5.636 5.636 0 00-1.296-.304c-.501-.053-1.04-.08-1.616-.08-.576 0-1.114.027-1.616.08a5.958 5.958 0 00-1.312.304c-.362.15-.65.341-.864.576a1.32 1.32 0 00-.32.896c0 .352.107.645.32.88.214.235.502.421.864.56.374.15.811.256 1.312.32.502.064 1.04.096 1.616.096zm-3.424 5.926a3.778 3.778 0 01-.4.032h-.256a7.047 7.047 0 01-2.048-.32 8.535 8.535 0 01-2-.864l.416-1.52a7.577 7.577 0 001.824.512 9.753 9.753 0 001.552.144c.128 0 .288-.005.48-.016.192 0 .336-.005.432-.016v2.048zm6.576 6.441a51.95 51.95 0 00-.992-.8 22.429 22.429 0 00-2.288-1.52 15.879 15.879 0 00-1.184-.64v2.96h4.464zm2.384 1.888h-6.848v1.248h-1.584v-1.248H130.9v-1.888h2.656v-4.864h1.376c.47.213 1.008.496 1.616.848a36.59 36.59 0 011.872 1.2c.64.437 1.27.901 1.888 1.392.619.49 1.179.981 1.68 1.472v1.84zm-5.536 10.214c-1.866 0-3.301-.341-4.304-1.024-.992-.683-1.488-1.627-1.488-2.832 0-1.205.496-2.15 1.488-2.832 1.003-.683 2.438-1.024 4.304-1.024.928 0 1.75.085 2.464.256.726.181 1.334.437 1.824.768.491.341.864.746 1.12 1.216a3.38 3.38 0 01.384 1.616c0 1.205-.501 2.15-1.504 2.832-.992.683-2.421 1.024-4.288 1.024zm0-2c.576 0 1.115-.032 1.616-.096a5.1 5.1 0 001.296-.32c.374-.139.667-.326.88-.56.214-.235.32-.528.32-.88s-.106-.65-.32-.896c-.213-.235-.506-.427-.88-.576a5.641 5.641 0 00-1.296-.304c-.501-.053-1.04-.08-1.616-.08-.576 0-1.114.026-1.616.08a5.964 5.964 0 00-1.312.304c-.362.15-.65.341-.864.576a1.32 1.32 0 00-.32.896c0 .352.107.645.32.88.214.234.502.421.864.56.374.15.811.256 1.312.32.502.064 1.04.096 1.616.096z" fill="#fff"/></g><defs><radialGradient id="paint0_radial" cx="0" cy="0" r="1" gradientUnits="userSpaceOnUse" gradientTransform="rotate(-120 106.395 28.509) scale(135)"><stop offset=".245" stop-color="#0E143F" stop-opacity="0"/><stop offset=".245" stop-color="#0E143F"/><stop offset=".917" stop-opacity="0"/><stop offset="1" stop-color="#16163A"/></radialGradient><linearGradient id="paint1_linear" x1="119.902" y1="134.904" x2="149.902" y2="149.904" gradientUnits="userSpaceOnUse"><stop stop-color="#BD79FF"/><stop offset="1" stop-color="#2E70FF" stop-opacity="0"/></linearGradient><clipPath id="clip0"><path fill="#fff" d="M0 0h270v270H0z"/></clipPath></defs></svg>