<svg width="13" height="18" viewBox="0 0 13 18" fill="none" xmlns="http://www.w3.org/2000/svg"><ellipse rx="5.6" ry="5.5" transform="matrix(0 -1 -1 0 5.5 12.4)" fill="#FF547C"/><path d="M7 4.865l-.167-.986.167.986zM6.5 7.36v-.718h-2v.718h2zm.802-1.52h1.773v-2H7.302v2zm-.134.011a.802.802 0 01.134-.011v-2c-.157 0-.314.013-.469.04l.335 1.971zm-.668.79c0-.39.282-.724.668-.79L6.833 3.88A2.802 2.802 0 004.5 6.642h2z" fill="#FF547C"/><path d="M3.3 11.84v.05a2.75 2.75 0 002.75 2.75v0" stroke="#252549" stroke-width="2" stroke-linecap="round" stroke-linejoin="round"/><ellipse cx="9.625" cy="4.84" rx=".825" ry=".84" fill="#FF547C"/><mask id="path-5-outside-1" maskUnits="userSpaceOnUse" x="5.8" y="0" width="8" height="9" fill="#000"><path fill="#fff" d="M5.8 0h8v9h-8z"/><path fill-rule="evenodd" clip-rule="evenodd" d="M9.625 5.68a.833.833 0 00.825-.84c0-.464-.37-.84-.825-.84a.833.833 0 00-.825.84c0 .464.37.84.825.84zM10 4.75l.235-.269-.346.073-.116.024-.035-.107-.114-.349-.114.35-.035.106-.107-.022-.355-.075.24.275.073.084-.078.09-.235.27.346-.073.116-.024.035.107.114.349.114-.35.035-.106.107.022.355.075-.24-.275-.073-.085.078-.09z"/></mask><path d="M10.236 4.481l.754.658 1.959-2.247-2.918.61.205.98zm-.235.27l-.753-.658.753.657zm-.111-.197l-.205-.98.205.98zm-.116.024l-.95.31.278.852.877-.183-.205-.979zm-.035-.107l-.95.31.95-.31zm-.114-.349l.95-.31-.95-2.91-.95 2.91.95.31zm-.114.35l-.95-.31.95.31zm-.035.106l-.204.979.877.183.278-.852-.95-.31zm-.107-.022l.205-.98-.205.98zm-.355-.075l.205-.978-2.918-.61 1.96 2.246.753-.658zm.24.275l.754-.657-.754.657zm.073.084l.754.658.573-.658-.573-.657-.754.657zm-.078.09l.754.658-.754-.658zm-.235.27l-.753-.658L6.3 6.79l2.918-.61-.205-.98zm.346-.073l-.204-.979.204.98zm.116-.024l.95-.31-.277-.852-.877.183.204.979zm.035.107l.95-.31-.95.31zm.114.349l-.95.31.95 2.91.95-2.91-.95-.31zm.114-.35l-.95-.31.95.31zm.035-.106l.205-.979-.877-.183-.279.851.95.31zm.107.022l.205-.978-.205.978zm.355.075l-.205.978 2.918.61-1.96-2.246-.753.658zm-.24-.275l-.753.657.753-.657zm-.073-.085l-.754-.657-.573.657.573.658.754-.658zm-.473 0c0-.071.061-.16.175-.16v2c1.025 0 1.825-.84 1.825-1.84h-2zm.175.16a.168.168 0 01-.175-.16h2c0-1-.8-1.84-1.825-1.84v2zm.175-.16c0 .071-.062.16-.175.16V3C8.6 3 7.8 3.84 7.8 4.84h2zm-.175-.16c.113 0 .175.089.175.16h-2c0 1 .8 1.84 1.825 1.84v-2zm-.143-.856l-.234.27 1.507 1.314.235-.27-1.508-1.314zm.613 1.709l.346-.073-.41-1.957-.346.072.41 1.958zm-.116.024l.116-.024-.41-1.958-.116.024.41 1.958zm-1.19-.776l.034.107 1.902-.62-.035-.107-1.902.62zm-.114-.348l.113.348 1.902-.62-.114-.35-1.901.622zm1.786.35l.115-.35-1.901-.621-.115.35 1.901.62zm-.034.105l.034-.105-1.9-.621-.035.106 1.9.62zm-1.263.646l.108.023.409-1.958-.107-.022-.41 1.957zM8.81 5.46l.354.074.41-1.957-.355-.074-.41 1.957zm1.197-1.36l-.24-.275L8.262 5.14l.24.274L10.007 4.1zm.074.084l-.073-.084L8.5 5.413l.074.085 1.507-1.315zm-.078 1.405l.078-.09-1.507-1.315-.079.09 1.508 1.315zm-.235.269l.235-.27-1.508-1.314-.234.27 1.507 1.314zm-.612-1.709l-.346.073.409 1.957.346-.072-.41-1.958zm.116-.024l-.116.024.41 1.958.115-.024-.41-1.958zm1.19.775l-.035-.107-1.901.621.035.107 1.9-.62zm.114.35l-.114-.35-1.901.621.114.35 1.9-.622zM8.789 4.9l-.114.35 1.9.62.115-.35-1.901-.62zm.034-.107l-.034.106 1.9.621.036-.106-1.902-.62zm1.263-.645l-.107-.023-.41 1.958.108.022.409-1.957zm.355.074l-.355-.074-.41 1.957.355.074.41-1.957zm-1.198 1.36l.24.275 1.507-1.315-.24-.275-1.507 1.315zm-.074-.084l.074.084 1.507-1.315-.074-.084L9.17 5.498zm.079-1.405l-.079.09 1.507 1.315.079-.09-1.507-1.315z" fill="#FF547C" mask="url(#path-5-outside-1)"/></svg>