<svg width="23" height="30" viewBox="0 0 23 30" fill="none" xmlns="http://www.w3.org/2000/svg"><ellipse rx="11.332" ry="11.129" transform="matrix(0 -1 -1 0 11.823 18.656)" fill="#fff"/><path d="M14.86 3.41l-.168-.986.167.986zm-2.037 5.048V7.005h-2v1.453h2zm2.646-4.1h3.588v-2H15.47v2zm-.442.038a2.62 2.62 0 01.442-.037v-2c-.26 0-.52.022-.777.065l.335 1.972zm-2.204 2.609c0-1.29.931-2.393 2.204-2.609l-.335-1.972a4.646 4.646 0 00-3.869 4.58h2z" fill="#fff"/><path d="M7.371 17.524v1.665a4 4 0 004 4h1.565" stroke="#252549" stroke-width="2" stroke-linecap="round" stroke-linejoin="round"/><ellipse cx="20.17" cy="3.358" rx="1.669" ry="1.7" fill="#fff"/><mask id="path-5-outside-1" maskUnits="userSpaceOnUse" x="17.5" y=".658" width="6" height="6" fill="#000"><path fill="#fff" d="M17.5.658h6v6h-6z"/><path fill-rule="evenodd" clip-rule="evenodd" d="M20.17 5.058c.922 0 1.67-.761 1.67-1.7s-.748-1.7-1.67-1.7c-.922 0-1.67.761-1.67 1.7s.748 1.7 1.67 1.7z"/></mask><path d="M20.84 3.358c0 .404-.317.7-.67.7v2c1.491 0 2.67-1.226 2.67-2.7h-2zm-.67-.7c.353 0 .67.297.67.7h2c0-1.474-1.179-2.7-2.67-2.7v2zm-.67.7c0-.403.317-.7.67-.7v-2c-1.491 0-2.67 1.226-2.67 2.7h2zm.67.7a.685.685 0 01-.67-.7h-2c0 1.474 1.179 2.7 2.67 2.7v-2z" fill="#fff" mask="url(#path-5-outside-1)"/></svg>