<svg width="270" height="270" viewBox="0 0 270 270" fill="none" xmlns="http://www.w3.org/2000/svg">
<g clip-path="url(#clip0)">
<circle cx="134.902" cy="134.904" r="127" transform="rotate(150 134.902 134.904)" stroke="#2E255B"/>
<mask id="mask0" mask-type="alpha" maskUnits="userSpaceOnUse" x="-51" y="-51" width="372" height="372">
<circle cx="134.903" cy="134.904" r="135.5" transform="rotate(150 134.903 134.904)" fill="#F9F9F9" stroke="white"/>
</mask>
<g mask="url(#mask0)">
<circle cx="134.905" cy="134.902" r="135" transform="rotate(150 134.905 134.902)" fill="white"/>
<mask id="mask1" mask-type="alpha" maskUnits="userSpaceOnUse" x="-50" y="-50" width="370" height="370">
<circle cx="134.905" cy="134.903" r="135" transform="rotate(150 134.905 134.903)" fill="white"/>
</mask>
<g mask="url(#mask1)">
<path d="M209.904 264.807C187.101 277.973 161.235 284.904 134.904 284.904C108.574 284.904 82.7072 277.973 59.9043 264.807L134.904 134.904L209.904 264.807Z" fill="#4169E1"/>
<path d="M59.9043 264.807C37.1014 251.642 18.1657 232.706 5.00048 209.904C-8.16477 187.101 -15.0957 161.234 -15.0957 134.904L134.904 134.904L59.9043 264.807Z" fill="#DBDB16"/>
<path d="M-15.0957 134.904C-15.0957 108.573 -8.16477 82.7064 5.00048 59.9036C18.1657 37.1007 37.1014 18.165 59.9043 4.99975L134.904 134.904L-15.0957 134.904Z" fill="#DB7916"/>
<path d="M59.9043 5.00025C82.7072 -8.165 108.574 -15.0959 134.904 -15.0959C161.235 -15.0959 187.101 -8.16501 209.904 5.00024L134.904 134.904L59.9043 5.00025Z" fill="#C71585"/>
<path d="M209.905 4.99975C232.708 18.165 251.643 37.1007 264.809 59.9036C277.974 82.7064 284.905 108.573 284.905 134.904L134.905 134.904L209.905 4.99975Z" fill="#8F46FF"/>
<path d="M284.904 134.904C284.904 161.235 277.973 187.101 264.808 209.904C251.643 232.707 232.707 251.643 209.904 264.808L134.904 134.904L284.904 134.904Z" fill="#DC143C"/>
</g>
</g>
<path d="M109.788 149.404C101.78 135.533 106.532 117.797 120.403 109.789C134.273 101.781 152.009 106.533 160.018 120.404C168.026 134.274 163.273 152.01 149.403 160.019C135.532 168.027 117.796 163.274 109.788 149.404Z" fill="#160B45"/>
<path d="M17.9896 202.404C-19.2897 137.834 2.83348 55.2695 67.403 17.9903C131.972 -19.2889 214.537 2.83421 251.816 67.4037C289.096 131.973 266.972 214.538 202.403 251.817C137.833 289.096 55.2688 266.973 17.9896 202.404Z" fill="url(#paint0_radial)"/>
<circle cx="134.902" cy="134.904" r="15" transform="rotate(60 134.902 134.904)" fill="url(#paint1_linear)" fill-opacity="0.25"/>
<circle cx="134.904" cy="134.904" r="45.5" transform="rotate(150 134.904 134.904)" stroke="#1C1C40"/>
<path d="M234.47 79.0252L232.003 80.4492L233.571 83.165L232.075 84.029L230.507 81.3132L228.04 82.7372L227.224 81.3238L229.691 79.8998L228.123 77.1839L229.619 76.3199L231.187 79.0358L233.654 77.6118L234.47 79.0252ZM227.764 86.8136C227.351 87.3354 226.972 87.9172 226.628 88.5591C226.275 89.2063 226.022 89.8763 225.867 90.5689L224.689 91.2489L219.145 81.6464L220.822 80.6784L225.07 88.0362C225.207 87.6982 225.412 87.3275 225.684 86.9241C225.956 86.5206 226.233 86.1576 226.515 85.8348L227.764 86.8136ZM219.888 91.3605C219.475 91.8823 219.097 92.4641 218.753 93.106C218.4 93.7532 218.146 94.4231 217.992 95.1158L216.814 95.7958L211.27 86.1933L212.947 85.2253L217.195 92.583C217.332 92.2451 217.537 91.8744 217.809 91.4709C218.081 91.0675 218.358 90.7044 218.64 90.3817L219.888 91.3605ZM207.133 91.0391C207.024 90.8927 206.948 90.7826 206.905 90.7087C206.863 90.6348 206.82 90.5609 206.777 90.487C206.447 89.9142 206.198 89.2697 206.03 88.5533C205.854 87.8423 205.77 87.121 205.779 86.3893L207.303 85.9896C207.391 86.6533 207.547 87.2652 207.772 87.8252C207.982 88.3813 208.199 88.8533 208.423 89.2413C208.487 89.3521 208.571 89.488 208.677 89.6489C208.773 89.8152 208.849 89.9373 208.907 90.0151L207.133 91.0391ZM204.843 99.9547C204.91 99.5588 204.975 99.1391 205.039 98.6956C205.094 98.2574 205.137 97.808 205.166 97.3475C205.196 96.8869 205.211 96.4225 205.212 95.9541C205.218 95.495 205.205 95.0465 205.174 94.6087L202.611 96.0887L204.843 99.9547ZM204.4 102.963L200.976 97.0327L199.895 97.6567L199.103 96.285L200.184 95.661L198.856 93.3608L200.491 92.4168L201.819 94.717L206.031 92.285L206.719 93.4766C206.769 93.9897 206.793 94.5976 206.793 95.3001C206.782 96.008 206.748 96.7484 206.689 97.5213C206.631 98.2942 206.543 99.0712 206.428 99.8524C206.312 100.633 206.167 101.364 205.993 102.043L204.4 102.963ZM196.967 104.502C197.034 104.106 197.1 103.686 197.164 103.242C197.219 102.804 197.261 102.355 197.291 101.894C197.321 101.434 197.336 100.969 197.336 100.501C197.342 100.042 197.33 99.5934 197.299 99.1556L194.735 100.636L196.967 104.502ZM196.524 107.51L193.1 101.58L192.019 102.204L191.227 100.832L192.308 100.208L190.98 97.9077L192.615 96.9637L193.943 99.2638L198.156 96.8318L198.844 98.0235C198.893 98.5366 198.918 99.1444 198.917 99.847C198.907 100.555 198.873 101.295 198.814 102.068C198.755 102.841 198.668 103.618 198.552 104.399C198.437 105.18 198.292 105.911 198.118 106.59L196.524 107.51Z" fill="white"/>
<path d="M233.08 193.192L230.613 191.768L229.045 194.484L227.549 193.62L229.117 190.904L226.65 189.48L227.466 188.067L229.933 189.491L231.501 186.775L232.997 187.639L231.429 190.355L233.896 191.779L233.08 193.192ZM222.982 191.279C222.323 191.182 221.63 191.145 220.902 191.168C220.165 191.186 219.458 191.302 218.781 191.514L217.603 190.834L223.147 181.232L224.824 182.2L220.576 189.557C220.937 189.507 221.361 189.499 221.846 189.533C222.332 189.567 222.785 189.625 223.205 189.708L222.982 191.279ZM209.976 183.105C210.168 182.773 210.427 182.485 210.752 182.241C211.072 182.007 211.431 181.802 211.829 181.625C212.212 181.452 212.625 181.302 213.067 181.176C213.504 181.059 213.939 180.946 214.37 180.838C214.598 180.785 214.86 180.715 215.157 180.628C215.454 180.54 215.741 180.448 216.02 180.35C216.298 180.252 216.551 180.145 216.777 180.03C216.999 179.923 217.149 179.813 217.227 179.698L212.959 177.234L213.775 175.821L219.886 179.349C219.853 179.428 219.807 179.518 219.748 179.62C219.684 179.731 219.636 179.814 219.604 179.87C219.348 180.313 219.044 180.679 218.692 180.969C218.326 181.262 217.934 181.504 217.516 181.694C217.098 181.884 216.664 182.039 216.212 182.16C215.76 182.282 215.311 182.398 214.865 182.51C214.521 182.594 214.188 182.679 213.868 182.765C213.547 182.851 213.257 182.948 212.997 183.057C212.723 183.17 212.481 183.301 212.271 183.451C212.056 183.61 211.884 183.8 211.756 184.022C211.479 184.502 211.42 184.924 211.58 185.287C211.74 185.651 212.018 185.947 212.416 186.176C212.674 186.326 212.936 186.427 213.2 186.481C213.464 186.535 213.714 186.562 213.948 186.562C214.173 186.556 214.382 186.536 214.575 186.499C214.763 186.472 214.908 186.445 215.01 186.418L215.162 188.076C214.56 188.221 213.937 188.256 213.292 188.179C212.632 188.106 212.002 187.896 211.401 187.549C210.376 186.957 209.764 186.278 209.567 185.511C209.354 184.748 209.491 183.946 209.976 183.105ZM209.007 175.525C209.079 175.357 209.136 175.236 209.179 175.162C209.222 175.089 209.264 175.015 209.307 174.941C209.638 174.368 210.072 173.83 210.608 173.327C211.136 172.819 211.719 172.385 212.357 172.027L213.465 173.147C212.934 173.555 212.482 173.996 212.109 174.471C211.733 174.931 211.433 175.355 211.209 175.743C211.145 175.854 211.069 175.995 210.983 176.167C210.887 176.333 210.819 176.46 210.78 176.549L209.007 175.525ZM200.141 177.999C200.517 177.859 200.913 177.706 201.329 177.54C201.736 177.369 202.147 177.181 202.56 176.976C202.974 176.771 203.384 176.552 203.79 176.319C204.19 176.094 204.572 175.859 204.936 175.613L202.373 174.133L200.141 177.999ZM197.314 179.12L200.738 173.189L199.657 172.565L200.449 171.193L201.53 171.817L202.858 169.517L204.493 170.461L203.165 172.761L207.377 175.193L206.689 176.385C206.269 176.685 205.755 177.01 205.147 177.361C204.528 177.706 203.87 178.046 203.171 178.382C202.473 178.717 201.756 179.03 201.022 179.321C200.288 179.611 199.583 179.851 198.907 180.04L197.314 179.12ZM192.593 167.028C192.823 166.631 193.105 166.301 193.441 166.039C193.777 165.777 194.156 165.602 194.577 165.512C194.998 165.423 195.456 165.429 195.952 165.53C196.438 165.627 196.95 165.829 197.485 166.139C198.114 166.501 198.585 166.89 198.899 167.306C199.214 167.721 199.418 168.135 199.513 168.547C199.608 168.959 199.622 169.349 199.557 169.718C199.478 170.091 199.358 170.416 199.198 170.693C199.038 170.97 198.854 171.203 198.647 171.391C198.425 171.583 198.189 171.736 197.938 171.85C197.682 171.973 197.419 172.068 197.147 172.132C196.876 172.197 196.606 172.239 196.337 172.256C196.591 172.797 196.726 173.3 196.741 173.764C196.742 174.232 196.598 174.716 196.31 175.215C196.102 175.575 195.835 175.877 195.51 176.12C195.17 176.367 194.794 176.538 194.382 176.633C193.971 176.728 193.533 176.74 193.068 176.669C192.604 176.598 192.141 176.429 191.68 176.163C191.135 175.848 190.718 175.503 190.43 175.127C190.133 174.746 189.936 174.361 189.84 173.973C189.734 173.58 189.714 173.199 189.779 172.83C189.844 172.461 189.96 172.134 190.125 171.847C190.418 171.339 190.818 170.966 191.325 170.729C191.826 170.501 192.323 170.376 192.817 170.353C192.442 169.743 192.238 169.169 192.203 168.632C192.159 168.089 192.289 167.554 192.593 167.028ZM197.533 169.769C197.613 169.63 197.67 169.466 197.706 169.277C197.741 169.088 197.731 168.892 197.676 168.688C197.622 168.484 197.52 168.277 197.37 168.067C197.214 167.867 196.984 167.678 196.68 167.502C196.402 167.342 196.141 167.241 195.895 167.197C195.649 167.154 195.427 167.155 195.228 167.2C195.024 167.255 194.845 167.342 194.689 167.462C194.529 167.591 194.4 167.738 194.304 167.905C194.155 168.163 194.075 168.419 194.065 168.672C194.054 168.924 194.106 169.176 194.22 169.426C194.319 169.681 194.469 169.934 194.669 170.185C194.864 170.445 195.094 170.707 195.36 170.971C195.815 170.951 196.233 170.847 196.612 170.66C196.986 170.481 197.293 170.184 197.533 169.769ZM191.776 172.763C191.707 172.884 191.66 173.029 191.635 173.199C191.596 173.374 191.602 173.556 191.653 173.745C191.694 173.929 191.779 174.114 191.906 174.298C192.034 174.483 192.222 174.647 192.472 174.791C192.721 174.935 192.962 175.019 193.195 175.042C193.413 175.07 193.615 175.051 193.8 174.985C193.981 174.929 194.141 174.843 194.282 174.727C194.417 174.621 194.525 174.498 194.605 174.36C194.808 174.009 194.87 173.602 194.793 173.138C194.706 172.669 194.407 172.164 193.895 171.622C193.43 171.637 193.024 171.723 192.675 171.878C192.321 172.044 192.021 172.339 191.776 172.763Z" fill="white"/>
<path d="M133.512 249.072L133.512 246.224L130.376 246.224L130.376 244.496L133.512 244.496L133.512 241.648L135.144 241.648L135.144 244.496L138.28 244.496L138.28 246.224L135.144 246.224L135.144 249.072L133.512 249.072ZM130.12 239.37C129.875 238.751 129.56 238.132 129.176 237.514C128.792 236.884 128.339 236.33 127.816 235.85L127.816 234.49L138.904 234.49L138.904 236.426L130.408 236.426C130.632 236.714 130.851 237.076 131.064 237.514C131.278 237.951 131.454 238.372 131.592 238.778L130.12 239.37ZM130.12 230.276C129.875 229.657 129.56 229.039 129.176 228.42C128.792 227.791 128.339 227.236 127.816 226.756L127.816 225.396L138.904 225.396L138.904 227.332L130.408 227.332C130.632 227.62 130.851 227.983 131.064 228.42C131.278 228.857 131.454 229.279 131.592 229.684L130.12 230.276ZM136.776 219.39C136.958 219.369 137.091 219.358 137.176 219.358C137.262 219.358 137.347 219.358 137.432 219.358C138.094 219.358 138.776 219.465 139.48 219.678C140.184 219.881 140.851 220.169 141.48 220.542L141.064 222.062C140.446 221.806 139.838 221.636 139.24 221.55C138.654 221.454 138.136 221.406 137.688 221.406C137.56 221.406 137.4 221.412 137.208 221.422C137.016 221.422 136.872 221.428 136.776 221.438L136.776 219.39ZM130.2 212.949C130.51 213.205 130.84 213.472 131.192 213.749C131.544 214.016 131.912 214.277 132.296 214.533C132.68 214.789 133.075 215.034 133.48 215.269C133.875 215.504 134.27 215.717 134.664 215.909L134.664 212.949L130.2 212.949ZM127.816 211.061L134.664 211.061L134.664 209.813L136.248 209.813L136.248 211.061L138.904 211.061L138.904 212.949L136.248 212.949L136.248 217.813L134.872 217.813C134.403 217.6 133.864 217.317 133.256 216.965C132.648 216.602 132.024 216.202 131.384 215.765C130.744 215.328 130.115 214.864 129.496 214.373C128.878 213.882 128.318 213.392 127.816 212.901L127.816 211.061ZM130.2 203.855C130.51 204.111 130.84 204.378 131.192 204.655C131.544 204.922 131.912 205.183 132.296 205.439C132.68 205.695 133.075 205.941 133.48 206.175C133.875 206.41 134.27 206.623 134.664 206.815L134.664 203.855L130.2 203.855ZM127.816 201.967L134.664 201.967L134.664 200.719L136.248 200.719L136.248 201.967L138.904 201.967L138.904 203.855L136.248 203.855L136.248 208.719L134.872 208.719C134.403 208.506 133.864 208.223 133.256 207.871C132.648 207.509 132.024 207.109 131.384 206.671C130.744 206.234 130.115 205.77 129.496 205.279C128.878 204.789 128.318 204.298 127.816 203.807L127.816 201.967Z" fill="white"/>
<path d="M35.3351 190.782L37.8015 189.358L36.2335 186.642L37.73 185.778L39.298 188.494L41.7645 187.07L42.5805 188.483L40.114 189.907L41.682 192.623L40.1855 193.487L38.6175 190.771L36.1511 192.195L35.3351 190.782ZM42.041 182.994C42.4542 182.472 42.8326 181.89 43.1764 181.248C43.5294 180.601 43.7831 179.931 43.9375 179.238L45.1152 178.558L50.6592 188.161L48.9826 189.129L44.7346 181.771C44.5972 182.109 44.3925 182.48 44.1204 182.883C43.8483 183.286 43.5714 183.65 43.2897 183.972L42.041 182.994ZM57.56 177.766C58.4933 179.382 58.9151 180.795 58.8252 182.005C58.73 183.205 58.1605 184.107 57.1166 184.71C56.0728 185.312 55.0072 185.355 53.92 184.837C52.8275 184.31 51.8145 183.238 50.8812 181.622C50.4172 180.818 50.0804 180.064 49.8709 179.36C49.6653 178.641 49.583 177.986 49.624 177.396C49.6743 176.801 49.8387 176.275 50.1171 175.818C50.4048 175.356 50.8073 174.976 51.3246 174.678C52.3685 174.075 53.4366 174.037 54.5292 174.564C55.6164 175.082 56.6267 176.149 57.56 177.766ZM55.8279 178.766C55.5399 178.267 55.2429 177.816 54.9368 177.414C54.6307 177.012 54.3223 176.691 54.0117 176.452C53.7049 176.198 53.3966 176.037 53.0867 175.97C52.7768 175.902 52.4694 175.957 52.1646 176.133C51.8598 176.309 51.6544 176.55 51.5486 176.858C51.4521 177.16 51.4325 177.51 51.4898 177.908C51.5511 178.291 51.6793 178.716 51.8745 179.182C52.079 179.643 52.3253 180.123 52.6133 180.622C52.9013 181.12 53.1937 181.574 53.4905 181.981C53.7966 182.383 54.1031 182.711 54.4098 182.965C54.7205 183.205 55.0308 183.358 55.3406 183.426C55.6598 183.488 55.9718 183.431 56.2766 183.255C56.5814 183.079 56.7821 182.84 56.8787 182.538C56.9753 182.236 56.9929 181.893 56.9317 181.509C56.8743 181.111 56.748 180.679 56.5528 180.213C56.3576 179.747 56.1159 179.264 55.8279 178.766ZM62.6718 178.768C62.7809 178.914 62.8568 179.025 62.8995 179.098C62.9422 179.172 62.9848 179.246 63.0275 179.32C63.3582 179.893 63.6071 180.537 63.7744 181.254C63.9509 181.965 64.0348 182.686 64.0261 183.418L62.5018 183.818C62.4141 183.154 62.2579 182.542 62.0332 181.982C61.823 181.426 61.6059 180.954 61.3819 180.566C61.3179 180.455 61.2333 180.319 61.128 180.158C61.032 179.992 60.9554 179.87 60.8982 179.792L62.6718 178.768ZM64.9621 169.852C64.895 170.248 64.8294 170.668 64.7653 171.112C64.7103 171.55 64.668 171.999 64.6383 172.46C64.6086 172.92 64.5935 173.385 64.5929 173.853C64.587 174.312 64.5996 174.761 64.6306 175.198L67.1941 173.718L64.9621 169.852ZM65.4051 166.844L68.8291 172.774L69.9099 172.15L70.7019 173.522L69.6211 174.146L70.9491 176.446L69.3141 177.39L67.9861 175.09L63.7737 177.522L63.0857 176.331C63.0358 175.817 63.0113 175.21 63.0121 174.507C63.0222 173.799 63.0566 173.059 63.1154 172.286C63.1741 171.513 63.2613 170.736 63.3769 169.955C63.4925 169.174 63.6374 168.443 63.8117 167.764L65.4051 166.844ZM77.0185 166.531C77.9518 168.148 78.3736 169.561 78.2837 170.771C78.1885 171.971 77.619 172.873 76.5751 173.475C75.5313 174.078 74.4657 174.12 73.3785 173.603C72.286 173.076 71.2731 172.004 70.3397 170.387C69.8757 169.584 69.539 168.83 69.3294 168.125C69.1238 167.407 69.0415 166.752 69.0825 166.162C69.1328 165.566 69.2972 165.04 69.5756 164.584C69.8633 164.122 70.2658 163.742 70.7831 163.443C71.827 162.841 72.8952 162.803 73.9877 163.33C75.0749 163.848 76.0852 164.915 77.0185 166.531ZM75.2865 167.531C74.9985 167.032 74.7014 166.582 74.3953 166.18C74.0892 165.778 73.7809 165.457 73.4702 165.217C73.1634 164.963 72.8551 164.803 72.5452 164.735C72.2353 164.668 71.928 164.722 71.6231 164.898C71.3183 165.074 71.113 165.316 71.0072 165.623C70.9106 165.925 70.891 166.275 70.9483 166.673C71.0096 167.057 71.1378 167.482 71.3331 167.948C71.5375 168.409 71.7838 168.888 72.0718 169.387C72.3598 169.886 72.6522 170.339 72.9491 170.747C73.2551 171.149 73.5616 171.477 73.8683 171.731C74.179 171.97 74.4893 172.124 74.7992 172.191C75.1183 172.253 75.4303 172.196 75.7351 172.02C76.04 171.844 76.2407 171.605 76.3372 171.303C76.4338 171.001 76.4514 170.658 76.3902 170.275C76.3329 169.877 76.2066 169.445 76.0113 168.979C75.8161 168.513 75.5745 168.03 75.2865 167.531Z" fill="white"/>
<path d="M36.7251 76.614L39.1916 78.038L40.7596 75.3221L42.2561 76.1861L40.6881 78.902L43.1545 80.326L42.3385 81.7393L39.8721 80.3153L38.3041 83.0312L36.8076 82.1672L38.3756 79.4513L35.9091 78.0273L36.7251 76.614ZM46.8231 78.5273C47.4815 78.6242 48.1746 78.661 48.9024 78.6378C49.6394 78.6199 50.3465 78.5046 51.0235 78.292L52.2013 78.972L46.6573 88.5745L44.9807 87.6065L49.2287 80.2487C48.8672 80.2987 48.4438 80.3067 47.9584 80.2728C47.473 80.2389 47.0201 80.1807 46.5998 80.0981L46.8231 78.5273ZM59.8284 86.701C59.6364 87.0336 59.3777 87.3215 59.0525 87.5648C58.7326 87.7989 58.3738 88.0043 57.9761 88.1812C57.593 88.3541 57.1802 88.5038 56.7377 88.6301C56.3006 88.7473 55.8661 88.8598 55.4343 88.9677C55.2065 89.0209 54.9443 89.0912 54.6475 89.1785C54.3508 89.2658 54.0632 89.3585 53.785 89.4565C53.5067 89.5545 53.2542 89.6612 53.0274 89.7766C52.806 89.8828 52.656 89.9932 52.5774 90.108L56.8452 92.572L56.0292 93.9853L49.9185 90.4573C49.952 90.3781 49.998 90.2877 50.0567 90.1861C50.1207 90.0752 50.1687 89.9921 50.2007 89.9366C50.4567 89.4932 50.7606 89.1268 51.1125 88.8373C51.479 88.5439 51.871 88.3022 52.2886 88.1122C52.7062 87.9222 53.1409 87.7667 53.5926 87.6457C54.0443 87.5246 54.4933 87.4082 54.9397 87.2964C55.2841 87.212 55.6165 87.1268 55.9371 87.0409C56.2576 86.955 56.5478 86.8577 56.8076 86.7491C57.082 86.6365 57.324 86.5053 57.5337 86.3554C57.7488 86.1963 57.9203 86.0058 58.0483 85.7841C58.3256 85.3038 58.3844 84.882 58.2246 84.5188C58.0648 84.1555 57.7863 83.8593 57.3891 83.6299C57.1304 83.4806 56.8689 83.3789 56.6046 83.3248C56.3402 83.2707 56.0909 83.2438 55.8567 83.244C55.6318 83.2497 55.4227 83.2706 55.2293 83.3067C55.0413 83.3337 54.8963 83.3608 54.7943 83.3882L54.643 81.7304C55.2443 81.5849 55.8676 81.5506 56.5129 81.6276C57.1728 81.7006 57.8029 81.9105 58.4034 82.2571C59.4287 82.8491 60.0403 83.5286 60.238 84.2955C60.4502 85.0586 60.3137 85.8604 59.8284 86.701ZM60.7978 94.2813C60.7256 94.449 60.6682 94.5698 60.6255 94.6437C60.5829 94.7176 60.5402 94.7915 60.4975 94.8654C60.1669 95.4382 59.7332 95.976 59.1964 96.479C58.6689 96.9874 58.0862 97.4207 57.4482 97.7791L56.3398 96.6588C56.8709 96.251 57.3227 95.8098 57.6952 95.3352C58.0717 94.8751 58.3719 94.4511 58.5959 94.0631C58.6599 93.9523 58.7353 93.811 58.8221 93.6394C58.9181 93.4732 58.9855 93.3458 59.0242 93.2573L60.7978 94.2813ZM69.6641 91.807C69.2878 91.9468 68.8915 92.0999 68.4753 92.266C68.0684 92.4376 67.658 92.6256 67.2443 92.8301C66.8306 93.0347 66.4208 93.2538 66.0149 93.4875C65.6144 93.712 65.2323 93.9471 64.8687 94.1929L67.4321 95.6729L69.6641 91.807ZM72.4912 90.6863L69.0672 96.6169L70.148 97.2409L69.356 98.6127L68.2752 97.9887L66.9472 100.289L65.3121 99.3448L66.6401 97.0447L62.4278 94.6127L63.1158 93.421C63.5352 93.1212 64.0493 92.7961 64.6582 92.4455C65.2762 92.1003 65.9347 91.7599 66.6334 91.4243C67.3321 91.0887 68.0486 90.7757 68.7829 90.4853C69.5172 90.1948 70.2221 89.9552 70.8977 89.7663L72.4912 90.6863ZM77.2113 102.778C76.9819 103.176 76.6993 103.505 76.3634 103.767C76.0275 104.029 75.649 104.204 75.2279 104.294C74.8067 104.383 74.3483 104.377 73.8526 104.276C73.3662 104.18 72.8551 103.977 72.3193 103.668C71.6911 103.305 71.2199 102.916 70.9055 102.5C70.5912 102.085 70.3866 101.671 70.2919 101.259C70.1971 100.847 70.1823 100.457 70.2475 100.088C70.3272 99.7153 70.447 99.3904 70.607 99.1133C70.767 98.8361 70.9507 98.6034 71.1579 98.4152C71.3797 98.223 71.6159 98.0699 71.8664 97.9559C72.1223 97.8327 72.386 97.7386 72.6576 97.6737C72.9291 97.6087 73.1992 97.5676 73.4678 97.5503C73.2136 97.0093 73.0789 96.5066 73.0637 96.0422C73.0632 95.5738 73.2069 95.0902 73.4949 94.5914C73.7029 94.2311 73.9695 93.9293 74.2947 93.686C74.6345 93.4388 75.0104 93.2678 75.4223 93.173C75.8342 93.0783 76.2721 93.0664 76.7362 93.1372C77.2003 93.2081 77.6633 93.3769 78.1252 93.6435C78.6702 93.9582 79.0867 94.3034 79.3748 94.6791C79.6721 95.0601 79.8689 95.4447 79.965 95.8328C80.0704 96.2262 80.0906 96.6073 80.0254 96.9761C79.9603 97.345 79.845 97.6726 79.6797 97.959C79.3864 98.467 78.9865 98.8397 78.48 99.0769C77.9789 99.3049 77.4815 99.4303 76.9879 99.4533C77.3623 100.064 77.5668 100.637 77.6014 101.175C77.6453 101.717 77.5153 102.252 77.2113 102.778ZM72.272 100.038C72.192 100.176 72.1343 100.34 72.0991 100.529C72.0638 100.718 72.0736 100.915 72.1282 101.119C72.1829 101.323 72.2852 101.529 72.435 101.739C72.5903 101.94 72.8203 102.128 73.1251 102.304C73.4023 102.464 73.6638 102.565 73.9097 102.609C74.1556 102.652 74.3779 102.651 74.5765 102.606C74.7805 102.551 74.9602 102.464 75.1155 102.344C75.2762 102.215 75.4045 102.068 75.5005 101.902C75.6498 101.643 75.7297 101.387 75.7401 101.135C75.7505 100.882 75.6987 100.63 75.5847 100.38C75.4852 100.125 75.3355 99.8726 75.1356 99.6216C74.9409 99.3615 74.7105 99.0991 74.4445 98.8347C73.9892 98.8551 73.572 98.9591 73.1928 99.1466C72.8189 99.3249 72.512 99.6219 72.272 100.038ZM78.0286 97.0427C78.098 96.9226 78.1449 96.7773 78.1695 96.6067C78.2087 96.4322 78.2029 96.2503 78.1521 96.0609C78.1106 95.8768 78.0261 95.6925 77.8985 95.508C77.771 95.3235 77.5826 95.1593 77.3332 95.0153C77.0837 94.8713 76.8427 94.7875 76.6099 94.764C76.3917 94.7366 76.1899 94.7555 76.0044 94.8209C75.8242 94.8769 75.6637 94.9629 75.5229 95.0787C75.3875 95.1853 75.2798 95.3078 75.1998 95.4464C74.9971 95.7974 74.9345 96.2046 75.0118 96.668C75.0983 97.1368 75.3977 97.6422 75.91 98.1843C76.3744 98.1692 76.781 98.0836 77.1297 97.9278C77.4837 97.7626 77.7833 97.4676 78.0286 97.0427Z" fill="white"/>
<path d="M136.292 20.7346L136.292 23.5826L139.428 23.5826L139.428 25.3106L136.292 25.3106L136.292 28.1586L134.66 28.1586L134.66 25.3106L131.524 25.3106L131.524 23.5826L134.66 23.5826L134.66 20.7346L136.292 20.7346ZM139.684 30.4363C139.93 31.055 140.244 31.6737 140.628 32.2923C141.012 32.9217 141.466 33.4763 141.988 33.9563L141.988 35.3163L130.9 35.3163L130.9 33.3803L139.396 33.3803C139.172 33.0923 138.954 32.7297 138.74 32.2923C138.527 31.855 138.351 31.4337 138.212 31.0283L139.684 30.4363ZM136.452 46.4901C134.586 46.4901 133.151 46.1487 132.148 45.4661C131.156 44.7834 130.66 43.8394 130.66 42.6341C130.66 41.4287 131.156 40.4847 132.148 39.8021C133.151 39.1194 134.586 38.7781 136.452 38.7781C137.38 38.7781 138.202 38.8634 138.916 39.0341C139.642 39.2154 140.25 39.4714 140.74 39.8021C141.231 40.1434 141.604 40.5488 141.86 41.0181C142.116 41.4981 142.244 42.0368 142.244 42.6341C142.244 43.8394 141.743 44.7834 140.74 45.4661C139.748 46.1488 138.319 46.4901 136.452 46.4901ZM136.452 44.4901C137.028 44.4901 137.567 44.4581 138.068 44.3941C138.57 44.3301 139.002 44.2234 139.364 44.0741C139.738 43.9354 140.031 43.7488 140.244 43.5141C140.458 43.2794 140.564 42.9861 140.564 42.6341C140.564 42.2821 140.458 41.9834 140.244 41.7381C140.031 41.5034 139.738 41.3114 139.364 41.1621C139.002 41.0234 138.57 40.9221 138.068 40.8581C137.567 40.8048 137.028 40.7781 136.452 40.7781C135.876 40.7781 135.338 40.8047 134.836 40.8581C134.335 40.9221 133.898 41.0234 133.524 41.1621C133.162 41.3114 132.874 41.5034 132.66 41.7381C132.447 41.9834 132.34 42.2821 132.34 42.6341C132.34 42.9861 132.447 43.2794 132.66 43.5141C132.874 43.7487 133.162 43.9354 133.524 44.0741C133.898 44.2234 134.335 44.3301 134.836 44.3941C135.338 44.4581 135.876 44.4901 136.452 44.4901ZM133.028 50.4158C132.847 50.4372 132.714 50.4478 132.628 50.4478C132.543 50.4478 132.458 50.4478 132.372 50.4478C131.711 50.4478 131.028 50.3412 130.324 50.1278C129.62 49.9252 128.954 49.6372 128.324 49.2638L128.74 47.7438C129.359 47.9998 129.967 48.1705 130.564 48.2558C131.151 48.3518 131.668 48.3998 132.116 48.3998C132.244 48.3998 132.404 48.3945 132.596 48.3838C132.788 48.3838 132.932 48.3785 133.028 48.3678L133.028 50.4158ZM139.604 56.8571C139.295 56.6011 138.964 56.3344 138.612 56.0571C138.26 55.7904 137.892 55.5291 137.508 55.2731C137.124 55.0171 136.73 54.7717 136.324 54.5371C135.93 54.3024 135.535 54.0891 135.14 53.8971L135.14 56.8571L139.604 56.8571ZM141.988 58.7451L135.14 58.7451L135.14 59.9931L133.556 59.9931L133.556 58.7451L130.9 58.7451L130.9 56.8571L133.556 56.8571L133.556 51.9931L134.932 51.9931C135.402 52.2064 135.94 52.4891 136.548 52.8411C137.156 53.2037 137.78 53.6037 138.42 54.0411C139.06 54.4784 139.69 54.9424 140.308 55.4331C140.927 55.9238 141.487 56.4144 141.988 56.9051L141.988 58.7451ZM136.452 68.9588C134.586 68.9588 133.151 68.6175 132.148 67.9348C131.156 67.2522 130.66 66.3082 130.66 65.1028C130.66 63.8975 131.156 62.9535 132.148 62.2708C133.151 61.5882 134.586 61.2468 136.452 61.2468C137.38 61.2468 138.202 61.3322 138.916 61.5028C139.642 61.6842 140.25 61.9402 140.74 62.2708C141.231 62.6122 141.604 63.0175 141.86 63.4868C142.116 63.9668 142.244 64.5055 142.244 65.1028C142.244 66.3082 141.743 67.2522 140.74 67.9348C139.748 68.6175 138.319 68.9588 136.452 68.9588ZM136.452 66.9588C137.028 66.9588 137.567 66.9268 138.068 66.8628C138.57 66.7988 139.002 66.6922 139.364 66.5428C139.738 66.4042 140.031 66.2175 140.244 65.9828C140.458 65.7482 140.564 65.4548 140.564 65.1028C140.564 64.7508 140.458 64.4522 140.244 64.2068C140.031 63.9722 139.738 63.7802 139.364 63.6308C139.002 63.4922 138.57 63.3908 138.068 63.3268C137.567 63.2735 137.028 63.2468 136.452 63.2468C135.876 63.2468 135.338 63.2735 134.836 63.3268C134.335 63.3908 133.898 63.4922 133.524 63.6308C133.162 63.7802 132.874 63.9722 132.66 64.2068C132.447 64.4522 132.34 64.7508 132.34 65.1028C132.34 65.4548 132.447 65.7482 132.66 65.9828C132.874 66.2175 133.162 66.4042 133.524 66.5428C133.898 66.6922 134.335 66.7988 134.836 66.8628C135.338 66.9268 135.876 66.9588 136.452 66.9588Z" fill="white"/>
</g>
<defs>
<radialGradient id="paint0_radial" cx="0" cy="0" r="1" gradientUnits="userSpaceOnUse" gradientTransform="translate(134.903 134.904) rotate(-120) scale(135)">
<stop offset="0.244892" stop-color="#0E143F" stop-opacity="0"/>
<stop offset="0.244992" stop-color="#0E143F"/>
<stop offset="0.916667" stop-opacity="0"/>
<stop offset="1" stop-color="#16163A"/>
</radialGradient>
<linearGradient id="paint1_linear" x1="119.902" y1="134.904" x2="149.902" y2="149.904" gradientUnits="userSpaceOnUse">
<stop stop-color="#BD79FF"/>
<stop offset="1" stop-color="#2E70FF" stop-opacity="0"/>
</linearGradient>
<clipPath id="clip0">
<rect width="270" height="270" fill="white"/>
</clipPath>
</defs>
</svg>
