<svg width="36" height="36" viewBox="0 0 36 36" fill="none" xmlns="http://www.w3.org/2000/svg">
<g clip-path="url(#clip0)">
<path fill-rule="evenodd" clip-rule="evenodd" d="M7.69025 18.6699L17.9769 6.29899L28.2636 18.6699L17.9769 31.041L7.69025 18.6699Z" fill="white"/>
<path d="M5.51064 17.6278L5.51065 17.6278L15.7974 5.25686L16.1462 5.54684L15.7974 5.25685L17.5928 3.09785L17.9772 2.63553L18.3617 3.09785L20.157 5.25685L19.8065 5.54838L20.157 5.25686L30.4438 17.6278L30.4438 17.6278L31.0447 18.3503L31.3106 18.67L31.0447 18.9897L30.4438 19.7124L20.157 32.0834L18.3617 34.2425L17.9772 34.7049L17.5928 34.2425L15.7974 32.0834L5.51065 19.7124L5.51061 19.7123L4.90988 18.9897L4.64415 18.67L4.9099 18.3504L5.51064 17.6278ZM25.2176 18.67L17.9772 9.96294L10.737 18.67L17.9772 27.3773L25.2176 18.67Z" fill="white" stroke="white"/>
<mask id="path-3-outside-1" maskUnits="userSpaceOnUse" x="1.46155" y="-0.335449" width="33" height="35" fill="black">
<rect fill="white" x="1.46155" y="-0.335449" width="33" height="35"/>
<path d="M12.5319 22.8975L15.3414 26.105L15.7686 26.5927L15.3576 27.0873L10.3674 33.093L10.0059 33.5282L9.28411 33.571C8.76387 33.6019 8.21863 33.5674 7.6968 33.4827C7.17081 33.3974 6.65243 33.2546 6.19796 33.0723C5.7246 32.8824 5.29088 32.6512 4.90191 32.3785C4.52269 32.1126 4.18016 31.8056 3.87865 31.4573L3.46155 30.9754L3.8678 30.4863L10.1543 22.92L11.3214 21.5155L12.5319 22.8975ZM12.5528 26.6183L11.3811 25.2807L6.70625 30.9072C6.75708 30.9476 6.80921 30.9864 6.86252 31.0237C7.08581 31.1802 7.32375 31.3087 7.57358 31.4089C7.78442 31.4935 8.04449 31.563 8.32517 31.6084C8.34923 31.6122 8.37329 31.6161 8.39728 31.6195L12.5528 26.6183ZM24.1943 21.4688L21.1439 25.0682L19.9605 26.4649L18.7663 25.0757C18.5492 24.8232 18.3057 24.5381 18.0378 24.2228C17.7875 24.5173 17.5606 24.7828 17.3587 25.0177L16.1946 26.3723L14.9973 25.0327L11.8674 21.5309L11.4349 21.047L11.8404 20.5487C12.7075 19.4834 12.9554 19.1933 13.4495 18.6215C11.171 15.7098 9.33123 13.1243 7.9445 10.8924C6.45057 8.48793 5.46799 6.47063 5.01377 4.87361L4.23482 2.13468L7.27759 3.96279C8.9026 4.93903 10.7154 6.33119 12.7147 8.1382C14.3556 9.6214 16.1296 11.3892 18.0356 13.4413C19.9558 11.3711 21.7384 9.5917 23.3832 8.10368C25.3922 6.28581 27.2139 4.88612 28.8474 3.90475L31.8903 2.07679L31.1114 4.81557C30.6587 6.40716 29.6694 8.43215 28.1608 10.8574C26.7544 13.1187 24.9055 15.716 22.6297 18.6218L22.64 18.6337C23.0894 19.1521 23.2758 19.3673 24.2052 20.509L24.5984 20.9921L24.1943 21.4688ZM19.9493 22.6949L21.4067 20.9752C20.8968 20.3533 20.6826 20.1058 20.2863 19.6486C20.3311 19.7002 20.3763 19.7521 20.2688 19.6267L20.2677 19.6272L20.2738 19.6342L20.2863 19.6486L19.9493 22.6949ZM19.2351 21.8429C19.5236 22.1881 19.7598 22.4699 19.9493 22.6949L19.2351 21.8429ZM16.8413 21.8429L18.0391 20.411L19.2351 21.8429H16.8413ZM16.1459 22.6719C16.3275 22.4562 16.5598 22.1794 16.8413 21.8429L16.1459 22.6719ZM14.6513 20.9994L16.1459 22.6719L14.6513 20.9994ZM15.9003 19.5167C15.4628 20.0229 15.2385 20.2826 14.6513 20.9994L15.9003 19.5167ZM16.2293 19.1355L15.9003 19.5167L16.2293 19.1355ZM16.2564 18.1796L16.6376 18.6626L16.2293 19.1355L16.2564 18.1796ZM10.4901 10.1321C11.925 12.4416 13.8525 15.1345 16.2564 18.1796L10.4901 10.1321ZM9.44326 8.35904C9.75569 8.92043 10.1045 9.51166 10.4901 10.1321L9.44326 8.35904ZM10.5265 9.31252C10.1577 8.97922 9.79672 8.66129 9.44326 8.35904L10.5265 9.31252ZM16.8664 15.7427C14.5554 13.1873 12.4418 11.0436 10.5265 9.31252L16.8664 15.7427ZM19.2062 15.7427L18.037 17.0371L16.8664 15.7427H19.2062ZM25.5821 9.27046C23.651 11.0175 21.5255 13.1753 19.2062 15.7427L25.5821 9.27046ZM26.6898 8.29512C26.3286 8.60401 25.9593 8.92902 25.5821 9.27046L26.6898 8.29512ZM25.6261 10.0972C26.0183 9.46673 26.3728 8.86585 26.6898 8.29512L25.6261 10.0972ZM19.8209 18.1821C22.2562 15.1003 24.1965 12.3952 25.6261 10.0972L19.8209 18.1821ZM19.8479 19.138L19.4397 18.6644L19.8209 18.1821L19.8479 19.138ZM20.2688 19.6267L19.8479 19.138L20.2688 19.6267ZM24.6189 25.3631L23.4472 26.7007L27.6026 31.7019C27.6267 31.6985 27.6508 31.6946 27.6747 31.6908C27.9556 31.6453 28.2155 31.5759 28.4264 31.4912C28.6763 31.3911 28.914 31.2626 29.1375 31.1061C29.1906 31.0688 29.2429 31.0299 29.2937 30.9896L24.6189 25.3631ZM20.6585 26.1874L23.468 22.9799L24.6787 21.5978L25.8456 23.0024L32.1321 30.5687L32.5385 31.0578L32.1213 31.5396C31.8197 31.888 31.4774 32.1949 31.098 32.4608C30.709 32.7336 30.2753 32.9649 29.802 33.1547C29.3475 33.337 28.8292 33.4798 28.3031 33.5651C27.7812 33.6499 27.236 33.6843 26.7158 33.6534L25.9943 33.6105L25.6326 33.1754L20.6424 27.1696L20.2315 26.6751L20.6585 26.1874"/>
</mask>
<path d="M12.5319 22.8975L15.3414 26.105L15.7686 26.5927L15.3576 27.0873L10.3674 33.093L10.0059 33.5282L9.28411 33.571C8.76387 33.6019 8.21863 33.5674 7.6968 33.4827C7.17081 33.3974 6.65243 33.2546 6.19796 33.0723C5.7246 32.8824 5.29088 32.6512 4.90191 32.3785C4.52269 32.1126 4.18016 31.8056 3.87865 31.4573L3.46155 30.9754L3.8678 30.4863L10.1543 22.92L11.3214 21.5155L12.5319 22.8975ZM12.5528 26.6183L11.3811 25.2807L6.70625 30.9072C6.75708 30.9476 6.80921 30.9864 6.86252 31.0237C7.08581 31.1802 7.32375 31.3087 7.57358 31.4089C7.78442 31.4935 8.04449 31.563 8.32517 31.6084C8.34923 31.6122 8.37329 31.6161 8.39728 31.6195L12.5528 26.6183ZM24.1943 21.4688L21.1439 25.0682L19.9605 26.4649L18.7663 25.0757C18.5492 24.8232 18.3057 24.5381 18.0378 24.2228C17.7875 24.5173 17.5606 24.7828 17.3587 25.0177L16.1946 26.3723L14.9973 25.0327L11.8674 21.5309L11.4349 21.047L11.8404 20.5487C12.7075 19.4834 12.9554 19.1933 13.4495 18.6215C11.171 15.7098 9.33123 13.1243 7.9445 10.8924C6.45057 8.48793 5.46799 6.47063 5.01377 4.87361L4.23482 2.13468L7.27759 3.96279C8.9026 4.93903 10.7154 6.33119 12.7147 8.1382C14.3556 9.6214 16.1296 11.3892 18.0356 13.4413C19.9558 11.3711 21.7384 9.5917 23.3832 8.10368C25.3922 6.28581 27.2139 4.88612 28.8474 3.90475L31.8903 2.07679L31.1114 4.81557C30.6587 6.40716 29.6694 8.43215 28.1608 10.8574C26.7544 13.1187 24.9055 15.716 22.6297 18.6218L22.64 18.6337C23.0894 19.1521 23.2758 19.3673 24.2052 20.509L24.5984 20.9921L24.1943 21.4688ZM19.9493 22.6949L21.4067 20.9752C20.8968 20.3533 20.6826 20.1058 20.2863 19.6486C20.3311 19.7002 20.3763 19.7521 20.2688 19.6267L20.2677 19.6272L20.2738 19.6342L20.2863 19.6486L19.9493 22.6949ZM19.2351 21.8429C19.5236 22.1881 19.7598 22.4699 19.9493 22.6949L19.2351 21.8429ZM16.8413 21.8429L18.0391 20.411L19.2351 21.8429H16.8413ZM16.1459 22.6719C16.3275 22.4562 16.5598 22.1794 16.8413 21.8429L16.1459 22.6719ZM14.6513 20.9994L16.1459 22.6719L14.6513 20.9994ZM15.9003 19.5167C15.4628 20.0229 15.2385 20.2826 14.6513 20.9994L15.9003 19.5167ZM16.2293 19.1355L15.9003 19.5167L16.2293 19.1355ZM16.2564 18.1796L16.6376 18.6626L16.2293 19.1355L16.2564 18.1796ZM10.4901 10.1321C11.925 12.4416 13.8525 15.1345 16.2564 18.1796L10.4901 10.1321ZM9.44326 8.35904C9.75569 8.92043 10.1045 9.51166 10.4901 10.1321L9.44326 8.35904ZM10.5265 9.31252C10.1577 8.97922 9.79672 8.66129 9.44326 8.35904L10.5265 9.31252ZM16.8664 15.7427C14.5554 13.1873 12.4418 11.0436 10.5265 9.31252L16.8664 15.7427ZM19.2062 15.7427L18.037 17.0371L16.8664 15.7427H19.2062ZM25.5821 9.27046C23.651 11.0175 21.5255 13.1753 19.2062 15.7427L25.5821 9.27046ZM26.6898 8.29512C26.3286 8.60401 25.9593 8.92902 25.5821 9.27046L26.6898 8.29512ZM25.6261 10.0972C26.0183 9.46673 26.3728 8.86585 26.6898 8.29512L25.6261 10.0972ZM19.8209 18.1821C22.2562 15.1003 24.1965 12.3952 25.6261 10.0972L19.8209 18.1821ZM19.8479 19.138L19.4397 18.6644L19.8209 18.1821L19.8479 19.138ZM20.2688 19.6267L19.8479 19.138L20.2688 19.6267ZM24.6189 25.3631L23.4472 26.7007L27.6026 31.7019C27.6267 31.6985 27.6508 31.6946 27.6747 31.6908C27.9556 31.6453 28.2155 31.5759 28.4264 31.4912C28.6763 31.3911 28.914 31.2626 29.1375 31.1061C29.1906 31.0688 29.2429 31.0299 29.2937 30.9896L24.6189 25.3631ZM20.6585 26.1874L23.468 22.9799L24.6787 21.5978L25.8456 23.0024L32.1321 30.5687L32.5385 31.0578L32.1213 31.5396C31.8197 31.888 31.4774 32.1949 31.098 32.4608C30.709 32.7336 30.2753 32.9649 29.802 33.1547C29.3475 33.337 28.8292 33.4798 28.3031 33.5651C27.7812 33.6499 27.236 33.6843 26.7158 33.6534L25.9943 33.6105L25.6326 33.1754L20.6424 27.1696L20.2315 26.6751L20.6585 26.1874" fill="white"/>
<path d="M12.5319 22.8975L13.2842 22.2386L13.2842 22.2386L12.5319 22.8975ZM15.3414 26.105L14.5892 26.7639L14.5892 26.7639L15.3414 26.105ZM15.7686 26.5927L16.5208 25.9338L17.083 26.5756L16.5377 27.2318L15.7686 26.5927ZM15.3576 27.0873L14.5885 26.4482L14.5885 26.4482L15.3576 27.0873ZM10.3674 33.093L9.59812 32.4541L9.59822 32.454L10.3674 33.093ZM10.0059 33.5282L10.7752 34.1671L10.4981 34.5007L10.0652 34.5264L10.0059 33.5282ZM9.28411 33.571L9.34339 34.5693L9.34332 34.5693L9.28411 33.571ZM7.6968 33.4827L7.85682 32.4956L7.85698 32.4956L7.6968 33.4827ZM6.19796 33.0723L5.82565 34.0004L5.82562 34.0004L6.19796 33.0723ZM4.90191 32.3785L5.47598 31.5597L5.47606 31.5597L4.90191 32.3785ZM3.87865 31.4573L4.63474 30.8028L4.63477 30.8028L3.87865 31.4573ZM3.46155 30.9754L2.70546 31.6299L2.1505 30.9887L2.6923 30.3364L3.46155 30.9754ZM3.8678 30.4863L3.09855 29.8473L3.09865 29.8472L3.8678 30.4863ZM10.1543 22.92L9.38517 22.281L9.38518 22.281L10.1543 22.92ZM11.3214 21.5155L10.5523 20.8764L11.3013 19.9749L12.0736 20.8566L11.3214 21.5155ZM12.5528 26.6183L13.305 25.9594L13.8672 26.6012L13.3219 27.2574L12.5528 26.6183ZM11.3811 25.2807L10.6119 24.6417L11.3609 23.7401L12.1333 24.6218L11.3811 25.2807ZM6.70625 30.9072L6.08403 31.69L5.28402 31.0542L5.9371 30.2681L6.70625 30.9072ZM6.86252 31.0237L7.43565 30.2042L7.4365 30.2048L6.86252 31.0237ZM7.57358 31.4089L7.94574 30.4807L7.94602 30.4808L7.57358 31.4089ZM8.32517 31.6084L8.168 32.596L8.16527 32.5955L8.32517 31.6084ZM8.39728 31.6195L9.16642 32.2586L8.80955 32.6881L8.2567 32.6095L8.39728 31.6195ZM24.1943 21.4688L23.4315 20.8222L23.4316 20.8221L24.1943 21.4688ZM21.1439 25.0682L20.381 24.4217L20.3811 24.4216L21.1439 25.0682ZM19.9605 26.4649L20.7235 27.1113L19.966 28.0053L19.2022 27.1168L19.9605 26.4649ZM18.7663 25.0757L18.008 25.7276L18.0079 25.7275L18.7663 25.0757ZM18.0378 24.2228L17.2759 23.5751L18.038 22.6787L18.7998 23.5753L18.0378 24.2228ZM17.3587 25.0177L16.6003 24.3659L16.6004 24.3658L17.3587 25.0177ZM16.1946 26.3723L16.953 27.0241L16.2094 27.8894L15.449 27.0387L16.1946 26.3723ZM14.9973 25.0327L14.2517 25.6991L14.2517 25.6991L14.9973 25.0327ZM11.8674 21.5309L11.1218 22.1973L11.1217 22.1972L11.8674 21.5309ZM11.4349 21.047L10.6893 21.7133L10.121 21.0774L10.6592 20.4159L11.4349 21.047ZM11.8404 20.5487L11.0647 19.9176L11.0648 19.9174L11.8404 20.5487ZM13.4495 18.6215L14.2371 18.0052L14.744 18.653L14.2062 19.2753L13.4495 18.6215ZM7.9445 10.8924L8.7939 10.3646L8.79391 10.3646L7.9445 10.8924ZM5.01377 4.87361L4.05192 5.14717L4.05191 5.14716L5.01377 4.87361ZM4.23482 2.13468L3.27296 2.40823L2.58076 -0.0257049L4.74983 1.27749L4.23482 2.13468ZM7.27759 3.96279L6.76261 4.82L6.76258 4.81998L7.27759 3.96279ZM12.7147 8.1382L13.3852 7.39631L13.3853 7.39635L12.7147 8.1382ZM18.0356 13.4413L18.7688 14.1214L18.0361 14.9113L17.3029 14.1219L18.0356 13.4413ZM23.3832 8.10368L24.0541 8.84518L24.0541 8.84523L23.3832 8.10368ZM28.8474 3.90475L28.3325 3.04754L28.3325 3.04754L28.8474 3.90475ZM31.8903 2.07679L31.3753 1.21958L33.5442 -0.0833794L32.8521 2.35031L31.8903 2.07679ZM31.1114 4.81557L32.0733 5.08909L32.0733 5.08918L31.1114 4.81557ZM28.1608 10.8574L27.3117 10.3293L27.3117 10.3292L28.1608 10.8574ZM22.6297 18.6218L21.8741 19.2769L21.3341 18.6541L21.8424 18.0052L22.6297 18.6218ZM22.64 18.6337L23.3955 17.9786L23.3956 17.9787L22.64 18.6337ZM24.2052 20.509L24.9807 19.8777L24.9808 19.8778L24.2052 20.509ZM24.5984 20.9921L25.374 20.3609L25.8983 21.0051L25.3612 21.6388L24.5984 20.9921ZM19.9493 22.6949L20.7121 23.3415L18.5953 25.8393L18.9553 22.585L19.9493 22.6949ZM21.4067 20.9752L22.18 20.3411L22.7086 20.9857L22.1696 21.6217L21.4067 20.9752ZM20.2863 19.6486L19.5307 20.3036L21.0415 18.9932L20.2863 19.6486ZM20.2688 19.6267L19.8316 18.7273L20.5255 18.39L21.0278 18.9756L20.2688 19.6267ZM20.2677 19.6272L19.5131 20.2834L18.6567 19.2985L19.8305 18.7279L20.2677 19.6272ZM20.2738 19.6342L21.0284 18.978L21.0295 18.9793L20.2738 19.6342ZM20.2863 19.6486L21.0419 18.9936L21.3283 19.324L21.2802 19.7586L20.2863 19.6486ZM19.2351 21.8429L18.4678 22.4841L20.0016 21.2005L19.2351 21.8429ZM19.9493 22.6949L20.7157 22.0526L19.1841 23.3388L19.9493 22.6949ZM16.8413 21.8429V22.8429H14.7011L16.0743 21.2012L16.8413 21.8429ZM18.0391 20.411L17.2721 19.7694L18.0396 18.8518L18.8065 19.7699L18.0391 20.411ZM19.2351 21.8429L20.0026 21.2018L21.3734 22.8429H19.2351V21.8429ZM16.1459 22.6719L16.911 23.3159L15.3798 22.0293L16.1459 22.6719ZM16.8413 21.8429L16.0752 21.2002L17.6084 22.4844L16.8413 21.8429ZM15.9003 19.5167L15.1436 18.8629L16.6651 20.161L15.9003 19.5167ZM14.6513 20.9994L15.4161 21.6437L13.8777 20.3657L14.6513 20.9994ZM16.2564 18.1796L15.2568 18.1514L15.3346 15.3981L17.0413 17.56L16.2564 18.1796ZM16.6376 18.6626L17.4225 18.043L17.9342 18.6912L17.3945 19.3162L16.6376 18.6626ZM16.2293 19.1355L16.9862 19.7891L15.1503 21.9154L15.2297 19.1073L16.2293 19.1355ZM10.4901 10.1321L9.64068 10.6599L11.303 9.54969L10.4901 10.1321ZM16.2564 18.1796L17.0692 17.5972L15.4714 18.7993L16.2564 18.1796ZM9.44326 8.35904L8.56947 8.84535L10.3044 7.85064L9.44326 8.35904ZM10.4901 10.1321L11.3512 9.62373L9.64073 10.66L10.4901 10.1321ZM10.5265 9.31252L11.197 8.57061L9.86579 10.0632L10.5265 9.31252ZM9.44326 8.35904L8.78254 9.10968L10.0932 7.59902L9.44326 8.35904ZM16.8664 15.7427L17.6081 15.0719L16.1543 16.4447L16.8664 15.7427ZM10.5265 9.31252L9.81442 10.0146L11.197 8.57062L10.5265 9.31252ZM19.2062 15.7427V14.7427H21.457L19.9483 16.4129L19.2062 15.7427ZM18.037 17.0371L18.7791 17.7074L18.0375 18.5285L17.2953 17.7079L18.037 17.0371ZM16.8664 15.7427L16.1247 16.4134L14.6138 14.7427H16.8664V15.7427ZM25.5821 9.27046L24.9112 8.52889L26.2945 9.97225L25.5821 9.27046ZM19.2062 15.7427L19.9186 16.4444L18.4642 15.0723L19.2062 15.7427ZM26.6898 8.29512L26.0398 7.53512L27.3506 9.04565L26.6898 8.29512ZM25.5821 9.27046L26.2429 10.021L24.911 8.52904L25.5821 9.27046ZM25.6261 10.0972L26.4752 10.6254L24.7649 9.58885L25.6261 10.0972ZM26.6898 8.29512L25.8286 7.78681L27.564 8.78062L26.6898 8.29512ZM19.8209 18.1821L20.6055 18.8021L19.0086 17.5988L19.8209 18.1821ZM25.6261 10.0972L24.8138 9.51391L26.4752 10.6254L25.6261 10.0972ZM19.8479 19.138L20.8475 19.1097L20.927 21.9215L19.0905 19.7909L19.8479 19.138ZM19.4397 18.6644L18.6823 19.3173L18.1433 18.6921L18.6551 18.0445L19.4397 18.6644ZM19.8209 18.1821L19.0363 17.5621L20.7427 15.4025L20.8205 18.1538L19.8209 18.1821ZM24.6189 25.3631L23.8667 24.7042L24.639 23.8225L25.3881 24.7241L24.6189 25.3631ZM23.4472 26.7007L22.678 27.3398L22.1328 26.6835L22.695 26.0418L23.4472 26.7007ZM27.6026 31.7019L27.7427 32.692L27.1902 32.7702L26.8335 32.3409L27.6026 31.7019ZM27.6747 31.6908L27.8344 32.678L27.8331 32.6782L27.6747 31.6908ZM28.4264 31.4912L28.054 30.5632L28.0543 30.563L28.4264 31.4912ZM29.1375 31.1061L29.7117 31.9248L29.7114 31.925L29.1375 31.1061ZM29.2937 30.9896L30.0629 30.3505L30.716 31.1366L29.9158 31.7725L29.2937 30.9896ZM23.468 22.9799L22.7158 22.321L22.7158 22.3209L23.468 22.9799ZM24.6787 21.5978L23.9265 20.9389L24.6989 20.0572L25.4479 20.9588L24.6787 21.5978ZM25.8456 23.0024L25.0765 23.6415L25.0765 23.6415L25.8456 23.0024ZM32.1321 30.5687L32.9013 29.9296L32.9013 29.9297L32.1321 30.5687ZM32.5385 31.0578L33.3077 30.4188L33.8496 31.0712L33.2945 31.7124L32.5385 31.0578ZM32.1213 31.5396L31.3652 30.8852L31.3653 30.885L32.1213 31.5396ZM31.098 32.4608L30.5239 31.6421L30.524 31.642L31.098 32.4608ZM29.802 33.1547L29.4297 32.2266L29.4297 32.2266L29.802 33.1547ZM28.3031 33.5651L28.1428 32.578L28.1432 32.578L28.3031 33.5651ZM26.7158 33.6534L26.6566 34.6516L26.6565 34.6516L26.7158 33.6534ZM25.9943 33.6105L25.9349 34.6088L25.5023 34.5831L25.2252 34.2497L25.9943 33.6105ZM25.6326 33.1754L24.8636 33.8146L24.8635 33.8145L25.6326 33.1754ZM20.6424 27.1696L19.8732 27.8087L19.8732 27.8086L20.6424 27.1696ZM20.2315 26.6751L19.4623 27.3141L18.9173 26.658L19.4792 26.0163L20.2315 26.6751ZM13.2842 22.2386L16.0936 25.4461L14.5892 26.7639L11.7797 23.5564L13.2842 22.2386ZM16.0936 25.4461L16.5208 25.9338L15.0164 27.2516L14.5892 26.7639L16.0936 25.4461ZM16.5377 27.2318L16.1267 27.7264L14.5885 26.4482L14.9995 25.9536L16.5377 27.2318ZM16.1267 27.7264L11.1365 33.7321L9.59822 32.454L14.5885 26.4482L16.1267 27.7264ZM11.1366 33.732L10.7752 34.1671L9.2367 32.8892L9.59812 32.4541L11.1366 33.732ZM10.0652 34.5264L9.34339 34.5693L9.22483 32.5728L9.94665 32.5299L10.0652 34.5264ZM9.34332 34.5693C8.74103 34.605 8.12178 34.5647 7.53663 34.4698L7.85698 32.4956C8.31548 32.57 8.7867 32.5988 9.2249 32.5728L9.34332 34.5693ZM7.53678 34.4698C6.94272 34.3735 6.35273 34.2119 5.82565 34.0004L6.57028 32.1442C6.95213 32.2974 7.3989 32.4213 7.85682 32.4956L7.53678 34.4698ZM5.82562 34.0004C5.28799 33.7847 4.78545 33.5182 4.32777 33.1972L5.47606 31.5597C5.79631 31.7843 6.16121 31.9801 6.5703 32.1442L5.82562 34.0004ZM4.32784 33.1973C3.88366 32.8859 3.47951 32.5241 3.12253 32.1117L4.63477 30.8028C4.88081 31.0871 5.16172 31.3393 5.47598 31.5597L4.32784 33.1973ZM3.12256 32.1117L2.70546 31.6299L4.21764 30.3209L4.63474 30.8028L3.12256 32.1117ZM2.6923 30.3364L3.09855 29.8473L4.63705 31.1252L4.2308 31.6143L2.6923 30.3364ZM3.09865 29.8472L9.38517 22.281L10.9235 23.5591L4.63696 31.1254L3.09865 29.8472ZM9.38518 22.281L10.5523 20.8764L12.0905 22.1545L10.9235 23.5591L9.38518 22.281ZM12.0736 20.8566L13.2842 22.2386L11.7797 23.5564L10.5692 22.1744L12.0736 20.8566ZM11.8006 27.2773L10.6289 25.9397L12.1333 24.6218L13.305 25.9594L11.8006 27.2773ZM12.1502 25.9198L7.47541 31.5463L5.9371 30.2681L10.6119 24.6417L12.1502 25.9198ZM7.32848 30.1244C7.36274 30.1516 7.39847 30.1782 7.43565 30.2042L6.28938 31.8431C6.21996 31.7946 6.15142 31.7436 6.08403 31.69L7.32848 30.1244ZM7.4365 30.2048C7.59667 30.3171 7.76686 30.409 7.94574 30.4807L7.20142 32.337C6.88065 32.2084 6.57495 32.0433 6.28853 31.8425L7.4365 30.2048ZM7.94602 30.4808C8.07518 30.5326 8.26164 30.5851 8.48507 30.6213L8.16527 32.5955C7.82735 32.5408 7.49366 32.4543 7.20114 32.3369L7.94602 30.4808ZM8.48234 30.6208C8.50781 30.6249 8.52357 30.6274 8.53786 30.6294L8.2567 32.6095C8.223 32.6048 8.19064 32.5996 8.168 32.596L8.48234 30.6208ZM7.62814 30.9804L11.7837 25.9792L13.3219 27.2574L9.16642 32.2586L7.62814 30.9804ZM24.9572 22.1153L21.9068 25.7147L20.3811 24.4216L23.4315 20.8222L24.9572 22.1153ZM21.9069 25.7146L20.7235 27.1113L19.1976 25.8184L20.381 24.4217L21.9069 25.7146ZM19.2022 27.1168L18.008 25.7276L19.5246 24.4238L20.7188 25.813L19.2022 27.1168ZM18.0079 25.7275C17.7894 25.4733 17.5446 25.1867 17.2758 24.8704L18.7998 23.5753C19.0667 23.8894 19.3091 24.1731 19.5246 24.4239L18.0079 25.7275ZM18.7997 24.8705C18.5484 25.1662 18.3203 25.4331 18.117 25.6696L16.6004 24.3658C16.8009 24.1325 17.0265 23.8685 17.2759 23.5751L18.7997 24.8705ZM18.1171 25.6695L16.953 27.0241L15.4362 25.7205L16.6003 24.3659L18.1171 25.6695ZM15.449 27.0387L14.2517 25.6991L15.7428 24.3663L16.9402 25.7059L15.449 27.0387ZM14.2517 25.6991L11.1218 22.1973L12.613 20.8645L15.7428 24.3663L14.2517 25.6991ZM11.1217 22.1972L10.6893 21.7133L12.1806 20.3806L12.613 20.8645L11.1217 22.1972ZM10.6592 20.4159L11.0647 19.9176L12.6161 21.1798L12.2106 21.6781L10.6592 20.4159ZM11.0648 19.9174C11.9375 18.8452 12.1917 18.5476 12.6929 17.9676L14.2062 19.2753C13.719 19.839 13.4775 20.1215 12.6159 21.18L11.0648 19.9174ZM12.662 19.2378C10.3691 16.3077 8.50654 13.6918 7.0951 11.4201L8.79391 10.3646C10.1559 12.5568 11.9729 15.1119 14.2371 18.0052L12.662 19.2378ZM7.09511 11.4201C5.58146 8.98397 4.54334 6.87499 4.05192 5.14717L5.97562 4.60004C6.39264 6.06626 7.31967 7.99189 8.7939 10.3646L7.09511 11.4201ZM4.05191 5.14716L3.27296 2.40823L5.19668 1.86112L5.97563 4.60006L4.05191 5.14716ZM4.74983 1.27749L7.79259 3.1056L6.76258 4.81998L3.71982 2.99186L4.74983 1.27749ZM7.79256 3.10559C9.49079 4.12581 11.3562 5.56246 13.3852 7.39631L12.0442 8.88008C10.0746 7.09991 8.31441 5.75225 6.76261 4.82L7.79256 3.10559ZM13.3853 7.39635C15.0525 8.90335 16.8474 10.6926 18.7683 12.7608L17.3029 14.1219C15.4118 12.0858 13.6587 10.3395 12.0441 8.88005L13.3853 7.39635ZM17.3024 12.7613C19.2374 10.6752 21.041 8.87418 22.7123 7.36212L24.0541 8.84523C22.4359 10.3092 20.6742 12.0671 18.7688 14.1214L17.3024 12.7613ZM22.7122 7.36217C24.7511 5.51733 26.6255 4.07301 28.3325 3.04754L29.3624 4.76196C27.8023 5.69923 26.0334 7.05429 24.0541 8.84518L22.7122 7.36217ZM28.3325 3.04754L31.3753 1.21958L32.4052 2.934L29.3624 4.76196L28.3325 3.04754ZM32.8521 2.35031L32.0733 5.08909L30.1496 4.54205L30.9284 1.80327L32.8521 2.35031ZM32.0733 5.08918C31.583 6.81257 30.5376 8.92977 29.01 11.3856L27.3117 10.3292C28.8013 7.93454 29.7343 6.00176 30.1496 4.54196L32.0733 5.08918ZM29.01 11.3855C27.579 13.6863 25.7074 16.3139 23.4169 19.2384L21.8424 18.0052C24.1036 15.1181 25.9298 12.5512 27.3117 10.3293L29.01 11.3855ZM23.3852 17.9667L23.3955 17.9786L21.8845 19.2888L21.8741 19.2769L23.3852 17.9667ZM23.3956 17.9787C23.8528 18.5062 24.046 18.7294 24.9807 19.8777L23.4296 21.1403C22.5057 20.0052 22.3259 19.7981 21.8844 19.2887L23.3956 17.9787ZM24.9808 19.8778L25.374 20.3609L23.8228 21.6234L23.4296 21.1403L24.9808 19.8778ZM25.3612 21.6388L24.9571 22.1154L23.4316 20.8221L23.8356 20.3455L25.3612 21.6388ZM19.1864 22.0484L20.6438 20.3286L22.1696 21.6217L20.7121 23.3415L19.1864 22.0484ZM20.6335 21.6093C20.1314 20.997 19.9236 20.7569 19.5307 20.3036L21.0419 18.9936C21.4416 19.4547 21.6622 19.7097 22.18 20.3411L20.6335 21.6093ZM21.0415 18.9932C21.0744 19.031 21.079 19.036 21.0672 19.0233C21.0649 19.0209 21.0596 19.0151 21.0526 19.0079C21.0491 19.0043 21.0431 18.9982 21.0354 18.9907C21.0298 18.9851 21.0135 18.9692 20.9915 18.9501C20.9811 18.941 20.9589 18.922 20.929 18.9C20.9196 18.893 20.8278 18.8224 20.6929 18.7707C20.6017 18.7407 20.3308 18.7045 20.1536 18.7211C19.879 18.8146 19.4722 19.1992 19.3671 19.4539C19.3394 19.6117 19.3471 19.8588 19.3644 19.9445C19.3781 19.9945 19.4064 20.0752 19.4194 20.1063C19.4446 20.1636 19.4696 20.2057 19.4782 20.2199C19.4899 20.2394 19.5 20.2547 19.5059 20.2634C19.5177 20.2809 19.5276 20.2943 19.5318 20.3C19.5411 20.3126 19.5487 20.3221 19.5511 20.3251C19.5544 20.3294 19.5572 20.3328 19.5587 20.3346C19.5617 20.3383 19.5639 20.341 19.5646 20.3419C19.5668 20.3444 19.5668 20.3444 19.5616 20.3383C19.5528 20.328 19.5366 20.309 19.5098 20.2778L21.0278 18.9756C21.0548 19.0071 21.0733 19.0286 21.0848 19.0423C21.0898 19.0481 21.0964 19.0559 21.1022 19.0628C21.1038 19.0647 21.1068 19.0683 21.1103 19.0727C21.1121 19.0749 21.115 19.0785 21.1186 19.083C21.1212 19.0863 21.1289 19.096 21.1383 19.1087C21.1426 19.1145 21.1525 19.1279 21.1643 19.1455C21.1702 19.1542 21.1803 19.1695 21.192 19.189C21.2006 19.2033 21.2257 19.2454 21.2509 19.3027C21.2639 19.3338 21.2922 19.4145 21.3059 19.4645C21.3232 19.5501 21.3308 19.7972 21.3032 19.9551C21.1981 20.2097 20.7913 20.5944 20.5167 20.6879C20.3395 20.7045 20.0685 20.6683 19.9773 20.6383C19.8424 20.5866 19.7506 20.516 19.7412 20.509C19.7113 20.487 19.6891 20.4679 19.6787 20.4588C19.6567 20.4397 19.6403 20.4238 19.6346 20.4182C19.6269 20.4106 19.6209 20.4044 19.6173 20.4007C19.6102 20.3934 19.6046 20.3874 19.6021 20.3847C19.5834 20.3646 19.543 20.3178 19.531 20.304L21.0415 18.9932ZM20.706 20.526L20.705 20.5266L19.8305 18.7279L19.8316 18.7273L20.706 20.526ZM21.0223 18.971L21.0284 18.978L19.5192 20.2904L19.5131 20.2834L21.0223 18.971ZM21.0295 18.9793L21.0419 18.9936L19.5306 20.3036L19.5182 20.2892L21.0295 18.9793ZM21.2802 19.7586L20.9432 22.8049L18.9553 22.585L19.2923 19.5386L21.2802 19.7586ZM20.0025 21.2016C20.2905 21.5462 20.5259 21.8271 20.7144 22.051L19.1841 23.3388C18.9938 23.1126 18.7567 22.8299 18.4678 22.4841L20.0025 21.2016ZM19.1828 23.3373L18.4687 22.4852L20.0016 21.2005L20.7157 22.0526L19.1828 23.3373ZM16.0743 21.2012L17.2721 19.7694L18.8061 21.0526L17.6084 22.4845L16.0743 21.2012ZM18.8065 19.7699L20.0026 21.2018L18.4677 22.4839L17.2716 21.0521L18.8065 19.7699ZM19.2351 22.8429H16.8413V20.8429H19.2351V22.8429ZM15.3809 22.0279C15.5617 21.8131 15.7933 21.5371 16.0743 21.2013L17.6084 22.4844C17.3263 22.8217 17.0934 23.0992 16.911 23.3159L15.3809 22.0279ZM17.6075 22.4855L16.9121 23.3146L15.3798 22.0293L16.0752 21.2002L17.6075 22.4855ZM15.3969 20.3331L16.8916 22.0056L15.4003 23.3383L13.9056 21.6658L15.3969 20.3331ZM15.4003 23.3383L13.9056 21.6658L15.3969 20.3331L16.8916 22.0056L15.4003 23.3383ZM16.6569 20.1705C16.2229 20.6728 16.0047 20.9253 15.4248 21.6331L13.8777 20.3657C14.4724 19.6398 14.7028 19.373 15.1436 18.8629L16.6569 20.1705ZM13.8864 20.3552L15.1355 18.8724L16.6651 20.161L15.4161 21.6437L13.8864 20.3552ZM16.9863 19.789L16.6572 20.1702L15.1433 18.8632L15.4724 18.4821L16.9863 19.789ZM15.1433 18.8632L15.4724 18.4821L16.9863 19.789L16.6572 20.1702L15.1433 18.8632ZM17.0413 17.56L17.4225 18.043L15.8527 19.2822L15.4714 18.7992L17.0413 17.56ZM17.3945 19.3162L16.9862 19.7891L15.4724 18.482L15.8807 18.0091L17.3945 19.3162ZM15.2297 19.1073L15.2568 18.1514L17.256 18.2079L17.2289 19.1638L15.2297 19.1073ZM11.3395 9.60438C12.7485 11.8722 14.6521 14.5335 17.0413 17.56L15.4714 18.7993C13.0529 15.7356 11.1015 13.011 9.64068 10.6599L11.3395 9.60438ZM15.4435 18.7621L9.67721 10.7146L11.303 9.54969L17.0692 17.5972L15.4435 18.7621ZM10.317 7.87274C10.6209 8.41862 10.9614 8.99597 11.3394 9.60431L9.64073 10.66C9.2476 10.0273 8.89054 9.42224 8.56947 8.84535L10.317 7.87274ZM9.62896 10.6405L8.58214 8.86744L10.3044 7.85064L11.3512 9.62373L9.62896 10.6405ZM9.856 10.0544C9.49331 9.72664 9.1392 9.4148 8.79336 9.11906L10.0932 7.59902C10.4542 7.90778 10.8221 8.23179 11.197 8.57061L9.856 10.0544ZM10.104 7.6084L11.1872 8.56188L9.86579 10.0632L8.78254 9.10968L10.104 7.6084ZM16.1247 16.4134C13.8293 13.8753 11.7398 11.7569 9.856 10.0544L11.197 8.57062C13.1439 10.3302 15.2815 12.4994 17.6081 15.0719L16.1247 16.4134ZM11.2386 8.61043L17.5785 15.0406L16.1543 16.4447L9.81442 10.0146L11.2386 8.61043ZM19.9483 16.4129L18.7791 17.7074L17.2949 16.3668L18.4641 15.0724L19.9483 16.4129ZM17.2953 17.7079L16.1247 16.4134L17.6081 15.0719L18.7787 16.3664L17.2953 17.7079ZM16.8664 14.7427H19.2062V16.7427H16.8664V14.7427ZM26.2529 10.012C24.3533 11.7306 22.2519 13.8629 19.9483 16.413L18.4642 15.0723C20.7992 12.4876 22.9486 10.3044 24.9112 8.52889L26.2529 10.012ZM18.4938 15.0409L24.8697 8.56868L26.2945 9.97225L19.9186 16.4444L18.4938 15.0409ZM27.3397 9.05513C26.986 9.35761 26.6238 9.67641 26.2531 10.0119L24.911 8.52904C25.2949 8.18163 25.6712 7.85041 26.0398 7.53512L27.3397 9.05513ZM24.9212 8.51994L26.0289 7.5446L27.3506 9.04565L26.2429 10.021L24.9212 8.51994ZM24.777 9.5689C25.1615 8.95086 25.5075 8.36429 25.8155 7.80962L27.564 8.78062C27.2381 9.36742 26.8751 9.98261 26.4752 10.6254L24.777 9.5689ZM27.5509 8.80343L26.4873 10.6055L24.7649 9.58885L25.8286 7.78681L27.5509 8.80343ZM19.0363 17.562C21.4574 14.4983 23.3736 11.8249 24.777 9.56894L26.4752 10.6254C25.0195 12.9655 23.055 15.7023 20.6055 18.8021L19.0363 17.562ZM26.4384 10.6804L20.6332 18.7653L19.0086 17.5988L24.8138 9.51391L26.4384 10.6804ZM19.0905 19.7909L18.6823 19.3173L20.1972 18.0115L20.6053 18.4851L19.0905 19.7909ZM18.6551 18.0445L19.0363 17.5621L20.6055 18.802L20.2243 19.2844L18.6551 18.0445ZM20.8205 18.1538L20.8475 19.1097L18.8483 19.1663L18.8213 18.2103L20.8205 18.1538ZM19.5111 20.2793L19.0902 19.7906L20.6056 18.4854L21.0265 18.9741L19.5111 20.2793ZM20.6056 18.4854L21.0265 18.9741L19.5111 20.2793L19.0902 19.7906L20.6056 18.4854ZM25.3711 26.022L24.1994 27.3596L22.695 26.0418L23.8667 24.7042L25.3711 26.022ZM24.2163 26.0616L28.3718 31.0628L26.8335 32.3409L22.678 27.3398L24.2163 26.0616ZM27.4626 30.7117C27.4764 30.7098 27.4922 30.7073 27.5162 30.7034L27.8331 32.6782C27.8094 32.682 27.777 32.6872 27.7427 32.692L27.4626 30.7117ZM27.5149 30.7036C27.7384 30.6675 27.9247 30.615 28.054 30.5632L28.7988 32.4193C28.5063 32.5367 28.1728 32.6232 27.8344 32.678L27.5149 30.7036ZM28.0543 30.563C28.2331 30.4914 28.4032 30.3996 28.5636 30.2871L29.7114 31.925C29.4249 32.1257 29.1194 32.2908 28.7984 32.4195L28.0543 30.563ZM28.5633 30.2874C28.6014 30.2606 28.6376 30.2336 28.6716 30.2067L29.9158 31.7725C29.8482 31.8262 29.7799 31.877 29.7117 31.9248L28.5633 30.2874ZM28.5245 31.6286L23.8497 26.0022L25.3881 24.7241L30.0629 30.3505L28.5245 31.6286ZM19.9063 25.5285L22.7158 22.321L24.2202 23.6388L21.4108 26.8463L19.9063 25.5285ZM22.7158 22.3209L23.9265 20.9389L25.4309 22.2568L24.2202 23.6388L22.7158 22.3209ZM25.4479 20.9588L26.6148 22.3634L25.0765 23.6415L23.9095 22.2369L25.4479 20.9588ZM26.6148 22.3634L32.9013 29.9296L31.363 31.2077L25.0765 23.6415L26.6148 22.3634ZM32.9013 29.9297L33.3077 30.4188L31.7693 31.6968L31.3629 31.2077L32.9013 29.9297ZM33.2945 31.7124L32.8773 32.1942L31.3653 30.885L31.7825 30.4032L33.2945 31.7124ZM32.8774 32.194C32.5205 32.6064 32.1165 32.9682 31.6719 33.2797L30.524 31.642C30.8383 31.4217 31.119 31.1696 31.3652 30.8852L32.8774 32.194ZM31.6721 33.2796C31.2145 33.6005 30.712 33.8671 30.1742 34.0828L29.4297 32.2266C29.8387 32.0626 30.2035 31.8667 30.5239 31.6421L31.6721 33.2796ZM30.1743 34.0828C29.6472 34.2942 29.0573 34.4559 28.4631 34.5522L28.1432 32.578C28.6011 32.5037 29.0478 32.3798 29.4297 32.2266L30.1743 34.0828ZM28.4635 34.5521C27.878 34.6473 27.2587 34.6874 26.6566 34.6516L26.775 32.6552C27.2133 32.6812 27.6844 32.6525 28.1428 32.578L28.4635 34.5521ZM26.6565 34.6516L25.9349 34.6088L26.0536 32.6123L26.7751 32.6552L26.6565 34.6516ZM25.2252 34.2497L24.8636 33.8146L26.4017 32.5362L26.7633 32.9713L25.2252 34.2497ZM24.8635 33.8145L19.8732 27.8087L21.4115 26.5305L26.4018 32.5363L24.8635 33.8145ZM19.8732 27.8086L19.4623 27.3141L21.0007 26.0361L21.4116 26.5306L19.8732 27.8086ZM19.4792 26.0163L19.9062 25.5286L21.4109 26.8461L20.9839 27.3338L19.4792 26.0163Z" fill="white" mask="url(#path-3-outside-1)"/>
<path fill-rule="evenodd" clip-rule="evenodd" d="M7.69025 18.6699L17.9769 6.29899L28.2636 18.6699L17.9769 31.041L7.69025 18.6699Z" fill="white"/>
<path fill-rule="evenodd" clip-rule="evenodd" d="M19.7679 24.3657L23.0204 21.138C15.5775 11.8667 10.732 7.33023 6.35455 4.66924C7.27273 8.00015 10.5365 13.1545 16.1455 20.1313C17.2204 21.468 18.5206 22.8948 19.7679 24.3657Z" fill="white"/>
<path fill-rule="evenodd" clip-rule="evenodd" d="M21.5637 26.3541L25.9452 25.0388L30.935 31.0448C30.607 31.5313 29.9811 31.9733 29.3308 32.2343C28.6129 32.5222 27.7768 32.6802 26.8294 32.6919L21.5637 26.3541Z" fill="white"/>
<path d="M22.5177 25.792L24.8837 24.0743L31.3037 30.7963C31.0263 31.2077 30.4971 31.5813 29.9474 31.802C29.3404 32.0455 28.6336 32.179 27.8325 32.189L22.5177 25.792ZM20.3772 23.6327L23.0824 21.0792C16.3624 12.7085 12.1408 8.19362 8.18848 5.791C9.01743 8.79857 12.2694 13.627 17.3253 19.9292C18.0678 20.855 18.2288 21.0745 18.7575 21.7053C18.9219 21.9015 20.1128 23.323 20.3772 23.6327" fill="url(#paint0_linear)"/>
<path fill-rule="evenodd" clip-rule="evenodd" d="M20.7774 23.2549L21.8296 22.4532C19.6976 19.7976 15.5431 15.1791 14.2682 14.3274C14.7286 15.5154 17.8706 19.6941 19.4771 21.6923C19.7848 22.075 20.4202 22.8336 20.7774 23.2549" fill="#111135"/>
<path d="M23.5985 21.2241L20.5481 24.8236L19.9564 25.522L19.3593 24.8274C15.4492 20.2774 12.3372 16.299 10.058 12.9599C7.73797 9.56101 6.27117 6.81047 5.69339 4.77945L5.30383 3.40991L6.82539 4.32404C8.71184 5.45736 10.8685 7.17377 13.2947 9.47313C15.7008 11.7535 18.3831 14.6172 21.3408 18.0638C21.4767 18.2224 21.7988 18.5938 22.0466 18.8799C22.5092 19.4136 22.7012 19.6349 23.6039 20.7443L23.8005 20.9859L23.5985 21.2241ZM19.9497 23.6382L22.2048 20.9772C21.5128 20.1292 21.3066 19.8911 20.8607 19.3767C20.7513 19.2503 20.6363 19.1181 20.1548 18.5569C17.2227 15.1403 14.5639 12.3016 12.1791 10.0414C10.5268 8.47533 9.01054 7.19141 7.63102 6.18984C8.37404 7.92329 9.60509 10.0531 11.3093 12.5497C13.4559 15.6948 16.3459 19.4101 19.9497 23.6382" fill="#111135"/>
<path fill-rule="evenodd" clip-rule="evenodd" d="M25.9161 31.5778C26.1027 31.8304 26.2745 32.0913 26.2745 32.0913C27.7788 31.5715 28.709 31.0786 29.1438 30.7471C28.5027 30.7994 27.4007 31.0315 25.9161 31.5778" fill="#111135"/>
<path fill-rule="evenodd" clip-rule="evenodd" d="M25.1327 30.6598C25.3193 30.9125 25.4913 31.1733 25.4913 31.1733C26.9956 30.6535 27.9256 30.1606 28.3603 29.8292C27.7195 29.8815 26.6172 30.1136 25.1327 30.6598" fill="#111135"/>
<path fill-rule="evenodd" clip-rule="evenodd" d="M24.3494 29.7424C24.5359 29.995 24.7078 30.2559 24.7078 30.2559C26.2121 29.7361 27.1421 29.2431 27.5771 28.9116C26.936 28.964 25.834 29.1961 24.3494 29.7424" fill="#111135"/>
<path fill-rule="evenodd" clip-rule="evenodd" d="M23.5657 28.8244C23.7523 29.077 23.9242 29.3379 23.9242 29.3379C25.4284 28.8181 26.3586 28.3252 26.7934 27.9936C26.1523 28.046 25.0501 28.2781 23.5657 28.8244" fill="#111135"/>
<path fill-rule="evenodd" clip-rule="evenodd" d="M22.7819 27.9069C22.9684 28.1596 23.1403 28.4204 23.1403 28.4204C24.6445 27.9006 25.5747 27.4077 26.0095 27.0762C25.3686 27.1285 24.2663 27.3606 22.7819 27.9069" fill="#111135"/>
<path fill-rule="evenodd" clip-rule="evenodd" d="M21.9987 26.9889C22.1852 27.2415 22.3572 27.5024 22.3572 27.5024C23.8614 26.9827 24.7916 26.4897 25.2265 26.1582C24.5853 26.2106 23.4831 26.4426 21.9987 26.9889" fill="#111135"/>
<path d="M24.6341 24.4203L22.6434 26.6929L27.2332 32.2168C27.4312 32.2106 27.6334 32.1902 27.8319 32.1579C28.1743 32.1025 28.4988 32.0147 28.7706 31.9058C29.0759 31.7833 29.3629 31.6291 29.6278 31.4433C29.8048 31.3193 29.971 31.1814 30.1256 31.0296L24.6341 24.4203ZM21.2491 26.4362L24.0586 23.2287L24.6639 22.5378L25.2473 23.24L31.5338 30.8063L31.7371 31.0509L31.5284 31.2917C31.2566 31.6059 30.9483 31.8822 30.6081 32.1208C30.2608 32.3643 29.8759 32.5698 29.4583 32.7374C29.0646 32.8953 28.6107 33.0198 28.1463 33.095C27.6929 33.1686 27.221 33.1987 26.7728 33.1721L26.4121 33.1507L26.2313 32.9332L21.2411 26.9273L21.0356 26.68L21.2491 26.4362" fill="#111135"/>
<path d="M6.49305 18.1885L16.7797 5.81753L17.9767 4.37804L19.1737 5.81753L29.4605 18.1885L29.8612 18.6701L29.4605 19.1519L19.1737 31.5229L17.9767 32.9624L16.7797 31.5229L6.49305 19.1519L6.09247 18.6701L6.49305 18.1885ZM17.9767 8.22045L9.28743 18.6701L17.9767 29.12L26.6659 18.6701L17.9767 8.22045Z" fill="#111135"/>
<path fill-rule="evenodd" clip-rule="evenodd" d="M19.7674 24.3657C18.6867 23.1158 18.1464 22.4907 18.1464 22.4907C18.8454 21.1459 19.9099 19.9582 21.34 18.9277C22.4485 20.297 23.0027 20.9816 23.0027 20.9816C20.8458 23.2378 19.7674 24.3657 19.7674 24.3657Z" fill="#111135"/>
<path fill-rule="evenodd" clip-rule="evenodd" d="M13.0428 21.0211L16.1726 24.5229C24.006 15.4082 28.624 8.59442 29.7519 4.62946C26.0596 6.84756 21.2675 11.3885 15.3771 18.2525C14.2484 19.5678 14.2524 19.535 13.0428 21.0211Z" fill="white"/>
<path fill-rule="evenodd" clip-rule="evenodd" d="M11.3508 23.3965L14.1602 26.6039L9.17006 32.6097C8.3996 32.6555 7.53589 32.4998 6.88542 32.239C6.16757 31.951 5.55284 31.5269 5.06439 30.9626L11.3508 23.3965Z" fill="white"/>
<path d="M11.5074 24.9176L13.8827 27.6294L9.66364 32.7071C9.01223 32.7459 8.28201 32.6143 7.73211 32.3936C7.12517 32.1502 6.60545 31.7917 6.1925 31.3145L11.5074 24.9176ZM14.1106 21.3611L16.7669 24.4527C23.8392 16.2234 28.2518 9.87376 29.2699 6.29411C25.9364 8.29664 21.5363 12.6646 16.2182 18.8615C15.1992 20.0489 15.2027 20.0194 14.1106 21.3611Z" fill="url(#paint1_linear)"/>
<path d="M13.847 21.0093L16.1604 23.5979C19.7709 19.3626 22.6662 15.6413 24.8157 12.492C26.52 9.99535 27.7509 7.86543 28.4939 6.13199C27.1144 7.13356 25.5986 8.41748 23.9461 9.98329C21.5611 12.2438 18.9023 15.0825 15.9703 18.499C15.6924 18.8228 15.4829 19.0652 15.3074 19.2683C14.8178 19.8349 14.5926 20.0955 13.847 21.0093V21.0093ZM15.5851 24.777L12.4552 21.2752L12.2389 21.0332L12.4416 20.784C13.353 19.6643 13.578 19.404 14.1213 18.7752C14.2969 18.572 14.5064 18.3297 14.7842 18.0059C17.7421 14.5594 20.4243 11.6956 22.8306 9.41512C25.2567 7.11592 27.4133 5.39936 29.2996 4.26619L30.8212 3.35221L30.4316 4.7216C29.8539 6.75262 28.387 9.50316 26.0668 12.9022C23.7878 16.2411 20.6758 20.2197 16.7657 24.7695L16.1837 25.4468L15.5851 24.777Z" fill="#111135"/>
<path fill-rule="evenodd" clip-rule="evenodd" d="M14.4285 21.8314L15.325 22.8345C17.5688 20.2236 21.2477 15.4142 21.6715 14.2212C20.4212 15.0922 16.7844 19.0724 15.0972 21.0383C14.774 21.415 14.775 21.4058 14.4285 21.8314Z" fill="#111135"/>
<path fill-rule="evenodd" clip-rule="evenodd" d="M17.2339 27.0669C17.1518 23.742 14.7295 20.7853 10.7064 19.2284C15.058 24.4541 17.2339 27.0669 17.2339 27.0669Z" fill="#111135"/>
<path fill-rule="evenodd" clip-rule="evenodd" d="M18.7801 27.0742C18.8621 23.7493 21.2845 20.7926 25.3076 19.2358C20.9559 24.4615 18.7801 27.0742 18.7801 27.0742Z" fill="#111135"/>
<path fill-rule="evenodd" clip-rule="evenodd" d="M16.7869 11.4286L17.9775 9.99675L19.1681 11.4286L17.9775 12.8604L16.7869 11.4286Z" fill="#111135"/>
<path d="M17.9759 31.3174L14.7515 27.2376L17.9793 30.3721L21.2001 27.2376L17.9759 31.3174ZM17.9759 6.01939L14.7515 10.0992L17.9793 6.96458L21.2001 10.0992L17.9759 6.01939ZM28.6618 18.662L26.0492 15.8501L27.8075 18.6652L26.0492 21.4741L28.6618 18.662ZM7.33191 18.662L9.94459 15.8501L8.18629 18.6652L9.94459 21.4741L7.33191 18.662" fill="url(#paint2_linear)"/>
<path d="M11.9411 23.1461L14.7506 26.3536L14.9642 26.5975L14.7587 26.8448L9.76843 32.8506L9.58776 33.0682L9.22686 33.0896C8.77872 33.1162 8.30679 33.0861 7.85352 33.0125C7.38914 32.9373 6.93517 32.8128 6.54153 32.6548C6.12377 32.4873 5.73902 32.2818 5.39175 32.0382C5.05151 31.7997 4.74331 31.5234 4.47137 31.2092L4.26282 30.9684L4.46595 30.7237L10.7525 23.1576L11.336 22.4552L11.9411 23.1461ZM13.3563 26.6105L11.3656 24.3378L5.8742 30.947C6.02886 31.0989 6.19503 31.2368 6.37197 31.3608C6.63696 31.5466 6.92373 31.7008 7.22923 31.8232C7.50099 31.9322 7.82555 32.0199 8.16773 32.0755C8.3663 32.1077 8.5684 32.128 8.76662 32.1343L13.3563 26.6105" fill="#111135"/>
<path fill-rule="evenodd" clip-rule="evenodd" d="M5.99663 29.8558C5.77504 30.0944 5.53589 30.3283 5.53589 30.3283C6.93583 30.9736 8.01528 31.287 8.64586 31.3828C8.26009 31.0233 7.41971 30.476 5.99663 29.8558" fill="#111135"/>
<path fill-rule="evenodd" clip-rule="evenodd" d="M6.74895 28.9257C6.52743 29.1642 6.28821 29.3982 6.28821 29.3982C7.68814 30.0434 8.76759 30.3568 9.39817 30.4526C9.01241 30.0931 8.17212 29.5458 6.74895 28.9257" fill="#111135"/>
<path fill-rule="evenodd" clip-rule="evenodd" d="M7.50065 27.995C7.27914 28.2335 7.03992 28.4674 7.03992 28.4674C8.43985 29.1128 9.51922 29.4261 10.1498 29.522C9.76412 29.1624 8.92374 28.6152 7.50065 27.995Z" fill="#111135"/>
<path fill-rule="evenodd" clip-rule="evenodd" d="M8.25307 27.0648C8.03157 27.3034 7.79242 27.5373 7.79242 27.5373C9.19236 28.1826 10.2716 28.4959 10.9022 28.5918C10.5165 28.2322 9.67615 27.685 8.25307 27.0648" fill="#111135"/>
<path fill-rule="evenodd" clip-rule="evenodd" d="M9.0048 26.1342C8.78322 26.3727 8.54407 26.6066 8.54407 26.6066C9.944 27.2519 11.0234 27.5653 11.6539 27.6611C11.2682 27.3016 10.4279 26.7544 9.0048 26.1342" fill="#111135"/>
<path fill-rule="evenodd" clip-rule="evenodd" d="M9.75676 25.204C9.53518 25.4425 9.29602 25.6764 9.29602 25.6764C10.696 26.3218 11.7753 26.6351 12.406 26.731C12.0202 26.3714 11.1798 25.8242 9.75676 25.204Z" fill="#111135"/>
<path fill-rule="evenodd" clip-rule="evenodd" d="M9.71979 23.032L14.3092 28.5513L14.3176 27.1512L11.5873 23.6656L9.71979 23.032" fill="#111135"/>
</g>
<defs>
<linearGradient id="paint0_linear" x1="8.18848" y1="18.99" x2="31.304" y2="18.99" gradientUnits="userSpaceOnUse">
<stop stop-color="#B978FF"/>
<stop offset="1" stop-color="#346FFF"/>
</linearGradient>
<linearGradient id="paint1_linear" x1="-9.53627" y1="33.9383" x2="29.6047" y2="-8.97193" gradientUnits="userSpaceOnUse">
<stop stop-color="#2E6FFF"/>
<stop offset="0.34375" stop-color="#7574FF"/>
<stop offset="1" stop-color="#BD79FF"/>
</linearGradient>
<linearGradient id="paint2_linear" x1="17.6898" y1="26.1219" x2="17.9865" y2="11.2088" gradientUnits="userSpaceOnUse">
<stop stop-color="#2A6FFF"/>
<stop offset="1" stop-color="#BB79FF"/>
</linearGradient>
<clipPath id="clip0">
<rect width="36" height="36" fill="white"/>
</clipPath>
</defs>
</svg>
