<svg width="16" height="16" viewBox="0 0 16 16" fill="none" xmlns="http://www.w3.org/2000/svg">
<path d="M6.66665 12C7.89731 12 9.02865 11.5767 9.93131 10.8747L12.862 13.8054L13.8046 12.8627L10.874 9.93204C11.5766 9.02871 12 7.89737 12 6.66671C12 3.72604 9.60731 1.33337 6.66665 1.33337C3.72598 1.33337 1.33331 3.72604 1.33331 6.66671C1.33331 9.60737 3.72598 12 6.66665 12ZM6.66665 2.66671C8.87265 2.66671 10.6666 4.46071 10.6666 6.66671C10.6666 8.87271 8.87265 10.6667 6.66665 10.6667C4.46065 10.6667 2.66665 8.87271 2.66665 6.66671C2.66665 4.46071 4.46065 2.66671 6.66665 2.66671Z" fill="white"/>
</svg>
