<svg width="16" height="19" viewBox="0 0 16 19" fill="none" xmlns="http://www.w3.org/2000/svg">
<path d="M8.66668 14.7777V11.6666H10.6667L8.00001 7.77771L5.33334 11.6666H7.33334V14.7777H8.66668Z" fill="#868EBE"/>
<path d="M4.66668 14.7778H6.00001V13.2222H4.66668C3.56401 13.2222 2.66668 12.1754 2.66668 10.8889C2.66668 9.79691 3.46601 8.74536 4.44868 8.54391L4.83601 8.46458L4.96401 8.03058C5.43268 6.43536 6.59668 5.44447 8.00001 5.44447C9.83801 5.44447 11.3333 7.18903 11.3333 9.33336V10.1111H12C12.7353 10.1111 13.3333 10.8088 13.3333 11.6667C13.3333 12.5246 12.7353 13.2222 12 13.2222H10V14.7778H12C13.4707 14.7778 14.6667 13.3825 14.6667 11.6667C14.6667 10.2045 13.7967 8.97402 12.6293 8.64269C12.338 5.96558 10.3733 3.88892 8.00001 3.88892C6.16268 3.88892 4.56668 5.14192 3.83801 7.11669C2.40601 7.61602 1.33334 9.19336 1.33334 10.8889C1.33334 13.0332 2.82868 14.7778 4.66668 14.7778Z" fill="#868EBE"/>
</svg>
