<svg width="14" height="14" viewBox="0 0 14 14" fill="none" xmlns="http://www.w3.org/2000/svg">
<path d="M14 7C14 10.8668 10.8657 14 7 14C3.13428 14 0 10.8668 0 7C0 3.13541 3.13428 0 7 0C10.8657 0 14 3.13541 14 7ZM7.18784 2.31452C5.64962 2.31452 4.66855 2.9625 3.89815 4.11414C3.79835 4.26334 3.83174 4.46456 3.97479 4.57303L4.95419 5.31565C5.10111 5.42706 5.31043 5.40056 5.42458 5.25576C5.9288 4.61622 6.27454 4.24536 7.042 4.24536C7.61863 4.24536 8.33186 4.61647 8.33186 5.17562C8.33186 5.59833 7.98291 5.81542 7.41356 6.13462C6.74958 6.50684 5.87097 6.97011 5.87097 8.12903V8.24193C5.87097 8.42899 6.02262 8.58064 6.20968 8.58064H7.79032C7.97737 8.58064 8.12903 8.42899 8.12903 8.24193V8.20431C8.12903 7.40095 10.477 7.3675 10.477 5.19355C10.477 3.5564 8.77882 2.31452 7.18784 2.31452ZM7 9.31452C6.28405 9.31452 5.70161 9.89696 5.70161 10.6129C5.70161 11.3288 6.28405 11.9113 7 11.9113C7.71595 11.9113 8.29839 11.3288 8.29839 10.6129C8.29839 9.89696 7.71595 9.31452 7 9.31452Z" fill="#868EBE"/>
</svg>
