<svg width="16" height="16" viewBox="0 0 16 16" fill="none" xmlns="http://www.w3.org/2000/svg">
<path d="M15.5594 4.43846L14.1187 5.87914C13.9718 6.02602 13.7343 6.02602 13.5874 5.87914L10.1185 2.41025C9.9716 2.26337 9.9716 2.02586 10.1185 1.87898L11.5592 0.438299C12.1436 -0.1461 13.0936 -0.1461 13.6811 0.438299L15.5594 2.3165C16.1469 2.9009 16.1469 3.85093 15.5594 4.43846ZM8.88092 3.11653L0.674291 11.3231L0.0117601 15.1201C-0.0788691 15.6327 0.368027 16.0764 0.88055 15.9889L4.6776 15.3233L12.8842 7.11669C13.0311 6.96981 13.0311 6.7323 12.8842 6.58542L9.41532 3.11653C9.26531 2.96965 9.0278 2.96965 8.88092 3.11653V3.11653ZM3.87756 10.62C3.70568 10.4481 3.70568 10.1731 3.87756 10.0012L8.69029 5.18849C8.86217 5.01661 9.13718 5.01661 9.30907 5.18849C9.48095 5.36037 9.48095 5.63538 9.30907 5.80726L4.49634 10.62C4.32446 10.7918 4.04945 10.7918 3.87756 10.62V10.62ZM2.74939 13.2482H4.24946V14.3826L2.23374 14.7357L1.26182 13.7638L1.61496 11.7481H2.74939V13.2482Z" fill="white"/>
</svg>
