<svg width="16" height="16" viewBox="0 0 16 16" fill="none" xmlns="http://www.w3.org/2000/svg">
<path d="M15.9998 8C15.9998 12.4194 12.4127 16 7.98685 16C4.31588 16 1.22556 13.5387 0.277175 10.1806L3.34814 11.4484C3.55459 12.4839 4.47395 13.2677 5.57072 13.2677C6.83524 13.2677 7.89008 12.2226 7.83524 10.8968L10.561 8.95484C12.2417 8.99677 13.6514 7.63548 13.6514 5.93871C13.6514 4.27419 12.2965 2.92258 10.6288 2.92258C8.96105 2.92258 7.60621 4.27742 7.60621 5.93871V5.97742L5.69653 8.74194C5.19653 8.7129 4.70621 8.85161 4.2933 9.13226L-0.000244141 7.35806C0.328788 3.23871 3.77718 0 7.98685 0C12.4127 0 15.9998 3.58065 15.9998 8ZM5.02234 12.1387L4.03847 11.7323C4.21926 12.1077 4.53144 12.4038 4.91588 12.5645C5.78363 12.9258 6.7804 12.5129 7.14169 11.6484C7.31588 11.229 7.31911 10.7677 7.14492 10.3484C6.97072 9.92903 6.64492 9.6 6.22556 9.42581C5.80943 9.25161 5.36427 9.25806 4.97072 9.40645L5.98685 9.82581C6.62556 10.0903 6.92879 10.8226 6.66105 11.4613C6.3933 12.1032 5.66105 12.4032 5.02234 12.1387V12.1387ZM10.6288 7.94839C9.51911 7.94839 8.61588 7.04516 8.61588 5.93871C8.61588 4.83226 9.51911 3.92903 10.6288 3.92903C11.7385 3.92903 12.6417 4.83226 12.6417 5.93871C12.6417 7.04516 11.7417 7.94839 10.6288 7.94839V7.94839ZM10.632 7.44516C11.4675 7.44516 12.1449 6.76774 12.1449 5.93548C12.1449 5.1 11.4675 4.42581 10.632 4.42581C9.79653 4.42581 9.11911 5.10323 9.11911 5.93548C9.12234 6.76774 9.79976 7.44516 10.632 7.44516Z" fill="url(#paint0_linear)"/>
<path d="M15.9998 8C15.9998 12.4194 12.4127 16 7.98685 16C4.31588 16 1.22556 13.5387 0.277175 10.1806L3.34814 11.4484C3.55459 12.4839 4.47395 13.2677 5.57072 13.2677C6.83524 13.2677 7.89008 12.2226 7.83524 10.8968L10.561 8.95484C12.2417 8.99677 13.6514 7.63548 13.6514 5.93871C13.6514 4.27419 12.2965 2.92258 10.6288 2.92258C8.96105 2.92258 7.60621 4.27742 7.60621 5.93871V5.97742L5.69653 8.74194C5.19653 8.7129 4.70621 8.85161 4.2933 9.13226L-0.000244141 7.35806C0.328788 3.23871 3.77718 0 7.98685 0C12.4127 0 15.9998 3.58065 15.9998 8ZM5.02234 12.1387L4.03847 11.7323C4.21926 12.1077 4.53144 12.4038 4.91588 12.5645C5.78363 12.9258 6.7804 12.5129 7.14169 11.6484C7.31588 11.229 7.31911 10.7677 7.14492 10.3484C6.97072 9.92903 6.64492 9.6 6.22556 9.42581C5.80943 9.25161 5.36427 9.25806 4.97072 9.40645L5.98685 9.82581C6.62556 10.0903 6.92879 10.8226 6.66105 11.4613C6.3933 12.1032 5.66105 12.4032 5.02234 12.1387V12.1387ZM10.6288 7.94839C9.51911 7.94839 8.61588 7.04516 8.61588 5.93871C8.61588 4.83226 9.51911 3.92903 10.6288 3.92903C11.7385 3.92903 12.6417 4.83226 12.6417 5.93871C12.6417 7.04516 11.7417 7.94839 10.6288 7.94839V7.94839ZM10.632 7.44516C11.4675 7.44516 12.1449 6.76774 12.1449 5.93548C12.1449 5.1 11.4675 4.42581 10.632 4.42581C9.79653 4.42581 9.11911 5.10323 9.11911 5.93548C9.12234 6.76774 9.79976 7.44516 10.632 7.44516Z" fill="white"/>
<defs>
<linearGradient id="paint0_linear" x1="-0.000244141" y1="0" x2="17.9601" y2="2.6343" gradientUnits="userSpaceOnUse">
<stop stop-color="#2E6FFF"/>
<stop offset="1" stop-color="#0076FE"/>
</linearGradient>
</defs>
</svg>
