<svg width="24" height="22" viewBox="0 0 24 22" fill="none" xmlns="http://www.w3.org/2000/svg">
<path fill-rule="evenodd" clip-rule="evenodd" d="M9 3.99988C9 2.89531 9.89543 1.99988 11 1.99988H13C14.1046 1.99988 15 2.89531 15 3.99988H9ZM7 3.99988C7 1.79074 8.79086 -0.00012207 11 -0.00012207H13C15.2091 -0.00012207 17 1.79074 17 3.99988H21C22.6569 3.99988 24 5.34302 24 6.99988V18.9999C24 20.6567 22.6569 21.9999 21 21.9999H3C1.34315 21.9999 0 20.6567 0 18.9999V6.99988C0 5.34302 1.34315 3.99988 3 3.99988H7ZM3 5.99988H21C21.5523 5.99988 22 6.44759 22 6.99988V14.3569H2V6.99988C2 6.44759 2.44772 5.99988 3 5.99988ZM2 16.3569V18.9999C2 19.5522 2.44772 19.9999 3 19.9999H21C21.5523 19.9999 22 19.5522 22 18.9999V16.3569H2ZM10 10.3569C10 9.80459 10.4477 9.35687 11 9.35687H13C13.5523 9.35687 14 9.80459 14 10.3569C14 10.9092 13.5523 11.3569 13 11.3569H11C10.4477 11.3569 10 10.9092 10 10.3569Z" fill="#3A3A5E"/>
</svg>
