<svg width="13" height="10" viewBox="0 0 13 10" fill="none" xmlns="http://www.w3.org/2000/svg">
<path d="M2.39658 1.15385C2.39658 1.79111 1.8601 2.30769 1.19829 2.30769C0.536484 2.30769 0 1.79111 0 1.15385C0 0.516587 0.536484 0 1.19829 0C1.8601 0 2.39658 0.516587 2.39658 1.15385ZM1.19829 3.84615C0.536484 3.84615 0 4.36274 0 5C0 5.63726 0.536484 6.15385 1.19829 6.15385C1.8601 6.15385 2.39658 5.63726 2.39658 5C2.39658 4.36274 1.8601 3.84615 1.19829 3.84615ZM1.19829 7.69231C0.536484 7.69231 0 8.20889 0 8.84615C0 9.48341 0.536484 10 1.19829 10C1.8601 10 2.39658 9.48341 2.39658 8.84615C2.39658 8.20889 1.8601 7.69231 1.19829 7.69231ZM3.59487 2.01923H12.3823C12.6029 2.01923 12.7818 1.84704 12.7818 1.63462V0.673077C12.7818 0.460649 12.6029 0.288462 12.3823 0.288462H3.59487C3.37426 0.288462 3.19544 0.460649 3.19544 0.673077V1.63462C3.19544 1.84704 3.37426 2.01923 3.59487 2.01923ZM3.59487 5.86538H12.3823C12.6029 5.86538 12.7818 5.6932 12.7818 5.48077V4.51923C12.7818 4.3068 12.6029 4.13462 12.3823 4.13462H3.59487C3.37426 4.13462 3.19544 4.3068 3.19544 4.51923V5.48077C3.19544 5.6932 3.37426 5.86538 3.59487 5.86538ZM3.59487 9.71154H12.3823C12.6029 9.71154 12.7818 9.53935 12.7818 9.32692V8.36539C12.7818 8.15296 12.6029 7.98077 12.3823 7.98077H3.59487C3.37426 7.98077 3.19544 8.15296 3.19544 8.36539V9.32692C3.19544 9.53935 3.37426 9.71154 3.59487 9.71154Z" fill="#868EBE"/>
</svg>
