<svg width="7" height="10" viewBox="0 0 7 10" fill="none" xmlns="http://www.w3.org/2000/svg">
<path d="M6.50815 5.53108L2.07263 9.77976C1.76606 10.0734 1.27032 10.0734 0.96701 9.77976L0.22993 9.07373C-0.0766433 8.78007 -0.0766433 8.30522 0.22993 8.01468L3.37393 5.00312L0.22993 1.99156C-0.0766433 1.69791 -0.0766433 1.22306 0.22993 0.932521L0.963748 0.220244C1.27032 -0.0734145 1.76606 -0.0734145 2.06937 0.220244L6.50489 4.46892C6.81473 4.76257 6.81473 5.23743 6.50815 5.53108Z" fill="#3B498B"/>
<path d="M6.50815 5.53108L2.07263 9.77976C1.76606 10.0734 1.27032 10.0734 0.96701 9.77976L0.22993 9.07373C-0.0766433 8.78007 -0.0766433 8.30522 0.22993 8.01468L3.37393 5.00312L0.22993 1.99156C-0.0766433 1.69791 -0.0766433 1.22306 0.22993 0.932521L0.963748 0.220244C1.27032 -0.0734145 1.76606 -0.0734145 2.06937 0.220244L6.50489 4.46892C6.81473 4.76257 6.81473 5.23743 6.50815 5.53108Z" fill="url(#paint0_linear)"/>
<defs>
<linearGradient id="paint0_linear" x1="0" y1="0" x2="14.3838" y2="2.74262" gradientUnits="userSpaceOnUse">
<stop stop-color="#8F46FF"/>
<stop offset="1" stop-color="#0076FE"/>
</linearGradient>
</defs>
</svg>
