<svg width="363" height="363" viewBox="0 0 363 363" fill="none" xmlns="http://www.w3.org/2000/svg"><g clip-path="url(#clip0)"><circle cx="181.428" cy="181.428" r="169.5" transform="rotate(46.835 181.428 181.428)" stroke="#2E255B"/><mask id="mask0" maskUnits="userSpaceOnUse" x="-75" y="-75" width="513" height="513"><circle cx="181.428" cy="181.428" r="180.5" transform="rotate(46.835 181.428 181.428)" fill="#F9F9F9" stroke="#fff"/></mask><g mask="url(#mask0)" stroke="#21134E" stroke-width="2"><path d="M13 265.255a188.628 188.628 0 01-7.87-18.312l161.137-58.408L13 265.255z" fill="#FF547C"/><path d="M165.586 186.655L4.449 245.063a188.545 188.545 0 01-5.692-19.102l166.829-39.306z" fill="#39305E"/><path d="M165.128 184.709L-1.701 224.016a188.583 188.583 0 01-3.435-19.634l170.264-19.673z" fill="#0A55F7"/><path d="M164.899 182.722L-5.365 202.395a188.56 188.56 0 01-1.133-19.899l171.397.226z" fill="#39305E"/><path d="M164.9 180.722l-171.397-.227c.044-6.648.44-13.289 1.185-19.896L164.9 180.722z" fill="#0A55F7"/><path d="M165.135 178.736L-5.076 158.613a188.561 188.561 0 013.487-19.624l166.724 39.747z" fill="#39305E"/><path d="M165.599 176.789L-1.125 137.041a188.516 188.516 0 015.742-19.086l160.982 58.834z" fill="#FF547C"/><path d="M166.286 174.91L5.303 116.076a188.557 188.557 0 017.919-18.29l153.064 77.124z" fill="#39305E"/><path d="M167.187 173.125L14.123 96a188.55 188.55 0 019.989-17.248l143.075 94.373z" fill="#FF547C"/><path d="M168.287 171.456L25.212 77.082c3.69-5.53 7.67-10.861 11.924-15.972l131.151 110.346z" fill="#39305E"/><path d="M169.575 169.926L38.423 59.581a188.56 188.56 0 0113.697-14.48l117.455 124.825z" fill="#FF547C"/><path d="M171.031 168.556L53.576 43.731c4.866-4.53 9.968-8.8 15.285-12.791l102.17 137.616z" fill="#39305E"/><path d="M172.636 167.364L70.467 29.747a188.577 188.577 0 0116.667-10.93l85.502 148.547z" fill="#0A55F7"/><path d="M174.37 166.365L88.868 17.818a188.616 188.616 0 0117.823-8.922l67.679 157.469z" fill="#35C076"/><path d="M176.209 165.576L108.531 8.106a188.602 188.602 0 0118.738-6.792l48.94 164.262z" fill="#0A55F7"/><path d="M178.126 165.005L129.186.743a188.636 188.636 0 0119.4-4.57l29.54 168.832z" fill="#39305E"/><path d="M180.096 164.66L150.557-4.172a188.572 188.572 0 0119.799-2.288l9.74 171.12z" fill="#FF547C"/><path d="M182.093 164.546l-9.74-171.12c6.64-.342 13.293-.333 19.932.027l-10.192 171.093z" fill="#39305E"/><path d="M184.089 164.665L194.281-6.428c6.635.43 13.242 1.211 19.794 2.34l-29.986 168.753z" fill="#FF547C"/><path d="M186.059 165.015L216.044-3.738A188.577 188.577 0 01235.433.884l-49.374 164.131z" fill="#39305E"/><path d="M237.348 1.46a188.69 188.69 0 0118.721 6.842L187.974 165.59 237.348 1.46z" fill="#FF547C"/><path d="M189.809 166.386l68.095-157.29a188.612 188.612 0 0117.8 8.97l-85.895 148.32z" fill="#39305E"/><path d="M191.54 167.388l85.894-148.32a188.557 188.557 0 0116.639 10.974L191.54 167.388z" fill="#0A55F7"/><path d="M193.143 168.585L295.675 31.239a188.484 188.484 0 0115.252 12.832L193.143 168.585z" fill="#39305E"/><path d="M194.595 169.959L312.38 45.445a188.723 188.723 0 0113.659 14.516L194.595 169.959z" fill="#0A55F7"/><path d="M195.879 171.493L327.322 61.495a188.405 188.405 0 0111.881 16.003l-143.324 93.995z" fill="#39305E"/><path d="M196.976 173.165L340.3 79.171a188.36 188.36 0 019.943 17.274l-153.267 76.72z" fill="#FF547C"/><path d="M351.139 98.234a188.752 188.752 0 017.87 18.312l-161.138 58.408 153.268-76.72z" fill="#39305E"/><path d="M198.552 176.834l161.138-58.408a188.395 188.395 0 015.691 19.101l-166.829 39.307z" fill="#FF547C"/><path d="M199.011 178.78l166.829-39.306a188.627 188.627 0 013.435 19.633L199.011 178.78z" fill="#39305E"/><path d="M199.239 180.769l170.264-19.673a188.724 188.724 0 011.133 19.899l-171.397-.226z" fill="#FF547C"/><path d="M199.237 182.767l171.396.227a188.441 188.441 0 01-1.185 19.896l-170.211-20.123z" fill="#39305E"/><path d="M199.002 184.751l170.211 20.123a188.274 188.274 0 01-3.487 19.624l-166.724-39.747z" fill="#0A55F7"/><path d="M365.263 226.446a188.855 188.855 0 01-5.742 19.087l-160.983-58.834 166.725 39.747z" fill="#39305E"/><path d="M197.851 188.578l160.982 58.834a188.56 188.56 0 01-7.918 18.291l-153.064-77.125z" fill="#0A55F7"/><path d="M196.953 190.364l153.064 77.125a188.393 188.393 0 01-9.989 17.248l-143.075-94.373z" fill="#39305E"/><path d="M195.85 192.033l143.075 94.374a188.454 188.454 0 01-11.924 15.972L195.85 192.033z" fill="#FF547C"/><path d="M194.562 193.563l131.152 110.346a188.66 188.66 0 01-13.698 14.479L194.562 193.563z" fill="#39305E"/><path d="M193.107 194.935L310.562 319.76c-4.867 4.53-9.969 8.8-15.286 12.791L193.107 194.935z" fill="#FF547C"/><path d="M191.501 196.126L293.67 333.743a188.539 188.539 0 01-16.667 10.93l-85.502-148.547z" fill="#39305E"/><path d="M189.767 197.124l85.502 148.548a188.38 188.38 0 01-17.824 8.921l-67.678-157.469z" fill="#FF547C"/><path d="M187.93 197.914l67.678 157.469a188.772 188.772 0 01-18.738 6.792l-48.94-164.261z" fill="#39305E"/><path d="M186.012 198.485l48.94 164.262a188.837 188.837 0 01-19.4 4.571l-29.54-168.833z" fill="#FF547C"/><path d="M184.042 198.829l29.539 168.832a188.588 188.588 0 01-19.8 2.288l-9.739-171.12z" fill="#39305E"/><path d="M182.047 198.943l9.739 171.12c-6.64.343-13.293.334-19.931-.026l10.192-171.094z" fill="#FF547C"/><path d="M180.05 198.825l-10.192 171.093a188.261 188.261 0 01-19.794-2.34l29.986-168.753z" fill="#39305E"/><path d="M146.145 366.859a187.98 187.98 0 01-15.533-3.703 1.962 1.962 0 01-1.33-2.464l48.799-162.218-29.637 166.787a1.963 1.963 0 01-2.299 1.598z" fill="#FEC400"/><path d="M178.081 198.474l-29.986 168.753a188.733 188.733 0 01-19.389-4.622l49.375-164.131z" fill="#0A55F7"/><path d="M176.164 197.897L126.79 362.029a188.593 188.593 0 01-18.72-6.842l68.094-157.29z" fill="#39305E"/><path d="M174.33 197.104l-68.095 157.29a188.737 188.737 0 01-17.8-8.969l85.895-148.321z" fill="#0A55F7"/><path d="M172.597 196.102L86.703 344.423a188.481 188.481 0 01-16.639-10.975l102.533-137.346z" fill="#39305E"/><path d="M170.997 194.905L68.465 332.251a188.316 188.316 0 01-15.252-12.832l117.784-124.514z" fill="#FF547C"/><path d="M169.544 193.531L51.76 318.045a188.492 188.492 0 01-13.66-14.516l131.443-109.998z" fill="#39305E"/><path d="M168.261 191.998L36.818 301.996a188.413 188.413 0 01-11.882-16.004l143.325-93.994z" fill="#FF547C"/><path d="M167.163 190.326L23.839 284.32a188.651 188.651 0 01-9.943-17.274l153.267-76.72z" fill="#39305E"/></g><path d="M351 181c0 93.888-76.112 170-170 170S11 274.888 11 181 87.112 11 181 11s170 76.112 170 170z" fill="#16163A"/><g filter="url(#filter0_d)"><circle cx="181.428" cy="181.427" r="145.5" stroke="#262649"/></g><circle cx="181.428" cy="181.427" r="101" fill="#1C1C40"/></g><defs><clipPath id="clip0"><path fill="#fff" d="M0 0h363v363H0z"/></clipPath><filter id="filter0_d" x="-64.572" y="-64.573" width="492" height="492" filterUnits="userSpaceOnUse" color-interpolation-filters="sRGB"><feFlood flood-opacity="0" result="BackgroundImageFix"/><feColorMatrix in="SourceAlpha" values="0 0 0 0 0 0 0 0 0 0 0 0 0 0 0 0 0 0 127 0"/><feOffset/><feGaussianBlur stdDeviation="50"/><feColorMatrix values="0 0 0 0 0 0 0 0 0 0.462745 0 0 0 0 0.996078 0 0 0 1 0"/><feBlend in2="BackgroundImageFix" result="effect1_dropShadow"/><feBlend in="SourceGraphic" in2="effect1_dropShadow" result="shape"/></filter></defs></svg>