<svg width="29" height="22" viewBox="0 0 29 22" fill="none" xmlns="http://www.w3.org/2000/svg">
<path fill-rule="evenodd" clip-rule="evenodd" d="M20 16C20 14.0118 21.3431 12.4 23 12.4C24.3703 12.4 25.5261 13.5025 25.8848 15.0087C26.0128 15.5459 26.4477 16 27 16C27.5523 16 28.0075 15.5498 27.9313 15.0028C27.5355 12.1637 25.4783 10 23 10C20.2386 10 18 12.6863 18 16V18H20V16Z" fill="#3A3A5E"/>
<path fill-rule="evenodd" clip-rule="evenodd" d="M20.2422 9.17048C21.0329 9.69469 21.9814 10 23.0012 10C25.7627 10 28.0012 7.76142 28.0012 5C28.0012 2.23858 25.7627 0 23.0012 0C21.5834 0 20.3035 0.59011 19.3936 1.53812C19.845 2.08327 20.2154 2.698 20.4863 3.36382C21.0215 2.54275 21.948 2 23.0012 2C24.6581 2 26.0012 3.34315 26.0012 5C26.0012 6.65685 24.6581 8 23.0012 8C22.1861 8 21.4468 7.67486 20.9061 7.14718C20.7879 7.86421 20.5607 8.5445 20.2422 9.17048Z" fill="#3A3A5E"/>
<path fill-rule="evenodd" clip-rule="evenodd" d="M2.00098 5C2.00098 6.65683 3.34413 8 5.00104 8C5.7708 8 6.47284 7.7101 7.00394 7.23354C7.02857 7.98491 7.17162 8.70633 7.41502 9.37973C6.69935 9.77502 5.87647 10 5.00104 10C2.23958 10 0.000976804 7.76142 0.000976563 5C0.000976321 2.23858 2.23958 0 5.00104 0C6.66233 0 8.13438 0.810189 9.04364 2.057C8.52954 2.57249 8.09534 3.16771 7.76118 3.8225C7.30345 2.75096 6.23995 2 5.00104 2C3.34413 2 2.00098 3.34317 2.00098 5Z" fill="#3A3A5E"/>
<path fill-rule="evenodd" clip-rule="evenodd" d="M11.6377 12.5914C9.67054 13.5603 8 15.618 8 18V20.998C8 21.5514 8.44861 22 9.002 22C9.55539 22 10.004 21.5514 10.004 20.998V18C10.004 16.0118 12.3398 14.4 14 14.4C15.6602 14.4 17.996 16.0118 17.996 18V20.998C17.996 21.5514 18.4446 22 18.998 22C19.5514 22 20 21.5514 20 20.998V18C20 15.618 18.3295 13.5603 16.3623 12.5914C15.6243 12.8559 14.829 13 14 13C13.171 13 12.3757 12.8559 11.6377 12.5914Z" fill="#3A3A5E"/>
<path d="M5 12.4C6.65685 12.4 8 14.0118 8 16H10C10 12.6863 7.76142 10 5 10C2.5217 10 0.464525 12.1637 0.0687456 15.0028C-0.00750828 15.5498 0.447715 16 1 16C1.55228 16 1.98721 15.5459 2.11518 15.0087C2.47394 13.5025 3.62968 12.4 5 12.4Z" fill="#3A3A5E"/>
<path d="M8 16H10V18H8V16Z" fill="#3A3A5E"/>
<path d="M14 14.4C12.3398 14.4 10.004 16.0118 10.004 18H8C8 14.6863 11.233 12 14 12C16.767 12 20 14.6863 20 18H17.996C17.996 16.0118 15.6602 14.4 14 14.4Z" fill="#3A3A5E"/>
<path d="M10.004 18H8V20.998C8 21.5514 8.44861 22 9.002 22C9.55539 22 10.004 21.5514 10.004 20.998V18Z" fill="#3A3A5E"/>
<path d="M20 18H17.996V20.998C17.996 21.5514 18.4446 22 18.998 22C19.5514 22 20 21.5514 20 20.998V18Z" fill="#3A3A5E"/>
<path d="M10.0004 7C10.0004 9.20913 11.7912 11 14.0004 11C16.2096 11 18.0005 9.20913 18.0005 7C18.0005 4.79087 16.2096 3 14.0004 3C11.7912 3 10.0004 4.79087 10.0004 7Z" stroke="#3A3A5E" stroke-width="2"/>
</svg>
