<svg width="18" height="16" viewBox="0 0 18 16" fill="none" xmlns="http://www.w3.org/2000/svg">
<path d="M14.0046 7.06065L8.04541 0.439343C7.79224 0.158038 7.44886 2.08024e-06 7.09082 0H1.35C0.604406 0 0 0.671561 0 1.5V7.87868C1.87222e-06 8.2765 0.142235 8.65803 0.39541 8.93933L6.35459 15.5606C6.88177 16.1464 7.73654 16.1464 8.26377 15.5606L14.0046 9.18196C14.5318 8.59617 14.5318 7.64643 14.0046 7.06065ZM3.15 4.99999C2.40441 4.99999 1.8 4.32843 1.8 3.49999C1.8 2.67156 2.40441 2 3.15 2C3.8956 2 4.5 2.67156 4.5 3.49999C4.5 4.32843 3.8956 4.99999 3.15 4.99999ZM17.6046 9.18196L11.8638 15.5606C11.3366 16.1464 10.4818 16.1464 9.95459 15.5606L9.94447 15.5494L14.8399 10.11C15.318 9.57883 15.5813 8.87255 15.5813 8.1213C15.5813 7.37005 15.318 6.66377 14.8399 6.13255L9.32054 0H10.6908C11.0489 2.08024e-06 11.3922 0.158038 11.6454 0.439343L17.6046 7.06065C18.1318 7.64643 18.1318 8.59617 17.6046 9.18196Z" fill="#868EBE"/>
</svg>
